<?xml version="1.0" encoding="UTF-8" standalone="no"?>
<svg
   version="1.1"
   width="1440"
   height="560"
   preserveAspectRatio="none"
   viewBox="0 0 1440 560"
   id="svg766"
   xmlns:xlink="http://www.w3.org/1999/xlink"
   xmlns="http://www.w3.org/2000/svg"
   xmlns:svg="http://www.w3.org/2000/svg">
  <defs
      id="defs764">
    <mask
        id="SvgjsMask1000">
      <rect
          width="1440"
          height="560"
          fill="#ffffff"
          id="rect754"
          x="0"
          y="0" />
    </mask>
    <radialGradient
        id="SvgjsRadialGradient1001">
      <stop
          stop-color="#ffffff"
          offset="0.1"
          id="stop757" />
      <stop
          stop-color="#1735b3"
          offset="0.2"
          id="stop759" />
      <stop
          stop-color="rgba(23, 53, 179, 0)"
          offset="1"
          id="stop761" />
    </radialGradient>
    <radialGradient
        xlink:href="#SvgjsRadialGradient1001"
        id="radialGradient1773"
        cx="540.62"
        cy="562.10999"
        fx="540.62"
        fy="562.10999"
        r="25"
        gradientUnits="userSpaceOnUse" />
    <radialGradient
        xlink:href="#SvgjsRadialGradient1001"
        id="radialGradient1775"
        cx="537.79999"
        cy="660.21002"
        fx="537.79999"
        fy="660.21002"
        r="25"
        gradientUnits="userSpaceOnUse" />
    <radialGradient
        xlink:href="#SvgjsRadialGradient1001"
        id="radialGradient1777"
        cx="955.92999"
        cy="359.78"
        fx="955.92999"
        fy="359.78"
        r="25"
        gradientUnits="userSpaceOnUse" />
    <radialGradient
        xlink:href="#SvgjsRadialGradient1001"
        id="radialGradient1779"
        cx="996.17999"
        cy="490.87"
        fx="996.17999"
        fy="490.87"
        r="25"
        gradientUnits="userSpaceOnUse" />
    <radialGradient
        xlink:href="#SvgjsRadialGradient1001"
        id="radialGradient1781"
        cx="1141.37"
        cy="239.78"
        fx="1141.37"
        fy="239.78"
        r="25"
        gradientUnits="userSpaceOnUse" />
    <radialGradient
        xlink:href="#SvgjsRadialGradient1001"
        id="radialGradient1783"
        cx="1150.25"
        cy="551.02002"
        fx="1150.25"
        fy="551.02002"
        r="25"
        gradientUnits="userSpaceOnUse" />
    <radialGradient
        xlink:href="#SvgjsRadialGradient1001"
        id="radialGradient1785"
        cx="1292.42"
        cy="356.38"
        fx="1292.42"
        fy="356.38"
        r="25"
        gradientUnits="userSpaceOnUse" />
    <radialGradient
        xlink:href="#SvgjsRadialGradient1001"
        id="radialGradient1787"
        cx="1287.22"
        cy="670.48999"
        fx="1287.22"
        fy="670.48999"
        r="25"
        gradientUnits="userSpaceOnUse" />
    <radialGradient
        xlink:href="#SvgjsRadialGradient1001"
        id="radialGradient1789"
        cx="1438.4"
        cy="-102.78"
        fx="1438.4"
        fy="-102.78"
        r="25"
        gradientUnits="userSpaceOnUse" />
    <radialGradient
        xlink:href="#SvgjsRadialGradient1001"
        id="radialGradient1791"
        cx="1426.92"
        cy="234.46001"
        fx="1426.92"
        fy="234.46001"
        r="25"
        gradientUnits="userSpaceOnUse" />
    <radialGradient
        xlink:href="#SvgjsRadialGradient1001"
        id="radialGradient1793"
        cx="1403.5"
        cy="520.64001"
        fx="1403.5"
        fy="520.64001"
        r="25"
        gradientUnits="userSpaceOnUse" />
    <radialGradient
        xlink:href="#SvgjsRadialGradient1001"
        id="radialGradient1795"
        cx="1391.4"
        cy="701.71997"
        fx="1391.4"
        fy="701.71997"
        r="25"
        gradientUnits="userSpaceOnUse" />
    <radialGradient
        xlink:href="#SvgjsRadialGradient1001"
        id="radialGradient1797"
        cx="1601.6"
        cy="340.35001"
        fx="1601.6"
        fy="340.35001"
        r="25"
        gradientUnits="userSpaceOnUse" />
    <radialGradient
        xlink:href="#SvgjsRadialGradient1001"
        id="radialGradient1799"
        cx="1577.35"
        cy="500.79999"
        fx="1577.35"
        fy="500.79999"
        r="25"
        gradientUnits="userSpaceOnUse" />
  </defs>
  <g
     mask="url(#SvgjsMask1000)"
     fill="none"
     id="g752">
    <rect
       width="1440"
       height="560"
       x="0"
       y="0"
       fill="#0e2a47"
       id="rect2" />
    <path
       d="m -38.3,490.09 v 0"
       stroke="#132e65"
       stroke-width="1.5"
       id="path4" />
    <path
       d="M -38.3,490.09 76.91,519.72"
       stroke="#132e65"
       stroke-width="1.5"
       id="path6" />
    <path
       d="M -38.3,490.09 94.27,408.77"
       stroke="#132e65"
       stroke-width="1.5"
       id="path8" />
    <path
       d="m -38.3,490.09 -2.55,218.79"
       stroke="#132e65"
       stroke-width="1.5"
       id="path10" />
    <path
       d="M -38.3,490.09 64.69,701.29"
       stroke="#132e65"
       stroke-width="1.5"
       id="path12" />
    <path
       d="m -40.85,708.88 v 0"
       stroke="#132e65"
       stroke-width="1.5"
       id="path14" />
    <path
       d="M -40.85,708.88 64.69,701.29"
       stroke="#132e65"
       stroke-width="1.5"
       id="path16" />
    <path
       d="m 94.27,408.77 v 0"
       stroke="#132e65"
       stroke-width="1.5"
       id="path18" />
    <path
       d="M 94.27,408.77 76.91,519.72"
       stroke="#132e65"
       stroke-width="1.5"
       id="path20" />
    <path
       d="m 94.27,408.77 95.77,-58.8"
       stroke="#132e65"
       stroke-width="1.5"
       id="path22" />
    <path
       d="M 94.27,408.77 217.95,559.96"
       stroke="#132e65"
       stroke-width="1.5"
       id="path24" />
    <path
       d="M 94.27,408.77 355.98,363.79"
       stroke="#132e65"
       stroke-width="1.5"
       id="path26" />
    <path
       d="m 76.91,519.72 v 0"
       stroke="#132e65"
       stroke-width="1.5"
       id="path28" />
    <path
       d="m 76.91,519.72 141.04,40.24"
       stroke="#132e65"
       stroke-width="1.5"
       id="path30" />
    <path
       d="M 76.91,519.72 64.69,701.29"
       stroke="#132e65"
       stroke-width="1.5"
       id="path32" />
    <path
       d="m 64.69,701.29 v 0"
       stroke="#132e65"
       stroke-width="1.5"
       id="path34" />
    <path
       d="M 64.69,701.29 221.54,671.64"
       stroke="#132e65"
       stroke-width="1.5"
       id="path36" />
    <path
       d="m 190.04,349.97 v 0"
       stroke="#132e65"
       stroke-width="1.5"
       id="path38" />
    <path
       d="m 190.04,349.97 165.94,13.82"
       stroke="#132e65"
       stroke-width="1.5"
       id="path40" />
    <path
       d="M 190.04,349.97 76.91,519.72"
       stroke="#132e65"
       stroke-width="1.5"
       id="path42" />
    <path
       d="m 217.95,559.96 v 0"
       stroke="#132e65"
       stroke-width="1.5"
       id="path44" />
    <path
       d="m 217.95,559.96 3.59,111.68"
       stroke="#132e65"
       stroke-width="1.5"
       id="path46" />
    <path
       d="m 217.95,559.96 159.99,-0.43"
       stroke="#132e65"
       stroke-width="1.5"
       id="path48" />
    <path
       d="m 221.54,671.64 v 0"
       stroke="#132e65"
       stroke-width="1.5"
       id="path50" />
    <path
       d="m 355.98,363.79 v 0"
       stroke="#132e65"
       stroke-width="1.5"
       id="path52" />
    <path
       d="m 355.98,363.79 160.55,47.13"
       stroke="#132e65"
       stroke-width="1.5"
       id="path54" />
    <path
       d="m 355.98,363.79 21.96,195.74"
       stroke="#132e65"
       stroke-width="1.5"
       id="path56" />
    <path
       d="M 355.98,363.79 217.95,559.96"
       stroke="#132e65"
       stroke-width="1.5"
       id="path58" />
    <path
       d="m 355.98,363.79 32.5,297"
       stroke="#132e65"
       stroke-width="1.5"
       id="path60" />
    <path
       d="m 377.94,559.53 v 0"
       stroke="#132e65"
       stroke-width="1.5"
       id="path62" />
    <path
       d="m 377.94,559.53 10.54,101.26"
       stroke="#132e65"
       stroke-width="1.5"
       id="path64" />
    <path
       d="M 377.94,559.53 511.73,686.01"
       stroke="#132e65"
       stroke-width="1.5"
       id="path66" />
    <path
       d="m 388.48,660.79 v 0"
       stroke="#132e65"
       stroke-width="1.5"
       id="path68" />
    <path
       d="m 388.48,660.79 123.25,25.22"
       stroke="#132e65"
       stroke-width="1.5"
       id="path70" />
    <path
       d="M 388.48,660.79 221.54,671.64"
       stroke="#132e65"
       stroke-width="1.5"
       id="path72" />
    <path
       d="M 388.48,660.79 217.95,559.96"
       stroke="#132e65"
       stroke-width="1.5"
       id="path74" />
    <path
       d="m 516.53,410.92 v 0"
       stroke="#132e65"
       stroke-width="1.5"
       id="path76" />
    <path
       d="M 516.53,410.92 671.57,394.84"
       stroke="#132e65"
       stroke-width="1.5"
       id="path78" />
    <path
       d="M 516.53,410.92 377.94,559.53"
       stroke="#132e65"
       stroke-width="1.5"
       id="path80" />
    <path
       d="m 516.53,410.92 173.4,149.95"
       stroke="#132e65"
       stroke-width="1.5"
       id="path82" />
    <path
       d="m 511.73,686.01 v 0"
       stroke="#132e65"
       stroke-width="1.5"
       id="path84" />
    <path
       d="m 511.73,686.01 139.96,15.01"
       stroke="#132e65"
       stroke-width="1.5"
       id="path86" />
    <path
       d="M 511.73,686.01 689.93,560.87"
       stroke="#132e65"
       stroke-width="1.5"
       id="path88" />
    <path
       d="m 692.6,222.55 v 0"
       stroke="#132e65"
       stroke-width="1.5"
       id="path90" />
    <path
       d="m 692.6,222.55 153.57,10.28"
       stroke="#132e65"
       stroke-width="1.5"
       id="path92" />
    <path
       d="M 692.6,222.55 671.57,394.84"
       stroke="#132e65"
       stroke-width="1.5"
       id="path94" />
    <path
       d="M 692.6,222.55 816.9,352.31"
       stroke="#132e65"
       stroke-width="1.5"
       id="path96" />
    <path
       d="M 692.6,222.55 516.53,410.92"
       stroke="#132e65"
       stroke-width="1.5"
       id="path98" />
    <path
       d="m 671.57,394.84 v 0"
       stroke="#132e65"
       stroke-width="1.5"
       id="path100" />
    <path
       d="M 671.57,394.84 816.9,352.31"
       stroke="#132e65"
       stroke-width="1.5"
       id="path102" />
    <path
       d="m 689.93,560.87 v 0"
       stroke="#132e65"
       stroke-width="1.5"
       id="path104" />
    <path
       d="m 689.93,560.87 99.75,84.26"
       stroke="#132e65"
       stroke-width="1.5"
       id="path106" />
    <path
       d="M 689.93,560.87 651.69,701.02"
       stroke="#132e65"
       stroke-width="1.5"
       id="path108" />
    <path
       d="M 689.93,560.87 671.57,394.84"
       stroke="#132e65"
       stroke-width="1.5"
       id="path110" />
    <path
       d="m 651.69,701.02 v 0"
       stroke="#132e65"
       stroke-width="1.5"
       id="path112" />
    <path
       d="M 651.69,701.02 789.68,645.13"
       stroke="#132e65"
       stroke-width="1.5"
       id="path114" />
    <path
       d="M 651.69,701.02 388.48,660.79"
       stroke="#132e65"
       stroke-width="1.5"
       id="path116" />
    <path
       d="m 846.17,232.83 v 0"
       stroke="#132e65"
       stroke-width="1.5"
       id="path118" />
    <path
       d="M 846.17,232.83 959.15,243.5"
       stroke="#132e65"
       stroke-width="1.5"
       id="path120" />
    <path
       d="M 846.17,232.83 816.9,352.31"
       stroke="#132e65"
       stroke-width="1.5"
       id="path122" />
    <path
       d="M 846.17,232.83 974.44,349.58"
       stroke="#132e65"
       stroke-width="1.5"
       id="path124" />
    <path
       d="m 816.9,352.31 v 0"
       stroke="#132e65"
       stroke-width="1.5"
       id="path126" />
    <path
       d="m 816.9,352.31 157.54,-2.73"
       stroke="#132e65"
       stroke-width="1.5"
       id="path128" />
    <path
       d="M 816.9,352.31 959.15,243.5"
       stroke="#132e65"
       stroke-width="1.5"
       id="path130" />
    <path
       d="m 789.68,645.13 v 0"
       stroke="#132e65"
       stroke-width="1.5"
       id="path132" />
    <path
       d="m 789.68,645.13 198.89,15.85"
       stroke="#132e65"
       stroke-width="1.5"
       id="path134" />
    <path
       d="M 789.68,645.13 961.93,513.99"
       stroke="#132e65"
       stroke-width="1.5"
       id="path136" />
    <path
       d="M 789.68,645.13 671.57,394.84"
       stroke="#132e65"
       stroke-width="1.5"
       id="path138" />
    <path
       d="M 789.68,645.13 511.73,686.01"
       stroke="#132e65"
       stroke-width="1.5"
       id="path140" />
    <path
       d="m 941.98,-87.38 v 0"
       stroke="#132e65"
       stroke-width="1.5"
       id="path142" />
    <path
       d="m 941.98,-87.38 179.75,28.22"
       stroke="#132e65"
       stroke-width="1.5"
       id="path144" />
    <path
       d="M 941.98,-87.38 1138.34,76.55"
       stroke="#132e65"
       stroke-width="1.5"
       id="path146" />
    <path
       d="M 941.98,-87.38 959.15,243.5"
       stroke="#132e65"
       stroke-width="1.5"
       id="path148" />
    <path
       d="M 941.98,-87.38 846.17,232.83"
       stroke="#132e65"
       stroke-width="1.5"
       id="path150" />
    <path
       d="m 941.98,-87.38 191.74,300.12"
       stroke="#132e65"
       stroke-width="1.5"
       id="path152" />
    <path
       d="M 941.98,-87.38 692.6,222.55"
       stroke="#132e65"
       stroke-width="1.5"
       id="path154" />
    <path
       d="m 959.15,243.5 v 0"
       stroke="#132e65"
       stroke-width="1.5"
       id="path156" />
    <path
       d="m 959.15,243.5 15.29,106.08"
       stroke="#132e65"
       stroke-width="1.5"
       id="path158" />
    <path
       d="m 959.15,243.5 174.57,-30.76"
       stroke="#132e65"
       stroke-width="1.5"
       id="path160" />
    <path
       d="m 974.44,349.58 v 0"
       stroke="#132e65"
       stroke-width="1.5"
       id="path162" />
    <path
       d="m 961.93,513.99 v 0"
       stroke="#132e65"
       stroke-width="1.5"
       id="path164" />
    <path
       d="m 961.93,513.99 26.64,146.99"
       stroke="#132e65"
       stroke-width="1.5"
       id="path166" />
    <path
       d="M 961.93,513.99 974.44,349.58"
       stroke="#132e65"
       stroke-width="1.5"
       id="path168" />
    <path
       d="m 988.57,660.98 v 0"
       stroke="#132e65"
       stroke-width="1.5"
       id="path170" />
    <path
       d="m 988.57,660.98 145.48,51.26"
       stroke="#132e65"
       stroke-width="1.5"
       id="path172" />
    <path
       d="m 1121.73,-59.16 v 0"
       stroke="#132e65"
       stroke-width="1.5"
       id="path174" />
    <path
       d="m 1121.73,-59.16 16.61,135.71"
       stroke="#132e65"
       stroke-width="1.5"
       id="path176" />
    <path
       d="M 1121.73,-59.16 1304.72,81.03"
       stroke="#132e65"
       stroke-width="1.5"
       id="path178" />
    <path
       d="m 1121.73,-59.16 11.99,271.9"
       stroke="#132e65"
       stroke-width="1.5"
       id="path180" />
    <path
       d="m 1121.73,-59.16 330.69,16.37"
       stroke="#132e65"
       stroke-width="1.5"
       id="path182" />
    <path
       d="m 1138.34,76.55 v 0"
       stroke="#132e65"
       stroke-width="1.5"
       id="path184" />
    <path
       d="m 1138.34,76.55 -4.62,136.19"
       stroke="#132e65"
       stroke-width="1.5"
       id="path186" />
    <path
       d="m 1138.34,76.55 166.38,4.48"
       stroke="#132e65"
       stroke-width="1.5"
       id="path188" />
    <path
       d="m 1138.34,76.55 134.31,169.67"
       stroke="#132e65"
       stroke-width="1.5"
       id="path190" />
    <path
       d="M 1138.34,76.55 959.15,243.5"
       stroke="#132e65"
       stroke-width="1.5"
       id="path192" />
    <path
       d="m 1133.72,212.74 v 0"
       stroke="#132e65"
       stroke-width="1.5"
       id="path194" />
    <path
       d="m 1133.72,212.74 4.7,133.71"
       stroke="#132e65"
       stroke-width="1.5"
       id="path196" />
    <path
       d="m 1138.42,346.45 v 0"
       stroke="#132e65"
       stroke-width="1.5"
       id="path198" />
    <path
       d="m 1138.42,346.45 6.25,143.45"
       stroke="#132e65"
       stroke-width="1.5"
       id="path200" />
    <path
       d="m 1138.42,346.45 -163.98,3.13"
       stroke="#132e65"
       stroke-width="1.5"
       id="path202" />
    <path
       d="M 1138.42,346.45 1272.65,246.22"
       stroke="#132e65"
       stroke-width="1.5"
       id="path204" />
    <path
       d="m 1138.42,346.45 172.99,56.4"
       stroke="#132e65"
       stroke-width="1.5"
       id="path206" />
    <path
       d="M 1138.42,346.45 959.15,243.5"
       stroke="#132e65"
       stroke-width="1.5"
       id="path208" />
    <path
       d="m 1144.67,489.9 v 0"
       stroke="#132e65"
       stroke-width="1.5"
       id="path210" />
    <path
       d="m 1144.67,489.9 112.46,63.15"
       stroke="#132e65"
       stroke-width="1.5"
       id="path212" />
    <path
       d="M 1144.67,489.9 961.93,513.99"
       stroke="#132e65"
       stroke-width="1.5"
       id="path214" />
    <path
       d="m 1134.05,712.24 v 0"
       stroke="#132e65"
       stroke-width="1.5"
       id="path216" />
    <path
       d="M 1134.05,712.24 1253,651.12"
       stroke="#132e65"
       stroke-width="1.5"
       id="path218" />
    <path
       d="M 1134.05,712.24 1257.13,553.05"
       stroke="#132e65"
       stroke-width="1.5"
       id="path220" />
    <path
       d="M 1134.05,712.24 1144.67,489.9"
       stroke="#132e65"
       stroke-width="1.5"
       id="path222" />
    <path
       d="M 1134.05,712.24 961.93,513.99"
       stroke="#132e65"
       stroke-width="1.5"
       id="path224" />
    <path
       d="m 1304.72,81.03 v 0"
       stroke="#132e65"
       stroke-width="1.5"
       id="path226" />
    <path
       d="M 1304.72,81.03 1438.23,59.48"
       stroke="#132e65"
       stroke-width="1.5"
       id="path228" />
    <path
       d="m 1272.65,246.22 v 0"
       stroke="#132e65"
       stroke-width="1.5"
       id="path230" />
    <path
       d="M 1272.65,246.22 1133.72,212.74"
       stroke="#132e65"
       stroke-width="1.5"
       id="path232" />
    <path
       d="m 1272.65,246.22 38.76,156.63"
       stroke="#132e65"
       stroke-width="1.5"
       id="path234" />
    <path
       d="m 1311.41,402.85 v 0"
       stroke="#132e65"
       stroke-width="1.5"
       id="path236" />
    <path
       d="m 1311.41,402.85 -54.28,150.2"
       stroke="#132e65"
       stroke-width="1.5"
       id="path238" />
    <path
       d="m 1257.13,553.05 v 0"
       stroke="#132e65"
       stroke-width="1.5"
       id="path240" />
    <path
       d="M 1257.13,553.05 1253,651.12"
       stroke="#132e65"
       stroke-width="1.5"
       id="path242" />
    <path
       d="m 1257.13,553.05 145.47,98.38"
       stroke="#132e65"
       stroke-width="1.5"
       id="path244" />
    <path
       d="m 1257.13,553.05 192.72,-13.21"
       stroke="#132e65"
       stroke-width="1.5"
       id="path246" />
    <path
       d="m 1253,651.12 v 0"
       stroke="#132e65"
       stroke-width="1.5"
       id="path248" />
    <path
       d="m 1253,651.12 149.6,0.31"
       stroke="#132e65"
       stroke-width="1.5"
       id="path250" />
    <path
       d="M 1253,651.12 1144.67,489.9"
       stroke="#132e65"
       stroke-width="1.5"
       id="path252" />
    <path
       d="M 1253,651.12 1449.85,539.84"
       stroke="#132e65"
       stroke-width="1.5"
       id="path254" />
    <path
       d="m 1452.42,-42.79 v 0"
       stroke="#132e65"
       stroke-width="1.5"
       id="path256" />
    <path
       d="M 1452.42,-42.79 1438.23,59.48"
       stroke="#132e65"
       stroke-width="1.5"
       id="path258" />
    <path
       d="m 1452.42,-42.79 101.02,-66.06"
       stroke="#132e65"
       stroke-width="1.5"
       id="path260" />
    <path
       d="m 1452.42,-42.79 94.63,89.68"
       stroke="#132e65"
       stroke-width="1.5"
       id="path262" />
    <path
       d="M 1452.42,-42.79 1304.72,81.03"
       stroke="#132e65"
       stroke-width="1.5"
       id="path264" />
    <path
       d="m 1438.23,59.48 v 0"
       stroke="#132e65"
       stroke-width="1.5"
       id="path266" />
    <path
       d="m 1449.85,539.84 v 0"
       stroke="#132e65"
       stroke-width="1.5"
       id="path268" />
    <path
       d="M 1449.85,539.84 1402.6,651.43"
       stroke="#132e65"
       stroke-width="1.5"
       id="path270" />
    <path
       d="m 1449.85,539.84 140.08,-35.57"
       stroke="#132e65"
       stroke-width="1.5"
       id="path272" />
    <path
       d="m 1449.85,539.84 152.43,108.11"
       stroke="#132e65"
       stroke-width="1.5"
       id="path274" />
    <path
       d="m 1402.6,651.43 v 0"
       stroke="#132e65"
       stroke-width="1.5"
       id="path276" />
    <path
       d="m 1553.44,-108.85 v 0"
       stroke="#132e65"
       stroke-width="1.5"
       id="path278" />
    <path
       d="m 1553.44,-108.85 -6.39,155.74"
       stroke="#132e65"
       stroke-width="1.5"
       id="path280" />
    <path
       d="M 1553.44,-108.85 1438.23,59.48"
       stroke="#132e65"
       stroke-width="1.5"
       id="path282" />
    <path
       d="m 1547.05,46.89 v 0"
       stroke="#132e65"
       stroke-width="1.5"
       id="path284" />
    <path
       d="M 1547.05,46.89 1438.23,59.48"
       stroke="#132e65"
       stroke-width="1.5"
       id="path286" />
    <path
       d="m 1547.05,46.89 3.08,213.48"
       stroke="#132e65"
       stroke-width="1.5"
       id="path288" />
    <path
       d="M 1547.05,46.89 1304.72,81.03"
       stroke="#132e65"
       stroke-width="1.5"
       id="path290" />
    <path
       d="m 1550.13,260.37 v 0"
       stroke="#132e65"
       stroke-width="1.5"
       id="path292" />
    <path
       d="M 1550.13,260.37 1438.23,59.48"
       stroke="#132e65"
       stroke-width="1.5"
       id="path294" />
    <path
       d="m 1550.13,260.37 39.8,243.9"
       stroke="#132e65"
       stroke-width="1.5"
       id="path296" />
    <path
       d="m 1589.93,504.27 v 0"
       stroke="#132e65"
       stroke-width="1.5"
       id="path298" />
    <path
       d="m 1589.93,504.27 12.35,143.68"
       stroke="#132e65"
       stroke-width="1.5"
       id="path300" />
    <path
       d="m 1602.28,647.95 v 0"
       stroke="#132e65"
       stroke-width="1.5"
       id="path302" />
    <path
       d="m 1602.28,647.95 -199.68,3.48"
       stroke="#132e65"
       stroke-width="1.5"
       id="path304" />
    <path
       d="M 1602.28,647.95 1253,651.12"
       stroke="#132e65"
       stroke-width="1.5"
       id="path306" />
    <path
       d="m 1602.28,647.95 -345.15,-94.9"
       stroke="#132e65"
       stroke-width="1.5"
       id="path308" />
    <path
       d="M 1602.28,647.95 1311.41,402.85"
       stroke="#132e65"
       stroke-width="1.5"
       id="path310" />
    <circle
       r="5"
       cx="-38.299999"
       cy="490.09"
       fill="#132e65"
       id="circle312" />
    <circle
       r="5"
       cx="-40.849998"
       cy="708.88"
       fill="#132e65"
       id="circle314" />
    <circle
       r="5"
       cx="94.269997"
       cy="408.76999"
       fill="#132e65"
       id="circle316" />
    <circle
       r="5"
       cx="76.910004"
       cy="519.71997"
       fill="#132e65"
       id="circle318" />
    <circle
       r="5"
       cx="64.690002"
       cy="701.28998"
       fill="#132e65"
       id="circle320" />
    <circle
       r="5"
       cx="190.03999"
       cy="349.97"
       fill="#132e65"
       id="circle322" />
    <circle
       r="5"
       cx="217.95"
       cy="559.96002"
       fill="#132e65"
       id="circle324" />
    <circle
       r="5"
       cx="221.53999"
       cy="671.64001"
       fill="#132e65"
       id="circle326" />
    <circle
       r="5"
       cx="355.98001"
       cy="363.79001"
       fill="#132e65"
       id="circle328" />
    <circle
       r="5"
       cx="377.94"
       cy="559.53003"
       fill="#132e65"
       id="circle330" />
    <circle
       r="5"
       cx="388.48001"
       cy="660.78998"
       fill="#132e65"
       id="circle332" />
    <circle
       r="5"
       cx="516.53003"
       cy="410.92001"
       fill="#132e65"
       id="circle334" />
    <circle
       r="5"
       cx="511.73001"
       cy="686.01001"
       fill="#132e65"
       id="circle336" />
    <circle
       r="5"
       cx="692.59998"
       cy="222.55"
       fill="#132e65"
       id="circle338" />
    <circle
       r="5"
       cx="671.57001"
       cy="394.84"
       fill="#132e65"
       id="circle340" />
    <circle
       r="5"
       cx="689.92999"
       cy="560.87"
       fill="#132e65"
       id="circle342" />
    <circle
       r="5"
       cx="651.69"
       cy="701.02002"
       fill="#132e65"
       id="circle344" />
    <circle
       r="5"
       cx="846.16998"
       cy="232.83"
       fill="#132e65"
       id="circle346" />
    <circle
       r="5"
       cx="816.90002"
       cy="352.31"
       fill="#132e65"
       id="circle348" />
    <circle
       r="5"
       cx="789.67999"
       cy="645.13"
       fill="#132e65"
       id="circle350" />
    <circle
       r="5"
       cx="941.97998"
       cy="-87.379997"
       fill="#132e65"
       id="circle352" />
    <circle
       r="5"
       cx="959.15002"
       cy="243.5"
       fill="#132e65"
       id="circle354" />
    <circle
       r="5"
       cx="974.44"
       cy="349.57999"
       fill="#132e65"
       id="circle356" />
    <circle
       r="5"
       cx="961.92999"
       cy="513.98999"
       fill="#132e65"
       id="circle358" />
    <circle
       r="5"
       cx="988.57001"
       cy="660.97998"
       fill="#132e65"
       id="circle360" />
    <circle
       r="5"
       cx="1121.73"
       cy="-59.16"
       fill="#132e65"
       id="circle362" />
    <circle
       r="5"
       cx="1138.34"
       cy="76.550003"
       fill="#132e65"
       id="circle364" />
    <circle
       r="5"
       cx="1133.72"
       cy="212.74001"
       fill="#132e65"
       id="circle366" />
    <circle
       r="5"
       cx="1138.42"
       cy="346.45001"
       fill="#132e65"
       id="circle368" />
    <circle
       r="5"
       cx="1144.67"
       cy="489.89999"
       fill="#132e65"
       id="circle370" />
    <circle
       r="5"
       cx="1134.05"
       cy="712.23999"
       fill="#132e65"
       id="circle372" />
    <circle
       r="5"
       cx="1304.72"
       cy="81.029999"
       fill="#132e65"
       id="circle374" />
    <circle
       r="5"
       cx="1272.65"
       cy="246.22"
       fill="#132e65"
       id="circle376" />
    <circle
       r="5"
       cx="1311.41"
       cy="402.85001"
       fill="#132e65"
       id="circle378" />
    <circle
       r="5"
       cx="1257.13"
       cy="553.04999"
       fill="#132e65"
       id="circle380" />
    <circle
       r="5"
       cx="1253"
       cy="651.12"
       fill="#132e65"
       id="circle382" />
    <circle
       r="5"
       cx="1452.42"
       cy="-42.790001"
       fill="#132e65"
       id="circle384" />
    <circle
       r="5"
       cx="1438.23"
       cy="59.48"
       fill="#132e65"
       id="circle386" />
    <circle
       r="5"
       cx="1449.85"
       cy="539.84003"
       fill="#132e65"
       id="circle388" />
    <circle
       r="5"
       cx="1402.6"
       cy="651.42999"
       fill="#132e65"
       id="circle390" />
    <circle
       r="5"
       cx="1553.4399"
       cy="-108.85"
       fill="#132e65"
       id="circle392" />
    <circle
       r="5"
       cx="1547.05"
       cy="46.889999"
       fill="#132e65"
       id="circle394" />
    <circle
       r="5"
       cx="1550.13"
       cy="260.37"
       fill="#132e65"
       id="circle396" />
    <circle
       r="5"
       cx="1589.9301"
       cy="504.26999"
       fill="#132e65"
       id="circle398" />
    <circle
       r="5"
       cx="1602.28"
       cy="647.95001"
       fill="#132e65"
       id="circle400" />
    <path
       d="m 540.62,562.11 v 0"
       stroke="#2348e3"
       stroke-width="1.5"
       id="path402" />
    <path
       d="m 540.62,562.11 -2.82,98.1"
       stroke="#2348e3"
       stroke-width="1.5"
       id="path404" />
    <path
       d="m 540.62,562.11 118.63,-6.34"
       stroke="#2348e3"
       stroke-width="1.5"
       id="path406" />
    <path
       d="M 540.62,562.11 680.73,670.07"
       stroke="#2348e3"
       stroke-width="1.5"
       id="path408" />
    <path
       d="M 540.62,562.11 338.69,519.55"
       stroke="#2348e3"
       stroke-width="1.5"
       id="path410" />
    <path
       d="m 537.8,660.21 v 0"
       stroke="#2348e3"
       stroke-width="1.5"
       id="path412" />
    <path
       d="m 537.8,660.21 142.93,9.86"
       stroke="#2348e3"
       stroke-width="1.5"
       id="path414" />
    <path
       d="M 537.8,660.21 659.25,555.77"
       stroke="#2348e3"
       stroke-width="1.5"
       id="path416" />
    <path
       d="m 955.93,359.78 v 0"
       stroke="#2348e3"
       stroke-width="1.5"
       id="path418" />
    <path
       d="m 955.93,359.78 40.25,131.09"
       stroke="#2348e3"
       stroke-width="1.5"
       id="path420" />
    <path
       d="m 955.93,359.78 154.22,36.73"
       stroke="#2348e3"
       stroke-width="1.5"
       id="path422" />
    <path
       d="m 996.18,490.87 v 0"
       stroke="#2348e3"
       stroke-width="1.5"
       id="path424" />
    <path
       d="m 996.18,490.87 113.97,-94.36"
       stroke="#2348e3"
       stroke-width="1.5"
       id="path426" />
    <path
       d="M 996.18,490.87 967.25,646.9"
       stroke="#2348e3"
       stroke-width="1.5"
       id="path428" />
    <path
       d="m 996.18,490.87 154.07,60.15"
       stroke="#2348e3"
       stroke-width="1.5"
       id="path430" />
    <path
       d="M 996.18,490.87 793.49,522.44"
       stroke="#2348e3"
       stroke-width="1.5"
       id="path432" />
    <path
       d="m 996.18,490.87 154.8,187.79"
       stroke="#2348e3"
       stroke-width="1.5"
       id="path434" />
    <path
       d="m 1141.37,239.78 v 0"
       stroke="#2348e3"
       stroke-width="1.5"
       id="path436" />
    <path
       d="m 1141.37,239.78 133.97,-13.01"
       stroke="#2348e3"
       stroke-width="1.5"
       id="path438" />
    <path
       d="M 1141.37,239.78 1138.73,81.85"
       stroke="#2348e3"
       stroke-width="1.5"
       id="path440" />
    <path
       d="m 1141.37,239.78 -31.22,156.73"
       stroke="#2348e3"
       stroke-width="1.5"
       id="path442" />
    <path
       d="m 1141.37,239.78 151.05,116.6"
       stroke="#2348e3"
       stroke-width="1.5"
       id="path444" />
    <path
       d="m 1141.37,239.78 -185.44,120"
       stroke="#2348e3"
       stroke-width="1.5"
       id="path446" />
    <path
       d="m 1150.25,551.02 v 0"
       stroke="#2348e3"
       stroke-width="1.5"
       id="path448" />
    <path
       d="m 1150.25,551.02 0.73,127.64"
       stroke="#2348e3"
       stroke-width="1.5"
       id="path450" />
    <path
       d="m 1150.25,551.02 151.67,7.71"
       stroke="#2348e3"
       stroke-width="1.5"
       id="path452" />
    <path
       d="m 1150.25,551.02 -40.1,-154.51"
       stroke="#2348e3"
       stroke-width="1.5"
       id="path454" />
    <path
       d="m 1150.25,551.02 136.97,119.47"
       stroke="#2348e3"
       stroke-width="1.5"
       id="path456" />
    <path
       d="m 1292.42,356.38 v 0"
       stroke="#2348e3"
       stroke-width="1.5"
       id="path458" />
    <path
       d="M 1292.42,356.38 1275.34,226.77"
       stroke="#2348e3"
       stroke-width="1.5"
       id="path460" />
    <path
       d="m 1292.42,356.38 148.56,13.82"
       stroke="#2348e3"
       stroke-width="1.5"
       id="path462" />
    <path
       d="m 1287.22,670.49 v 0"
       stroke="#2348e3"
       stroke-width="1.5"
       id="path464" />
    <path
       d="m 1287.22,670.49 104.18,31.23"
       stroke="#2348e3"
       stroke-width="1.5"
       id="path466" />
    <path
       d="m 1287.22,670.49 14.7,-111.76"
       stroke="#2348e3"
       stroke-width="1.5"
       id="path468" />
    <path
       d="m 1287.22,670.49 -136.24,8.17"
       stroke="#2348e3"
       stroke-width="1.5"
       id="path470" />
    <path
       d="m 1438.4,-102.78 v 0"
       stroke="#2348e3"
       stroke-width="1.5"
       id="path472" />
    <path
       d="m 1438.4,-102.78 -144.8,16.46"
       stroke="#2348e3"
       stroke-width="1.5"
       id="path474" />
    <path
       d="m 1438.4,-102.78 155.34,19.57"
       stroke="#2348e3"
       stroke-width="1.5"
       id="path476" />
    <path
       d="m 1426.92,234.46 v 0"
       stroke="#2348e3"
       stroke-width="1.5"
       id="path478" />
    <path
       d="m 1426.92,234.46 14.06,135.74"
       stroke="#2348e3"
       stroke-width="1.5"
       id="path480" />
    <path
       d="m 1426.92,234.46 -151.58,-7.69"
       stroke="#2348e3"
       stroke-width="1.5"
       id="path482" />
    <path
       d="m 1426.92,234.46 30.5,-151.2"
       stroke="#2348e3"
       stroke-width="1.5"
       id="path484" />
    <path
       d="m 1426.92,234.46 175.42,23.42"
       stroke="#2348e3"
       stroke-width="1.5"
       id="path486" />
    <path
       d="m 1403.5,520.64 v 0"
       stroke="#2348e3"
       stroke-width="1.5"
       id="path488" />
    <path
       d="m 1403.5,520.64 -101.58,38.09"
       stroke="#2348e3"
       stroke-width="1.5"
       id="path490" />
    <path
       d="M 1403.5,520.64 1440.98,370.2"
       stroke="#2348e3"
       stroke-width="1.5"
       id="path492" />
    <path
       d="M 1403.5,520.64 1577.35,500.8"
       stroke="#2348e3"
       stroke-width="1.5"
       id="path494" />
    <path
       d="m 1391.4,701.72 v 0"
       stroke="#2348e3"
       stroke-width="1.5"
       id="path496" />
    <path
       d="m 1391.4,701.72 154.07,-53.75"
       stroke="#2348e3"
       stroke-width="1.5"
       id="path498" />
    <path
       d="M 1391.4,701.72 1301.92,558.73"
       stroke="#2348e3"
       stroke-width="1.5"
       id="path500" />
    <path
       d="m 1601.6,340.35 v 0"
       stroke="#2348e3"
       stroke-width="1.5"
       id="path502" />
    <path
       d="m 1601.6,340.35 0.74,-82.47"
       stroke="#2348e3"
       stroke-width="1.5"
       id="path504" />
    <path
       d="M 1601.6,340.35 1577.35,500.8"
       stroke="#2348e3"
       stroke-width="1.5"
       id="path506" />
    <path
       d="M 1601.6,340.35 1440.98,370.2"
       stroke="#2348e3"
       stroke-width="1.5"
       id="path508" />
    <path
       d="M 1601.6,340.35 1426.92,234.46"
       stroke="#2348e3"
       stroke-width="1.5"
       id="path510" />
    <path
       d="M 1601.6,340.35 1572.12,108.82"
       stroke="#2348e3"
       stroke-width="1.5"
       id="path512" />
    <path
       d="M 1601.6,340.35 1403.5,520.64"
       stroke="#2348e3"
       stroke-width="1.5"
       id="path514" />
    <path
       d="m 1577.35,500.8 v 0"
       stroke="#2348e3"
       stroke-width="1.5"
       id="path516" />
    <path
       d="m 1577.35,500.8 -31.88,147.17"
       stroke="#2348e3"
       stroke-width="1.5"
       id="path518" />
    <path
       d="m -51.14,494.06 v 0"
       stroke="#2348e3"
       stroke-width="1.5"
       id="path520" />
    <path
       d="M -51.14,494.06 110.89,536.9"
       stroke="#2348e3"
       stroke-width="1.5"
       id="path522" />
    <path
       d="M -51.14,494.06 87.6,660.75"
       stroke="#2348e3"
       stroke-width="1.5"
       id="path524" />
    <path
       d="m -51.14,494.06 260.96,37.39"
       stroke="#2348e3"
       stroke-width="1.5"
       id="path526" />
    <path
       d="M -51.14,494.06 200.34,641.17"
       stroke="#2348e3"
       stroke-width="1.5"
       id="path528" />
    <path
       d="m 110.89,536.9 v 0"
       stroke="#2348e3"
       stroke-width="1.5"
       id="path530" />
    <path
       d="m 110.89,536.9 98.93,-5.45"
       stroke="#2348e3"
       stroke-width="1.5"
       id="path532" />
    <path
       d="M 110.89,536.9 87.6,660.75"
       stroke="#2348e3"
       stroke-width="1.5"
       id="path534" />
    <path
       d="m 110.89,536.9 89.45,104.27"
       stroke="#2348e3"
       stroke-width="1.5"
       id="path536" />
    <path
       d="m 87.6,660.75 v 0"
       stroke="#2348e3"
       stroke-width="1.5"
       id="path538" />
    <path
       d="M 87.6,660.75 200.34,641.17"
       stroke="#2348e3"
       stroke-width="1.5"
       id="path540" />
    <path
       d="m 209.82,531.45 v 0"
       stroke="#2348e3"
       stroke-width="1.5"
       id="path542" />
    <path
       d="m 209.82,531.45 -9.48,109.72"
       stroke="#2348e3"
       stroke-width="1.5"
       id="path544" />
    <path
       d="m 200.34,641.17 v 0"
       stroke="#2348e3"
       stroke-width="1.5"
       id="path546" />
    <path
       d="M 200.34,641.17 347.2,652.88"
       stroke="#2348e3"
       stroke-width="1.5"
       id="path548" />
    <path
       d="M 200.34,641.17 338.69,519.55"
       stroke="#2348e3"
       stroke-width="1.5"
       id="path550" />
    <path
       d="m 338.69,519.55 v 0"
       stroke="#2348e3"
       stroke-width="1.5"
       id="path552" />
    <path
       d="m 338.69,519.55 -128.87,11.9"
       stroke="#2348e3"
       stroke-width="1.5"
       id="path554" />
    <path
       d="m 338.69,519.55 8.51,133.33"
       stroke="#2348e3"
       stroke-width="1.5"
       id="path556" />
    <path
       d="M 338.69,519.55 110.89,536.9"
       stroke="#2348e3"
       stroke-width="1.5"
       id="path558" />
    <path
       d="M 338.69,519.55 537.8,660.21"
       stroke="#2348e3"
       stroke-width="1.5"
       id="path560" />
    <path
       d="m 347.2,652.88 v 0"
       stroke="#2348e3"
       stroke-width="1.5"
       id="path562" />
    <path
       d="M 347.2,652.88 209.82,531.45"
       stroke="#2348e3"
       stroke-width="1.5"
       id="path564" />
    <path
       d="m 347.2,652.88 190.6,7.33"
       stroke="#2348e3"
       stroke-width="1.5"
       id="path566" />
    <path
       d="m 641.12,381.53 v 0"
       stroke="#2348e3"
       stroke-width="1.5"
       id="path568" />
    <path
       d="m 641.12,381.53 18.13,174.24"
       stroke="#2348e3"
       stroke-width="1.5"
       id="path570" />
    <path
       d="M 641.12,381.53 540.62,562.11"
       stroke="#2348e3"
       stroke-width="1.5"
       id="path572" />
    <path
       d="M 641.12,381.53 793.49,522.44"
       stroke="#2348e3"
       stroke-width="1.5"
       id="path574" />
    <path
       d="m 641.12,381.53 39.61,288.54"
       stroke="#2348e3"
       stroke-width="1.5"
       id="path576" />
    <path
       d="M 641.12,381.53 537.8,660.21"
       stroke="#2348e3"
       stroke-width="1.5"
       id="path578" />
    <path
       d="m 659.25,555.77 v 0"
       stroke="#2348e3"
       stroke-width="1.5"
       id="path580" />
    <path
       d="m 659.25,555.77 21.48,114.3"
       stroke="#2348e3"
       stroke-width="1.5"
       id="path582" />
    <path
       d="M 659.25,555.77 793.49,522.44"
       stroke="#2348e3"
       stroke-width="1.5"
       id="path584" />
    <path
       d="m 680.73,670.07 v 0"
       stroke="#2348e3"
       stroke-width="1.5"
       id="path586" />
    <path
       d="m 680.73,670.07 175.84,29.7"
       stroke="#2348e3"
       stroke-width="1.5"
       id="path588" />
    <path
       d="m 793.49,522.44 v 0"
       stroke="#2348e3"
       stroke-width="1.5"
       id="path590" />
    <path
       d="M 793.49,522.44 680.73,670.07"
       stroke="#2348e3"
       stroke-width="1.5"
       id="path592" />
    <path
       d="m 793.49,522.44 63.08,177.33"
       stroke="#2348e3"
       stroke-width="1.5"
       id="path594" />
    <path
       d="m 856.57,699.77 v 0"
       stroke="#2348e3"
       stroke-width="1.5"
       id="path596" />
    <path
       d="M 856.57,699.77 967.25,646.9"
       stroke="#2348e3"
       stroke-width="1.5"
       id="path598" />
    <path
       d="m 856.57,699.77 -197.32,-144"
       stroke="#2348e3"
       stroke-width="1.5"
       id="path600" />
    <path
       d="M 856.57,699.77 996.18,490.87"
       stroke="#2348e3"
       stroke-width="1.5"
       id="path602" />
    <path
       d="m 967.25,646.9 v 0"
       stroke="#2348e3"
       stroke-width="1.5"
       id="path604" />
    <path
       d="m 967.25,646.9 183.73,31.76"
       stroke="#2348e3"
       stroke-width="1.5"
       id="path606" />
    <path
       d="m 967.25,646.9 183,-95.88"
       stroke="#2348e3"
       stroke-width="1.5"
       id="path608" />
    <path
       d="M 967.25,646.9 793.49,522.44"
       stroke="#2348e3"
       stroke-width="1.5"
       id="path610" />
    <path
       d="m 1138.73,81.85 v 0"
       stroke="#2348e3"
       stroke-width="1.5"
       id="path612" />
    <path
       d="m 1110.15,396.51 v 0"
       stroke="#2348e3"
       stroke-width="1.5"
       id="path614" />
    <path
       d="m 1110.15,396.51 182.27,-40.13"
       stroke="#2348e3"
       stroke-width="1.5"
       id="path616" />
    <path
       d="M 1110.15,396.51 1275.34,226.77"
       stroke="#2348e3"
       stroke-width="1.5"
       id="path618" />
    <path
       d="m 1150.98,678.66 v 0"
       stroke="#2348e3"
       stroke-width="1.5"
       id="path620" />
    <path
       d="m 1293.6,-86.32 v 0"
       stroke="#2348e3"
       stroke-width="1.5"
       id="path622" />
    <path
       d="m 1293.6,-86.32 3.88,129.74"
       stroke="#2348e3"
       stroke-width="1.5"
       id="path624" />
    <path
       d="m 1297.48,43.42 v 0"
       stroke="#2348e3"
       stroke-width="1.5"
       id="path626" />
    <path
       d="M 1297.48,43.42 1138.73,81.85"
       stroke="#2348e3"
       stroke-width="1.5"
       id="path628" />
    <path
       d="m 1297.48,43.42 159.94,39.84"
       stroke="#2348e3"
       stroke-width="1.5"
       id="path630" />
    <path
       d="m 1297.48,43.42 -22.14,183.35"
       stroke="#2348e3"
       stroke-width="1.5"
       id="path632" />
    <path
       d="m 1297.48,43.42 140.92,-146.2"
       stroke="#2348e3"
       stroke-width="1.5"
       id="path634" />
    <path
       d="m 1297.48,43.42 129.44,191.04"
       stroke="#2348e3"
       stroke-width="1.5"
       id="path636" />
    <path
       d="m 1275.34,226.77 v 0"
       stroke="#2348e3"
       stroke-width="1.5"
       id="path638" />
    <path
       d="m 1301.92,558.73 v 0"
       stroke="#2348e3"
       stroke-width="1.5"
       id="path640" />
    <path
       d="m 1457.42,83.26 v 0"
       stroke="#2348e3"
       stroke-width="1.5"
       id="path642" />
    <path
       d="m 1457.42,83.26 114.7,25.56"
       stroke="#2348e3"
       stroke-width="1.5"
       id="path644" />
    <path
       d="M 1457.42,83.26 1438.4,-102.78"
       stroke="#2348e3"
       stroke-width="1.5"
       id="path646" />
    <path
       d="M 1457.42,83.26 1593.74,-83.21"
       stroke="#2348e3"
       stroke-width="1.5"
       id="path648" />
    <path
       d="m 1457.42,83.26 144.92,174.62"
       stroke="#2348e3"
       stroke-width="1.5"
       id="path650" />
    <path
       d="m 1440.98,370.2 v 0"
       stroke="#2348e3"
       stroke-width="1.5"
       id="path652" />
    <path
       d="m 1440.98,370.2 136.37,130.6"
       stroke="#2348e3"
       stroke-width="1.5"
       id="path654" />
    <path
       d="m 1593.74,-83.21 v 0"
       stroke="#2348e3"
       stroke-width="1.5"
       id="path656" />
    <path
       d="m 1593.74,-83.21 -21.62,192.03"
       stroke="#2348e3"
       stroke-width="1.5"
       id="path658" />
    <path
       d="M 1593.74,-83.21 1293.6,-86.32"
       stroke="#2348e3"
       stroke-width="1.5"
       id="path660" />
    <path
       d="m 1572.12,108.82 v 0"
       stroke="#2348e3"
       stroke-width="1.5"
       id="path662" />
    <path
       d="m 1572.12,108.82 30.22,149.06"
       stroke="#2348e3"
       stroke-width="1.5"
       id="path664" />
    <path
       d="m 1572.12,108.82 -145.2,125.64"
       stroke="#2348e3"
       stroke-width="1.5"
       id="path666" />
    <path
       d="m 1602.34,257.88 v 0"
       stroke="#2348e3"
       stroke-width="1.5"
       id="path668" />
    <path
       d="m 1545.47,647.97 v 0"
       stroke="#2348e3"
       stroke-width="1.5"
       id="path670" />
    <circle
       r="25"
       cx="540.62"
       cy="562.10999"
       fill="url(#SvgjsRadialGradient1001)"
       id="circle672"
       style="fill:url(#radialGradient1773)" />
    <circle
       r="25"
       cx="537.79999"
       cy="660.21002"
       fill="url(#SvgjsRadialGradient1001)"
       id="circle674"
       style="fill:url(#radialGradient1775)" />
    <circle
       r="25"
       cx="955.92999"
       cy="359.78"
       fill="url(#SvgjsRadialGradient1001)"
       id="circle676"
       style="fill:url(#radialGradient1777)" />
    <circle
       r="25"
       cx="996.17999"
       cy="490.87"
       fill="url(#SvgjsRadialGradient1001)"
       id="circle678"
       style="fill:url(#radialGradient1779)" />
    <circle
       r="25"
       cx="1141.37"
       cy="239.78"
       fill="url(#SvgjsRadialGradient1001)"
       id="circle680"
       style="fill:url(#radialGradient1781)" />
    <circle
       r="25"
       cx="1150.25"
       cy="551.02002"
       fill="url(#SvgjsRadialGradient1001)"
       id="circle682"
       style="fill:url(#radialGradient1783)" />
    <circle
       r="25"
       cx="1292.42"
       cy="356.38"
       fill="url(#SvgjsRadialGradient1001)"
       id="circle684"
       style="fill:url(#radialGradient1785)" />
    <circle
       r="25"
       cx="1287.22"
       cy="670.48999"
       fill="url(#SvgjsRadialGradient1001)"
       id="circle686"
       style="fill:url(#radialGradient1787)" />
    <circle
       r="25"
       cx="1438.4"
       cy="-102.78"
       fill="url(#SvgjsRadialGradient1001)"
       id="circle688"
       style="fill:url(#radialGradient1789)" />
    <circle
       r="25"
       cx="1426.92"
       cy="234.46001"
       fill="url(#SvgjsRadialGradient1001)"
       id="circle690"
       style="fill:url(#radialGradient1791)" />
    <circle
       r="25"
       cx="1403.5"
       cy="520.64001"
       fill="url(#SvgjsRadialGradient1001)"
       id="circle692"
       style="fill:url(#radialGradient1793)" />
    <circle
       r="25"
       cx="1391.4"
       cy="701.71997"
       fill="url(#SvgjsRadialGradient1001)"
       id="circle694"
       style="fill:url(#radialGradient1795)" />
    <circle
       r="25"
       cx="1601.6"
       cy="340.35001"
       fill="url(#SvgjsRadialGradient1001)"
       id="circle696"
       style="fill:url(#radialGradient1797)" />
    <circle
       r="25"
       cx="1577.35"
       cy="500.79999"
       fill="url(#SvgjsRadialGradient1001)"
       id="circle698"
       style="fill:url(#radialGradient1799)" />
    <circle
       r="5"
       cx="-51.139999"
       cy="494.06"
       fill="#8b9ad9"
       id="circle700" />
    <circle
       r="5"
       cx="110.89"
       cy="536.90002"
       fill="#8b9ad9"
       id="circle702" />
    <circle
       r="5"
       cx="87.599998"
       cy="660.75"
       fill="#8b9ad9"
       id="circle704" />
    <circle
       r="5"
       cx="209.82001"
       cy="531.45001"
       fill="#8b9ad9"
       id="circle706" />
    <circle
       r="5"
       cx="200.34"
       cy="641.16998"
       fill="#8b9ad9"
       id="circle708" />
    <circle
       r="5"
       cx="338.69"
       cy="519.54999"
       fill="#8b9ad9"
       id="circle710" />
    <circle
       r="5"
       cx="347.20001"
       cy="652.88"
       fill="#8b9ad9"
       id="circle712" />
    <circle
       r="5"
       cx="641.12"
       cy="381.53"
       fill="#8b9ad9"
       id="circle714" />
    <circle
       r="5"
       cx="659.25"
       cy="555.77002"
       fill="#8b9ad9"
       id="circle716" />
    <circle
       r="5"
       cx="680.72998"
       cy="670.07001"
       fill="#8b9ad9"
       id="circle718" />
    <circle
       r="5"
       cx="793.48999"
       cy="522.44"
       fill="#8b9ad9"
       id="circle720" />
    <circle
       r="5"
       cx="856.57001"
       cy="699.77002"
       fill="#8b9ad9"
       id="circle722" />
    <circle
       r="5"
       cx="967.25"
       cy="646.90002"
       fill="#8b9ad9"
       id="circle724" />
    <circle
       r="5"
       cx="1138.73"
       cy="81.849998"
       fill="#8b9ad9"
       id="circle726" />
    <circle
       r="5"
       cx="1110.15"
       cy="396.51001"
       fill="#8b9ad9"
       id="circle728" />
    <circle
       r="5"
       cx="1150.98"
       cy="678.65997"
       fill="#8b9ad9"
       id="circle730" />
    <circle
       r="5"
       cx="1293.6"
       cy="-86.32"
       fill="#8b9ad9"
       id="circle732" />
    <circle
       r="5"
       cx="1297.48"
       cy="43.419998"
       fill="#8b9ad9"
       id="circle734" />
    <circle
       r="5"
       cx="1275.34"
       cy="226.77"
       fill="#8b9ad9"
       id="circle736" />
    <circle
       r="5"
       cx="1301.92"
       cy="558.72998"
       fill="#8b9ad9"
       id="circle738" />
    <circle
       r="5"
       cx="1457.42"
       cy="83.260002"
       fill="#8b9ad9"
       id="circle740" />
    <circle
       r="5"
       cx="1440.98"
       cy="370.20001"
       fill="#8b9ad9"
       id="circle742" />
    <circle
       r="5"
       cx="1593.74"
       cy="-83.209999"
       fill="#8b9ad9"
       id="circle744" />
    <circle
       r="5"
       cx="1572.12"
       cy="108.82"
       fill="#8b9ad9"
       id="circle746" />
    <circle
       r="5"
       cx="1602.34"
       cy="257.88"
       fill="#8b9ad9"
       id="circle748" />
    <circle
       r="5"
       cx="1545.47"
       cy="647.96997"
       fill="#8b9ad9"
       id="circle750" />
  </g>
</svg>
