<?xml version="1.0" encoding="UTF-8" standalone="no"?>
<!-- Created with Inkscape (http://www.inkscape.org/) -->

<svg
   xmlns:dc="http://purl.org/dc/elements/1.1/"
   xmlns:cc="http://creativecommons.org/ns#"
   xmlns:rdf="http://www.w3.org/1999/02/22-rdf-syntax-ns#"
   xmlns:svg="http://www.w3.org/2000/svg"
   xmlns="http://www.w3.org/2000/svg"
   xmlns:sodipodi="http://sodipodi.sourceforge.net/DTD/sodipodi-0.dtd"
   xmlns:inkscape="http://www.inkscape.org/namespaces/inkscape"
   height="1000"
   width="1000"
   sodipodi:docname="bild18.svg"
   version="1.1"
   id="svg4946"
   inkscape:version="0.92.2 (5c3e80d, 2017-08-06)">
  <sodipodi:namedview
     id="base"
     pagecolor="#ffffff"
     bordercolor="#666666"
     borderopacity="1.0"
     inkscape:pageopacity="0.0"
     inkscape:pageshadow="2"
     inkscape:zoom="0.70710678"
     inkscape:cx="-234.9533"
     inkscape:cy="417.67712"
     inkscape:document-units="px"
     inkscape:current-layer="g7938"
     showgrid="false"
     showguides="true"
     inkscape:window-width="1920"
     inkscape:window-height="1017"
     inkscape:window-x="-8"
     inkscape:window-y="-8"
     inkscape:window-maximized="1"
     showborder="true"
     inkscape:showpageshadow="false"
     inkscape:guide-bbox="true">
    <sodipodi:guide
       position="0,1000"
       orientation="1,0"
       id="guide4948"
       inkscape:locked="false"
       inkscape:label=""
       inkscape:color="rgb(0,0,255)" />
    <sodipodi:guide
       position="1000,938"
       orientation="1,0"
       id="guide4950"
       inkscape:locked="false" />
    <sodipodi:guide
       position="1000,1000"
       orientation="0,1"
       id="guide7104"
       inkscape:locked="false"
       inkscape:label=""
       inkscape:color="rgb(0,0,255)" />
    <sodipodi:guide
       position="0,800"
       orientation="0,1"
       id="guide7108"
       inkscape:locked="false"
       inkscape:label=""
       inkscape:color="rgb(0,0,255)" />
    <sodipodi:guide
       position="0,800"
       orientation="1,0"
       id="guide7110"
       inkscape:locked="false"
       inkscape:label=""
       inkscape:color="rgb(0,0,255)" />
    <sodipodi:guide
       position="200,1000"
       orientation="1,0"
       id="guide7112"
       inkscape:locked="false"
       inkscape:label=""
       inkscape:color="rgb(0,0,255)" />
    <sodipodi:guide
       position="1000,200"
       orientation="0,1"
       id="guide7139"
       inkscape:locked="false"
       inkscape:label=""
       inkscape:color="rgb(0,0,255)" />
    <sodipodi:guide
       position="800,800"
       orientation="1,0"
       id="guide7141"
       inkscape:locked="false"
       inkscape:label=""
       inkscape:color="rgb(0,0,255)" />
    <sodipodi:guide
       position="800,200"
       orientation="0,1"
       id="guide7143"
       inkscape:locked="false" />
    <sodipodi:guide
       position="500,500"
       orientation="0,1"
       id="guide7747"
       inkscape:locked="false"
       inkscape:label=""
       inkscape:color="rgb(0,0,255)" />
    <sodipodi:guide
       position="500,500"
       orientation="1,0"
       id="guide7749"
       inkscape:locked="false"
       inkscape:label=""
       inkscape:color="rgb(0,0,255)" />
    <sodipodi:guide
       position="200,800"
       orientation="0,1"
       id="guide7908"
       inkscape:locked="false" />
  </sodipodi:namedview>
  <defs
     id="defs4" />
  <metadata
     id="metadata7">
    <rdf:RDF>
      <cc:Work
         rdf:about="">
        <dc:format>image/svg+xml</dc:format>
        <dc:type
           rdf:resource="http://purl.org/dc/dcmitype/StillImage" />
        <dc:title></dc:title>
      </cc:Work>
    </rdf:RDF>
  </metadata>
  <g
     inkscape:groupmode="layer"
     id="layer10"
     inkscape:label="Aufzählung">
    <g
       id="g7938"
       inkscape:groupmode="layer"
       inkscape:label="Kreis"
       style="display:inline">
      <path
         style="fill:#17ffd1;fill-opacity:1;stroke:#17ffd1;stroke-width:1.00024152;stroke-opacity:1"
         d="M 1000.0081,496.81482 C 1014.3442,821.00133 661.75733,1083.6881 355.25164,978.67807 41.526678,896.82374 -106.42984,482.72927 84.815905,220.76201 255.78908,-54.9005 695.05439,-73.830678 889.13118,186.07417 959.58309,272.91167 999.32366,383.92652 1000,495.7327"
         id="path7936"
         inkscape:connector-curvature="0" />
    </g>
    <g
       inkscape:groupmode="layer"
       id="layer13"
       inkscape:label="Auto3">
      <g
         id="g8294"
         transform="matrix(0.54758627,0,0,0.54758627,361.33239,342.07776)">
        <g
           id="g8204">
          <path
             id="path8200"
             d="m 116.548,248.42 c 1.298,0 2.614,-0.304 3.845,-0.944 4.087,-2.128 5.676,-7.165 3.548,-11.252 L 81.33,154.36 c -1.437,-2.76 -4.289,-4.49 -7.4,-4.49 H 44.865 c -4.607,0 -8.342,3.735 -8.342,8.342 0,4.607 3.735,8.342 8.342,8.342 h 24.001 l 40.274,77.374 c 1.487,2.856 4.396,4.492 7.408,4.492 z"
             style="fill:#ffd117"
             inkscape:connector-curvature="0" />
          <path
             id="path8202"
             d="m 393.976,248.42 c -1.298,0 -2.614,-0.304 -3.845,-0.944 -4.087,-2.128 -5.676,-7.165 -3.548,-11.252 l 42.612,-81.864 c 1.437,-2.76 4.289,-4.49 7.4,-4.49 h 29.063 c 4.607,0 8.342,3.735 8.342,8.342 0,4.607 -3.735,8.342 -8.342,8.342 h -24.001 l -40.274,77.374 c -1.487,2.856 -4.396,4.492 -7.407,4.492 z"
             style="fill:#ffd117"
             inkscape:connector-curvature="0" />
        </g>
        <path
           id="path8206"
           d="M 381.207,118.924 C 375.557,108.071 360.925,99.191 348.689,99.191 H 161.836 c -12.236,0 -26.868,8.88 -32.518,19.733 l -42.612,81.863 23.384,55.616 h 290.343 l 23.384,-55.616 z"
           style="fill:#ffb367"
           inkscape:connector-curvature="0" />
        <path
           id="path8208"
           d="m 117.812,242.748 h 274.901 l 14.659,-37.42 -40.965,-78.699 c -2.773,-5.326 -11.714,-10.752 -17.718,-10.752 H 161.836 c -6.004,0 -14.946,5.426 -17.718,10.752 l -40.965,78.699 z"
           style="fill:#ffffff"
           inkscape:connector-curvature="0" />
        <g
           id="g8214">
          <rect
             id="rect8210"
             height="44.771"
             width="87.774002"
             style="fill:#0e0a57"
             y="368.03699"
             x="17.224001" />
          <rect
             id="rect8212"
             height="44.771"
             width="87.774002"
             style="fill:#0e0a57"
             y="368.03699"
             x="405.521" />
        </g>
        <path
           id="path8216"
           d="m 457.139,191.58 -64.426,17.797 H 117.812 L 53.386,191.58 c -30.645,0 -54.626,25.016 -53.336,55.616 l 71.99,24.516 -69.932,16.685 3.993,79.643 h 498.323 l 3.993,-79.643 -69.932,-16.685 71.99,-24.516 c 1.29,-30.599 -22.692,-55.616 -53.336,-55.616 z"
           style="fill:#ffd117"
           inkscape:connector-curvature="0" />
        <g
           id="g8222">
          <path
             id="path8218"
             d="m 512,247.197 c 0,0.044 0,0.089 0,0.133 l -2.058,41.067 H 406.64 c 0,-22.747 18.442,-41.201 41.201,-41.201 H 512 Z"
             style="fill:#ff7039"
             inkscape:connector-curvature="0" />
          <path
             id="path8220"
             d="M 105.409,288.397 H 2.108 L 0.05,247.33 c 0,-0.044 0,-0.089 0,-0.133 h 64.159 c 22.758,0 41.2,18.453 41.2,41.2 z"
             style="fill:#ff7039"
             inkscape:connector-curvature="0" />
        </g>
        <rect
           id="rect8224"
           height="38.987"
           width="185.058"
           style="fill:#fff0b2"
           y="312.37601"
           x="162.733" />
        <path
           id="path8226"
           d="m 301.526,288.397 h -92.53 c -4.607,0 -8.342,-3.735 -8.342,-8.342 0,-4.607 3.735,-8.342 8.342,-8.342 h 92.53 c 4.607,0 8.342,3.735 8.342,8.342 0.001,4.607 -3.734,8.342 -8.342,8.342 z"
           style="fill:#ffb367"
           inkscape:connector-curvature="0" />
        <g
           id="g8228" />
        <g
           id="g8230" />
        <g
           id="g8232" />
        <g
           id="g8234" />
        <g
           id="g8236" />
        <g
           id="g8238" />
        <g
           id="g8240" />
        <g
           id="g8242" />
        <g
           id="g8244" />
        <g
           id="g8246" />
        <g
           id="g8248" />
        <g
           id="g8250" />
        <g
           id="g8252" />
        <g
           id="g8254" />
        <g
           id="g8256" />
      </g>
      <g
         id="g8475"
         transform="matrix(0.41365798,0,0,0.41365798,391.99679,722.11027)">
        <g
           id="g8367">
          <path
             id="path8363"
             d="m 144.143,7.621 c -4.661,0 -8.44,3.779 -8.44,8.44 v 33.758 h 16.879 V 16.06 c 0.001,-4.66 -3.778,-8.439 -8.439,-8.439 z"
             style="fill:#0e0a57"
             inkscape:connector-curvature="0" />
          <path
             id="path8365"
             d="m 367.857,7.621 c -4.662,0 -8.44,3.779 -8.44,8.44 v 33.758 h 16.879 V 16.06 c 0,-4.66 -3.777,-8.439 -8.439,-8.439 z"
             style="fill:#0e0a57"
             inkscape:connector-curvature="0" />
        </g>
        <g
           id="g8373">
          <path
             id="path8369"
             d="m 502.998,146.099 h -52.135 v 16.879 h 52.135 c 4.662,0 8.44,-3.779 8.44,-8.44 0,-4.661 -3.778,-8.439 -8.44,-8.439 z"
             style="fill:#961300"
             inkscape:connector-curvature="0" />
          <path
             id="path8371"
             d="m 9.002,146.099 c -4.661,0 -8.44,3.779 -8.44,8.44 0,4.661 3.779,8.44 8.44,8.44 H 61.137 V 146.1 H 9.002 Z"
             style="fill:#961300"
             inkscape:connector-curvature="0" />
        </g>
        <path
           id="path8375"
           d="M 505.946,240.058 486.22,188.295 441.209,70.141 C 434.649,52.778 414.09,38.566 395.523,38.566 H 116.477 c -18.567,0 -39.205,14.178 -45.855,31.519 L 25.645,188.295 5.964,240.024 C 2.678,248.711 0,263.407 0,272.691 v 16.429 l 256,33.758 256,-33.758 v -16.429 c 0,-9.284 -2.723,-23.969 -6.054,-32.633 z"
           style="fill:#e42105"
           inkscape:connector-curvature="0" />
        <path
           id="path8377"
           d="M 468.158,188.295 425.42,76.107 C 421.333,65.293 407.084,55.445 395.524,55.445 H 116.477 c -11.599,0 -25.943,9.859 -30.079,20.642 L 43.653,188.295 Z"
           style="fill:#ffffff"
           inkscape:connector-curvature="0" />
        <g
           id="g8383">
          <rect
             id="rect8379"
             height="81.301003"
             width="77.542999"
             style="fill:#0e0a57"
             y="423.078"
             x="11.253" />
          <rect
             id="rect8381"
             height="81.301003"
             width="77.542999"
             style="fill:#0e0a57"
             y="423.078"
             x="423.20499" />
        </g>
        <polygon
           id="polygon8385"
           points="125.209,344.303 70.026,289.12 441.974,289.12 386.791,344.303 "
           style="fill:#961300" />
        <g
           id="g8391">
          <path
             id="path8387"
             d="M 125.209,344.303 62.604,366.808 0,344.303 V 289.12 h 70.026 c 30.472,0 55.183,24.711 55.183,55.183 z"
             style="fill:#ff7039"
             inkscape:connector-curvature="0" />
          <path
             id="path8389"
             d="m 512,289.12 v 55.183 l -62.605,22.505 -62.605,-22.505 c 0,-30.472 24.711,-55.183 55.183,-55.183 z"
             style="fill:#ff7039"
             inkscape:connector-curvature="0" />
        </g>
        <rect
           id="rect8393"
           height="101.275"
           width="512"
           style="fill:#4c7fe1"
           y="344.30899"
           x="0" />
        <g
           id="g8399">
          <path
             id="path8395"
             d="m 61.89,378.061 c 9.317,0 16.879,7.562 16.879,16.879 0,9.317 -7.562,16.879 -16.879,16.879 -9.317,0 -16.879,-7.562 -16.879,-16.879 0,-9.317 7.562,-16.879 16.879,-16.879 z"
             style="fill:#ffffff"
             inkscape:connector-curvature="0" />
          <path
             id="path8397"
             d="m 450.11,378.061 c 9.317,0 16.879,7.562 16.879,16.879 0,9.317 -7.562,16.879 -16.879,16.879 -9.317,0 -16.879,-7.562 -16.879,-16.879 0,-9.317 7.562,-16.879 16.879,-16.879 z"
             style="fill:#ffffff"
             inkscape:connector-curvature="0" />
        </g>
        <path
           id="path8401"
           d="M 349.612,403.38 H 162.388 c -4.661,0 -8.44,-3.779 -8.44,-8.44 0,-4.661 3.779,-8.44 8.44,-8.44 h 187.223 c 4.662,0 8.44,3.779 8.44,8.44 0,4.661 -3.777,8.44 -8.439,8.44 z"
           style="fill:#3d51cc"
           inkscape:connector-curvature="0" />
        <g
           id="g8403" />
        <g
           id="g8405" />
        <g
           id="g8407" />
        <g
           id="g8409" />
        <g
           id="g8411" />
        <g
           id="g8413" />
        <g
           id="g8415" />
        <g
           id="g8417" />
        <g
           id="g8419" />
        <g
           id="g8421" />
        <g
           id="g8423" />
        <g
           id="g8425" />
        <g
           id="g8427" />
        <g
           id="g8429" />
        <g
           id="g8431" />
      </g>
      <g
         id="g8596"
         transform="matrix(0.40667822,0,0,0.40667822,754.19299,371.63161)">
        <g
           id="g8486">
          <path
             id="path8478"
             d="m 30.945,157.865 v -45.808 c 0,-4.588 -3.719,-8.307 -8.307,-8.307 -4.588,0 -8.307,3.719 -8.307,8.307 v 54.115 c 0,4.588 3.719,8.307 8.307,8.307 h 43.83 V 157.866 H 30.945 Z"
             style="fill:#0e0a57"
             inkscape:connector-curvature="0" />
          <path
             id="path8480"
             d="m 489.817,103.75 c -4.588,0 -8.307,3.719 -8.307,8.307 v 45.808 h -35.996 v 16.613 h 44.303 c 4.588,0 8.307,-3.719 8.307,-8.307 v -54.115 c 0,-4.587 -3.719,-8.306 -8.307,-8.306 z"
             style="fill:#0e0a57"
             inkscape:connector-curvature="0" />
          <path
             id="path8482"
             d="m 121.816,0 c -4.588,0 -8.307,3.719 -8.307,8.307 v 33.227 h 16.613 V 8.307 C 130.123,3.719 126.404,0 121.816,0 Z"
             style="fill:#0e0a57"
             inkscape:connector-curvature="0" />
          <path
             id="path8484"
             d="m 390.165,0 c -4.588,0 -8.307,3.719 -8.307,8.307 v 33.227 h 16.613 V 8.307 C 398.472,3.719 394.754,0 390.165,0 Z"
             style="fill:#0e0a57"
             inkscape:connector-curvature="0" />
        </g>
        <path
           id="path8488"
           d="M 442.027,46.944 C 440.908,37.873 432.535,30.452 423.398,30.452 H 88.591 c -9.137,0 -17.522,7.421 -18.629,16.492 l -20.634,168.86 63.308,121.998 H 399.352 L 462.66,215.804 Z"
           style="fill:#ff7039"
           inkscape:connector-curvature="0" />
        <path
           id="path8490"
           d="M 439.859,166.174 425.537,48.978 c -0.092,-0.75 -1.393,-1.912 -2.141,-1.912 H 88.591 c -0.749,0 -2.048,1.15 -2.139,1.893 L 72.13,166.174 Z"
           style="fill:#ffffff"
           inkscape:connector-curvature="0" />
        <rect
           id="rect8492"
           height="44.303001"
           width="304.98999"
           style="fill:#353185"
           y="375.952"
           x="103.501" />
        <g
           id="g8498">
          <path
             id="path8494"
             d="m 15.348,364.871 v 130.516 c 0,9.137 7.476,16.613 16.613,16.613 h 66 c 9.137,0 16.613,-7.476 16.613,-16.613 V 364.871 Z"
             style="fill:#0e0a57"
             inkscape:connector-curvature="0" />
          <path
             id="path8496"
             d="m 397.414,364.871 v 130.516 c 0,9.137 7.476,16.613 16.613,16.613 h 65.989 c 9.137,0 16.613,-7.476 16.613,-16.613 V 364.871 Z"
             style="fill:#0e0a57"
             inkscape:connector-curvature="0" />
        </g>
        <g
           id="g8504">
          <circle
             id="circle8500"
             r="28.312"
             cy="240.907"
             cx="154.19501"
             style="fill:#ffffff" />
          <circle
             id="circle8502"
             r="28.312"
             cy="240.907"
             cx="357.78799"
             style="fill:#ffffff" />
        </g>
        <g
           id="g8512">
          <path
             id="path8506"
             d="m 222.018,277.528 c -4.588,0 -8.307,-3.719 -8.307,-8.307 v -56.623 c 0,-4.588 3.719,-8.307 8.307,-8.307 4.588,0 8.307,3.719 8.307,8.307 v 56.623 c -10e-4,4.588 -3.72,8.307 -8.307,8.307 z"
             style="fill:#0e0a57"
             inkscape:connector-curvature="0" />
          <path
             id="path8508"
             d="m 255.991,277.528 c -4.588,0 -8.307,-3.719 -8.307,-8.307 v -56.623 c 0,-4.588 3.719,-8.307 8.307,-8.307 4.588,0 8.307,3.719 8.307,8.307 v 56.623 c 0,4.588 -3.719,8.307 -8.307,8.307 z"
             style="fill:#0e0a57"
             inkscape:connector-curvature="0" />
          <path
             id="path8510"
             d="m 289.965,277.528 c -4.588,0 -8.307,-3.719 -8.307,-8.307 v -56.623 c 0,-4.588 3.719,-8.307 8.307,-8.307 4.588,0 8.307,3.719 8.307,8.307 v 56.623 c -10e-4,4.588 -3.72,8.307 -8.307,8.307 z"
             style="fill:#0e0a57"
             inkscape:connector-curvature="0" />
        </g>
        <g
           id="g8518">
          <path
             id="path8514"
             d="M 112.637,315.651 58.333,337.802 4.029,315.651 v -77.696 c 0,-12.183 9.968,-22.151 22.151,-22.151 h 23.148 12.959 c 12.183,0 24.854,9.592 28.165,21.321 z"
             style="fill:#3d51cc"
             inkscape:connector-curvature="0" />
          <path
             id="path8516"
             d="m 507.949,237.955 0.011,77.696 -54.304,22.151 -54.304,-22.151 22.173,-78.526 c 3.312,-11.729 15.993,-21.321 28.176,-21.321 h 12.959 23.137 c 12.184,0 22.152,9.968 22.152,22.151 z"
             style="fill:#3d51cc"
             inkscape:connector-curvature="0" />
        </g>
        <polygon
           id="polygon8520"
           points="4.029,375.947 507.971,375.947 507.96,315.651 4.029,315.651 "
           style="fill:#4c7fe1" />
        <g
           id="g8522" />
        <g
           id="g8524" />
        <g
           id="g8526" />
        <g
           id="g8528" />
        <g
           id="g8530" />
        <g
           id="g8532" />
        <g
           id="g8534" />
        <g
           id="g8536" />
        <g
           id="g8538" />
        <g
           id="g8540" />
        <g
           id="g8542" />
        <g
           id="g8544" />
        <g
           id="g8546" />
        <g
           id="g8548" />
        <g
           id="g8550" />
      </g>
    </g>
    <g
       inkscape:groupmode="layer"
       id="layer15"
       inkscape:label="Auto5" />
    <g
       inkscape:groupmode="layer"
       id="layer14"
       inkscape:label="Auto4" />
    <g
       inkscape:groupmode="layer"
       id="layer12"
       inkscape:label="Auto2">
      <g
         style="display:inline"
         id="g8168"
         transform="matrix(0.4140625,0,0,0.4140625,62.244689,377.80602)">
        <g
           id="g8083">
          <path
             id="path8077"
             d="m 460.836,295.11 c -4.661,0 -8.44,-3.779 -8.44,-8.44 v -57.255 c 0,-3.413 -2.776,-6.189 -6.189,-6.189 H 65.793 c -3.413,0 -6.189,2.776 -6.189,6.189 v 57.255 c 0,4.661 -3.779,8.44 -8.44,8.44 -4.661,0 -8.44,-3.779 -8.44,-8.44 v -57.255 c 0,-12.72 10.348,-23.068 23.068,-23.068 h 380.415 c 12.72,0 23.068,10.348 23.068,23.068 v 57.255 c 0.001,4.661 -3.778,8.44 -8.439,8.44 z"
             style="fill:#0e0a57"
             inkscape:connector-curvature="0" />
          <rect
             id="rect8079"
             height="58.796001"
             width="39.946999"
             style="fill:#0e0a57"
             y="453.20401"
             x="376.022" />
          <rect
             id="rect8081"
             height="58.796001"
             width="39.946999"
             style="fill:#0e0a57"
             y="453.20401"
             x="96.030998" />
        </g>
        <path
           id="path8085"
           d="M 376.588,0 H 135.412 C 107.561,0 84.775,22.787 84.775,50.637 v 402.567 c 0,6.189 5.064,11.253 11.253,11.253 h 319.945 c 6.189,0 11.253,-5.064 11.253,-11.253 V 50.637 C 427.225,22.787 404.438,0 376.588,0 Z"
           style="fill:#e42105"
           inkscape:connector-curvature="0" />
        <rect
           id="rect8087"
           height="96.626999"
           width="308.69699"
           style="fill:#ffffff"
           y="50.637001"
           x="101.657" />
        <path
           id="path8089"
           d="M 299.469,421.697 H 212.53 c -4.661,0 -8.44,-3.779 -8.44,-8.44 0,-4.661 3.779,-8.44 8.44,-8.44 h 86.94 c 4.661,0 8.44,3.779 8.44,8.44 0,4.661 -3.78,8.44 -8.441,8.44 z"
           style="fill:#961300"
           inkscape:connector-curvature="0" />
        <rect
           id="rect8091"
           height="147.265"
           width="145.903"
           style="fill:#ffffff"
           y="214.78101"
           x="101.657" />
        <rect
           id="rect8093"
           height="147.265"
           width="145.903"
           style="fill:#b8ddff"
           y="214.78101"
           x="264.44" />
        <g
           id="g8099">
          <circle
             id="circle8095"
             r="17.441999"
             cy="413.25699"
             cx="135.978"
             style="fill:#ffd117" />
          <circle
             id="circle8097"
             r="17.441999"
             cy="413.25699"
             cx="376.022"
             style="fill:#ffd117" />
        </g>
        <path
           id="path8101"
           d="M 393.467,189.468 H 118.533 c -4.661,0 -8.44,-3.779 -8.44,-8.44 0,-4.661 3.779,-8.44 8.44,-8.44 h 274.934 c 4.661,0 8.44,3.779 8.44,8.44 0,4.661 -3.779,8.44 -8.44,8.44 z"
           style="fill:#ff7039"
           inkscape:connector-curvature="0" />
        <g
           id="g8103" />
        <g
           id="g8105" />
        <g
           id="g8107" />
        <g
           id="g8109" />
        <g
           id="g8111" />
        <g
           id="g8113" />
        <g
           id="g8115" />
        <g
           id="g8117" />
        <g
           id="g8119" />
        <g
           id="g8121" />
        <g
           id="g8123" />
        <g
           id="g8125" />
        <g
           id="g8127" />
        <g
           id="g8129" />
        <g
           id="g8131" />
      </g>
    </g>
    <g
       inkscape:groupmode="layer"
       id="layer11"
       inkscape:label="Auto1">
      <g
         style="display:inline"
         id="g8042"
         transform="matrix(0.33257275,0,0,0.33257275,414.86138,72.762654)">
        <g
           id="g7946">
          <rect
             id="rect7942"
             height="118.491"
             width="62.757"
             style="fill:#0e0a57"
             y="382.591"
             x="11.253" />
          <rect
             id="rect7944"
             height="118.491"
             width="62.757"
             style="fill:#0e0a57"
             y="382.591"
             x="437.991" />
        </g>
        <path
           id="path7948"
           d="m 456.243,136.476 h -50.95 v 16.879 h 50.95 c 4.662,0 8.44,-3.779 8.44,-8.44 0,-4.661 -3.778,-8.439 -8.44,-8.439 z"
           style="fill:#ffb367"
           inkscape:connector-curvature="0" />
        <path
           id="path7950"
           d="M 427.796,136.476 413.854,60.711 C 408.813,33.322 381.896,10.918 354.046,10.918 h -196.09 c -27.851,0 -54.767,22.404 -59.808,49.793 L 72.22,201.562 172.28,374.314 H 339.72 L 439.78,201.562 Z"
           style="fill:#e42105"
           inkscape:connector-curvature="0" />
        <path
           id="path7952"
           d="M 397.254,63.768 C 393.666,44.27 373.878,27.797 354.046,27.797 h -196.09 c -19.833,0 -39.619,16.473 -43.208,35.969 l -13.383,72.71 H 247.56 l 8.441,11.253 8.44,-11.253 h 146.198 z"
           style="fill:#ffffff"
           inkscape:connector-curvature="0" />
        <path
           id="path7954"
           d="M 27.187,405.09 256,382.585 484.813,405.09 c -15.394,7.562 -31.001,14.392 -46.823,20.446 -58.199,22.28 -119.178,34.13 -181.991,34.13 -62.813,0 -123.791,-11.849 -181.991,-34.13 C 58.188,419.483 42.58,412.652 27.187,405.09 Z"
           style="fill:#e42105"
           inkscape:connector-curvature="0" />
        <g
           id="g7964">
          <path
             id="path7956"
             d="m 256,298.364 c -4.661,0 -8.44,3.779 -8.44,8.44 v 67.517 h 16.879 v -67.517 c 10e-4,-4.662 -3.777,-8.44 -8.439,-8.44 z"
             style="fill:#ff7039"
             inkscape:connector-curvature="0" />
          <path
             id="path7958"
             d="M 130.543,219.814 172.279,363.061 86.139,374.314 0,363.061 v -99.823 c 0,-30.022 24.452,-56.984 54.34,-59.921 l 17.881,-1.755 27.389,-2.678 c 13.278,-1.305 27.197,8.113 30.933,20.93 z"
             style="fill:#ff7039"
             inkscape:connector-curvature="0" />
          <path
             id="path7960"
             d="m 512,263.238 v 99.823 l -86.14,11.253 -86.14,-11.253 41.736,-143.247 c 3.736,-12.817 17.656,-22.235 30.934,-20.93 l 27.389,2.678 17.881,1.755 c 29.888,2.937 54.34,29.899 54.34,59.921 z"
             style="fill:#ff7039"
             inkscape:connector-curvature="0" />
          <path
             id="path7962"
             d="m 247.56,136.476 v 119.69 c 0,4.661 3.779,8.44 8.44,8.44 4.662,0 8.44,-3.779 8.44,-8.44 v -119.69 z"
             style="fill:#ff7039"
             inkscape:connector-curvature="0" />
        </g>
        <g
           id="g7970">
          <circle
             id="circle7966"
             r="32.151001"
             cy="280.91101"
             cx="74.009003"
             style="fill:#ffffff" />
          <circle
             id="circle7968"
             r="32.151001"
             cy="280.91101"
             cx="437.991"
             style="fill:#ffffff" />
        </g>
        <path
           id="path7972"
           d="m 0,363.061 v 30.776 c 0,6.189 5.064,11.253 11.253,11.253 h 489.495 c 6.189,0 11.253,-5.064 11.253,-11.253 v -30.776 z"
           style="fill:#ffb367"
           inkscape:connector-curvature="0" />
        <g
           id="g7974" />
        <g
           id="g7976" />
        <g
           id="g7978" />
        <g
           id="g7980" />
        <g
           id="g7982" />
        <g
           id="g7984" />
        <g
           id="g7986" />
        <g
           id="g7988" />
        <g
           id="g7990" />
        <g
           id="g7992" />
        <g
           id="g7994" />
        <g
           id="g7996" />
        <g
           id="g7998" />
        <g
           id="g8000" />
        <g
           id="g8002" />
      </g>
    </g>
  </g>
</svg>
