<?xml version="1.0" encoding="UTF-8" standalone="no"?>
<!-- Created with Inkscape (http://www.inkscape.org/) -->

<svg
   xmlns:dc="http://purl.org/dc/elements/1.1/"
   xmlns:cc="http://creativecommons.org/ns#"
   xmlns:rdf="http://www.w3.org/1999/02/22-rdf-syntax-ns#"
   xmlns:svg="http://www.w3.org/2000/svg"
   xmlns="http://www.w3.org/2000/svg"
   xmlns:sodipodi="http://sodipodi.sourceforge.net/DTD/sodipodi-0.dtd"
   xmlns:inkscape="http://www.inkscape.org/namespaces/inkscape"
   height="1000"
   width="1000"
   sodipodi:docname="bild1.svg"
   version="1.1"
   id="svg4946"
   inkscape:version="0.92.2 (5c3e80d, 2017-08-06)">
  <sodipodi:namedview
     id="base"
     pagecolor="#ffffff"
     bordercolor="#666666"
     borderopacity="1.0"
     inkscape:pageopacity="0.0"
     inkscape:pageshadow="2"
     inkscape:zoom="0.70710678"
     inkscape:cx="520.7204"
     inkscape:cy="689.86433"
     inkscape:document-units="px"
     inkscape:current-layer="layer74"
     showgrid="false"
     showguides="true"
     inkscape:window-width="1920"
     inkscape:window-height="1017"
     inkscape:window-x="-8"
     inkscape:window-y="-8"
     inkscape:window-maximized="1"
     showborder="true"
     inkscape:showpageshadow="false"
     inkscape:guide-bbox="true"
     guidetolerance="1"
     inkscape:snap-text-baseline="true"
     objecttolerance="1"
     gridtolerance="1">
    <sodipodi:guide
       position="0,1000"
       orientation="1,0"
       id="guide4948"
       inkscape:locked="false"
       inkscape:label=""
       inkscape:color="rgb(0,0,255)" />
    <sodipodi:guide
       position="1000,938"
       orientation="1,0"
       id="guide4950"
       inkscape:locked="false" />
    <sodipodi:guide
       position="1000,1000"
       orientation="0,1"
       id="guide7104"
       inkscape:locked="false"
       inkscape:label=""
       inkscape:color="rgb(0,0,255)" />
    <sodipodi:guide
       position="0,800"
       orientation="0,1"
       id="guide7108"
       inkscape:locked="false"
       inkscape:label=""
       inkscape:color="rgb(0,0,255)" />
    <sodipodi:guide
       position="0,800"
       orientation="1,0"
       id="guide7110"
       inkscape:locked="false"
       inkscape:label=""
       inkscape:color="rgb(0,0,255)" />
    <sodipodi:guide
       position="200,1000"
       orientation="1,0"
       id="guide7112"
       inkscape:locked="false"
       inkscape:label=""
       inkscape:color="rgb(0,0,255)" />
    <sodipodi:guide
       position="800,800"
       orientation="1,0"
       id="guide7141"
       inkscape:locked="false"
       inkscape:label=""
       inkscape:color="rgb(0,0,255)" />
    <sodipodi:guide
       position="500,500"
       orientation="0,1"
       id="guide7747"
       inkscape:locked="false"
       inkscape:label=""
       inkscape:color="rgb(0,0,255)" />
    <sodipodi:guide
       position="500,500"
       orientation="1,0"
       id="guide7749"
       inkscape:locked="false"
       inkscape:label=""
       inkscape:color="rgb(0,0,255)" />
    <sodipodi:guide
       position="200,800"
       orientation="0,1"
       id="guide7908"
       inkscape:locked="false" />
    <sodipodi:guide
       position="335.16862,480.83261"
       orientation="0,1"
       id="guide2707"
       inkscape:locked="false" />
    <sodipodi:guide
       position="391.73716,294.15642"
       orientation="0,1"
       id="guide2889"
       inkscape:locked="false" />
  </sodipodi:namedview>
  <defs
     id="defs4" />
  <metadata
     id="metadata7">
    <rdf:RDF>
      <cc:Work
         rdf:about="">
        <dc:format>image/svg+xml</dc:format>
        <dc:type
           rdf:resource="http://purl.org/dc/dcmitype/StillImage" />
        <dc:title></dc:title>
      </cc:Work>
    </rdf:RDF>
  </metadata>
  <g
     inkscape:groupmode="layer"
     id="layer72"
     inkscape:label="deckldrauf"
     style="display:inline">
    <g
       style="display:inline"
       inkscape:label="Kreis Kopie 9"
       inkscape:groupmode="layer"
       id="g4426">
      <path
         inkscape:connector-curvature="0"
         id="path4424"
         d="M 1000.0081,496.81482 C 1014.3442,821.00133 661.75733,1083.6881 355.25164,978.67807 41.526678,896.82374 -106.42984,482.72927 84.815905,220.76201 255.78908,-54.9005 695.05439,-73.830678 889.13118,186.07417 959.58309,272.91167 999.32366,383.92652 1000,495.7327"
         style="fill:#f37e21;fill-opacity:1;stroke:none;stroke-width:0;stroke-miterlimit:4;stroke-dasharray:none;stroke-opacity:1" />
      <path
         style="fill:#f37e21;fill-opacity:1;stroke:none;stroke-width:0;stroke-miterlimit:4;stroke-dasharray:none;stroke-opacity:1"
         d="M 449.30262,998.88669 C 428.77895,996.65875 400.03296,991.28661 382.83458,986.4649 331.1487,971.97437 301.69921,961.31212 270.82226,945.91062 124.86985,873.10914 21.803772,717.93062 2.9785289,542.63927 0.25007441,517.23325 -0.10547627,466.33486 2.2839879,443.21317 8.7110675,381.02145 26.327232,322.19509 53.73935,271.38623 c 11.280927,-20.90941 46.69747,-73.99095 62.74792,-94.04521 29.69774,-37.1059 71.75642,-73.86556 114.5095,-100.082328 147.73852,-90.595268 344.3943,-99.26566 498.93825,-21.997777 75.62947,37.812738 133.94432,90.595335 185.65486,168.042055 43.30341,64.8554 70.10248,137.58105 80.51472,218.49599 3.65196,28.37975 3.6982,105.46373 0.0785,130.81476 -14.87124,104.15236 -63.52385,198.78018 -142.41539,276.99362 -85.89554,85.15722 -197.44678,138.26564 -315.16591,150.04732 -19.87439,1.98904 -67.68934,1.57784 -89.29917,-0.76797 z"
         id="path4432"
         inkscape:connector-curvature="0" />
    </g>
    <g
       inkscape:groupmode="layer"
       id="layer73"
       inkscape:label="hand">
      <g
         style="display:inline"
         id="g4507"
         transform="rotate(180,377.57724,269.9145)">
        <path
           d="m 505.821,200.352 c 7.062,-5.297 7.945,-15.89 2.648,-22.952 -11.476,-15.007 -20.303,-19.421 -58.262,0.883 l -76.8,46.786 c -23.835,12.359 -84.745,8.828 -111.228,8.828 0,0 62.676,4.414 37.959,-32.662 -12.359,-18.538 -34.428,-29.131 -56.497,-29.131 h -34.428 c -20.303,0 -39.724,-6.179 -55.614,-18.538 C 115.64,125.318 44.137,180.932 44.137,180.932 v 158.897 h 123.586 c 17.655,0 35.31,-1.766 52.966,-4.414 L 335.448,317.76 c 3.531,0 7.945,-0.883 11.476,-0.883 v 0 c 9.71,-0.883 17.655,-6.179 24.717,-12.359 z"
           style="fill:#fdc794"
           id="SVGCleanerId_0"
           inkscape:connector-curvature="0" />
        <g
           id="g4444">
          <path
             d="m 505.821,200.352 c 7.062,-5.297 7.945,-15.89 2.648,-22.952 -11.476,-15.007 -20.303,-19.421 -58.262,0.883 l -76.8,46.786 c -23.835,12.359 -84.745,8.828 -111.228,8.828 0,0 62.676,4.414 37.959,-32.662 -12.359,-18.538 -34.428,-29.131 -56.497,-29.131 h -34.428 c -20.303,0 -39.724,-6.179 -55.614,-18.538 C 115.64,125.318 44.137,180.932 44.137,180.932 v 158.897 h 123.586 c 17.655,0 35.31,-1.766 52.966,-4.414 L 335.448,317.76 c 3.531,0 7.945,-0.883 11.476,-0.883 v 0 c 9.71,-0.883 17.655,-6.179 24.717,-12.359 z"
             style="fill:#fdc794"
             id="SVGCleanerId_0_1_"
             inkscape:connector-curvature="0" />
        </g>
        <path
           style="fill:#2872c9"
           d="M 44.138,154.448 H 0 v 211.863 h 44.138 z"
           id="polygon4446"
           inkscape:connector-curvature="0" />
        <path
           id="path4448"
           d="m 141.241,269.207 c -5.297,0 -8.828,-3.531 -8.828,-8.828 0,-22.069 16.772,-35.31 44.138,-35.31 h 85.628 c 5.297,0 8.828,3.531 8.828,8.828 0,5.297 -3.531,8.828 -8.828,8.828 h -85.628 c -26.483,0 -26.483,13.241 -26.483,17.655 10e-4,5.296 -3.53,8.827 -8.827,8.827 z"
           style="fill:#f9a671"
           inkscape:connector-curvature="0" />
        <g
           id="g4450" />
        <g
           id="g4452" />
        <g
           id="g4454" />
        <g
           id="g4456" />
        <g
           id="g4458" />
        <g
           id="g4460" />
        <g
           id="g4462" />
        <g
           id="g4464" />
        <g
           id="g4466" />
        <g
           id="g4468" />
        <g
           id="g4470" />
        <g
           id="g4472" />
        <g
           id="g4474" />
        <g
           id="g4476" />
        <g
           id="g4478" />
      </g>
    </g>
    <g
       inkscape:groupmode="layer"
       id="layer74"
       inkscape:label="wasser">
      <g
         id="g4590"
         transform="matrix(0.77074272,0,0,0.77074272,300.31566,422.23879)">
        <path
           id="path4532"
           d="M 443.882,5.28 C 440.842,1.92 436.554,0 432.01,0 h -352 C 75.498,0 71.178,1.92 68.138,5.28 65.13,8.608 63.626,13.088 64.074,17.6 l 48,480 c 0.832,8.192 7.712,14.4 15.936,14.4 h 256 c 8.224,0 15.104,-6.208 15.904,-14.4 l 48,-480 c 0.48,-4.512 -0.992,-8.992 -4.032,-12.32 z"
           style="fill:#eceff1"
           inkscape:connector-curvature="0" />
        <path
           id="path4534"
           d="M 401.29,163.2 369.61,480 H 142.41 L 106.89,125.76 c 40,-12.8 100.8,-21.44 149.12,18.24 46.72,38.4 105.6,31.36 145.28,19.2 z"
           style="fill:#2196f3"
           inkscape:connector-curvature="0" />
        <g
           id="g4536" />
        <g
           id="g4538" />
        <g
           id="g4540" />
        <g
           id="g4542" />
        <g
           id="g4544" />
        <g
           id="g4546" />
        <g
           id="g4548" />
        <g
           id="g4550" />
        <g
           id="g4552" />
        <g
           id="g4554" />
        <g
           id="g4556" />
        <g
           id="g4558" />
        <g
           id="g4560" />
        <g
           id="g4562" />
        <g
           id="g4564" />
      </g>
    </g>
  </g>
</svg>
