<?xml version="1.0" encoding="UTF-8" standalone="no"?>
<!-- Created with Inkscape (http://www.inkscape.org/) -->

<svg
   xmlns:dc="http://purl.org/dc/elements/1.1/"
   xmlns:cc="http://creativecommons.org/ns#"
   xmlns:rdf="http://www.w3.org/1999/02/22-rdf-syntax-ns#"
   xmlns:svg="http://www.w3.org/2000/svg"
   xmlns="http://www.w3.org/2000/svg"
   xmlns:sodipodi="http://sodipodi.sourceforge.net/DTD/sodipodi-0.dtd"
   xmlns:inkscape="http://www.inkscape.org/namespaces/inkscape"
   height="1000"
   width="1000"
   sodipodi:docname="bild6.svg"
   version="1.1"
   id="svg4946"
   inkscape:version="0.92.2 (5c3e80d, 2017-08-06)">
  <sodipodi:namedview
     id="base"
     pagecolor="#ffffff"
     bordercolor="#666666"
     borderopacity="1.0"
     inkscape:pageopacity="0.0"
     inkscape:pageshadow="2"
     inkscape:zoom="0.70710678"
     inkscape:cx="137.37571"
     inkscape:cy="427.25627"
     inkscape:document-units="px"
     inkscape:current-layer="g9231"
     showgrid="false"
     showguides="true"
     inkscape:window-width="1920"
     inkscape:window-height="1017"
     inkscape:window-x="-8"
     inkscape:window-y="-8"
     inkscape:window-maximized="1"
     showborder="true"
     inkscape:showpageshadow="false"
     inkscape:guide-bbox="true"
     guidetolerance="14">
    <sodipodi:guide
       position="0,1000"
       orientation="1,0"
       id="guide4948"
       inkscape:locked="false"
       inkscape:label=""
       inkscape:color="rgb(0,0,255)" />
    <sodipodi:guide
       position="1000,938"
       orientation="1,0"
       id="guide4950"
       inkscape:locked="false" />
    <sodipodi:guide
       position="1000,1000"
       orientation="0,1"
       id="guide7104"
       inkscape:locked="false"
       inkscape:label=""
       inkscape:color="rgb(0,0,255)" />
    <sodipodi:guide
       position="0,800"
       orientation="0,1"
       id="guide7108"
       inkscape:locked="false"
       inkscape:label=""
       inkscape:color="rgb(0,0,255)" />
    <sodipodi:guide
       position="0,800"
       orientation="1,0"
       id="guide7110"
       inkscape:locked="false"
       inkscape:label=""
       inkscape:color="rgb(0,0,255)" />
    <sodipodi:guide
       position="200,1000"
       orientation="1,0"
       id="guide7112"
       inkscape:locked="false"
       inkscape:label=""
       inkscape:color="rgb(0,0,255)" />
    <sodipodi:guide
       position="1000,200"
       orientation="0,1"
       id="guide7139"
       inkscape:locked="false"
       inkscape:label=""
       inkscape:color="rgb(0,0,255)" />
    <sodipodi:guide
       position="800,800"
       orientation="1,0"
       id="guide7141"
       inkscape:locked="false"
       inkscape:label=""
       inkscape:color="rgb(0,0,255)" />
    <sodipodi:guide
       position="800,200"
       orientation="0,1"
       id="guide7143"
       inkscape:locked="false" />
    <sodipodi:guide
       position="500,500"
       orientation="0,1"
       id="guide7747"
       inkscape:locked="false"
       inkscape:label=""
       inkscape:color="rgb(0,0,255)" />
    <sodipodi:guide
       position="500,500"
       orientation="1,0"
       id="guide7749"
       inkscape:locked="false"
       inkscape:label=""
       inkscape:color="rgb(0,0,255)" />
    <sodipodi:guide
       position="200,800"
       orientation="0,1"
       id="guide7908"
       inkscape:locked="false" />
  </sodipodi:namedview>
  <defs
     id="defs4" />
  <metadata
     id="metadata7">
    <rdf:RDF>
      <cc:Work
         rdf:about="">
        <dc:format>image/svg+xml</dc:format>
        <dc:type
           rdf:resource="http://purl.org/dc/dcmitype/StillImage" />
        <dc:title></dc:title>
      </cc:Work>
    </rdf:RDF>
  </metadata>
  <g
     style="display:inline"
     inkscape:label="Ein Geschenk"
     id="g9391"
     inkscape:groupmode="layer">
    <g
       id="g9231"
       inkscape:groupmode="layer"
       inkscape:label="Kreis"
       style="display:inline">
      <path
         style="fill:#49db9d;fill-opacity:1;stroke:#49db9d;stroke-width:1.00024152;stroke-opacity:1"
         d="M 1000.0081,496.81482 C 1014.3442,821.00133 661.75733,1083.6881 355.25164,978.67807 41.526678,896.82374 -106.42984,482.72927 84.815905,220.76201 255.78908,-54.9005 695.05439,-73.830678 889.13118,186.07417 959.58309,272.91167 999.32366,383.92652 1000,495.7327"
         id="path9229"
         inkscape:connector-curvature="0" />
    </g>
    <g
       inkscape:label="Geschenk"
       id="g9389"
       inkscape:groupmode="layer">
      <g
         transform="matrix(1.1899199,0,0,1.1899199,200.06641,203.34583)"
         id="g9387">
        <path
           inkscape:connector-curvature="0"
           style="fill:#db5449"
           d="M 15.754,133.909 252.062,252.063 488.37,133.909 V 385.971 L 252.062,504.123 15.754,385.969 Z"
           id="path9337" />
        <path
           inkscape:connector-curvature="0"
           style="fill:#c54b42"
           d="m 15.754,157.538 v 73.649 L 251.274,346.584 488.369,230.793 V 157.538 L 252.062,273.33 Z"
           id="path9339" />
        <path
           inkscape:connector-curvature="0"
           style="fill:#d05045"
           d="M 252.062,504.123 V 252.063 L 31.508,141.786 H 15.754 v 244.185 z"
           id="path9341" />
        <path
           inkscape:connector-curvature="0"
           style="fill:#bb483e"
           d="m 15.754,157.538 v 73.649 l 235.52,115.397 0.788,-0.394 v -73.255 0.394 z"
           id="path9343" />
        <path
           inkscape:connector-curvature="0"
           style="fill:#eb6258"
           d="M 0,125.638 252.062,0.001 504.124,125.638 V 142.18 L 252.062,267.815 0,142.573 Z"
           id="path9345" />
        <path
           inkscape:connector-curvature="0"
           style="fill:#efefef"
           d="m 396.603,39.779 c -8.271,-14.966 -25.994,-24.025 -46.868,-24.025 -47.655,0 -81.132,44.505 -97.674,72.862 -16.542,-28.357 -50.412,-72.468 -97.674,-72.468 -30.326,0 -51.988,18.511 -51.988,43.717 0,44.898 49.231,74.043 148.086,74.043 98.855,0 151.237,-37.415 151.237,-73.649 0.001,-7.089 -1.574,-14.178 -5.119,-20.48 z M 164.628,88.223 C 153.6,80.74 149.662,72.469 149.662,66.955 c 0,-6.695 6.302,-11.815 15.36,-11.815 21.268,0 38.203,27.963 47.655,47.262 -24.812,-1.97 -39.385,-8.666 -48.049,-14.179 z m 174.867,0 c -8.665,5.514 -23.237,12.209 -48.049,14.178 9.058,-19.298 25.994,-47.262 47.655,-47.262 9.058,0 15.36,5.12 15.36,11.815 10e-4,5.515 -3.938,13.785 -14.966,21.269 z"
           id="path9347" />
        <path
           inkscape:connector-curvature="0"
           style="fill:#e2574c"
           d="M 0,126.032 252.062,249.306 504.124,126.032 v 81.526 L 251.274,330.832 0,207.558 Z"
           id="path9349" />
        <path
           inkscape:connector-curvature="0"
           style="fill:#efefef"
           d="m 346.585,213.859 v -9.058 l -94.523,-51.2 -94.523,51.2 v 9.058 L 94.524,186.29 v -12.603 l 154.387,-81.526 3.151,1.575 3.151,-1.575 154.387,81.132 v 12.603 z"
           id="path9351" />
        <path
           inkscape:connector-curvature="0"
           style="fill:#dcdcdc"
           d="M 346.585,204.801 V 456.469 L 409.6,424.961 V 173.293 Z"
           id="path9353" />
        <path
           inkscape:connector-curvature="0"
           style="fill:#d1d1d1"
           d="m 94.523,425.354 63.015,31.508 V 205.195 L 94.523,173.293 c 0,-0.001 0,252.061 0,252.061 z"
           id="path9355" />
        <g
           id="g9357" />
        <g
           id="g9359" />
        <g
           id="g9361" />
        <g
           id="g9363" />
        <g
           id="g9365" />
        <g
           id="g9367" />
        <g
           id="g9369" />
        <g
           id="g9371" />
        <g
           id="g9373" />
        <g
           id="g9375" />
        <g
           id="g9377" />
        <g
           id="g9379" />
        <g
           id="g9381" />
        <g
           id="g9383" />
        <g
           id="g9385" />
      </g>
    </g>
  </g>
</svg>
