<?xml version="1.0" encoding="UTF-8" standalone="no"?>
<!-- Created with Inkscape (http://www.inkscape.org/) -->

<svg
   xmlns:dc="http://purl.org/dc/elements/1.1/"
   xmlns:cc="http://creativecommons.org/ns#"
   xmlns:rdf="http://www.w3.org/1999/02/22-rdf-syntax-ns#"
   xmlns:svg="http://www.w3.org/2000/svg"
   xmlns="http://www.w3.org/2000/svg"
   xmlns:sodipodi="http://sodipodi.sourceforge.net/DTD/sodipodi-0.dtd"
   xmlns:inkscape="http://www.inkscape.org/namespaces/inkscape"
   height="1000"
   width="1000"
   sodipodi:docname="bild12.svg"
   version="1.1"
   id="svg4946"
   inkscape:version="0.92.2 (5c3e80d, 2017-08-06)">
  <sodipodi:namedview
     id="base"
     pagecolor="#ffffff"
     bordercolor="#666666"
     borderopacity="1.0"
     inkscape:pageopacity="0.0"
     inkscape:pageshadow="2"
     inkscape:zoom="0.70710678"
     inkscape:cx="165.15479"
     inkscape:cy="439.72721"
     inkscape:document-units="px"
     inkscape:current-layer="g9503"
     showgrid="false"
     showguides="true"
     inkscape:window-width="1920"
     inkscape:window-height="1017"
     inkscape:window-x="-8"
     inkscape:window-y="-8"
     inkscape:window-maximized="1"
     showborder="true"
     inkscape:showpageshadow="false"
     inkscape:guide-bbox="true"
     guidetolerance="14">
    <sodipodi:guide
       position="0,1000"
       orientation="1,0"
       id="guide4948"
       inkscape:locked="false"
       inkscape:label=""
       inkscape:color="rgb(0,0,255)" />
    <sodipodi:guide
       position="1000,938"
       orientation="1,0"
       id="guide4950"
       inkscape:locked="false" />
    <sodipodi:guide
       position="1000,1000"
       orientation="0,1"
       id="guide7104"
       inkscape:locked="false"
       inkscape:label=""
       inkscape:color="rgb(0,0,255)" />
    <sodipodi:guide
       position="0,800"
       orientation="0,1"
       id="guide7108"
       inkscape:locked="false"
       inkscape:label=""
       inkscape:color="rgb(0,0,255)" />
    <sodipodi:guide
       position="0,800"
       orientation="1,0"
       id="guide7110"
       inkscape:locked="false"
       inkscape:label=""
       inkscape:color="rgb(0,0,255)" />
    <sodipodi:guide
       position="200,1000"
       orientation="1,0"
       id="guide7112"
       inkscape:locked="false"
       inkscape:label=""
       inkscape:color="rgb(0,0,255)" />
    <sodipodi:guide
       position="1000,200"
       orientation="0,1"
       id="guide7139"
       inkscape:locked="false"
       inkscape:label=""
       inkscape:color="rgb(0,0,255)" />
    <sodipodi:guide
       position="800,800"
       orientation="1,0"
       id="guide7141"
       inkscape:locked="false"
       inkscape:label=""
       inkscape:color="rgb(0,0,255)" />
    <sodipodi:guide
       position="800,200"
       orientation="0,1"
       id="guide7143"
       inkscape:locked="false" />
    <sodipodi:guide
       position="500,500"
       orientation="0,1"
       id="guide7747"
       inkscape:locked="false"
       inkscape:label=""
       inkscape:color="rgb(0,0,255)" />
    <sodipodi:guide
       position="500,500"
       orientation="1,0"
       id="guide7749"
       inkscape:locked="false"
       inkscape:label=""
       inkscape:color="rgb(0,0,255)" />
    <sodipodi:guide
       position="200,800"
       orientation="0,1"
       id="guide7908"
       inkscape:locked="false" />
  </sodipodi:namedview>
  <defs
     id="defs4" />
  <metadata
     id="metadata7">
    <rdf:RDF>
      <cc:Work
         rdf:about="">
        <dc:format>image/svg+xml</dc:format>
        <dc:type
           rdf:resource="http://purl.org/dc/dcmitype/StillImage" />
        <dc:title></dc:title>
      </cc:Work>
    </rdf:RDF>
  </metadata>
  <g
     inkscape:groupmode="layer"
     id="layer23"
     inkscape:label="Filmriss">
    <g
       id="g9503"
       inkscape:groupmode="layer"
       inkscape:label="Kreis Kopie 1"
       style="display:inline">
      <path
         style="fill:#e26aa3;fill-opacity:1;stroke:#e26aa3;stroke-width:1.00024152;stroke-opacity:1"
         d="M 1000.0081,496.81482 C 1014.3442,821.00133 661.75733,1083.6881 355.25164,978.67807 41.526678,896.82374 -106.42984,482.72927 84.815905,220.76201 255.78908,-54.9005 695.05439,-73.830678 889.13118,186.07417 959.58309,272.91167 999.32366,383.92652 1000,495.7327"
         id="path9501"
         inkscape:connector-curvature="0" />
    </g>
    <g
       inkscape:groupmode="layer"
       id="layer24"
       inkscape:label="Filmrolle">
      <g
         style="display:inline"
         id="g9641"
         transform="matrix(1.3003847,0,0,1.3003847,167.10152,147.42663)">
        <path
           id="path9511"
           d="m 198.545,0 h -79.296 c -7.883,0 -14.81,5.226 -16.975,12.804 L 88.276,61.793 H 229.517 L 215.521,12.804 C 213.355,5.226 206.428,0 198.545,0 Z"
           style="fill:#707487"
           inkscape:connector-curvature="0" />
        <path
           id="path9513"
           d="m 163.386,0 h -44.138 c -7.883,0 -14.81,5.225 -16.975,12.804 L 88.276,61.793 h 44.138 L 146.411,12.804 C 148.576,5.225 155.503,0 163.386,0 Z"
           style="fill:#65687a"
           inkscape:connector-curvature="0" />
        <path
           id="path9515"
           d="M 485.517,79.448 H 282.483 v 17.655 h 8.828 c 4.875,0 8.828,3.953 8.828,8.828 v 17.655 c 0,4.875 -3.953,8.828 -8.828,8.828 h -8.828 v 291.31 h 8.828 c 4.875,0 8.828,3.953 8.828,8.828 v 17.655 c 0,4.875 -3.953,8.828 -8.828,8.828 h -8.828 V 476.69 H 441.38 c 4.875,0 8.828,-3.953 8.828,-8.828 v -44.138 c 0,-4.875 3.953,-8.828 8.828,-8.828 h 26.483 c 4.875,0 8.828,-3.953 8.828,-8.828 V 88.276 c -0.002,-4.875 -3.955,-8.828 -8.83,-8.828 z M 344.276,450.207 c 0,4.875 -3.953,8.828 -8.828,8.828 h -8.828 c -4.875,0 -8.828,-3.953 -8.828,-8.828 v -17.655 c 0,-4.875 3.953,-8.828 8.828,-8.828 h 8.828 c 4.875,0 8.828,3.953 8.828,8.828 z m 0,-326.621 c 0,4.875 -3.953,8.828 -8.828,8.828 h -8.828 c -4.875,0 -8.828,-3.953 -8.828,-8.828 v -17.655 c 0,-4.875 3.953,-8.828 8.828,-8.828 h 8.828 c 4.875,0 8.828,3.953 8.828,8.828 z m 44.138,326.621 c 0,4.875 -3.953,8.828 -8.828,8.828 h -8.828 c -4.875,0 -8.828,-3.953 -8.828,-8.828 v -17.655 c 0,-4.875 3.953,-8.828 8.828,-8.828 h 8.828 c 4.875,0 8.828,3.953 8.828,8.828 z m 0,-326.621 c 0,4.875 -3.953,8.828 -8.828,8.828 h -8.828 c -4.875,0 -8.828,-3.953 -8.828,-8.828 v -17.655 c 0,-4.875 3.953,-8.828 8.828,-8.828 h 8.828 c 4.875,0 8.828,3.953 8.828,8.828 z m 44.138,326.621 c 0,4.875 -3.953,8.828 -8.828,8.828 h -8.828 c -4.875,0 -8.828,-3.953 -8.828,-8.828 v -17.655 c 0,-4.875 3.953,-8.828 8.828,-8.828 h 8.828 c 4.875,0 8.828,3.953 8.828,8.828 z m 0,-326.621 c 0,4.875 -3.953,8.828 -8.828,8.828 h -8.828 c -4.875,0 -8.828,-3.953 -8.828,-8.828 v -17.655 c 0,-4.875 3.953,-8.828 8.828,-8.828 h 8.828 c 4.875,0 8.828,3.953 8.828,8.828 z m 44.138,0 c 0,4.875 -3.953,8.828 -8.828,8.828 h -8.828 c -4.875,0 -8.828,-3.953 -8.828,-8.828 v -17.655 c 0,-4.875 3.953,-8.828 8.828,-8.828 h 8.828 c 4.875,0 8.828,3.953 8.828,8.828 z"
           style="fill:#7a6666"
           inkscape:connector-curvature="0" />
        <rect
           id="rect9517"
           height="414.897"
           width="247.172"
           style="fill:#876e6e"
           y="70.621002"
           x="35.310001" />
        <rect
           id="rect9519"
           height="414.897"
           width="79.447998"
           style="fill:#7a6666"
           y="70.621002"
           x="35.310001" />
        <g
           id="g9525">
          <path
             id="path9521"
             d="M 291.31,476.69 H 26.483 c -4.875,0 -8.828,3.953 -8.828,8.828 v 17.655 c 0,4.875 3.953,8.828 8.828,8.828 H 291.31 c 4.875,0 8.828,-3.953 8.828,-8.828 v -17.655 c 0,-4.876 -3.953,-8.828 -8.828,-8.828 z"
             style="fill:#5b5d6e"
             inkscape:connector-curvature="0" />
          <path
             id="path9523"
             d="M 291.31,44.138 H 26.483 c -4.875,0 -8.828,3.953 -8.828,8.828 v 17.655 c 0,4.875 3.953,8.828 8.828,8.828 H 291.31 c 4.875,0 8.828,-3.953 8.828,-8.828 V 52.966 c 0,-4.876 -3.953,-8.828 -8.828,-8.828 z"
             style="fill:#5b5d6e"
             inkscape:connector-curvature="0" />
        </g>
        <g
           id="g9547">
          <path
             id="path9527"
             d="m 71.772,132.414 h -9.978 c -4.875,0 -8.828,-3.953 -8.828,-8.828 v -17.655 c 0,-4.875 3.953,-8.828 8.828,-8.828 h 9.978 c 4.875,0 8.828,3.953 8.828,8.828 v 17.655 c -10e-4,4.875 -3.952,8.828 -8.828,8.828 z"
             style="fill:#5f4b50"
             inkscape:connector-curvature="0" />
          <path
             id="path9529"
             d="m 117.83,132.414 h -9.978 c -4.875,0 -8.828,-3.953 -8.828,-8.828 v -17.655 c 0,-4.875 3.953,-8.828 8.828,-8.828 h 9.978 c 4.875,0 8.828,3.953 8.828,8.828 v 17.655 c -0.001,4.875 -3.953,8.828 -8.828,8.828 z"
             style="fill:#5f4b50"
             inkscape:connector-curvature="0" />
          <path
             id="path9531"
             d="m 163.886,132.414 h -9.978 c -4.875,0 -8.828,-3.953 -8.828,-8.828 v -17.655 c 0,-4.875 3.953,-8.828 8.828,-8.828 h 9.978 c 4.875,0 8.828,3.953 8.828,8.828 v 17.655 c 0,4.875 -3.953,8.828 -8.828,8.828 z"
             style="fill:#5f4b50"
             inkscape:connector-curvature="0" />
          <path
             id="path9533"
             d="m 209.943,132.414 h -9.978 c -4.875,0 -8.828,-3.953 -8.828,-8.828 v -17.655 c 0,-4.875 3.953,-8.828 8.828,-8.828 h 9.978 c 4.875,0 8.828,3.953 8.828,8.828 v 17.655 c 0,4.875 -3.953,8.828 -8.828,8.828 z"
             style="fill:#5f4b50"
             inkscape:connector-curvature="0" />
          <path
             id="path9535"
             d="m 256,132.414 h -9.978 c -4.875,0 -8.828,-3.953 -8.828,-8.828 v -17.655 c 0,-4.875 3.953,-8.828 8.828,-8.828 H 256 c 4.875,0 8.828,3.953 8.828,8.828 v 17.655 c 0,4.875 -3.953,8.828 -8.828,8.828 z"
             style="fill:#5f4b50"
             inkscape:connector-curvature="0" />
          <path
             id="path9537"
             d="m 71.772,459.034 h -9.978 c -4.875,0 -8.828,-3.953 -8.828,-8.828 v -17.655 c 0,-4.875 3.953,-8.828 8.828,-8.828 h 9.978 c 4.875,0 8.828,3.953 8.828,8.828 v 17.655 c -10e-4,4.876 -3.952,8.828 -8.828,8.828 z"
             style="fill:#5f4b50"
             inkscape:connector-curvature="0" />
          <path
             id="path9539"
             d="m 117.83,459.034 h -9.978 c -4.875,0 -8.828,-3.953 -8.828,-8.828 v -17.655 c 0,-4.875 3.953,-8.828 8.828,-8.828 h 9.978 c 4.875,0 8.828,3.953 8.828,8.828 v 17.655 c -0.001,4.876 -3.953,8.828 -8.828,8.828 z"
             style="fill:#5f4b50"
             inkscape:connector-curvature="0" />
          <path
             id="path9541"
             d="m 163.886,459.034 h -9.978 c -4.875,0 -8.828,-3.953 -8.828,-8.828 v -17.655 c 0,-4.875 3.953,-8.828 8.828,-8.828 h 9.978 c 4.875,0 8.828,3.953 8.828,8.828 v 17.655 c 0,4.876 -3.953,8.828 -8.828,8.828 z"
             style="fill:#5f4b50"
             inkscape:connector-curvature="0" />
          <path
             id="path9543"
             d="m 209.943,459.034 h -9.978 c -4.875,0 -8.828,-3.953 -8.828,-8.828 v -17.655 c 0,-4.875 3.953,-8.828 8.828,-8.828 h 9.978 c 4.875,0 8.828,3.953 8.828,8.828 v 17.655 c 0,4.876 -3.953,8.828 -8.828,8.828 z"
             style="fill:#5f4b50"
             inkscape:connector-curvature="0" />
          <path
             id="path9545"
             d="m 256,459.034 h -9.978 c -4.875,0 -8.828,-3.953 -8.828,-8.828 v -17.655 c 0,-4.875 3.953,-8.828 8.828,-8.828 H 256 c 4.875,0 8.828,3.953 8.828,8.828 v 17.655 c 0,4.876 -3.953,8.828 -8.828,8.828 z"
             style="fill:#5f4b50"
             inkscape:connector-curvature="0" />
        </g>
        <g
           id="g9553">
          <path
             id="path9549"
             d="m 291.31,476.69 h -97.103 c -4.875,0 -8.828,3.953 -8.828,8.828 v 17.655 c 0,4.875 3.953,8.828 8.828,8.828 h 97.103 c 4.875,0 8.828,-3.953 8.828,-8.828 v -17.655 c 0,-4.876 -3.953,-8.828 -8.828,-8.828 z"
             style="fill:#65687a"
             inkscape:connector-curvature="0" />
          <path
             id="path9551"
             d="m 291.31,44.138 h -97.103 c -4.875,0 -8.828,3.953 -8.828,8.828 v 17.655 c 0,4.875 3.953,8.828 8.828,8.828 h 97.103 c 4.875,0 8.828,-3.953 8.828,-8.828 V 52.966 c 0,-4.876 -3.953,-8.828 -8.828,-8.828 z"
             style="fill:#65687a"
             inkscape:connector-curvature="0" />
        </g>
        <g
           id="g9561">
          <path
             id="path9555"
             d="m 291.31,459.034 h -8.828 v 17.655 h 17.655 v -26.483 c 10e-4,4.876 -3.952,8.828 -8.827,8.828 z"
             style="fill:#6e5a5f"
             inkscape:connector-curvature="0" />
          <path
             id="path9557"
             d="m 291.31,132.414 h -8.828 v 291.31 h 8.828 c 4.875,0 8.828,3.953 8.828,8.828 V 123.586 c 0,4.875 -3.953,8.828 -8.828,8.828 z"
             style="fill:#6e5a5f"
             inkscape:connector-curvature="0" />
          <path
             id="path9559"
             d="m 282.483,79.448 v 17.655 h 8.828 c 4.875,0 8.828,3.953 8.828,8.828 V 79.448 Z"
             style="fill:#6e5a5f"
             inkscape:connector-curvature="0" />
        </g>
        <g
           id="g9563" />
        <g
           id="g9565" />
        <g
           id="g9567" />
        <g
           id="g9569" />
        <g
           id="g9571" />
        <g
           id="g9573" />
        <g
           id="g9575" />
        <g
           id="g9577" />
        <g
           id="g9579" />
        <g
           id="g9581" />
        <g
           id="g9583" />
        <g
           id="g9585" />
        <g
           id="g9587" />
        <g
           id="g9589" />
        <g
           id="g9591" />
      </g>
    </g>
    <g
       inkscape:groupmode="layer"
       id="layer25"
       inkscape:label="Flasche">
      <g
         id="g9800"
         transform="matrix(0.6875,0,0,0.6875,199.54158,338.3)">
        <path
           id="path9685"
           d="M 280.005,104.8 V 40 h -64 v 64.8 c -32,6.4 -56,34.4 -56,68.8 v 284.8 c 0,38.4 32.8,37.6 72,37.6 h 32 c 38.4,0 72,1.6 72,-37.6 v -284 c 0,-34.4 -24,-63.2 -56,-69.6 z"
           style="fill:#6adfe2"
           inkscape:connector-curvature="0" />
        <path
           id="path9687"
           d="m 232.005,496 h 32 c 38.4,0 72,1.6 72,-37.6 v -284 c 0,-34.4 -24,-63.2 -56,-68.8 V 40 h -64 v 64"
           style="fill:#5fd6d6"
           inkscape:connector-curvature="0" />
        <path
           id="path9689"
           d="m 334.405,173.6 c 0,-34.4 -22.4,-62.4 -54.4,-68.8 V 40 h -64 v 64"
           style="fill:#4bc6c3"
           inkscape:connector-curvature="0" />
        <polyline
           id="polyline9691"
           points="280.005,104 280.005,40 216.005,40 "
           style="fill:#3eafaa" />
        <path
           id="path9693"
           d="m 160.005,224 v 234.4 c 0,38.4 32.8,37.6 72,37.6 h 32 c 38.4,0 72,1.6 72,-37.6 V 224 Z"
           style="fill:#59c9c9"
           inkscape:connector-curvature="0" />
        <path
           id="path9695"
           d="m 232.005,496 h 32 c 38.4,0 72,1.6 72,-37.6 V 224 h -176"
           style="fill:#42b2af"
           inkscape:connector-curvature="0" />
        <g
           id="g9709">
          <circle
             id="circle9697"
             r="23.200001"
             cy="145.60001"
             cx="248.005"
             style="fill:#a9eded" />
          <rect
             id="rect9699"
             height="8"
             width="112"
             style="fill:#a9eded"
             y="304"
             x="192.005" />
          <rect
             id="rect9701"
             height="8"
             width="112"
             style="fill:#a9eded"
             y="320"
             x="192.005" />
          <rect
             id="rect9703"
             height="8"
             width="112"
             style="fill:#a9eded"
             y="336"
             x="192.005" />
          <rect
             id="rect9705"
             height="8"
             width="112"
             style="fill:#a9eded"
             y="352"
             x="192.005" />
          <polygon
             id="polygon9707"
             points="160.005,216 336.005,216 336.005,224 160.005,224 160.005,216 "
             style="fill:#a9eded" />
        </g>
        <g
           id="g9715">
          <polygon
             id="polygon9711"
             points="221.605,235.2 248.005,208 274.405,235.2 288.805,220.8 248.005,179.2 207.205,220.8 "
             style="fill:#004a56" />
          <polygon
             id="polygon9713"
             points="274.405,235.2 248.005,262.4 221.605,235.2 207.205,249.6 248.005,291.2 288.805,249.6 "
             style="fill:#004a56" />
        </g>
        <path
           id="path9717"
           d="m 176.005,445.6 c 0,3.2 -0.8,5.6 -4,5.6 v 0 c -3.2,0 -4,-2.4 -4,-5.6 V 242.4 c 0,-3.2 0.8,-5.6 4,-5.6 v 0 c 3.2,0 4,2.4 4,5.6 z"
           style="fill:#71d8d5"
           inkscape:connector-curvature="0" />
        <path
           id="path9719"
           d="m 176.005,208 c 0,0.8 -0.8,1.6 -4,1.6 v 0 c -3.2,0 -4,-0.8 -4,-1.6 v -45.6 c 0,-0.8 0.8,-1.6 4,-1.6 v 0 c 3.2,0 4,0.8 4,1.6 z"
           style="fill:#98ede8"
           inkscape:connector-curvature="0" />
        <path
           id="path9721"
           d="m 288.005,29.6 c 0,4.8 -4,10.4 -8.8,10.4 h -62.4 c -4.8,0 -8.8,-5.6 -8.8,-10.4 V 7.2 c 0,-4.8 4,-7.2 8.8,-7.2 h 62.4 c 4.8,0 8.8,2.4 8.8,7.2 z"
           style="fill:#7a8786"
           inkscape:connector-curvature="0" />
        <path
           id="path9723"
           d="m 208.805,7.2 c 0,-4.8 3.2,-7.2 8,-7.2 h 62.4 c 4.8,0 8.8,2.4 8.8,7.2 v 22.4 c 0,4.8 -4,8 -8,8"
           style="fill:#65706f"
           inkscape:connector-curvature="0" />
        <path
           id="path9725"
           d="m 280.005,5.6 c 0,0.8 -1.6,2.4 -2.4,2.4 h -58.4 c -1.6,0 -3.2,-1.6 -3.2,-2.4 V 2.4 c 0,-0.8 1.6,-2.4 2.4,-2.4 h 58.4 c 1.6,0 3.2,1.6 3.2,2.4 z"
           style="fill:#95a09f"
           inkscape:connector-curvature="0" />
        <g
           id="g9727" />
        <g
           id="g9729" />
        <g
           id="g9731" />
        <g
           id="g9733" />
        <g
           id="g9735" />
        <g
           id="g9737" />
        <g
           id="g9739" />
        <g
           id="g9741" />
        <g
           id="g9743" />
        <g
           id="g9745" />
        <g
           id="g9747" />
        <g
           id="g9749" />
        <g
           id="g9751" />
        <g
           id="g9753" />
        <g
           id="g9755" />
      </g>
    </g>
  </g>
</svg>
