<?xml version="1.0" encoding="UTF-8" standalone="no"?>
<!-- Created with Inkscape (http://www.inkscape.org/) -->

<svg
   xmlns:dc="http://purl.org/dc/elements/1.1/"
   xmlns:cc="http://creativecommons.org/ns#"
   xmlns:rdf="http://www.w3.org/1999/02/22-rdf-syntax-ns#"
   xmlns:svg="http://www.w3.org/2000/svg"
   xmlns="http://www.w3.org/2000/svg"
   xmlns:sodipodi="http://sodipodi.sourceforge.net/DTD/sodipodi-0.dtd"
   xmlns:inkscape="http://www.inkscape.org/namespaces/inkscape"
   height="1000"
   width="1000"
   sodipodi:docname="bild13.svg"
   version="1.1"
   id="svg4946"
   inkscape:version="0.92.2 (5c3e80d, 2017-08-06)">
  <sodipodi:namedview
     id="base"
     pagecolor="#ffffff"
     bordercolor="#666666"
     borderopacity="1.0"
     inkscape:pageopacity="0.0"
     inkscape:pageshadow="2"
     inkscape:zoom="0.70710678"
     inkscape:cx="165.15479"
     inkscape:cy="439.72721"
     inkscape:document-units="px"
     inkscape:current-layer="g9499"
     showgrid="false"
     showguides="true"
     inkscape:window-width="1920"
     inkscape:window-height="1017"
     inkscape:window-x="-8"
     inkscape:window-y="-8"
     inkscape:window-maximized="1"
     showborder="true"
     inkscape:showpageshadow="false"
     inkscape:guide-bbox="true"
     guidetolerance="14">
    <sodipodi:guide
       position="0,1000"
       orientation="1,0"
       id="guide4948"
       inkscape:locked="false"
       inkscape:label=""
       inkscape:color="rgb(0,0,255)" />
    <sodipodi:guide
       position="1000,938"
       orientation="1,0"
       id="guide4950"
       inkscape:locked="false" />
    <sodipodi:guide
       position="1000,1000"
       orientation="0,1"
       id="guide7104"
       inkscape:locked="false"
       inkscape:label=""
       inkscape:color="rgb(0,0,255)" />
    <sodipodi:guide
       position="0,800"
       orientation="0,1"
       id="guide7108"
       inkscape:locked="false"
       inkscape:label=""
       inkscape:color="rgb(0,0,255)" />
    <sodipodi:guide
       position="0,800"
       orientation="1,0"
       id="guide7110"
       inkscape:locked="false"
       inkscape:label=""
       inkscape:color="rgb(0,0,255)" />
    <sodipodi:guide
       position="200,1000"
       orientation="1,0"
       id="guide7112"
       inkscape:locked="false"
       inkscape:label=""
       inkscape:color="rgb(0,0,255)" />
    <sodipodi:guide
       position="1000,200"
       orientation="0,1"
       id="guide7139"
       inkscape:locked="false"
       inkscape:label=""
       inkscape:color="rgb(0,0,255)" />
    <sodipodi:guide
       position="800,800"
       orientation="1,0"
       id="guide7141"
       inkscape:locked="false"
       inkscape:label=""
       inkscape:color="rgb(0,0,255)" />
    <sodipodi:guide
       position="800,200"
       orientation="0,1"
       id="guide7143"
       inkscape:locked="false" />
    <sodipodi:guide
       position="500,500"
       orientation="0,1"
       id="guide7747"
       inkscape:locked="false"
       inkscape:label=""
       inkscape:color="rgb(0,0,255)" />
    <sodipodi:guide
       position="500,500"
       orientation="1,0"
       id="guide7749"
       inkscape:locked="false"
       inkscape:label=""
       inkscape:color="rgb(0,0,255)" />
    <sodipodi:guide
       position="200,800"
       orientation="0,1"
       id="guide7908"
       inkscape:locked="false" />
  </sodipodi:namedview>
  <defs
     id="defs4" />
  <metadata
     id="metadata7">
    <rdf:RDF>
      <cc:Work
         rdf:about="">
        <dc:format>image/svg+xml</dc:format>
        <dc:type
           rdf:resource="http://purl.org/dc/dcmitype/StillImage" />
        <dc:title></dc:title>
      </cc:Work>
    </rdf:RDF>
  </metadata>
  <g
     inkscape:groupmode="layer"
     id="layer26"
     inkscape:label="Fragenkönig">
    <g
       id="g9499"
       inkscape:groupmode="layer"
       inkscape:label="Kreis Kopie"
       style="display:inline">
      <path
         style="fill:#33ffbc;fill-opacity:1;stroke:#33ffbc;stroke-width:1.00024152;stroke-opacity:1"
         d="M 1000.0081,496.81482 C 1014.3442,821.00133 661.75733,1083.6881 355.25164,978.67807 41.526678,896.82374 -106.42984,482.72927 84.815905,220.76201 255.78908,-54.9005 695.05439,-73.830678 889.13118,186.07417 959.58309,272.91167 999.32366,383.92652 1000,495.7327"
         id="path9497"
         inkscape:connector-curvature="0" />
    </g>
    <g
       inkscape:groupmode="layer"
       id="layer28"
       inkscape:label="Fragezeichen">
      <g
         id="g10060"
         transform="matrix(1.1406477,0,0,1.1406477,234.46022,394.43701)">
        <g
           id="g10001"
           transform="matrix(1.25,0,0,-1.25,0,45)">
          <g
             id="g9999">
            <g
               id="g9997">
              <path
                 id="path9993"
                 d="m 170.667,-248.444 c -18.853,0 -34.133,15.28 -34.133,34.133 v 45.511 c 0,18.853 15.28,34.133 34.133,34.133 6.861,0.068 68.267,11.366 68.267,56.878 0,22.756 -22.756,45.522 -56.889,45.522 -27.773,0 -45.511,-22.767 -45.511,-34.145 0,-18.842 -15.28,-34.133 -34.133,-34.133 -18.853,0 -34.134,15.292 -34.134,34.134 C 68.267,-10.899 120.377,36 182.044,36 273.067,36 307.2,-32.062 307.2,-89.167 c 0,-47.15 -25.907,-83.206 -72.966,-101.49 -10.24,-3.982 -20.366,-6.679 -29.434,-8.499 v -15.155 c 0,-18.853 -15.28,-34.133 -34.133,-34.133"
                 style="fill:#be1931"
                 inkscape:connector-curvature="0" />
              <path
                 id="path9995"
                 d="m 204.8,-305.333 c 0,-18.853 -15.28,-34.133 -34.133,-34.133 -18.853,0 -34.133,15.28 -34.133,34.133 0,18.853 15.28,34.133 34.133,34.133 18.853,0 34.133,-15.28 34.133,-34.133"
                 style="fill:#be1931"
                 inkscape:connector-curvature="0" />
            </g>
          </g>
        </g>
        <g
           id="g10003" />
        <g
           id="g10005" />
        <g
           id="g10007" />
        <g
           id="g10009" />
        <g
           id="g10011" />
        <g
           id="g10013" />
        <g
           id="g10015" />
        <g
           id="g10017" />
        <g
           id="g10019" />
        <g
           id="g10021" />
        <g
           id="g10023" />
        <g
           id="g10025" />
        <g
           id="g10027" />
        <g
           id="g10029" />
        <g
           id="g10031" />
      </g>
    </g>
    <g
       inkscape:groupmode="layer"
       id="layer27"
       inkscape:label="Krone">
      <g
         style="display:inline"
         id="g9954"
         transform="matrix(0.86418094,0,0,0.86418094,278.73079,57.539359)">
        <path
           id="path9842"
           d="m 286.045,30 h -15 V 15 c 0,-8.291 -6.709,-15 -15,-15 -8.291,0 -15,6.709 -15,15 v 15 h -15 c -8.291,0 -15,6.709 -15,15 0,8.291 6.709,15 15,15 h 15 v 45 c 0,8.291 6.709,15 15,15 8.291,0 15,-6.709 15,-15 V 60 h 15 c 8.291,0 15,-6.709 15,-15 0,-8.291 -6.709,-15 -15,-15 z"
           style="fill:#ffde33"
           inkscape:connector-curvature="0" />
        <path
           id="path9844"
           d="M 271.045,105 V 60 h 15 c 8.291,0 15,-6.709 15,-15 0,-8.291 -6.709,-15 -15,-15 h -15 V 15 c 0,-8.291 -6.709,-15 -15,-15 v 120 c 8.291,0 15,-6.709 15,-15 z"
           style="fill:#ffbc33"
           inkscape:connector-curvature="0" />
        <path
           id="path9846"
           d="m 328.525,188.68 -60,-92 c -5.566,-8.35 -19.395,-8.35 -24.961,0 l -60,92 c -4.6,6.899 -2.739,16.201 4.16,20.801 h 136.641 c 6.899,-4.6 8.76,-13.902 4.16,-20.801 z"
           style="fill:#ffde33"
           inkscape:connector-curvature="0" />
        <path
           id="path9848"
           d="m 324.365,209.48 c 6.899,-4.6 8.76,-13.901 4.16,-20.801 l -60,-92 c -2.783,-4.175 -7.632,-6.262 -12.48,-6.262 V 209.48 Z"
           style="fill:#ffbc33"
           inkscape:connector-curvature="0" />
        <path
           id="path9850"
           d="m 428.845,228.5 c 34.2,6 62.5,34.8 67.3,69.3 0,0.3 0.3,0.6 0.3,0.9 2.7,21.9 -5.7,43.8 -19.5,60.9 l -31.6,30 c -5.4,-7.5 -14.4,-12.6 -24.3,-12.6 h -88.2 l 38.1,-47.4 c 13.8,-17.1 22.2,-39 19.5,-60.9 0,-0.3 -0.3,-0.6 -0.3,-0.9 -1.5,-11.7 -6,-22.8 -12.3,-32.7 15,-7.2 32.7,-9.9 51,-6.6 z"
           style="fill:#cf4529"
           inkscape:connector-curvature="0" />
        <path
           id="path9852"
           d="m 377.845,235.1 c 6.3,9.9 10.8,21 12.3,32.7 0,0.3 0.3,0.6 0.3,0.9 2.7,21.9 -5.7,43.8 -19.5,60.9 l -38.1,47.4 h -76.8 V 215.9 c 15.9,-13.2 37.2,-20.7 60,-18.6 2.4,0.3 5.1,0.9 7.8,1.2 22.5,3.9 42,17.7 54,36.6 z"
           style="fill:#db632c"
           inkscape:connector-curvature="0" />
        <path
           id="path9854"
           d="M 256.045,215.9 V 377 h -76.8 l -38.1,-47.4 c -13.8,-17.1 -22.2,-39 -19.5,-60.9 0,-0.3 0.3,-0.6 0.3,-0.9 1.5,-11.7 6,-22.8 12.3,-32.7 12,-18.9 31.5,-32.7 54,-36.6 2.7,-0.3 5.4,-0.9 7.8,-1.2 22.8,-2.1 44.1,5.4 60,18.6 z"
           style="fill:#ec7838"
           inkscape:connector-curvature="0" />
        <path
           id="path9856"
           d="m 134.245,235.1 c -6.3,9.9 -10.8,21 -12.3,32.7 0,0.3 -0.3,0.6 -0.3,0.9 -2.7,21.9 5.7,43.8 19.5,60.9 l 38.1,47.4 h -88.2 c -9.9,0 -18.9,5.1 -24.3,12.6 l -31.6,-30 c -13.8,-17.1 -22.2,-39 -19.5,-60.9 0,-0.3 0.3,-0.6 0.3,-0.9 4.8,-34.5 33.1,-63.3 67.3,-69.3 18.3,-3.3 36,-0.6 51,6.6 z"
           style="fill:#e55639"
           inkscape:connector-curvature="0" />
        <path
           id="path9858"
           d="m 361.045,437 c 0,8.4 -6.6,15 -15,15 -8.4,0 -15,-6.6 -15,-15 0,-8.4 6.6,-15 15,-15 8.4,0 15,6.6 15,15 z"
           inkscape:connector-curvature="0" />
        <path
           id="path9860"
           d="m 166.045,452 c -8.4,0 -15,-6.6 -15,-15 0,-8.4 6.6,-15 15,-15 8.4,0 15,6.6 15,15 0,8.4 -6.6,15 -15,15 z"
           inkscape:connector-curvature="0" />
        <path
           id="path9862"
           d="m 511.092,295.701 c -5.654,-41.06 -39.013,-74.824 -79.662,-82.104 -16.498,-2.933 -32.953,-1.615 -48.369,3.464 -14.302,-17.06 -34.083,-29.427 -56.631,-33.464 -24.668,-4.438 -49.761,0.557 -70.386,13.74 -20.626,-13.154 -45.63,-18.223 -70.4,-13.74 -22.467,4.025 -42.193,16.335 -56.51,33.503 -15.439,-5.109 -31.932,-6.442 -48.49,-3.503 -40.635,7.28 -73.993,41.045 -79.794,83.247 -3.105,24.478 4.966,50.142 23.906,73.55 l 31.352,29.868 c 2.915,2.871 6.724,4.307 10.518,4.307 3.882,0 7.749,-1.494 10.693,-4.482 5.815,-5.903 5.728,-15.396 -0.176,-21.211 l -30.18,-28.564 c -12.437,-15.483 -18.398,-33.589 -16.26,-50.508 3.853,-27.905 27.66,-51.738 55.229,-56.675 9.252,-1.641 18.312,-0.811 27.127,1.137 -2.831,7.196 -5.121,14.67 -6.209,22.579 -3.105,24.478 4.966,50.142 22.734,72.246 l 37.983,47.3 c 5.156,6.431 14.604,7.471 21.079,2.3 6.46,-5.186 7.5,-14.619 2.3,-21.079 l -37.983,-47.3 c -12.437,-15.483 -18.398,-33.589 -16.26,-50.508 3.853,-27.905 26.66,-51.738 54.229,-56.675 18.096,-3.193 35.499,0.82 50.112,10.71 V 377 c 0,8.291 6.709,15 15,15 8.291,0 15,-6.709 15,-15 V 223.843 c 14.641,-9.893 32.102,-13.911 50.098,-10.715 27.583,4.937 50.391,28.77 54.331,57.495 2.051,16.099 -3.911,34.204 -16.348,49.688 l -37.983,47.3 c -5.2,6.46 -4.16,15.894 2.3,21.079 2.769,2.227 6.079,3.311 9.375,3.311 4.395,0 8.745,-1.919 11.704,-5.61 l 37.983,-47.3 c 17.769,-22.104 25.84,-47.769 22.588,-73.389 -1.031,-7.485 -3.219,-14.601 -5.912,-21.484 8.776,-1.926 17.787,-2.739 26.962,-1.089 27.583,4.937 51.391,28.77 55.331,57.495 2.051,16.099 -3.911,34.204 -15.176,48.384 l -31.352,29.868 c -5.903,5.815 -5.991,15.308 -0.176,21.211 2.944,2.988 6.812,4.482 10.693,4.482 3.794,0 7.603,-1.436 10.518,-4.307 l 32.523,-31.172 c 17.77,-22.105 25.841,-47.769 22.589,-73.389 z"
           style="fill:#f9bc35"
           inkscape:connector-curvature="0" />
        <path
           id="path9864"
           d="M 271.045,377 V 223.843 c 14.641,-9.893 32.102,-13.911 50.098,-10.715 27.583,4.937 50.391,28.77 54.331,57.495 2.051,16.099 -3.911,34.204 -16.348,49.688 l -37.983,47.3 c -5.2,6.46 -4.16,15.894 2.3,21.079 2.769,2.227 6.079,3.311 9.375,3.311 4.395,0 8.745,-1.919 11.704,-5.61 l 37.983,-47.3 c 17.769,-22.104 25.84,-47.769 22.588,-73.389 -1.031,-7.485 -3.219,-14.601 -5.912,-21.484 8.776,-1.926 17.787,-2.739 26.962,-1.089 27.583,4.937 51.391,28.77 55.331,57.495 2.051,16.099 -3.911,34.204 -15.176,48.384 l -31.352,29.868 c -5.903,5.815 -5.991,15.308 -0.176,21.211 2.944,2.988 6.812,4.482 10.693,4.482 3.794,0 7.603,-1.436 10.518,-4.307 l 32.523,-31.172 c 17.769,-22.104 25.84,-47.769 22.588,-73.389 -5.654,-41.06 -39.013,-74.824 -79.662,-82.104 -16.498,-2.933 -32.953,-1.615 -48.369,3.464 -14.302,-17.06 -34.083,-29.427 -56.631,-33.464 -24.668,-4.438 -49.761,0.557 -70.386,13.74 V 392 c 8.292,0 15.001,-6.709 15.001,-15 z"
           style="fill:#f39e31"
           inkscape:connector-curvature="0" />
        <path
           id="path9866"
           d="m 421.045,512 h -330 c -24.814,0 -45,-20.186 -45,-45 v -60 c 0,-24.814 20.186,-45 45,-45 h 330 c 24.814,0 45,20.186 45,45 v 60 c 0,24.814 -20.186,45 -45,45 z"
           style="fill:#ffde33"
           inkscape:connector-curvature="0" />
        <path
           id="path9868"
           d="m 421.045,362 h -165 v 150 h 165 c 24.814,0 45,-20.186 45,-45 v -60 c 0,-24.814 -20.186,-45 -45,-45 z"
           style="fill:#ffbc33"
           inkscape:connector-curvature="0" />
        <circle
           id="circle9870"
           r="15"
           cy="437"
           cx="346.04999"
           style="fill:#cf4529" />
        <circle
           id="circle9872"
           r="15"
           cy="437"
           cx="166.03999"
           style="fill:#e55639" />
        <path
           id="path9874"
           d="m 466.045,422 h -60 c -8.291,0 -15,6.709 -15,15 0,8.291 6.709,15 15,15 h 60 z"
           style="fill:#f39e31"
           inkscape:connector-curvature="0" />
        <path
           id="path9876"
           d="m 106.045,422 h -60 v 30 h 60 c 8.291,0 15,-6.709 15,-15 0,-8.291 -6.709,-15 -15,-15 z"
           style="fill:#f9bc35"
           inkscape:connector-curvature="0" />
        <path
           id="path9878"
           d="m 256.045,512 c -25.649,0 -45,-32.241 -45,-75 0,-42.759 19.351,-75 45,-75 25.649,0 45,32.241 45,75 0,42.759 -19.351,75 -45,75 z"
           style="fill:#e55639"
           inkscape:connector-curvature="0" />
        <path
           id="path9880"
           d="m 301.045,437 c 0,-42.759 -19.351,-75 -45,-75 v 150 c 25.649,0 45,-32.241 45,-75 z"
           style="fill:#cf4529"
           inkscape:connector-curvature="0" />
        <g
           id="g9882" />
        <g
           id="g9884" />
        <g
           id="g9886" />
        <g
           id="g9888" />
        <g
           id="g9890" />
        <g
           id="g9892" />
        <g
           id="g9894" />
        <g
           id="g9896" />
        <g
           id="g9898" />
        <g
           id="g9900" />
        <g
           id="g9902" />
        <g
           id="g9904" />
        <g
           id="g9906" />
        <g
           id="g9908" />
        <g
           id="g9910" />
      </g>
    </g>
  </g>
</svg>
