<?xml version="1.0" encoding="UTF-8" standalone="no"?>
<!-- Created with Inkscape (http://www.inkscape.org/) -->

<svg
   xmlns:dc="http://purl.org/dc/elements/1.1/"
   xmlns:cc="http://creativecommons.org/ns#"
   xmlns:rdf="http://www.w3.org/1999/02/22-rdf-syntax-ns#"
   xmlns:svg="http://www.w3.org/2000/svg"
   xmlns="http://www.w3.org/2000/svg"
   xmlns:sodipodi="http://sodipodi.sourceforge.net/DTD/sodipodi-0.dtd"
   xmlns:inkscape="http://www.inkscape.org/namespaces/inkscape"
   height="1000"
   width="1000"
   sodipodi:docname="bild4.svg"
   version="1.1"
   id="svg4946"
   inkscape:version="0.92.2 (5c3e80d, 2017-08-06)">
  <sodipodi:namedview
     id="base"
     pagecolor="#ffffff"
     bordercolor="#666666"
     borderopacity="1.0"
     inkscape:pageopacity="0.0"
     inkscape:pageshadow="2"
     inkscape:zoom="0.70710678"
     inkscape:cx="26.347374"
     inkscape:cy="494.39757"
     inkscape:document-units="px"
     inkscape:current-layer="g9499"
     showgrid="false"
     showguides="true"
     inkscape:window-width="1920"
     inkscape:window-height="1017"
     inkscape:window-x="-8"
     inkscape:window-y="-8"
     inkscape:window-maximized="1"
     showborder="true"
     inkscape:showpageshadow="false"
     inkscape:guide-bbox="true"
     guidetolerance="14">
    <sodipodi:guide
       position="0,1000"
       orientation="1,0"
       id="guide4948"
       inkscape:locked="false"
       inkscape:label=""
       inkscape:color="rgb(0,0,255)" />
    <sodipodi:guide
       position="1000,938"
       orientation="1,0"
       id="guide4950"
       inkscape:locked="false" />
    <sodipodi:guide
       position="1000,1000"
       orientation="0,1"
       id="guide7104"
       inkscape:locked="false"
       inkscape:label=""
       inkscape:color="rgb(0,0,255)" />
    <sodipodi:guide
       position="0,800"
       orientation="0,1"
       id="guide7108"
       inkscape:locked="false"
       inkscape:label=""
       inkscape:color="rgb(0,0,255)" />
    <sodipodi:guide
       position="0,800"
       orientation="1,0"
       id="guide7110"
       inkscape:locked="false"
       inkscape:label=""
       inkscape:color="rgb(0,0,255)" />
    <sodipodi:guide
       position="200,1000"
       orientation="1,0"
       id="guide7112"
       inkscape:locked="false"
       inkscape:label=""
       inkscape:color="rgb(0,0,255)" />
    <sodipodi:guide
       position="1000,200"
       orientation="0,1"
       id="guide7139"
       inkscape:locked="false"
       inkscape:label=""
       inkscape:color="rgb(0,0,255)" />
    <sodipodi:guide
       position="800,800"
       orientation="1,0"
       id="guide7141"
       inkscape:locked="false"
       inkscape:label=""
       inkscape:color="rgb(0,0,255)" />
    <sodipodi:guide
       position="800,200"
       orientation="0,1"
       id="guide7143"
       inkscape:locked="false" />
    <sodipodi:guide
       position="500,500"
       orientation="0,1"
       id="guide7747"
       inkscape:locked="false"
       inkscape:label=""
       inkscape:color="rgb(0,0,255)" />
    <sodipodi:guide
       position="500,500"
       orientation="1,0"
       id="guide7749"
       inkscape:locked="false"
       inkscape:label=""
       inkscape:color="rgb(0,0,255)" />
    <sodipodi:guide
       position="200,800"
       orientation="0,1"
       id="guide7908"
       inkscape:locked="false" />
  </sodipodi:namedview>
  <defs
     id="defs4" />
  <metadata
     id="metadata7">
    <rdf:RDF>
      <cc:Work
         rdf:about="">
        <dc:format>image/svg+xml</dc:format>
        <dc:type
           rdf:resource="http://purl.org/dc/dcmitype/StillImage" />
        <dc:title></dc:title>
      </cc:Work>
    </rdf:RDF>
  </metadata>
  <g
     inkscape:groupmode="layer"
     id="layer29"
     inkscape:label="Händehoch">
    <g
       id="g9499"
       inkscape:groupmode="layer"
       inkscape:label="Kreis Kopie"
       style="display:inline">
      <path
         style="fill:#9fa6ff;fill-opacity:1;stroke:#9fa6ff;stroke-width:1.00024152;stroke-opacity:1"
         d="M 1000.0081,496.81482 C 1014.3442,821.00133 661.75733,1083.6881 355.25164,978.67807 41.526678,896.82374 -106.42984,482.72927 84.815905,220.76201 255.78908,-54.9005 695.05439,-73.830678 889.13118,186.07417 959.58309,272.91167 999.32366,383.92652 1000,495.7327"
         id="path9497"
         inkscape:connector-curvature="0" />
    </g>
    <g
       inkscape:groupmode="layer"
       id="layer30"
       inkscape:label="Kreis" />
    <g
       inkscape:groupmode="layer"
       id="layer31"
       inkscape:label="Hände 1">
      <g
         id="g10388"
         transform="matrix(1.2922366,0,0,1.2922366,172.58322,142.82193)">
        <path
           id="path10220"
           d="m 174.158,276.403 v -38.345 c 0,-4.596 -3.726,-8.321 -8.321,-8.321 H 60.313 c -4.596,0 -8.321,3.726 -8.321,8.321 v 38.345 c 0,4.596 3.726,8.321 8.321,8.321 h 105.524 c 4.595,0 8.321,-3.726 8.321,-8.321 z"
           style="fill:#efe7e4"
           inkscape:connector-curvature="0" />
        <path
           id="path10222"
           d="m 82.502,229.737 h -22.19 c -4.596,0 -8.321,3.726 -8.321,8.321 v 38.345 c 0,4.596 3.726,8.321 8.321,8.321 h 22.19 c 0,0 0,-54.987 0,-54.987 z"
           style="fill:#d8d1d0"
           inkscape:connector-curvature="0" />
        <path
           id="path10224"
           d="M 184.419,500.732 V 276.403 c 0,-4.596 -3.726,-8.321 -8.321,-8.321 H 50.051 c -4.596,0 -8.321,3.726 -8.321,8.321 v 226.664 c 0,4.596 3.726,8.321 8.321,8.321 3.797,0 93.053,-0.66 123.953,-0.345 5.738,0.06 10.415,-4.573 10.415,-10.311 z"
           style="fill:#546f7a"
           inkscape:connector-curvature="0" />
        <path
           id="path10226"
           d="m 50.051,511.388 c 1.127,0 9.775,-0.058 22.19,-0.132 V 268.082 h -22.19 c -4.595,0 -8.321,4.689 -8.321,10.473 v 224.513 c 0,4.595 3.726,8.32 8.321,8.32 z"
           style="fill:#465a65"
           inkscape:connector-curvature="0" />
        <path
           id="path10228"
           d="m 60.313,229.737 h 104.965 v -14.403 l 5.984,-5.526 c 8.362,-7.722 13.158,-18.679 13.158,-30.059 V 111.98 c 0,-11.298 -9.192,-20.49 -20.49,-20.49 -1.317,0 -2.6,0.137 -3.848,0.375 V 35.423 c 0,-11.702 -9.521,-21.223 -21.223,-21.223 h -0.193 c -2.397,0 -4.705,0.4 -6.856,1.136 C 128.308,8.421 121.13,3.669 112.863,3.669 h -0.192 c -9.914,0 -18.262,6.833 -20.582,16.037 -1.671,-0.425 -3.42,-0.649 -5.221,-0.649 h -0.193 c -11.702,0 -21.222,9.521 -21.222,21.222 v 1.882 c -1.475,-0.326 -3.009,-0.497 -4.58,-0.497 H 60.68 c -11.702,0 -21.223,9.52 -21.223,21.222 v 88.232 c 0,0.119 0.013,0.235 0.018,0.353 v 19.79 c 0,12.229 4.237,24.198 11.932,33.702 l 7.832,9.674 v 15.177 c 0.352,-0.047 0.709,-0.077 1.074,-0.077 z"
           style="fill:#ffc89f"
           inkscape:connector-curvature="0" />
        <g
           id="g10240">
          <path
             id="path10230"
             d="m 65.854,36.206 c -0.149,1.841 -0.284,3.821 -0.402,5.955 v 81.258 c 0,4.596 3.725,8.321 8.321,8.321 V 23.467 c -4.02,3.092 -6.911,7.576 -7.919,12.739 z"
             style="fill:#f7b081"
             inkscape:connector-curvature="0" />
          <path
             id="path10232"
             d="m 92.089,19.706 c -0.003,-0.001 -0.006,-0.001 -0.008,-0.002 v 103.714 c 0,4.596 3.726,8.321 8.321,8.321 V 7.604 c -4.053,2.884 -7.062,7.142 -8.313,12.102 z"
             style="fill:#f7b081"
             inkscape:connector-curvature="0" />
          <path
             id="path10234"
             d="m 131.81,15.335 c -1.857,-3.668 -4.755,-6.716 -8.294,-8.78 v 116.862 c 0,4.596 3.726,8.321 8.321,8.321 V 15.327 c -0.008,0.003 -0.018,0.005 -0.027,0.008 z"
             style="fill:#f7b081"
             inkscape:connector-curvature="0" />
          <path
             id="path10236"
             d="m 163.929,91.49 c -1.303,0 -2.573,0.135 -3.809,0.369 v 61.043 c 0,4.525 3.668,8.193 8.193,8.193 v -69.12 c -1.414,-0.312 -2.879,-0.485 -4.384,-0.485 z"
             style="fill:#f7b081"
             inkscape:connector-curvature="0" />
          <path
             id="path10238"
             d="m 39.565,174.169 c 0.505,9.192 3.391,18.131 8.321,25.879 V 45.992 c -3.605,2.737 -6.309,6.586 -7.591,11.045 -0.284,4.65 -0.532,9.926 -0.73,15.934 0,0 0,101.198 0,101.198 z"
             style="fill:#f7b081"
             inkscape:connector-curvature="0" />
        </g>
        <g
           id="g10262" />
        <g
           id="g10276" />
        <g
           id="g10290" />
        <g
           id="g10292" />
        <g
           id="g10294" />
        <g
           id="g10296" />
        <g
           id="g10298" />
        <g
           id="g10300" />
        <g
           id="g10302" />
        <g
           id="g10304" />
        <g
           id="g10306" />
        <g
           id="g10308" />
        <g
           id="g10310" />
        <g
           id="g10312" />
        <g
           id="g10314" />
        <g
           id="g10316" />
        <g
           id="g10318" />
        <g
           id="g10320" />
      </g>
      <g
         transform="matrix(-1.2922366,0,0,1.2922366,832.41678,142.82193)"
         id="g10544">
        <path
           inkscape:connector-curvature="0"
           style="fill:#efe7e4"
           d="m 174.158,276.403 v -38.345 c 0,-4.596 -3.726,-8.321 -8.321,-8.321 H 60.313 c -4.596,0 -8.321,3.726 -8.321,8.321 v 38.345 c 0,4.596 3.726,8.321 8.321,8.321 h 105.524 c 4.595,0 8.321,-3.726 8.321,-8.321 z"
           id="path10486" />
        <path
           inkscape:connector-curvature="0"
           style="fill:#d8d1d0"
           d="m 82.502,229.737 h -22.19 c -4.596,0 -8.321,3.726 -8.321,8.321 v 38.345 c 0,4.596 3.726,8.321 8.321,8.321 h 22.19 c 0,0 0,-54.987 0,-54.987 z"
           id="path10488" />
        <path
           inkscape:connector-curvature="0"
           style="fill:#546f7a"
           d="M 184.419,500.732 V 276.403 c 0,-4.596 -3.726,-8.321 -8.321,-8.321 H 50.051 c -4.596,0 -8.321,3.726 -8.321,8.321 v 226.664 c 0,4.596 3.726,8.321 8.321,8.321 3.797,0 93.053,-0.66 123.953,-0.345 5.738,0.06 10.415,-4.573 10.415,-10.311 z"
           id="path10490" />
        <path
           inkscape:connector-curvature="0"
           style="fill:#465a65"
           d="m 50.051,511.388 c 1.127,0 9.775,-0.058 22.19,-0.132 V 268.082 h -22.19 c -4.595,0 -8.321,4.689 -8.321,10.473 v 224.513 c 0,4.595 3.726,8.32 8.321,8.32 z"
           id="path10492" />
        <path
           inkscape:connector-curvature="0"
           style="fill:#ffc89f"
           d="m 60.313,229.737 h 104.965 v -14.403 l 5.984,-5.526 c 8.362,-7.722 13.158,-18.679 13.158,-30.059 V 111.98 c 0,-11.298 -9.192,-20.49 -20.49,-20.49 -1.317,0 -2.6,0.137 -3.848,0.375 V 35.423 c 0,-11.702 -9.521,-21.223 -21.223,-21.223 h -0.193 c -2.397,0 -4.705,0.4 -6.856,1.136 C 128.308,8.421 121.13,3.669 112.863,3.669 h -0.192 c -9.914,0 -18.262,6.833 -20.582,16.037 -1.671,-0.425 -3.42,-0.649 -5.221,-0.649 h -0.193 c -11.702,0 -21.222,9.521 -21.222,21.222 v 1.882 c -1.475,-0.326 -3.009,-0.497 -4.58,-0.497 H 60.68 c -11.702,0 -21.223,9.52 -21.223,21.222 v 88.232 c 0,0.119 0.013,0.235 0.018,0.353 v 19.79 c 0,12.229 4.237,24.198 11.932,33.702 l 7.832,9.674 v 15.177 c 0.352,-0.047 0.709,-0.077 1.074,-0.077 z"
           id="path10494" />
        <g
           id="g10506">
          <path
             inkscape:connector-curvature="0"
             style="fill:#f7b081"
             d="m 65.854,36.206 c -0.149,1.841 -0.284,3.821 -0.402,5.955 v 81.258 c 0,4.596 3.725,8.321 8.321,8.321 V 23.467 c -4.02,3.092 -6.911,7.576 -7.919,12.739 z"
             id="path10496" />
          <path
             inkscape:connector-curvature="0"
             style="fill:#f7b081"
             d="m 92.089,19.706 c -0.003,-0.001 -0.006,-0.001 -0.008,-0.002 v 103.714 c 0,4.596 3.726,8.321 8.321,8.321 V 7.604 c -4.053,2.884 -7.062,7.142 -8.313,12.102 z"
             id="path10498" />
          <path
             inkscape:connector-curvature="0"
             style="fill:#f7b081"
             d="m 131.81,15.335 c -1.857,-3.668 -4.755,-6.716 -8.294,-8.78 v 116.862 c 0,4.596 3.726,8.321 8.321,8.321 V 15.327 c -0.008,0.003 -0.018,0.005 -0.027,0.008 z"
             id="path10500" />
          <path
             inkscape:connector-curvature="0"
             style="fill:#f7b081"
             d="m 163.929,91.49 c -1.303,0 -2.573,0.135 -3.809,0.369 v 61.043 c 0,4.525 3.668,8.193 8.193,8.193 v -69.12 c -1.414,-0.312 -2.879,-0.485 -4.384,-0.485 z"
             id="path10502" />
          <path
             inkscape:connector-curvature="0"
             style="fill:#f7b081"
             d="m 39.565,174.169 c 0.505,9.192 3.391,18.131 8.321,25.879 V 45.992 c -3.605,2.737 -6.309,6.586 -7.591,11.045 -0.284,4.65 -0.532,9.926 -0.73,15.934 0,0 0,101.198 0,101.198 z"
             id="path10504" />
        </g>
        <g
           id="g10508" />
        <g
           id="g10510" />
        <g
           id="g10512" />
        <g
           id="g10514" />
        <g
           id="g10516" />
        <g
           id="g10518" />
        <g
           id="g10520" />
        <g
           id="g10522" />
        <g
           id="g10524" />
        <g
           id="g10526" />
        <g
           id="g10528" />
        <g
           id="g10530" />
        <g
           id="g10532" />
        <g
           id="g10534" />
        <g
           id="g10536" />
        <g
           id="g10538" />
        <g
           id="g10540" />
        <g
           id="g10542" />
      </g>
    </g>
  </g>
</svg>
