<?xml version="1.0" encoding="UTF-8" standalone="no"?>
<!-- Created with Inkscape (http://www.inkscape.org/) -->

<svg
   xmlns:dc="http://purl.org/dc/elements/1.1/"
   xmlns:cc="http://creativecommons.org/ns#"
   xmlns:rdf="http://www.w3.org/1999/02/22-rdf-syntax-ns#"
   xmlns:svg="http://www.w3.org/2000/svg"
   xmlns="http://www.w3.org/2000/svg"
   xmlns:sodipodi="http://sodipodi.sourceforge.net/DTD/sodipodi-0.dtd"
   xmlns:inkscape="http://www.inkscape.org/namespaces/inkscape"
   height="1000"
   width="1000"
   sodipodi:docname="bild5.svg"
   version="1.1"
   id="svg4946"
   inkscape:version="0.92.2 (5c3e80d, 2017-08-06)">
  <sodipodi:namedview
     id="base"
     pagecolor="#ffffff"
     bordercolor="#666666"
     borderopacity="1.0"
     inkscape:pageopacity="0.0"
     inkscape:pageshadow="2"
     inkscape:zoom="0.70710678"
     inkscape:cx="200.03067"
     inkscape:cy="545.22722"
     inkscape:document-units="px"
     inkscape:current-layer="g7011"
     showgrid="false"
     showguides="true"
     inkscape:window-width="1920"
     inkscape:window-height="1017"
     inkscape:window-x="-8"
     inkscape:window-y="-8"
     inkscape:window-maximized="1"
     showborder="true"
     inkscape:showpageshadow="false"
     inkscape:guide-bbox="true"
     guidetolerance="1"
     inkscape:snap-text-baseline="true"
     objecttolerance="1"
     gridtolerance="1">
    <sodipodi:guide
       position="0,1000"
       orientation="1,0"
       id="guide4948"
       inkscape:locked="false"
       inkscape:label=""
       inkscape:color="rgb(0,0,255)" />
    <sodipodi:guide
       position="1000,938"
       orientation="1,0"
       id="guide4950"
       inkscape:locked="false" />
    <sodipodi:guide
       position="1000,1000"
       orientation="0,1"
       id="guide7104"
       inkscape:locked="false"
       inkscape:label=""
       inkscape:color="rgb(0,0,255)" />
    <sodipodi:guide
       position="0,800"
       orientation="0,1"
       id="guide7108"
       inkscape:locked="false"
       inkscape:label=""
       inkscape:color="rgb(0,0,255)" />
    <sodipodi:guide
       position="0,800"
       orientation="1,0"
       id="guide7110"
       inkscape:locked="false"
       inkscape:label=""
       inkscape:color="rgb(0,0,255)" />
    <sodipodi:guide
       position="200,1000"
       orientation="1,0"
       id="guide7112"
       inkscape:locked="false"
       inkscape:label=""
       inkscape:color="rgb(0,0,255)" />
    <sodipodi:guide
       position="800,800"
       orientation="1,0"
       id="guide7141"
       inkscape:locked="false"
       inkscape:label=""
       inkscape:color="rgb(0,0,255)" />
    <sodipodi:guide
       position="500,500"
       orientation="0,1"
       id="guide7747"
       inkscape:locked="false"
       inkscape:label=""
       inkscape:color="rgb(0,0,255)" />
    <sodipodi:guide
       position="500,500"
       orientation="1,0"
       id="guide7749"
       inkscape:locked="false"
       inkscape:label=""
       inkscape:color="rgb(0,0,255)" />
    <sodipodi:guide
       position="200,800"
       orientation="0,1"
       id="guide7908"
       inkscape:locked="false" />
    <sodipodi:guide
       position="335.16862,480.83261"
       orientation="0,1"
       id="guide2707"
       inkscape:locked="false" />
    <sodipodi:guide
       position="391.73716,294.15642"
       orientation="0,1"
       id="guide2889"
       inkscape:locked="false" />
  </sodipodi:namedview>
  <defs
     id="defs4" />
  <metadata
     id="metadata7">
    <rdf:RDF>
      <cc:Work
         rdf:about="">
        <dc:format>image/svg+xml</dc:format>
        <dc:type
           rdf:resource="http://purl.org/dc/dcmitype/StillImage" />
        <dc:title></dc:title>
      </cc:Work>
    </rdf:RDF>
  </metadata>
  <g
     inkscape:groupmode="layer"
     id="layer66"
     inkscape:label="ich hab noch nie">
    <g
       style="display:inline"
       inkscape:label="Kreis"
       inkscape:groupmode="layer"
       id="g7011">
      <path
         inkscape:connector-curvature="0"
         id="path7009"
         d="M 1000.0081,496.81482 C 1014.3442,821.00133 661.75733,1083.6881 355.25164,978.67807 41.526678,896.82374 -106.42984,482.72927 84.815905,220.76201 255.78908,-54.9005 695.05439,-73.830678 889.13118,186.07417 959.58309,272.91167 999.32366,383.92652 1000,495.7327"
         style="fill:#b4567e;fill-opacity:1;stroke:none;stroke-width:1.00024152;stroke-opacity:1" />
    </g>
    <g
       inkscape:groupmode="layer"
       id="layer67"
       inkscape:label="schrift">
      <g
         aria-label="Never Have I Ever"
         transform="translate(-123.03658,-93.338092)"
         style="font-style:normal;font-weight:normal;font-size:133.33332825px;line-height:1.25;font-family:sans-serif;letter-spacing:0px;word-spacing:0px;display:inline;fill:#000000;fill-opacity:1;stroke:none"
         id="flowRoot7015">
        <path
           d="m 440.10156,287.80273 q -1.3125,18.9375 -3.65625,66.09375 -1.40625,34.6875 -2.34375,79.78125 -12.28125,-9.65625 -37.40625,-28.78125 -10.875,-7.59375 -32.4375,-22.78125 l -0.9375,49.6875 h -30.1875 q -0.75,-19.03125 -3.46875,-71.8125 -2.34375,-42.75 -4.78125,-72.1875 h 47.0625 l 34.875,33 q 0,-11.34375 -0.375,-17.8125 -0.28125,-5.71875 -1.125,-15.1875 z"
           style="font-style:normal;font-variant:normal;font-weight:normal;font-stretch:normal;font-size:192px;font-family:'Showcard Gothic';-inkscape-font-specification:'Showcard Gothic';text-align:center;text-anchor:middle"
           id="path7044" />
        <path
           d="m 546.41406,287.80273 -4.03125,59.34375 q -3.46875,-0.5625 -15,-1.96875 -7.875,-0.75 -17.25,-0.9375 l -1.40625,17.90625 q 10.3125,0.28125 33.65625,-0.46875 -1.03125,3.46875 -3.28125,12.9375 -1.3125,5.71875 -2.34375,13.21875 -2.71875,-0.65625 -13.59375,-1.6875 -5.0625,-0.28125 -15,-0.1875 l -0.9375,20.90625 q 7.03125,-0.0937 25.875,-1.21875 3.5625,-0.28125 11.71875,-2.25 -0.75,2.90625 -3.46875,13.96875 -1.3125,5.71875 -3.1875,14.4375 h -83.90625 l -2.71875,-73.5 q -0.75,-25.21875 -3.65625,-70.5 z"
           style="font-style:normal;font-variant:normal;font-weight:normal;font-stretch:normal;font-size:192px;font-family:'Showcard Gothic';-inkscape-font-specification:'Showcard Gothic';text-align:center;text-anchor:middle"
           id="path7046" />
        <path
           d="m 675.13281,287.80273 q -7.78125,23.0625 -24.9375,75.28125 -7.875,24.5625 -20.34375,68.71875 h -32.625 q -6.28125,-21.375 -21,-69.84375 -8.34375,-26.8125 -24.75,-74.15625 h 66.28125 q 0.9375,8.90625 4.40625,28.96875 2.34375,10.6875 7.3125,29.4375 2.625,-9.09375 7.6875,-29.625 2.34375,-11.0625 5.34375,-28.78125 z"
           style="font-style:normal;font-variant:normal;font-weight:normal;font-stretch:normal;font-size:192px;font-family:'Showcard Gothic';-inkscape-font-specification:'Showcard Gothic';text-align:center;text-anchor:middle"
           id="path7048" />
        <path
           d="m 778.53906,287.80273 -4.03125,59.34375 q -3.46875,-0.5625 -15,-1.96875 -7.875,-0.75 -17.25,-0.9375 l -1.40625,17.90625 q 10.3125,0.28125 33.65625,-0.46875 -1.03125,3.46875 -3.28125,12.9375 -1.3125,5.71875 -2.34375,13.21875 -2.71875,-0.65625 -13.59375,-1.6875 -5.0625,-0.28125 -15,-0.1875 l -0.9375,20.90625 q 7.03125,-0.0937 25.875,-1.21875 3.5625,-0.28125 11.71875,-2.25 -0.75,2.90625 -3.46875,13.96875 -1.3125,5.71875 -3.1875,14.4375 h -83.90625 l -2.71875,-73.5 q -0.75,-25.21875 -3.65625,-70.5 z"
           style="font-style:normal;font-variant:normal;font-weight:normal;font-stretch:normal;font-size:192px;font-family:'Showcard Gothic';-inkscape-font-specification:'Showcard Gothic';text-align:center;text-anchor:middle"
           id="path7050" />
        <path
           d="m 912.41406,341.70898 q 0,17.25 -9.65625,30.5625 -8.53125,11.625 -21.375,16.6875 2.71875,4.21875 13.40625,17.71875 5.34375,6.1875 16.3125,16.3125 -4.40625,1.59375 -19.40625,8.0625 -10.5,4.78125 -19.78125,9.375 -2.71875,-3.375 -12.09375,-17.4375 -4.3125,-7.125 -12.65625,-24 h -0.1875 l -0.9375,32.8125 h -52.78125 q -1.03125,-20.4375 -2.90625,-67.40625 -0.84375,-27.65625 -3.84375,-76.59375 25.78125,-2.71875 47.0625,-2.71875 78.84375,0 78.84375,56.625 z m -42.5625,20.25 q 0,-8.90625 -7.5,-12.75 -5.53125,-2.8125 -13.875,-2.4375 l -0.5625,32.0625 q 7.78125,0 13.875,-3.46875 8.0625,-4.5 8.0625,-13.40625 z"
           style="font-style:normal;font-variant:normal;font-weight:normal;font-stretch:normal;font-size:192px;font-family:'Showcard Gothic';-inkscape-font-specification:'Showcard Gothic';text-align:center;text-anchor:middle"
           id="path7052" />
        <path
           d="m 457.53906,527.80273 q -1.59375,23.0625 -4.21875,75.09375 -0.75,24.75 -2.625,68.90625 h -47.8125 l -1.03125,-31.5 q -1.6875,0.5625 -6.84375,2.71875 -6.09375,2.625 -8.625,4.21875 l -4.875,-11.53125 q -1.5,-3.75 -4.96875,-10.59375 l -0.9375,46.6875 h -52.78125 l -2.71875,-68.90625 q -0.84375,-26.90625 -4.21875,-75.09375 h 65.8125 l -4.40625,88.6875 q 6.84375,0.65625 13.125,0.375 4.03125,-0.0937 10.875,-0.75 l -4.78125,-88.3125 z"
           style="font-style:normal;font-variant:normal;font-weight:normal;font-stretch:normal;font-size:192px;font-family:'Showcard Gothic';-inkscape-font-specification:'Showcard Gothic';text-align:center;text-anchor:middle"
           id="path7054" />
        <path
           d="m 579.78906,671.80273 h -51.28125 l -3.46875,-12.46875 q -2.15625,0.84375 -10.78125,5.71875 -5.53125,3.5625 -12.28125,9.46875 l -5.34375,-11.34375 q -1.59375,-3.375 -4.59375,-9.46875 l -5.0625,18.09375 h -27.1875 q 6,-23.15625 18.5625,-76.40625 7.6875,-35.625 12.84375,-67.59375 h 56.34375 q 2.625,14.71875 14.34375,68.53125 6.46875,28.125 17.90625,75.46875 z m -59.15625,-30.75 q -1.59375,-4.96875 -5.625,-16.125 -2.4375,-6.1875 -7.40625,-17.0625 -2.15625,5.4375 -6.75,17.8125 -2.53125,7.125 -6,19.40625 2.8125,0 12.75,-1.125 6,-0.84375 13.03125,-2.90625 z"
           style="font-style:normal;font-variant:normal;font-weight:normal;font-stretch:normal;font-size:192px;font-family:'Showcard Gothic';-inkscape-font-specification:'Showcard Gothic';text-align:center;text-anchor:middle"
           id="path7056" />
        <path
           d="m 704.00781,527.80273 q -7.78125,23.0625 -24.9375,75.28125 -7.875,24.5625 -20.34375,68.71875 h -32.625 q -6.28125,-21.375 -21,-69.84375 -8.34375,-26.8125 -24.75,-74.15625 h 66.28125 q 0.9375,8.90625 4.40625,28.96875 2.34375,10.6875 7.3125,29.4375 2.625,-9.09375 7.6875,-29.625 2.34375,-11.0625 5.34375,-28.78125 z"
           style="font-style:normal;font-variant:normal;font-weight:normal;font-stretch:normal;font-size:192px;font-family:'Showcard Gothic';-inkscape-font-specification:'Showcard Gothic';text-align:center;text-anchor:middle"
           id="path7058" />
        <path
           d="m 807.41406,527.80273 -4.03125,59.34375 q -3.46875,-0.5625 -15,-1.96875 -7.875,-0.75 -17.25,-0.9375 l -1.40625,17.90625 q 10.3125,0.28125 33.65625,-0.46875 -1.03125,3.46875 -3.28125,12.9375 -1.3125,5.71875 -2.34375,13.21875 -2.71875,-0.65625 -13.59375,-1.6875 -5.0625,-0.28125 -15,-0.1875 l -0.9375,20.90625 q 7.03125,-0.0937 25.875,-1.21875 3.5625,-0.28125 11.71875,-2.25 -0.75,2.90625 -3.46875,13.96875 -1.3125,5.71875 -3.1875,14.4375 h -83.90625 l -2.71875,-73.5 q -0.75,-25.21875 -3.65625,-70.5 z"
           style="font-style:normal;font-variant:normal;font-weight:normal;font-stretch:normal;font-size:192px;font-family:'Showcard Gothic';-inkscape-font-specification:'Showcard Gothic';text-align:center;text-anchor:middle"
           id="path7060" />
        <path
           d="m 919.07031,527.80273 -3.65625,76.59375 q -1.03125,24.75 -2.4375,67.40625 h -52.59375 l -6.375,-144 z"
           style="font-style:normal;font-variant:normal;font-weight:normal;font-stretch:normal;font-size:192px;font-family:'Showcard Gothic';-inkscape-font-specification:'Showcard Gothic';text-align:center;text-anchor:middle"
           id="path7062" />
        <path
           d="m 484.91406,767.80273 -4.03125,59.34375 q -3.46875,-0.5625 -15,-1.96875 -7.875,-0.75 -17.25,-0.9375 l -1.40625,17.90625 q 10.3125,0.28125 33.65625,-0.46875 -1.03125,3.46875 -3.28125,12.9375 -1.3125,5.71875 -2.34375,13.21875 -2.71875,-0.65625 -13.59375,-1.6875 -5.0625,-0.28125 -15,-0.1875 l -0.9375,20.90625 q 7.03125,-0.0937 25.875,-1.21875 3.5625,-0.28125 11.71875,-2.25 -0.75,2.90625 -3.46875,13.96875 -1.3125,5.71875 -3.1875,14.4375 h -83.90625 l -2.71875,-73.5 q -0.75,-25.21875 -3.65625,-70.5 z"
           style="font-style:normal;font-variant:normal;font-weight:normal;font-stretch:normal;font-size:192px;font-family:'Showcard Gothic';-inkscape-font-specification:'Showcard Gothic';text-align:center;text-anchor:middle"
           id="path7064" />
        <path
           d="m 613.63281,767.80273 q -7.78125,23.0625 -24.9375,75.28125 -7.875,24.5625 -20.34375,68.71875 h -32.625 q -6.28125,-21.375 -21,-69.84375 -8.34375,-26.8125 -24.75,-74.15625 h 66.28125 q 0.9375,8.90625 4.40625,28.96875 2.34375,10.6875 7.3125,29.4375 2.625,-9.09375 7.6875,-29.625 2.34375,-11.0625 5.34375,-28.78125 z"
           style="font-style:normal;font-variant:normal;font-weight:normal;font-stretch:normal;font-size:192px;font-family:'Showcard Gothic';-inkscape-font-specification:'Showcard Gothic';text-align:center;text-anchor:middle"
           id="path7066" />
        <path
           d="m 717.03906,767.80273 -4.03125,59.34375 q -3.46875,-0.5625 -15,-1.96875 -7.875,-0.75 -17.25,-0.9375 l -1.40625,17.90625 q 10.3125,0.28125 33.65625,-0.46875 -1.03125,3.46875 -3.28125,12.9375 -1.3125,5.71875 -2.34375,13.21875 -2.71875,-0.65625 -13.59375,-1.6875 -5.0625,-0.28125 -15,-0.1875 l -0.9375,20.90625 q 7.03125,-0.0937 25.875,-1.21875 3.5625,-0.28125 11.71875,-2.25 -0.75,2.90625 -3.46875,13.96875 -1.3125,5.71875 -3.1875,14.4375 h -83.90625 l -2.71875,-73.5 q -0.75,-25.21875 -3.65625,-70.5 z"
           style="font-style:normal;font-variant:normal;font-weight:normal;font-stretch:normal;font-size:192px;font-family:'Showcard Gothic';-inkscape-font-specification:'Showcard Gothic';text-align:center;text-anchor:middle"
           id="path7068" />
        <path
           d="m 850.91406,821.70898 q 0,17.25 -9.65625,30.5625 -8.53125,11.625 -21.375,16.6875 2.71875,4.21875 13.40625,17.71875 5.34375,6.1875 16.3125,16.3125 -4.40625,1.59375 -19.40625,8.0625 -10.5,4.78125 -19.78125,9.375 -2.71875,-3.375 -12.09375,-17.4375 -4.3125,-7.125 -12.65625,-24 h -0.1875 l -0.9375,32.8125 h -52.78125 q -1.03125,-20.4375 -2.90625,-67.40625 -0.84375,-27.65625 -3.84375,-76.59375 25.78125,-2.71875 47.0625,-2.71875 78.84375,0 78.84375,56.625 z m -42.5625,20.25 q 0,-8.90625 -7.5,-12.75 -5.53125,-2.8125 -13.875,-2.4375 l -0.5625,32.0625 q 7.78125,0 13.875,-3.46875 8.0625,-4.5 8.0625,-13.40625 z"
           style="font-style:normal;font-variant:normal;font-weight:normal;font-stretch:normal;font-size:192px;font-family:'Showcard Gothic';-inkscape-font-specification:'Showcard Gothic';text-align:center;text-anchor:middle"
           id="path7070" />
      </g>
    </g>
  </g>
</svg>
