<?xml version="1.0" standalone="no"?>
<!DOCTYPE svg PUBLIC "-//W3C//DTD SVG 20010904//EN"
 "http://www.w3.org/TR/2001/REC-SVG-20010904/DTD/svg10.dtd">
<svg version="1.0" xmlns="http://www.w3.org/2000/svg"
 width="1024.000000pt" height="1024.000000pt" viewBox="0 0 1024.000000 1024.000000"
 preserveAspectRatio="xMidYMid meet">

<g transform="translate(0.000000,1024.000000) scale(0.100000,-0.100000)"
fill="#000000" stroke="none">
<path d="M4855 10049 c-124 -8 -415 -39 -415 -45 0 -1 11 -45 25 -96 14 -51
25 -105 25 -120 0 -24 -5 -27 -57 -38 -32 -6 -76 -15 -98 -20 -65 -15 -145
-30 -160 -30 -8 0 -17 14 -20 34 -7 33 -8 34 -46 29 -29 -4 -45 -1 -59 12 -38
34 -15 102 37 109 11 2 19 13 21 29 4 35 -7 35 -183 -11 -161 -43 -156 -34
-105 -154 16 -38 32 -83 35 -101 6 -32 5 -34 -33 -45 -22 -7 -46 -12 -55 -12
-8 0 -75 -23 -147 -50 -73 -28 -133 -50 -134 -48 -8 13 -58 152 -68 191 -7 26
-17 47 -23 47 -7 0 -37 -11 -69 -23 -57 -23 -57 -24 -35 -39 23 -15 23 -16 6
-41 -10 -15 -24 -27 -32 -27 -19 0 -37 34 -29 54 3 9 4 16 1 16 -14 0 -400
-182 -416 -196 -2 -1 22 -50 53 -107 31 -58 56 -109 56 -113 0 -5 -26 -22 -58
-39 -69 -36 -364 -219 -446 -278 -34 -24 -61 -37 -63 -31 -5 15 -70 101 -111
148 -20 23 -37 34 -45 30 -82 -48 -527 -433 -527 -456 0 -5 18 -26 41 -46 22
-20 56 -56 76 -80 l35 -43 -83 -87 c-93 -96 -229 -247 -271 -299 -15 -19 -30
-33 -33 -33 -4 1 -20 -10 -36 -26 -27 -26 -31 -27 -69 -15 -59 18 -77 66 -44
117 19 28 18 30 -16 38 -23 6 -34 -6 -118 -122 -97 -133 -220 -318 -205 -309
5 3 27 -3 50 -13 46 -20 79 -61 69 -85 -3 -10 -2 -13 5 -10 5 4 21 4 35 1 l25
-7 -27 -47 c-14 -26 -42 -70 -60 -98 -18 -28 -63 -109 -100 -180 -37 -71 -71
-130 -75 -132 -5 -2 -9 -10 -9 -17 0 -24 -33 -85 -45 -85 -20 0 -123 38 -155
56 -16 10 -31 16 -34 13 -2 -2 -15 -31 -29 -64 -23 -55 -24 -61 -8 -66 44 -17
57 -74 25 -110 -15 -16 -27 -20 -56 -16 l-36 5 -31 -85 c-17 -47 -31 -89 -31
-93 0 -5 35 -20 79 -35 128 -42 123 -25 63 -226 -28 -96 -57 -204 -64 -241
-12 -63 -28 -92 -28 -50 0 15 -13 21 -72 30 -40 6 -83 14 -94 18 -26 7 -30 -9
-69 -251 -36 -227 -37 -219 5 -227 19 -4 56 -10 81 -13 82 -10 82 -12 70 -159
-6 -70 -11 -165 -11 -211 0 -80 -1 -85 -26 -102 -23 -15 -30 -15 -67 -2 -24 8
-46 24 -53 37 -7 15 -14 20 -18 13 -4 -6 -16 -11 -27 -11 -20 0 -20 -4 -14
-217 3 -120 9 -245 13 -278 7 -57 8 -60 32 -56 14 2 57 4 95 5 l70 1 22 -170
c12 -93 26 -194 32 -224 16 -77 14 -104 -4 -97 -8 3 -15 2 -15 -3 0 -5 -27
-14 -60 -21 -91 -19 -91 -20 -66 -120 18 -73 24 -85 43 -88 24 -4 53 -37 53
-61 0 -8 -10 -25 -21 -38 l-22 -22 22 -79 c30 -104 34 -111 62 -94 12 8 50 25
85 38 l63 24 21 -68 c11 -37 31 -94 45 -127 13 -33 40 -103 59 -155 19 -52 51
-131 71 -174 21 -44 38 -93 39 -110 6 -80 -36 -131 -100 -124 -19 2 -34 2 -34
0 0 -17 226 -412 236 -412 11 0 91 44 122 67 19 14 37 21 42 17 4 -5 37 -54
73 -109 115 -177 173 -256 259 -358 32 -38 58 -75 58 -84 0 -19 -38 -73 -52
-73 -5 0 -7 7 -4 16 3 9 2 12 -5 9 -5 -4 -8 -12 -6 -18 2 -6 -10 -22 -25 -36
l-29 -26 114 -125 c63 -69 140 -149 170 -179 l56 -54 46 51 c26 29 58 55 71
58 13 3 21 10 18 15 -14 23 13 3 84 -63 43 -40 130 -116 195 -168 64 -52 117
-98 117 -104 0 -5 -8 -18 -17 -28 -15 -17 -15 -21 0 -54 19 -39 13 -62 -23
-87 -19 -13 -17 -16 39 -56 l60 -42 63 75 63 74 30 -15 c17 -9 71 -43 120 -77
50 -34 117 -77 150 -95 33 -18 62 -35 64 -37 2 -1 -17 -41 -43 -87 l-46 -85
23 -15 c33 -21 365 -187 375 -187 5 0 14 11 21 24 19 34 55 48 86 34 31 -14
41 -47 26 -89 -8 -22 -7 -29 1 -27 6 2 25 43 41 91 17 48 33 87 36 87 4 0 87
-30 186 -66 99 -37 251 -85 338 -108 145 -38 157 -43 157 -64 0 -20 3 -21 20
-12 24 13 66 -4 84 -32 15 -25 -4 -70 -36 -86 -32 -15 -78 -1 -79 25 0 10 -7
-1 -16 -25 -8 -24 -13 -45 -12 -46 2 -2 58 -15 123 -29 l119 -26 18 24 c36 45
87 37 119 -18 20 -34 21 -34 143 -51 175 -23 173 -23 173 20 0 24 6 41 19 50
55 40 117 -16 85 -77 -9 -16 -7 -19 8 -19 16 0 20 14 31 94 7 51 16 98 20 105
5 8 48 8 162 1 84 -6 181 -8 214 -5 33 2 94 7 136 10 l77 6 6 -43 c3 -24 8
-70 12 -103 7 -71 9 -75 36 -75 20 0 20 1 4 19 -25 28 -17 72 16 91 31 17 51
10 74 -26 11 -16 11 -24 -1 -47 -14 -27 -13 -27 18 -27 18 0 87 7 152 15 66 8
121 15 123 15 1 0 2 7 2 15 0 31 30 72 60 85 39 16 74 2 98 -40 20 -35 19 -35
114 -15 115 24 111 22 104 63 -4 21 -12 50 -18 66 -11 27 -12 28 -19 7 -6 -16
-17 -21 -42 -21 -38 0 -52 12 -62 50 -11 44 13 60 136 90 104 26 348 89 409
106 14 4 34 13 45 20 18 11 171 64 185 64 4 0 21 -32 39 -70 29 -62 36 -70 61
-70 15 0 33 -7 40 -15 7 -8 19 -15 26 -15 18 0 238 97 366 161 l96 48 -18 36
c-31 61 -39 67 -63 50 -33 -23 -80 -19 -107 9 -12 14 -20 31 -17 39 3 8 52 39
109 69 57 30 123 69 148 85 25 17 65 41 90 54 25 13 79 48 120 77 41 30 88 61
104 69 34 18 28 22 119 -96 l47 -62 45 31 c25 17 45 33 45 36 0 3 -9 14 -20
26 -33 36 -25 80 21 103 33 18 69 8 93 -26 11 -16 19 -19 28 -12 7 5 34 26 60
47 l46 37 -24 24 c-29 29 -30 45 -3 79 25 32 66 34 97 6 12 -11 25 -20 29 -20
5 0 30 22 57 49 l47 48 -82 75 -81 75 151 158 c84 86 166 174 182 195 30 37
31 37 52 19 12 -10 53 -44 90 -75 l68 -56 29 33 c18 22 27 41 24 54 -6 24 29
65 55 65 18 0 33 17 154 182 l57 77 -53 36 c-28 20 -67 45 -85 56 -18 10 -35
25 -38 33 -3 7 22 55 55 107 71 111 147 248 232 417 34 67 64 122 68 122 3 0
50 -23 105 -50 54 -28 101 -49 103 -46 3 2 -2 15 -11 28 -14 22 -14 27 2 58
12 25 25 36 43 38 23 3 31 15 62 92 21 49 37 92 37 94 0 7 -190 66 -212 66
-24 0 -23 9 7 80 14 33 25 65 25 72 1 7 8 29 18 49 l17 36 115 -37 c103 -33
116 -36 121 -21 4 9 22 68 41 131 32 108 33 117 19 142 -15 26 -14 29 16 60
23 25 35 51 47 105 9 40 16 74 16 77 0 5 -64 25 -99 32 -51 10 -141 38 -141
45 0 4 13 90 29 191 16 101 33 209 36 240 4 33 14 63 24 71 19 17 105 37 160
37 22 0 44 6 51 15 7 8 18 15 25 15 14 0 25 185 25 409 0 181 0 181 -62 181
-45 0 -48 -1 -38 -19 15 -29 12 -56 -8 -74 -54 -49 -119 -17 -109 54 5 37 4
39 -18 35 -28 -5 -27 -9 -45 217 -6 75 -19 181 -30 233 -28 136 -28 141 18
147 20 2 76 13 125 23 70 14 87 21 87 36 0 22 0 22 -36 3 -38 -20 -46 -19 -78
6 -66 52 -2 149 77 114 12 -5 16 -3 13 6 -3 8 -19 73 -36 146 -18 76 -40 143
-51 158 -19 24 -26 48 -19 70 2 6 0 25 -4 43 -7 31 -10 33 -39 27 -18 -4 -70
-20 -117 -36 -46 -16 -90 -29 -96 -29 -7 0 -24 35 -38 78 -14 42 -62 165 -105
272 -77 191 -79 195 -58 204 12 5 51 22 86 37 34 16 68 26 74 22 5 -3 7 -2 4
4 -4 5 5 16 18 23 14 7 25 20 25 27 0 16 -28 74 -112 230 -58 107 -61 111 -84
101 -46 -21 -78 37 -41 74 16 14 4 11 -38 -13 -85 -46 -155 -91 -155 -100 0
-3 11 -14 25 -23 15 -10 25 -26 25 -41 0 -45 -19 -36 -49 22 -17 32 -58 101
-91 153 -34 52 -73 115 -88 139 -15 24 -77 107 -139 185 -62 77 -112 143 -112
146 0 3 26 22 57 43 87 58 145 102 149 112 6 18 -367 425 -389 425 -4 0 -31
-30 -60 -67 -70 -88 -104 -123 -118 -123 -7 0 -56 42 -109 93 -111 104 -206
183 -330 275 -111 81 -114 85 -95 131 32 78 104 118 161 92 21 -10 28 -9 34 1
14 21 6 30 -57 76 -95 68 -87 68 -127 9 -20 -29 -58 -76 -84 -105 l-49 -54
-107 71 c-58 39 -125 80 -147 91 -23 12 -40 24 -38 28 105 211 99 195 77 210
-13 9 -19 21 -16 34 5 16 -21 32 -164 103 -93 47 -173 85 -178 85 -5 0 -24
-46 -42 -102 -17 -57 -36 -110 -42 -119 -10 -16 -73 5 -350 118 -49 20 -123
48 -165 62 -70 24 -77 28 -74 51 3 34 39 62 75 58 29 -3 30 -1 49 66 10 38 17
70 16 71 -7 7 -338 96 -374 102 -36 5 -43 3 -48 -14 -6 -20 -45 -43 -72 -43
-24 0 -64 47 -64 75 0 14 -3 25 -7 25 -5 0 -60 9 -123 20 -63 11 -120 20 -125
20 -6 0 -22 -54 -35 -120 -28 -139 -3 -126 -200 -109 -69 6 -235 14 -370 18
l-245 6 -3 128 c-2 113 -4 127 -20 126 -9 -1 -71 -5 -137 -10z m90 -89 c0 -18
-6 -26 -22 -28 -18 -3 -23 1 -23 21 0 28 9 39 30 35 9 -2 15 -14 15 -28z
m1063 -137 c21 -18 25 -31 23 -70 -1 -26 -10 -27 -81 -12 -58 12 -66 34 -25
74 28 29 55 32 83 8z m428 -18 c15 -23 15 -27 0 -50 -29 -44 -86 -28 -86 25 0
53 57 69 86 25z m-1691 -15 c-44 -11 -67 -11 -60 0 3 6 25 9 48 9 40 -1 40 -2
12 -9z m848 -247 c4 -2 44 -6 89 -9 107 -6 400 -56 558 -95 232 -57 531 -168
805 -298 263 -125 505 -262 505 -287 0 -7 12 -17 26 -20 15 -4 59 -29 99 -55
72 -49 73 -50 68 -87 -6 -47 21 -77 64 -69 15 3 35 7 44 9 9 2 44 -19 78 -45
59 -45 62 -50 47 -66 -56 -62 33 -144 102 -95 26 18 22 20 109 -60 29 -27 31
-31 18 -50 -20 -27 -19 -65 2 -88 22 -25 68 -23 87 3 15 22 15 21 72 -34 55
-52 57 -56 46 -81 -37 -81 27 -148 98 -103 19 11 25 7 69 -43 47 -53 49 -57
44 -101 -5 -42 -3 -49 21 -64 16 -11 35 -15 50 -11 21 5 31 -3 76 -62 28 -37
53 -80 57 -95 3 -15 14 -32 25 -38 22 -12 121 -160 195 -294 98 -175 116 -212
185 -365 64 -142 69 -158 59 -186 -7 -20 -8 -40 -2 -56 11 -29 37 -52 49 -44
13 8 43 -64 85 -204 60 -197 76 -263 76 -313 -1 -31 5 -55 15 -66 17 -18 53
-187 80 -371 42 -288 45 -682 7 -1010 -29 -242 -70 -459 -93 -489 -12 -16 -18
-40 -18 -73 0 -101 -126 -518 -156 -518 -41 0 -73 -87 -43 -117 22 -22 -131
-351 -274 -588 -61 -102 -76 -120 -99 -123 -41 -5 -71 -49 -64 -92 5 -30 0
-44 -29 -84 -60 -85 -63 -88 -86 -65 -29 29 -83 25 -108 -7 -28 -35 -26 -69 4
-100 14 -14 25 -27 25 -30 0 -3 -25 -35 -56 -70 l-56 -64 -20 25 c-23 30 -81
34 -110 8 -34 -30 -13 -113 29 -113 7 0 13 -4 13 -8 0 -12 -308 -322 -360
-361 -33 -26 -39 -28 -22 -10 12 14 22 35 22 47 0 33 -35 62 -72 62 -42 -1
-66 -19 -74 -56 -7 -38 27 -84 62 -84 33 0 26 -10 -54 -73 -87 -69 -97 -75
-89 -53 9 24 -9 55 -39 66 -79 30 -133 -61 -73 -121 25 -25 20 -32 -53 -80
-53 -34 -62 -37 -75 -24 -15 16 -70 20 -89 7 -21 -14 -35 -53 -29 -80 5 -25 0
-30 -65 -69 -46 -28 -83 -43 -105 -43 -25 0 -39 -7 -57 -29 -26 -33 -158 -101
-367 -190 -184 -79 -187 -80 -194 -44 -11 55 -100 63 -127 13 -13 -25 -13 -63
1 -77 8 -8 -7 -17 -52 -32 -35 -11 -72 -21 -84 -21 -12 0 -26 -5 -31 -10 -6
-6 -82 -28 -170 -50 -130 -33 -163 -38 -181 -29 -27 15 -87 4 -111 -20 -12
-12 -51 -23 -127 -35 -60 -9 -121 -19 -135 -22 -22 -4 -26 -1 -28 22 -4 53
-56 82 -112 62 -30 -10 -54 -51 -45 -78 7 -22 -34 -30 -171 -30 l-102 0 0 37
c0 60 -60 99 -117 77 -27 -11 -46 -59 -35 -89 6 -15 10 -28 10 -31 0 -6 -80
-5 -204 3 l-107 6 6 27 c4 18 -1 34 -15 53 -42 53 -130 23 -130 -43 0 -30 10
-30 -170 -4 -81 13 -111 21 -133 40 -31 26 -64 30 -113 12 -27 -10 -51 -6
-165 21 -159 39 -364 101 -471 143 -67 25 -78 33 -78 53 0 37 -20 73 -44 79
-36 10 -46 7 -72 -19 l-25 -25 -85 35 c-133 55 -337 160 -483 248 -103 62
-137 88 -149 114 -12 25 -24 34 -51 39 -46 8 -66 19 -117 61 -36 29 -42 39
-41 70 1 48 -24 66 -84 59 -42 -4 -50 -1 -91 33 l-45 37 18 23 c23 28 24 59 4
88 -29 41 -97 37 -113 -8 -7 -18 -14 -14 -70 37 l-63 56 26 24 c48 44 22 104
-46 104 -27 0 -42 -6 -53 -22 -15 -21 -16 -20 -77 43 -39 40 -56 65 -47 67 19
6 38 33 38 54 0 25 -44 68 -70 68 -11 0 -29 -9 -39 -19 -19 -19 -20 -19 -58
22 -164 180 -385 512 -552 831 -55 103 -61 122 -52 143 25 55 9 99 -37 106
-12 2 -26 7 -31 13 -15 16 -88 194 -135 332 l-45 131 22 39 c20 38 20 40 3 67
-12 18 -24 25 -36 22 -24 -6 -32 14 -70 169 -118 477 -132 1188 -34 1724 20
114 72 339 84 368 6 12 18 22 30 22 32 0 44 44 24 85 -19 40 -13 65 63 275 63
174 85 223 93 210 11 -17 48 -3 66 24 11 18 12 29 4 52 -6 16 -15 31 -20 34
-5 3 11 48 35 100 25 52 45 109 45 125 0 23 15 47 60 98 33 37 67 81 75 98 9
16 40 68 70 114 40 62 59 83 70 78 24 -9 55 31 55 70 0 26 12 50 46 93 43 56
47 59 84 56 33 -3 41 1 56 23 15 23 16 31 5 62 -12 33 -11 37 15 66 55 61 62
65 102 60 34 -5 42 -1 61 23 21 27 23 47 7 84 -4 10 11 34 44 68 45 48 52 52
65 38 17 -16 39 -12 68 12 19 17 23 52 7 68 -7 7 9 29 50 68 51 48 62 55 79
46 40 -21 97 21 89 65 -5 21 5 35 57 80 35 31 72 55 84 55 30 0 61 18 61 35 0
32 209 173 501 339 112 64 209 116 216 116 7 0 13 -5 13 -12 0 -23 34 -48 65
-48 52 0 79 43 61 98 -7 20 -1 26 69 57 102 47 406 157 536 194 87 25 195 52
305 76 19 4 21 0 20 -31 -2 -54 21 -64 81 -35 69 34 74 40 62 63 -6 11 -8 22
-5 25 11 11 208 41 349 54 116 10 140 10 147 -2 12 -18 102 -12 114 8 7 13 44
14 300 8 160 -4 294 -9 299 -12z m-2444 -24 c44 -41 39 -109 -9 -134 -69 -36
-130 -3 -130 70 0 80 81 117 139 64z m4081 -6 c33 -22 40 -33 40 -63 0 -44
-26 -70 -69 -70 -25 0 -41 5 -44 14 -9 22 27 136 42 136 4 0 18 -8 31 -17z
m219 -269 c30 -38 16 -48 -32 -22 -51 29 -59 48 -19 48 21 0 37 -8 51 -26z
m-5297 -311 c24 -22 23 -48 -3 -67 -33 -23 -69 -3 -69 40 0 42 39 57 72 27z
m-168 -168 c55 -51 19 -145 -58 -145 -26 0 -40 7 -60 31 -14 17 -26 41 -26 54
0 13 12 37 26 54 33 40 79 42 118 6z m6680 -316 c63 -50 -1 -142 -73 -104 -49
25 -55 72 -15 104 15 12 34 21 44 21 10 0 29 -9 44 -21z m203 -191 c31 -29 30
-71 -3 -97 -15 -12 -34 -21 -43 -21 -22 0 -61 36 -62 58 -5 73 57 108 108 60z
m-7644 -360 c30 -36 20 -81 -24 -103 -74 -39 -138 63 -72 115 32 25 69 20 96
-12z m8277 -628 c35 -35 25 -92 -21 -115 -42 -22 -57 -19 -79 18 -24 39 -25
65 -4 95 20 29 76 30 104 2z m287 -902 c35 -39 37 -64 9 -93 -36 -36 -64 -33
-82 10 -20 48 -18 92 4 98 35 9 49 6 69 -15z m-9369 -400 c21 -18 10 -69 -19
-91 -24 -17 -30 -18 -55 -6 -40 19 -46 79 -12 103 24 17 61 14 86 -6z m9601
-964 c12 -15 21 -32 21 -39 0 -7 -9 -24 -21 -39 -38 -48 -111 -23 -111 39 0
62 73 87 111 39z m-9606 -92 c11 -10 17 -30 17 -58 0 -35 -5 -47 -25 -60 -31
-20 -71 -9 -99 29 -19 26 -19 28 -3 62 25 53 67 63 110 27z m9438 -159 c-9
-16 -10 -15 -11 8 0 14 3 29 8 33 12 12 14 -22 3 -41z m-67 -602 c22 -24 12
-69 -18 -81 -31 -12 -36 -1 -25 53 12 52 18 56 43 28z m-9246 -43 c11 -57 8
-75 -6 -37 -15 40 -22 89 -13 89 5 0 13 -24 19 -52z m9260 -401 c4 -33 -18
-45 -54 -29 -42 20 -22 66 26 60 19 -2 26 -10 28 -31z m-8811 -783 c13 -21 23
-45 23 -51 0 -19 -50 -16 -72 4 -21 18 -24 63 -6 81 18 18 30 10 55 -34z
m8099 -559 c15 -23 15 -27 1 -49 -18 -27 -44 -36 -74 -25 -30 11 -37 43 -17
74 22 34 67 34 90 0z m-182 -101 c18 -47 -23 -101 -68 -90 -34 8 -33 20 5 67
33 41 53 49 63 23z m-7215 -353 c36 -36 1 -93 -45 -73 -33 16 -40 37 -20 67
20 30 39 32 65 6z m1311 -961 c25 -25 25 -32 1 -61 -16 -20 -23 -22 -47 -14
-51 18 -40 95 13 95 7 0 22 -9 33 -20z m4204 -111 c45 -35 24 -89 -34 -89 -59
0 -74 69 -22 99 24 14 26 14 56 -10z m-1379 -321 c-9 -32 -52 -68 -81 -68 -27
0 -64 32 -64 55 0 8 13 16 33 19 120 20 119 20 112 -6z m-1291 6 c50 -7 56
-19 27 -55 -37 -46 -131 -19 -131 38 0 26 17 28 104 17z"/>
<path d="M5050 9439 c-129 -11 -340 -50 -480 -90 -301 -86 -513 -210 -707
-412 -148 -155 -219 -261 -253 -374 -7 -24 -16 -43 -20 -43 -3 0 -17 10 -29
21 -20 18 -22 28 -17 62 4 23 19 63 34 91 27 51 138 171 202 219 34 26 34 27
10 27 -43 0 -158 -47 -226 -90 -94 -62 -176 -155 -223 -253 -111 -234 -80
-446 88 -605 61 -57 116 -88 216 -122 127 -43 211 -53 381 -46 205 8 315 18
285 25 -18 5 8 15 100 40 68 18 142 41 164 52 54 24 337 120 342 115 2 -2 -33
-25 -79 -51 -46 -27 -134 -82 -195 -122 -339 -224 -540 -267 -853 -181 -88 24
-215 85 -272 130 -29 22 -38 26 -30 12 26 -47 148 -134 225 -160 67 -22 52
-28 -23 -9 -218 56 -371 215 -436 450 -21 75 -23 77 -23 37 -1 -52 22 -169 49
-246 10 -31 15 -54 11 -51 -18 11 -61 95 -88 171 -24 70 -27 92 -26 199 2 317
159 580 434 728 35 19 81 40 102 47 61 19 36 22 -39 5 -164 -38 -291 -103
-398 -205 -161 -153 -244 -314 -281 -545 -19 -115 -19 -176 1 -321 l16 -118
-28 -20 c-153 -112 -334 -330 -428 -516 -65 -129 -128 -310 -167 -485 -84
-372 -56 -885 72 -1304 18 -59 18 -66 3 -110 -25 -73 -42 -275 -50 -592 -6
-250 -4 -311 10 -408 37 -247 168 -545 292 -663 65 -61 118 -83 212 -87 78 -3
82 -4 82 -26 0 -39 49 -311 80 -445 68 -294 135 -467 280 -721 195 -342 384
-592 648 -857 306 -305 535 -431 882 -483 114 -16 426 -14 553 6 361 54 580
188 929 565 210 226 354 416 513 671 230 368 342 669 421 1127 l28 162 63 0
c85 0 172 39 233 106 134 144 239 398 281 674 13 90 13 702 -1 834 -5 50 -17
112 -25 138 -16 46 -16 47 24 175 23 71 41 138 41 148 0 11 -11 30 -24 42 -12
12 -33 53 -45 90 l-22 68 55 50 c63 57 67 70 87 259 15 157 7 574 -16 716 -38
244 -107 470 -195 635 -150 283 -349 481 -610 606 -69 33 -132 64 -140 68 -8
4 -16 23 -17 42 -15 205 -108 422 -251 582 -110 124 -234 213 -439 316 -394
199 -845 286 -1293 250z m190 -240 c71 -11 269 -74 296 -93 13 -10 -2 -10 -62
1 -136 23 -125 9 36 -44 352 -117 584 -267 715 -463 30 -45 36 -50 30 -25 -24
104 -164 313 -279 415 -37 33 -64 60 -60 60 15 0 123 -67 180 -112 92 -72 224
-216 268 -291 41 -71 52 -83 36 -42 -46 121 -161 287 -269 387 -37 35 -59 56
-48 48 10 -8 20 -13 21 -11 3 10 105 -44 165 -88 153 -114 258 -257 309 -422
18 -57 19 -78 12 -165 -5 -54 -14 -115 -21 -134 -21 -57 -75 -144 -123 -196
l-45 -49 45 90 c57 115 78 217 71 340 -3 51 -14 114 -25 145 l-20 55 5 -100
c4 -81 1 -116 -16 -185 -28 -110 -83 -220 -142 -284 l-48 -51 20 55 c24 64 36
224 21 285 l-10 40 -1 -45 c-2 -67 -27 -163 -61 -229 -39 -79 -51 -84 -33 -14
32 122 2 284 -78 420 -75 127 -268 283 -434 353 -103 42 -257 76 -437 95 -165
17 -174 17 -166 9 3 -3 48 -12 99 -20 169 -27 404 -120 558 -222 80 -53 200
-176 244 -252 121 -208 112 -408 -24 -554 l-49 -51 29 65 c36 82 51 159 51
270 0 165 -56 287 -200 431 -135 135 -245 190 -459 225 -107 17 -343 17 -436
0 l-70 -14 91 -1 c107 -1 289 -32 394 -67 205 -68 347 -168 426 -300 66 -111
79 -161 79 -299 0 -103 -3 -126 -21 -160 -12 -22 -26 -51 -33 -65 l-12 -25 6
25 c17 83 27 212 18 232 -9 20 -11 14 -21 -42 -13 -69 -65 -190 -101 -230 -19
-21 -21 -22 -16 -5 4 11 18 50 31 86 88 247 -4 490 -227 602 -113 57 -184 72
-329 72 -153 -1 -226 -18 -366 -85 -79 -38 -118 -65 -180 -123 -44 -41 -89
-93 -102 -116 -24 -43 -18 -55 12 -22 27 30 153 88 251 116 101 29 257 55 325
54 41 0 37 -2 -45 -23 -126 -33 -328 -119 -390 -166 -61 -47 -270 -144 -287
-134 -8 5 28 107 60 170 49 96 138 193 278 302 20 15 6 11 -44 -14 -84 -43
-200 -145 -257 -229 -21 -30 -40 -53 -42 -51 -11 11 91 197 134 246 54 61 28
47 -50 -27 -81 -77 -106 -110 -152 -194 -23 -44 -45 -76 -48 -72 -4 3 -7 -6
-7 -21 0 -15 -8 -57 -17 -94 l-17 -67 -13 50 c-16 65 -16 185 1 257 7 32 10
55 6 53 -11 -7 -67 -127 -81 -174 -16 -53 -30 -43 -23 17 10 86 61 235 77 225
6 -4 7 -1 3 6 -5 7 8 38 30 74 169 278 541 483 942 519 72 7 132 15 132 19 0
12 -209 22 -315 16 -336 -21 -571 -140 -783 -395 -28 -35 -52 -68 -52 -74 0
-6 -3 -8 -7 -5 -13 13 -103 -211 -140 -348 l-24 -90 6 95 c3 63 15 129 34 195
17 54 29 100 27 102 -6 6 -101 -197 -123 -262 l-23 -70 5 75 c12 196 102 352
279 484 169 126 275 187 416 239 207 77 513 115 690 86z m-1163 -295 c-73 -84
-113 -149 -207 -329 -34 -66 -63 -121 -65 -123 -1 -1 2 19 6 45 9 56 10 96 2
73 -3 -8 -16 -37 -28 -65 -12 -27 -25 -57 -28 -65 -13 -34 -6 46 9 104 27 105
87 206 172 290 68 67 190 159 201 150 2 -2 -26 -38 -62 -80z m2673 -276 c53
-89 111 -262 112 -337 0 -31 -7 -80 -16 -109 -22 -64 -82 -156 -132 -202 l-38
-35 28 38 c46 62 78 145 83 211 l5 61 -36 -73 c-24 -48 -57 -94 -96 -134 -34
-33 -63 -58 -66 -56 -2 3 9 33 26 66 44 88 90 232 99 310 12 102 -4 232 -45
359 -9 29 31 -23 76 -99z m449 -647 c11 -7 10 -13 -4 -34 -20 -32 -82 -44
-158 -31 l-52 9 45 33 c37 27 52 32 99 32 31 0 62 -4 70 -9z m181 -117 c106
-71 229 -238 254 -346 11 -47 -21 -68 -101 -68 l-68 -1 71 -28 c40 -15 85 -37
100 -48 16 -11 50 -30 77 -42 26 -13 47 -27 47 -33 0 -21 -165 4 -310 49 -80
24 -181 49 -225 56 l-80 11 70 17 70 16 -38 8 c-22 4 -83 5 -138 3 -86 -4 -97
-3 -79 9 10 7 52 22 92 32 l73 18 -38 8 c-35 7 -125 1 -187 -11 l-25 -6 25 21
c14 11 50 30 80 41 98 36 100 40 25 34 l-70 -5 60 31 60 30 -68 -5 c-38 -3
-92 -14 -120 -25 -28 -11 -53 -18 -55 -16 -9 10 203 138 278 168 l45 18 -40
-6 c-45 -7 -160 -51 -236 -89 -27 -14 -49 -23 -49 -21 0 12 129 92 204 127
135 63 250 83 296 53z m-972 -65 c198 -47 447 -256 533 -448 51 -111 73 -219
104 -511 35 -329 67 -508 145 -820 54 -219 90 -431 90 -538 l0 -56 -32 34
c-45 45 -122 79 -199 86 l-64 5 50 -18 c120 -44 238 -146 251 -218 l7 -39 -59
53 c-66 58 -280 204 -371 252 -32 17 -62 34 -66 39 -21 20 20 54 126 105 62
29 121 60 132 70 19 15 19 16 -15 10 -19 -4 -62 -15 -95 -25 -97 -30 -169 -42
-196 -31 -13 5 -58 34 -99 65 -154 116 -298 166 -475 166 -176 0 -297 -47
-441 -172 -83 -71 -94 -73 -83 -13 12 67 43 118 115 195 122 129 221 165 424
157 113 -5 172 -16 275 -51 11 -4 0 4 -26 18 -133 72 -427 74 -564 3 -22 -12
-44 -20 -50 -18 -5 1 -7 0 -4 -3 5 -5 -92 -115 -99 -111 -5 4 23 73 46 110
l25 40 -28 -25 c-85 -78 -140 -199 -149 -328 -6 -80 -6 -82 16 -83 13 0 36 -3
52 -5 22 -4 44 5 96 39 145 97 241 129 385 129 106 1 184 -15 290 -58 66 -27
255 -132 255 -143 0 -3 -49 -55 -110 -115 -60 -60 -110 -113 -110 -118 0 -5
18 1 40 12 21 11 47 20 56 20 25 0 129 -49 219 -102 65 -39 74 -43 45 -17 -49
43 -110 85 -167 113 -37 19 -44 26 -31 31 20 8 149 -64 232 -128 81 -63 83
-64 47 -22 -51 60 -110 112 -173 152 -32 20 -58 40 -58 45 0 4 11 14 25 20 21
9 36 7 96 -17 136 -55 317 -195 426 -329 l64 -79 -6 -111 c-24 -435 -88 -1076
-134 -1341 -83 -475 -190 -801 -363 -1105 -187 -329 -401 -605 -679 -875 -239
-232 -392 -318 -664 -372 -137 -27 -475 -25 -606 4 -289 65 -444 159 -737 450
-242 241 -414 462 -588 758 -102 175 -202 422 -248 615 -44 186 -58 252 -85
411 -48 278 -76 560 -116 1189 l-23 375 23 30 c102 135 271 278 410 346 110
54 132 58 166 30 23 -19 23 -20 4 -27 -52 -19 -225 -162 -225 -186 0 -5 24 9
53 31 76 58 229 143 238 134 4 -4 -24 -28 -64 -52 -73 -45 -165 -111 -154
-111 3 0 54 26 114 58 160 85 151 83 208 61 27 -10 50 -17 52 -15 2 2 -48 53
-112 113 -63 61 -115 115 -115 120 0 9 122 79 238 138 80 39 193 65 288 65
145 0 238 -30 368 -119 68 -46 76 -49 149 -52 67 -4 78 -2 83 13 3 10 15 25
27 35 12 10 40 43 61 73 61 85 62 82 11 -20 -47 -95 -139 -239 -200 -315 -49
-62 -52 -74 -7 -31 22 21 71 78 109 127 37 48 73 88 78 89 10 1 22 15 68 83
14 21 28 34 30 30 3 -5 13 -101 23 -215 13 -139 21 -200 27 -185 15 40 21 426
8 514 -25 173 -97 320 -211 435 l-67 67 28 6 c41 9 86 66 94 118 5 34 2 53
-14 85 -20 39 -37 51 -84 56 -12 1 -40 12 -62 23 -80 41 -199 63 -339 63 -376
0 -689 -132 -883 -370 -94 -116 -155 -269 -168 -425 -5 -68 -5 -69 12 -46 111
152 148 198 219 268 145 145 311 235 484 262 138 23 395 7 432 -26 19 -17 65
-109 119 -241 l38 -94 -49 46 c-46 43 -60 53 -60 41 0 -2 29 -40 64 -83 65
-80 94 -129 115 -192 16 -52 29 -130 21 -130 -3 0 -46 31 -95 69 -48 38 -109
81 -136 95 -119 66 -305 84 -460 45 -101 -25 -168 -59 -274 -139 -44 -33 -91
-63 -103 -67 -46 -11 -197 19 -317 63 -19 7 -20 7 -2 -13 10 -12 63 -45 118
-73 95 -50 130 -79 72 -60 -38 13 -214 42 -220 37 -8 -9 84 -39 157 -53 l75
-13 -75 4 c-88 5 -180 -6 -234 -29 -57 -24 -40 -28 45 -10 54 12 102 14 177
10 99 -6 104 -5 109 14 7 25 27 21 31 -6 2 -15 -5 -23 -31 -31 -38 -11 -269
-157 -336 -212 -25 -20 -64 -56 -87 -81 -38 -39 -44 -42 -44 -23 -1 78 128
208 252 254 l53 19 -61 -4 c-75 -5 -138 -31 -193 -81 l-41 -37 0 73 c0 152 36
331 116 585 110 349 145 542 159 864 8 188 22 290 51 368 28 75 73 141 95 142
9 0 60 -7 115 -15 322 -49 645 29 999 240 l80 47 120 -40 c213 -73 272 -86
370 -85 89 1 152 15 610 138 96 25 372 63 468 64 49 1 109 -4 135 -10z m-3119
-312 c-63 -52 -194 -119 -295 -152 -76 -25 -177 -32 -218 -16 -17 6 -15 11 19
38 43 36 184 80 370 117 106 21 138 24 124 13z m4145 -192 c49 -14 102 -37
118 -50 17 -14 33 -23 37 -20 5 2 18 -7 31 -20 27 -29 38 -113 21 -157 l-10
-27 -73 30 c-88 36 -83 31 56 -60 60 -39 103 -71 95 -71 -8 0 -48 9 -88 20
-40 12 -75 19 -76 18 -1 -2 -5 -22 -9 -45 -5 -37 -4 -42 16 -49 27 -8 100 -57
126 -83 9 -10 26 -23 37 -30 17 -10 15 -11 -15 -5 -112 20 -280 113 -402 220
-46 41 -86 74 -90 74 -5 0 -8 5 -8 11 0 9 43 -12 140 -69 33 -19 -76 83 -115
109 -34 22 -31 24 13 8 18 -6 30 -15 27 -19 -6 -9 85 -43 94 -35 12 13 -62 70
-150 116 -99 52 -89 53 51 8 77 -24 82 -25 60 -6 -21 17 -70 41 -190 95 -36
15 -4 14 60 -3 30 -8 56 -13 57 -11 6 6 -95 46 -149 59 l-53 12 40 7 c81 14
255 0 349 -27z m-4505 -79 c-10 -10 -183 -95 -187 -92 -7 7 62 50 117 72 53
22 80 30 70 20z m153 -46 c-18 -11 -74 -41 -125 -66 -84 -43 -187 -108 -284
-181 l-37 -28 22 31 c35 51 129 131 195 168 54 30 222 94 252 95 6 1 -5 -8
-23 -19z m123 -127 c-37 -59 -73 -102 -174 -205 -57 -60 -101 -108 -97 -108 9
0 54 28 100 64 60 46 29 -1 -41 -63 -100 -87 -178 -117 -352 -135 l-54 -5 29
30 c16 17 69 65 117 106 82 70 109 104 55 70 -30 -20 -199 -79 -206 -73 -5 6
78 104 135 158 56 53 168 121 251 153 40 15 75 25 77 23 2 -2 -23 -25 -56 -52
-33 -26 -59 -49 -57 -51 7 -7 252 85 267 100 23 23 25 18 6 -12z m4030 -174
c3 -9 13 -20 23 -24 14 -5 15 -4 5 6 -7 7 -13 18 -13 23 0 14 19 -7 34 -35 6
-12 18 -24 26 -26 10 -3 8 1 -4 11 -11 9 -18 18 -15 20 2 2 42 -29 88 -69 70
-61 238 -171 341 -223 14 -7 41 -21 60 -32 33 -18 33 -19 10 -19 -50 -1 -156
31 -245 73 -92 43 -202 126 -266 201 -19 22 -42 49 -51 59 -20 22 -24 41 -6
30 7 -4 8 -3 4 5 -4 6 -11 9 -16 6 -5 -3 -14 4 -20 15 -10 18 -9 19 14 8 14
-6 28 -19 31 -29z m-4071 -11 c-30 -52 -113 -167 -142 -200 -96 -107 -368
-247 -457 -236 -22 2 -7 15 92 73 198 117 348 221 430 300 80 77 89 84 77 63z
m-15 -145 c-78 -139 -215 -254 -369 -310 -113 -41 -118 -38 -35 23 126 90 367
279 399 313 17 17 32 31 34 31 2 0 -11 -26 -29 -57z m4121 -83 c9 -8 15 -19
12 -24 -3 -5 2 -6 12 -3 9 4 15 3 12 -2 -3 -5 1 -14 9 -21 8 -7 15 -10 15 -6
0 3 9 -2 19 -11 11 -9 18 -20 15 -24 -2 -4 8 -12 24 -18 15 -6 45 -22 67 -35
22 -14 54 -32 70 -42 17 -9 41 -26 55 -37 l25 -19 -35 6 c-73 14 -200 86 -271
154 -84 78 -100 103 -67 99 12 -1 29 -9 38 -17z m-4082 -67 c-23 -48 -32 -61
-40 -57 -5 3 -8 0 -7 -7 11 -51 -163 -211 -287 -264 -74 -32 -151 -54 -207
-61 -48 -6 -58 -4 -63 10 -4 9 -4 19 -1 22 3 3 49 16 103 30 108 26 213 73
287 127 58 42 183 160 197 187 10 18 26 29 18 13z m4258 -261 c-4 -3 -14 2
-24 12 -16 18 -16 18 6 6 13 -6 21 -14 18 -18z m30 -11 c-3 -5 16 -17 42 -26
79 -31 151 -68 117 -60 -74 15 -212 95 -164 95 5 0 8 -4 5 -9z m-4504 -141
c-46 -41 -108 -75 -157 -85 -24 -5 -20 -1 18 19 27 14 55 26 62 26 8 0 18 6
22 13 8 12 83 66 93 66 3 0 -14 -17 -38 -39z m-329 -778 c103 -68 230 -367
266 -627 21 -143 81 -815 81 -896 0 -26 -3 -29 -35 -29 -67 0 -132 21 -171 54
-71 61 -155 235 -206 426 -24 92 -33 389 -21 695 7 168 10 200 23 200 35 0 95
-187 93 -290 -1 -38 -13 -93 -32 -149 -39 -112 -39 -138 -1 -66 16 30 45 73
64 95 32 36 35 38 36 17 0 -12 -18 -58 -39 -101 -108 -214 -108 -315 2 -439
33 -37 51 -69 62 -110 24 -84 24 -84 37 -80 15 5 57 123 58 161 0 32 -13 60
-64 136 -20 29 -36 60 -36 70 0 22 45 117 61 126 9 6 11 -5 6 -53 -4 -34 -3
-62 2 -62 5 0 19 21 31 47 30 65 24 109 -50 341 -75 237 -123 354 -166 399
l-34 36 -25 -23 -25 -23 0 63 c0 45 5 69 17 82 20 23 31 23 66 0z m5136 8 c23
-12 32 -62 22 -115 -5 -22 -9 -35 -10 -28 0 7 -10 17 -22 23 -28 16 -52 -7
-94 -90 -65 -129 -180 -472 -192 -571 -6 -54 9 -109 39 -135 20 -19 20 -19 12
16 -11 49 -11 89 1 92 14 4 64 -92 65 -123 0 -14 -20 -57 -45 -94 -60 -91 -65
-122 -34 -209 14 -38 30 -71 36 -73 7 -3 20 24 33 66 15 52 35 88 74 137 57
71 76 116 76 182 0 53 -34 160 -80 252 -24 49 -35 82 -31 94 6 16 11 14 38
-20 17 -22 44 -61 61 -89 41 -64 40 -51 -3 63 -40 106 -46 192 -19 296 20 78
59 147 79 140 13 -5 15 -56 15 -354 0 -192 -5 -384 -11 -427 -24 -182 -138
-453 -221 -530 -46 -41 -107 -63 -180 -63 -29 0 -30 2 -25 33 3 17 8 66 12
107 16 214 58 648 71 743 36 258 143 546 241 644 44 44 61 50 92 33z"/>
<path d="M5445 9009 c197 -67 435 -199 565 -315 87 -78 27 -3 -74 93 -61 58
-109 93 -175 127 -106 55 -315 126 -369 126 -31 0 -24 -5 53 -31z"/>
<path d="M4234 8344 c-8 -20 -13 -38 -11 -40 2 -2 11 14 20 36 19 50 12 53 -9
4z"/>
<path d="M6673 7523 c24 -28 84 -152 101 -214 9 -31 21 -92 26 -135 l9 -79 -3
110 c-3 83 -9 124 -25 166 -23 62 -96 169 -113 169 -6 0 -4 -8 5 -17z"/>
<path d="M5525 7264 c-55 -7 -152 -26 -215 -42 l-115 -28 -65 18 c-243 67
-630 72 -814 11 -40 -13 -40 -13 -6 -8 19 3 98 8 175 11 205 10 397 -17 615
-84 90 -28 97 -29 140 -15 298 93 458 118 718 110 103 -3 201 -9 217 -12 29
-5 29 -5 5 5 -104 45 -446 63 -655 34z"/>
<path d="M5820 7029 c-117 -10 -277 -47 -358 -84 -29 -13 -85 -46 -123 -72
l-71 -47 -38 21 c-48 28 -240 106 -310 126 -119 34 -211 49 -346 54 -218 9
-408 -30 -589 -119 -76 -37 -175 -96 -175 -104 0 -2 21 6 48 17 74 33 200 67
329 90 93 17 159 22 308 22 230 0 342 -18 572 -95 l151 -51 169 55 c247 82
320 93 603 93 299 -1 379 -14 635 -109 16 -6 15 -4 -5 13 -40 32 -189 107
-260 129 -127 41 -186 51 -390 66 -25 2 -92 -1 -150 -5z"/>
<path d="M6746 6820 c4 -8 15 -26 25 -40 24 -36 133 -256 155 -314 10 -27 19
-45 21 -39 12 35 -117 308 -175 371 -18 21 -30 30 -26 22z"/>
<path d="M3565 6723 c-46 -83 -133 -318 -122 -329 2 -2 27 58 57 134 29 75 64
159 77 185 32 64 23 72 -12 10z"/>
<path d="M5935 6740 c-97 -11 -230 -48 -262 -74 -15 -11 -36 -19 -46 -18 -31
6 -77 -19 -92 -49 -46 -87 27 -219 120 -219 l29 0 -50 -52 c-141 -145 -212
-336 -234 -628 -10 -121 -13 -367 -5 -359 2 3 9 47 15 99 39 340 159 746 264
889 35 47 36 48 133 69 180 39 227 45 378 45 120 0 168 -5 240 -22 221 -53
377 -177 598 -473 28 -37 53 -65 55 -63 7 7 -17 152 -39 233 -65 243 -287 464
-560 557 -162 55 -391 83 -544 65z"/>
<path d="M5436 6632 c-15 -25 -36 -132 -35 -182 l1 -55 13 75 c7 41 18 95 25
119 11 41 9 63 -4 43z"/>
<path d="M4938 6555 c19 -50 101 -198 102 -182 0 14 -87 190 -104 212 -13 16
-13 11 2 -30z"/>
<path d="M4020 6144 c-53 -14 -143 -54 -136 -61 1 -2 23 6 48 17 24 10 87 27
139 36 131 23 221 15 354 -30 11 -4 7 0 -10 10 -16 9 -52 23 -80 30 -66 18
-245 17 -315 -2z"/>
<path d="M6540 5946 c0 -3 38 -37 84 -76 97 -82 131 -92 201 -66 25 10 47 22
50 26 3 5 -10 3 -29 -5 -20 -8 -46 -15 -58 -15 -13 0 -69 32 -126 70 -93 63
-122 79 -122 66z"/>
<path d="M3775 5918 c-22 -11 -62 -39 -90 -62 -68 -58 -65 -57 -123 -41 -29 7
-50 9 -47 4 8 -12 74 -29 116 -29 36 0 69 24 189 136 21 20 1 16 -45 -8z"/>
<path d="M7035 5704 c-27 -8 -80 -18 -118 -23 -38 -5 -80 -17 -94 -27 -25 -16
-25 -17 -7 -27 11 -6 76 -12 149 -12 77 -1 146 -7 168 -14 49 -17 58 -8 15 15
-24 13 -67 20 -153 24 -66 4 -111 7 -99 8 46 4 180 43 193 57 18 17 13 17 -54
-1z"/>
<path d="M4320 5643 c-47 -6 -161 -40 -180 -54 -13 -9 -13 -10 1 -6 9 3 42 8
75 12 l59 6 -93 -32 c-51 -17 -90 -34 -88 -37 3 -2 40 1 83 7 43 6 146 15 228
20 175 11 345 39 345 56 0 8 -37 14 -117 18 -65 4 -154 8 -198 11 -44 2 -96 2
-115 -1z"/>
<path d="M5810 5643 c-14 -2 -68 -7 -120 -12 -81 -6 -91 -9 -69 -18 35 -15
254 -49 439 -67 85 -9 166 -19 180 -22 24 -5 24 -5 5 7 -11 7 -67 26 -125 41
l-105 29 71 -5 c39 -3 90 -12 113 -20 59 -22 51 -9 -14 20 -93 41 -270 63
-375 47z"/>
<path d="M4975 5238 c-39 -47 -91 -145 -100 -193 -4 -20 6 -7 32 40 50 89 79
140 99 171 25 38 9 28 -31 -18z"/>
<path d="M5420 5102 c0 -142 -45 -215 -152 -247 -106 -31 -255 -9 -333 51 -41
31 -47 30 -39 -3 9 -38 37 -87 84 -142 22 -26 40 -50 40 -54 0 -3 -27 10 -61
30 -83 49 -142 55 -203 19 -25 -15 -50 -35 -56 -46 -6 -11 -14 -20 -18 -20 -4
0 -22 21 -39 48 -56 81 -38 171 52 252 27 25 125 144 125 152 0 8 -330 -162
-450 -232 -352 -205 -446 -268 -559 -374 -75 -72 -191 -210 -191 -229 0 -6 -3
-8 -6 -5 -3 4 11 36 30 72 52 95 44 103 -14 16 -80 -119 -141 -299 -139 -410
1 -42 2 -39 19 35 10 44 26 101 34 127 17 49 61 149 50 113 -50 -165 -62 -295
-40 -460 9 -66 22 -140 30 -165 l15 -45 -6 82 c-6 87 3 173 17 173 10 0 10 -1
70 -230 44 -167 120 -413 126 -407 2 2 -12 72 -31 155 -20 84 -47 217 -60 297
-28 164 -44 406 -27 390 17 -15 224 -459 299 -640 61 -146 186 -391 242 -473
153 -223 350 -351 625 -407 214 -43 451 -43 666 1 181 37 380 142 508 267 71
70 170 212 231 334 36 73 221 489 221 498 0 2 18 43 41 92 22 48 49 107 60
131 11 23 21 42 23 42 6 0 -6 -106 -21 -185 -22 -113 -94 -358 -152 -516 -63
-172 -66 -180 -47 -148 33 57 151 354 206 519 32 96 68 227 80 290 33 177 35
183 46 187 17 6 36 -46 44 -120 7 -61 1 -209 -14 -333 l-6 -49 14 38 c29 72
67 271 73 371 8 139 -17 310 -57 392 -17 34 -48 81 -71 105 -43 47 -43 40 1
-26 59 -89 53 -86 -39 22 -102 120 -217 203 -505 365 -77 43 -141 78 -142 78
-2 0 -33 18 -68 40 -36 21 -120 66 -187 100 -67 33 -137 69 -156 81 -19 12
-36 19 -38 17 -7 -6 31 -56 93 -122 49 -54 72 -99 58 -114 -4 -3 -38 -8 -75
-10 l-68 -4 -6 53 c-10 83 -103 259 -138 259 -5 0 -9 -35 -9 -78z m-816 -119
c-54 -83 -68 -119 -69 -174 0 -67 30 -118 108 -180 l50 -39 15 22 c30 45 103
108 125 108 36 0 85 -36 211 -154 133 -125 133 -122 6 -126 -116 -3 -21 -22
115 -23 103 0 133 4 210 27 219 66 421 192 456 285 13 32 -4 110 -39 182 -26
53 -26 56 -7 49 123 -49 473 -301 644 -465 101 -97 196 -214 184 -226 -5 -4
-84 -13 -178 -21 -230 -18 -2360 -18 -2539 -1 -65 7 -121 14 -123 17 -9 9 119
167 210 259 184 186 332 303 547 434 47 29 87 52 89 52 2 1 -5 -11 -15 -26z
m530 -858 c16 -16 45 -103 47 -139 1 -12 5 -3 10 19 5 22 16 59 24 81 14 36
21 42 53 48 47 7 220 8 249 0 23 -6 38 -35 51 -99 l8 -40 6 57 c4 32 10 63 14
69 10 18 203 3 224 -16 20 -18 40 -80 40 -125 0 -54 13 -26 19 42 l6 63 65 0
c137 -1 154 -22 155 -190 0 -111 -13 -182 -40 -208 -12 -13 -27 -11 -107 13
l-93 28 2 59 2 58 -17 -50 c-21 -61 -27 -62 -167 -37 l-100 17 -5 60 -5 60 -8
-52 c-6 -39 -13 -56 -30 -65 -16 -10 -103 -13 -342 -13 -176 0 -332 3 -347 8
-24 6 -29 15 -40 70 l-13 62 -5 -65 -5 -65 -119 -19 c-116 -19 -119 -19 -132
-1 -8 11 -14 28 -14 39 0 12 -5 28 -10 36 -7 11 -9 -3 -8 -45 l3 -59 -94 -28
c-107 -32 -114 -30 -132 35 -24 88 -29 157 -19 223 14 87 30 110 88 123 86 19
130 23 136 12 4 -6 10 -41 13 -78 l7 -68 13 69 c18 98 28 106 148 113 117 7
124 2 126 -91 l1 -61 14 64 c22 99 18 98 196 100 93 1 120 -2 132 -14z m-925
-178 c6 -40 21 -121 32 -180 11 -60 19 -110 17 -111 -2 -1 -16 -8 -32 -14 -34
-15 -46 -4 -73 73 -26 72 -26 259 0 299 26 40 43 20 56 -67z m2008 66 c27 -41
24 -217 -5 -298 -29 -79 -38 -87 -79 -70 l-32 13 15 62 c8 35 21 108 29 164
16 104 31 156 46 156 5 0 17 -12 26 -27z m110 -112 c-10 -166 -47 -291 -87
-291 -23 0 -24 10 -10 60 6 19 22 97 35 172 14 76 31 149 37 163 21 46 31 1
25 -104z m-2253 77 c9 -24 23 -88 31 -143 9 -55 22 -124 30 -154 15 -57 13
-71 -10 -71 -22 0 -45 55 -66 154 -20 95 -26 256 -10 256 5 0 16 -19 25 -42z
m332 -1077 c32 -17 106 -46 164 -65 417 -139 945 -123 1340 40 110 46 120 48
120 35 0 -21 -113 -123 -194 -176 -205 -134 -424 -185 -741 -172 -291 11 -492
85 -665 245 -62 57 -111 122 -92 122 5 0 35 -13 68 -29z"/>
<path d="M3360 4863 c-109 -123 -145 -246 -137 -473 10 -281 98 -684 282
-1285 137 -447 232 -706 323 -877 96 -184 96 -144 -2 202 -20 69 -74 240 -121
380 -189 564 -235 743 -345 1350 -33 182 -45 366 -30 471 12 91 42 196 74 257
9 18 15 32 12 32 -2 0 -28 -26 -56 -57z"/>
<path d="M6950 4915 c0 -6 7 -21 16 -33 24 -35 61 -161 75 -253 21 -148 -9
-404 -81 -669 -11 -41 -32 -127 -45 -190 -49 -220 -178 -659 -340 -1150 -110
-334 -153 -485 -143 -496 7 -6 115 187 153 271 81 183 191 505 294 860 38 132
94 326 124 430 88 300 122 464 139 667 18 210 -5 333 -82 441 -42 59 -109 134
-110 122z"/>
<path d="M3811 3174 c0 -11 3 -14 6 -6 3 7 2 16 -1 19 -3 4 -6 -2 -5 -13z"/>
<path d="M4211 2695 c70 -123 231 -307 334 -380 116 -83 258 -141 408 -170
102 -19 328 -20 439 0 240 42 469 184 642 400 115 143 128 169 41 82 -109
-109 -271 -212 -417 -267 -338 -125 -782 -113 -1073 30 -113 55 -243 154 -308
234 -23 29 -52 66 -65 82 l-23 29 22 -40z"/>
<path d="M3927 2525 c9 -19 18 -33 21 -31 4 5 -26 66 -33 66 -3 0 3 -16 12
-35z"/>
<path d="M3956 2460 c23 -84 200 -431 241 -470 8 -8 1 10 -17 40 -17 30 -77
145 -131 255 -55 110 -97 189 -93 175z"/>
<path d="M6267 2248 c-35 -68 -82 -154 -103 -192 -21 -38 -33 -66 -27 -63 17
11 168 286 193 353 20 51 -1 19 -63 -98z"/>
<path d="M4046 9299 c-23 -18 -38 -69 -20 -69 4 0 31 14 61 31 44 25 52 34 42
45 -17 20 -52 17 -83 -7z"/>
<path d="M6400 9285 c0 -7 91 -65 102 -65 4 0 8 11 8 25 0 19 -7 26 -37 34
-41 12 -73 14 -73 6z"/>
<path d="M3822 9164 c-12 -8 -22 -22 -22 -30 0 -23 41 -34 72 -18 37 19 44 35
23 51 -25 17 -45 17 -73 -3z"/>
<path d="M6835 9148 c-27 -15 -35 -28 -35 -59 0 -30 37 -69 67 -69 33 0 73 38
73 69 0 47 -63 82 -105 59z"/>
<path d="M2998 8965 c-32 -18 -42 -44 -33 -85 17 -79 145 -55 145 27 0 34 -8
46 -37 62 -28 14 -42 14 -75 -4z"/>
<path d="M7123 8968 c-45 -21 -47 -94 -4 -117 49 -27 104 4 104 59 0 22 -7 39
-22 52 -26 20 -45 22 -78 6z"/>
<path d="M7347 8769 c-28 -16 -49 -73 -38 -103 13 -32 49 -56 84 -56 34 0 87
48 87 80 0 29 -26 76 -45 84 -25 9 -68 7 -88 -5z"/>
<path d="M2755 8745 c-49 -48 -23 -120 47 -131 49 -8 88 28 88 81 0 71 -83
103 -135 50z"/>
<path d="M6999 8743 c5 -10 16 -27 25 -38 15 -20 15 -20 16 1 0 11 -8 28 -18
37 -24 22 -35 22 -23 0z"/>
<path d="M2552 8540 c-33 -31 -33 -85 0 -112 29 -26 74 -23 103 7 30 30 32 64
4 99 -26 33 -75 35 -107 6z"/>
<path d="M7111 8546 c-18 -21 12 -122 38 -131 27 -8 67 10 86 39 16 24 16 28
-2 63 -16 35 -22 38 -64 41 -31 2 -50 -2 -58 -12z"/>
<path d="M7546 8534 c-25 -24 -21 -90 6 -108 35 -25 83 -20 107 10 43 55 13
114 -58 114 -23 0 -46 -7 -55 -16z"/>
<path d="M2339 8341 c-29 -23 -31 -81 -4 -111 39 -43 119 -16 131 45 13 68
-71 112 -127 66z"/>
<path d="M2771 8343 c-11 -10 -24 -32 -27 -50 -12 -61 78 -112 118 -65 24 27
31 82 13 109 -19 28 -73 31 -104 6z"/>
<path d="M7345 8335 c-30 -29 -32 -58 -5 -85 32 -32 67 -36 96 -9 30 28 32 71
4 99 -27 27 -66 25 -95 -5z"/>
<path d="M7782 8334 c-28 -19 -30 -74 -4 -97 42 -38 112 -5 112 52 0 33 -30
61 -65 61 -11 0 -31 -7 -43 -16z"/>
<path d="M2542 8140 c-33 -31 -30 -92 4 -119 57 -45 139 -7 137 63 -1 21 -9
46 -19 57 -24 27 -93 26 -122 -1z"/>
<path d="M7541 8134 c-33 -42 -7 -71 148 -165 76 -46 76 -47 73 -86 -5 -71 65
-120 105 -73 10 11 23 20 30 20 15 0 113 -71 113 -81 0 -4 -13 -21 -30 -37
-40 -40 -42 -91 -4 -121 15 -12 35 -21 45 -21 30 0 77 48 81 82 l3 31 73 -69
c70 -68 87 -94 57 -94 -24 0 -55 -42 -55 -75 0 -39 27 -66 66 -65 16 1 49 1
73 1 33 -1 51 5 68 21 30 28 25 51 -25 127 -104 157 -341 349 -573 466 -84 42
-86 45 -93 85 -9 56 -35 80 -90 80 -36 0 -48 -5 -65 -26z"/>
<path d="M7987 8140 c-35 -28 -43 -71 -21 -109 32 -54 107 -61 144 -13 29 36
26 78 -9 113 -35 35 -77 38 -114 9z"/>
<path d="M2145 8125 c-48 -47 -16 -125 52 -125 31 0 73 42 73 73 0 68 -78 100
-125 52z"/>
<path d="M2776 7935 c-30 -28 -34 -69 -10 -103 21 -30 42 -28 87 9 42 35 48
68 17 99 -27 27 -61 25 -94 -5z"/>
<path d="M1943 7924 c-20 -20 -24 -31 -19 -57 6 -32 38 -67 61 -67 6 0 31 14
53 30 50 36 55 68 16 99 -37 29 -79 27 -111 -5z"/>
<path d="M2345 7925 c-32 -31 -32 -65 0 -99 32 -35 69 -34 106 4 24 23 28 35
23 57 -14 62 -85 83 -129 38z"/>
<path d="M8207 7912 c-25 -28 -21 -67 9 -91 31 -24 52 -26 76 -7 29 21 37 57
22 89 -12 22 -21 27 -53 27 -24 0 -44 -7 -54 -18z"/>
<path d="M4450 7831 c-79 -41 -283 -107 -370 -120 -80 -13 -102 -21 -53 -21
54 0 174 27 268 60 95 34 212 87 221 102 9 14 -9 8 -66 -21z"/>
<path d="M2088 7805 c-27 -24 -48 -48 -48 -55 0 -18 65 -181 136 -339 l66
-149 32 17 c17 9 32 16 33 17 6 1 -140 501 -153 527 -8 15 -16 27 -17 27 -1
-1 -23 -20 -49 -45z"/>
<path d="M2240 7748 c0 -9 15 -67 34 -129 19 -63 41 -140 50 -172 32 -112 29
-108 81 -93 54 17 84 50 84 91 0 59 -47 91 -120 81 -54 -7 -50 -12 -64 79 -11
71 -24 111 -45 135 -15 17 -20 19 -20 8z"/>
<path d="M2565 7746 c-57 -25 -72 -101 -28 -142 38 -35 68 -28 116 28 48 58
46 91 -8 114 -41 17 -42 17 -80 0z"/>
<path d="M1771 7734 c-13 -9 -30 -32 -38 -51 -12 -31 -12 -38 4 -71 26 -54 83
-57 136 -8 32 30 36 82 10 115 -24 29 -81 37 -112 15z"/>
<path d="M8415 7720 c-26 -28 -25 -85 1 -111 31 -31 82 -28 111 5 30 35 29 71
-2 101 -31 32 -84 34 -110 5z"/>
<path d="M1873 7529 c-36 -23 -63 -82 -63 -137 0 -73 32 -168 100 -304 97
-194 190 -367 200 -373 10 -6 40 22 40 39 0 6 -36 86 -80 176 -44 91 -80 170
-80 177 0 7 31 31 69 53 82 49 90 57 98 102 4 27 -3 51 -32 109 -49 98 -78
135 -125 159 -50 25 -87 25 -127 -1z m154 -168 c36 -54 31 -83 -24 -130 l-48
-41 -12 38 c-16 50 -16 145 -1 160 22 22 61 9 85 -27z"/>
<path d="M8648 7500 c-9 -6 -22 -26 -28 -44 -14 -44 6 -88 50 -108 16 -7 30
-16 30 -20 0 -15 17 -8 59 22 23 17 39 35 36 41 -4 5 -23 -4 -46 -22 -45 -36
-53 -30 -10 7 17 14 33 33 36 44 7 23 -18 75 -40 84 -24 9 -68 7 -87 -4z"/>
<path d="M1578 7485 c-3 -3 14 -27 38 -53 36 -39 46 -44 54 -32 15 24 12 48
-10 70 -18 18 -69 27 -82 15z"/>
<path d="M1509 7392 l-52 -48 31 -115 c17 -63 43 -147 57 -188 14 -41 25 -79
25 -85 -1 -17 -88 -78 -101 -71 -12 8 -142 204 -199 302 l-36 63 -30 -31 -29
-30 34 -62 c65 -117 162 -267 205 -314 l44 -48 35 17 c20 10 55 34 77 54 40
36 56 37 60 4 4 -31 -1 -39 -50 -70 -58 -37 -68 -53 -12 -19 20 12 54 31 75
42 48 25 48 38 -3 225 -58 210 -65 256 -52 331 19 106 0 116 -79 43z"/>
<path d="M1653 7316 c-26 -19 -42 -39 -43 -52 0 -12 18 -81 39 -155 22 -74 47
-166 56 -206 23 -104 33 -106 91 -28 32 44 50 62 55 53 4 -7 39 -71 78 -142
39 -71 71 -133 71 -138 0 -13 13 -9 39 11 l25 19 -19 44 c-54 122 -309 580
-326 586 -5 2 -9 10 -9 17 0 25 -15 23 -57 -9z m110 -235 l45 -75 -26 -35
c-18 -23 -28 -30 -30 -19 -1 8 -13 60 -26 117 -12 56 -19 98 -15 94 4 -4 27
-42 52 -82z"/>
<path d="M8874 7313 c-86 -54 -182 -126 -188 -140 -4 -8 3 -13 19 -13 33 0
251 78 277 100 l22 17 -20 34 c-11 19 -27 35 -35 37 -8 1 -42 -14 -75 -35z"/>
<path d="M8023 7308 c4 -13 9 -42 13 -66 8 -51 16 -58 39 -32 26 29 22 70 -9
97 -34 29 -50 29 -43 1z"/>
<path d="M8429 7305 c-31 -17 -43 -53 -30 -88 18 -48 80 -51 122 -6 16 17 29
35 29 41 0 17 -58 68 -77 68 -10 -1 -30 -7 -44 -15z"/>
<path d="M8583 7223 c-147 -165 -275 -325 -338 -423 -37 -56 -65 -104 -62
-106 10 -10 183 157 292 281 150 171 195 237 195 288 0 20 -4 37 -9 37 -5 0
-40 -35 -78 -77z"/>
<path d="M2285 7206 c-21 -39 -14 -80 16 -99 21 -13 65 13 81 49 10 20 8 29
-9 52 -31 41 -65 41 -88 -2z"/>
<path d="M2134 7139 c-32 -23 -62 -44 -67 -48 -11 -11 50 -153 84 -194 25 -31
37 -37 68 -37 64 0 112 68 90 128 -10 27 -37 40 -101 50 -48 6 -53 10 -56 34
-2 20 4 32 27 49 28 21 43 59 23 59 -5 0 -35 -18 -68 -41z"/>
<path d="M8882 7144 c-40 -27 -22 -86 31 -99 20 -5 32 -1 51 19 31 30 33 57 8
79 -23 21 -61 22 -90 1z"/>
<path d="M8194 7106 c-35 -16 -44 -32 -44 -85 0 -55 38 -91 95 -91 101 0 134
129 45 175 -35 18 -55 18 -96 1z"/>
<path d="M1400 7082 c0 -21 58 -107 67 -99 2 3 -1 31 -8 61 -11 48 -15 56 -36
56 -16 0 -23 -6 -23 -18z"/>
<path d="M2406 7085 c-3 -9 -20 -22 -38 -30 -18 -8 -25 -14 -16 -15 20 0 76
45 67 55 -4 3 -9 -1 -13 -10z"/>
<path d="M8660 7060 c-35 -18 -49 -37 -66 -94 -7 -22 -27 -38 -87 -70 -80 -42
-152 -94 -144 -103 3 -3 58 22 122 55 l117 60 29 -33 c16 -18 41 -35 55 -38
66 -12 134 36 134 95 0 37 -34 104 -63 122 -38 24 -61 26 -97 6z"/>
<path d="M9103 6970 c-27 -16 -33 -26 -33 -53 0 -43 26 -67 73 -67 27 0 41 7
56 27 25 31 20 58 -15 91 -31 27 -40 27 -81 2z"/>
<path d="M1210 6787 c-34 -17 -55 -57 -46 -90 9 -38 61 -62 99 -48 30 12 57
62 50 92 -11 41 -65 65 -103 46z"/>
<path d="M1700 6786 c-60 -22 -141 -66 -146 -79 -2 -7 2 -30 9 -52 10 -29 20
-41 37 -43 30 -5 147 54 166 84 17 25 13 66 -8 91 -12 15 -13 15 -58 -1z"/>
<path d="M8445 6776 c-73 -33 -80 -46 -52 -87 38 -56 97 -64 145 -19 39 37 25
130 -21 130 -12 0 -44 -11 -72 -24z"/>
<path d="M8870 6770 c-43 -43 -12 -123 49 -123 37 0 81 37 81 68 0 12 -9 34
-21 49 -26 33 -79 36 -109 6z"/>
<path d="M8120 6740 c0 -16 4 -30 9 -30 10 0 22 40 15 52 -11 18 -24 6 -24
-22z"/>
<path d="M2138 6667 c-37 -29 -65 -53 -63 -55 6 -7 123 79 129 94 3 8 4 14 3
13 -1 -1 -32 -24 -69 -52z"/>
<path d="M1775 6624 c-27 -18 -46 -34 -41 -34 13 0 96 54 96 63 0 10 2 10 -55
-29z"/>
<path d="M8200 6605 c-7 -8 -15 -35 -17 -59 -5 -38 -2 -48 20 -70 30 -29 55
-32 96 -11 78 40 43 155 -47 155 -23 0 -45 -6 -52 -15z"/>
<path d="M1799 6595 c-47 -26 -46 -100 1 -128 39 -23 67 -21 95 8 35 34 34 86
-1 114 -31 24 -58 26 -95 6z"/>
<path d="M2205 6584 c-30 -32 -32 -74 -7 -97 31 -28 42 -21 42 31 0 26 3 57 6
70 9 30 -11 28 -41 -4z"/>
<path d="M1413 6585 c-35 -15 -47 -42 -38 -85 17 -79 148 -62 148 19 0 57 -54
90 -110 66z"/>
<path d="M8656 6579 c-20 -16 -26 -29 -26 -58 0 -47 24 -71 72 -71 70 0 102
76 53 125 -30 30 -64 32 -99 4z"/>
<path d="M1003 6580 c-26 -11 -43 -39 -43 -73 0 -57 82 -78 119 -31 26 33 26
55 4 82 -22 25 -51 33 -80 22z"/>
<path d="M9089 6572 c-15 -13 -22 -30 -22 -51 0 -69 84 -100 130 -47 28 33 29
56 2 90 -25 32 -75 35 -110 8z"/>
<path d="M1198 6385 c-50 -28 -45 -105 8 -125 38 -15 49 -12 78 16 33 33 33
68 1 99 -27 28 -48 31 -87 10z"/>
<path d="M2000 6373 c-41 -52 -6 -123 60 -123 47 0 83 36 82 81 -1 46 -27 69
-78 69 -34 0 -47 -5 -64 -27z"/>
<path d="M1597 6372 c-10 -10 -17 -32 -17 -49 0 -61 71 -85 109 -36 48 60 -41
142 -92 85z"/>
<path d="M8432 6373 c-12 -10 -23 -33 -26 -50 -3 -27 1 -37 21 -53 54 -42 126
-14 126 50 0 62 -73 93 -121 53z"/>
<path d="M8875 6365 c-14 -13 -25 -36 -25 -50 0 -35 42 -75 77 -75 26 0 31 6
48 56 l19 56 -23 19 c-32 26 -67 24 -96 -6z"/>
<path d="M8120 6324 c0 -56 0 -56 23 -42 28 19 33 54 11 79 -27 30 -34 23 -34
-37z"/>
<path d="M9304 6355 c-19 -30 -11 -60 22 -82 24 -15 27 -15 52 4 15 11 28 30
30 42 8 55 -73 83 -104 36z"/>
<path d="M9080 6302 c-80 -47 -80 -40 -3 -247 30 -82 77 -211 103 -285 30 -84
53 -134 61 -132 7 2 27 9 44 16 l32 14 -34 178 c-53 279 -106 488 -123 492 -8
1 -44 -15 -80 -36z"/>
<path d="M1825 6213 c-97 -24 -81 -173 18 -173 92 0 127 124 46 165 -29 16
-31 16 -64 8z"/>
<path d="M995 6188 c-27 -15 -35 -28 -35 -58 0 -66 68 -93 115 -45 31 30 32
65 2 93 -26 24 -52 27 -82 10z"/>
<path d="M1395 6175 c-31 -30 -32 -68 -3 -95 46 -43 121 -12 121 50 0 64 -72
92 -118 45z"/>
<path d="M2212 6188 c-20 -20 -15 -83 8 -103 20 -18 20 -17 20 48 0 67 -5 78
-28 55z"/>
<path d="M8656 6179 c-51 -40 -19 -129 48 -129 32 0 76 46 76 80 0 33 -40 70
-75 70 -12 0 -34 -9 -49 -21z"/>
<path d="M8331 6164 c-39 -32 -57 -93 -71 -232 -14 -138 -8 -178 34 -203 42
-26 44 -25 51 19 3 20 12 60 20 87 8 28 19 77 26 110 10 52 18 65 56 100 75
67 78 92 12 125 -52 27 -91 25 -128 -6z"/>
<path d="M8859 6040 c-112 -33 -148 -172 -99 -378 28 -118 150 -500 195 -614
6 -16 9 -16 41 0 18 9 34 24 34 32 0 8 -24 91 -54 185 -78 245 -77 230 -19
244 78 20 141 51 159 79 25 38 21 104 -10 206 -32 106 -46 134 -88 181 -48 55
-109 80 -159 65z m111 -210 c19 -20 33 -50 40 -87 11 -50 10 -58 -8 -82 -25
-34 -108 -69 -123 -54 -7 7 -14 55 -17 107 -4 78 -2 100 12 121 23 35 61 33
96 -5z"/>
<path d="M2016 5999 c-21 -16 -26 -29 -26 -64 0 -35 5 -48 26 -64 37 -29 70
-26 105 8 56 56 25 141 -51 141 -15 0 -39 -9 -54 -21z"/>
<path d="M1181 5974 c-27 -34 -27 -68 1 -94 47 -44 128 -13 128 50 0 67 -88
96 -129 44z"/>
<path d="M1595 5980 c-39 -43 -10 -120 45 -120 56 0 88 70 54 118 -20 29 -74
30 -99 2z"/>
<path d="M8491 5982 l-44 -17 7 -105 c4 -58 11 -134 16 -170 5 -36 10 -91 10
-123 0 -51 -3 -58 -24 -66 -19 -8 -36 -29 -36 -46 0 -2 14 -6 30 -10 17 -4 30
-13 30 -20 0 -28 23 -26 97 9 42 20 77 35 78 34 2 -2 21 -64 43 -138 42 -139
101 -310 108 -310 12 0 74 35 74 43 0 4 -11 41 -24 80 -52 157 -133 454 -172
635 -4 19 -11 22 -54 22 -28 0 -50 -3 -50 -7 0 -8 46 -193 56 -224 3 -12 -5
-20 -27 -28 -47 -16 -49 -15 -48 27 1 20 1 126 0 235 -1 151 -4 197 -13 196
-7 0 -33 -8 -57 -17z"/>
<path d="M9320 5981 c0 -30 23 -121 30 -121 19 0 60 52 60 75 0 45 -17 65 -55
65 -28 0 -35 -4 -35 -19z"/>
<path d="M803 5978 c-29 -38 -20 -91 17 -103 44 -14 76 47 50 96 -12 21 -52
26 -67 7z"/>
<path d="M8080 5967 c0 -8 21 -45 46 -83 25 -38 43 -60 39 -49 -3 11 -9 43
-12 70 -3 28 -10 56 -16 63 -13 16 -57 16 -57 -1z"/>
<path d="M7958 5926 c-21 -18 -38 -36 -38 -40 0 -35 213 -287 258 -305 17 -7
56 -11 86 -9 48 2 56 0 56 -14 0 -23 -38 -58 -64 -59 -42 -3 -60 4 -109 37
-60 42 -87 44 -87 9 0 -41 24 -88 64 -123 30 -26 45 -32 82 -32 48 0 106 20
138 48 47 42 71 154 44 205 -20 39 -40 47 -111 45 -59 -1 -71 2 -93 23 -28 26
-105 137 -144 207 -13 23 -28 42 -34 42 -6 -1 -28 -16 -48 -34z"/>
<path d="M1795 5785 c-52 -51 -18 -125 57 -125 32 0 41 5 58 33 11 17 20 40
20 50 0 29 -45 67 -80 67 -19 0 -40 -9 -55 -25z"/>
<path d="M2221 5789 c-12 -13 -21 -36 -21 -51 0 -36 40 -78 75 -78 26 0 26 1
19 47 -16 105 -33 124 -73 82z"/>
<path d="M981 5781 c-50 -38 -21 -131 41 -131 26 0 78 53 78 80 0 28 -43 70
-72 70 -13 0 -34 -9 -47 -19z"/>
<path d="M1396 5779 c-19 -15 -26 -30 -26 -54 0 -24 7 -39 26 -54 32 -25 52
-26 82 -5 49 34 49 95 1 119 -37 20 -51 19 -83 -6z"/>
<path d="M9492 5768 c-28 -28 -3 -84 34 -76 43 8 44 88 1 88 -13 0 -28 -5 -35
-12z"/>
<path d="M2011 5593 c-56 -47 -24 -133 49 -133 63 0 102 57 75 109 -23 45 -84
56 -124 24z"/>
<path d="M9296 5589 c-49 -39 -29 -149 27 -149 29 0 63 21 80 50 22 37 21 62
-4 94 -25 32 -66 34 -103 5z"/>
<path d="M1185 5575 c-14 -13 -25 -33 -25 -45 0 -28 43 -70 73 -70 61 0 92 83
45 123 -28 24 -65 21 -93 -8z"/>
<path d="M1602 5584 c-30 -21 -30 -73 1 -102 28 -27 48 -28 77 -4 43 35 18
122 -34 122 -12 0 -32 -7 -44 -16z"/>
<path d="M791 5564 c-12 -15 -21 -33 -21 -40 0 -19 36 -54 55 -54 22 0 55 37
55 60 0 23 -33 60 -54 60 -8 0 -24 -12 -35 -26z"/>
<path d="M9481 5509 c0 -14 -13 -44 -27 -65 -15 -21 -19 -32 -10 -24 26 21 48
69 43 93 -4 19 -4 18 -6 -4z"/>
<path d="M9030 5465 c-14 -8 -20 -14 -15 -14 6 0 21 6 35 14 14 8 21 14 15 14
-5 0 -21 -6 -35 -14z"/>
<path d="M9090 5463 c-49 -19 -70 -45 -70 -84 0 -86 60 -134 135 -109 45 15
65 44 64 95 0 38 -17 96 -18 66 -1 -11 -7 -9 -23 7 -25 23 -65 34 -88 25z"/>
<path d="M2261 5409 c-76 -30 -62 -124 21 -144 21 -5 30 -2 43 19 23 35 31 99
14 113 -23 17 -52 22 -78 12z"/>
<path d="M976 5387 c-14 -15 -26 -33 -26 -42 0 -20 19 -57 34 -67 20 -13 63
-8 84 10 49 41 30 106 -35 118 -26 5 -37 1 -57 -19z"/>
<path d="M1408 5394 c-51 -27 -49 -96 5 -119 39 -16 80 -3 96 31 16 37 14 52
-14 79 -28 28 -48 31 -87 9z"/>
<path d="M1796 5389 c-49 -38 -25 -112 41 -125 41 -8 83 30 83 75 0 34 -39 71
-75 71 -12 0 -34 -9 -49 -21z"/>
<path d="M8010 5357 c0 -42 15 -87 30 -87 17 0 50 39 50 58 0 27 -21 50 -52
58 -27 6 -28 4 -28 -29z"/>
<path d="M8505 5369 c-27 -4 -75 -11 -106 -14 l-56 -6 4 -47 c7 -77 6 -75 73
-68 66 8 158 33 178 48 6 6 12 30 12 54 0 50 -2 50 -105 33z"/>
<path d="M9496 5364 c-11 -29 -6 -53 14 -64 11 -6 25 -8 31 -4 17 10 27 48 17
67 -11 21 -54 22 -62 1z"/>
<path d="M1187 5182 c-22 -25 -21 -75 1 -95 46 -42 132 2 117 60 -3 15 -11 34
-17 40 -16 20 -82 16 -101 -5z"/>
<path d="M1596 5178 c-49 -69 35 -147 94 -88 41 41 13 110 -45 110 -24 0 -39
-7 -49 -22z"/>
<path d="M2007 5182 c-25 -27 -21 -69 9 -99 20 -20 31 -24 57 -19 59 12 88 84
49 119 -26 23 -94 22 -115 -1z"/>
<path d="M8200 5180 c-27 -27 -26 -75 2 -94 67 -47 146 22 103 88 -22 33 -75
36 -105 6z"/>
<path d="M9307 5182 c-37 -40 -6 -112 47 -112 27 0 66 42 66 69 0 50 -80 80
-113 43z"/>
<path d="M786 5174 c-34 -33 -12 -94 34 -94 50 0 78 61 42 93 -23 21 -56 22
-76 1z"/>
<path d="M8630 5175 c-18 -21 -2 -68 24 -73 17 -4 18 1 13 34 -8 47 -20 60
-37 39z"/>
<path d="M993 5010 c-45 -18 -55 -72 -22 -114 33 -42 93 -34 114 17 18 43 2
82 -37 96 -17 6 -31 11 -32 10 -1 0 -11 -4 -23 -9z"/>
<path d="M1408 5004 c-52 -28 -50 -106 4 -128 58 -25 108 8 108 72 0 52 -62
83 -112 56z"/>
<path d="M1830 5013 c-50 -18 -73 -70 -50 -113 15 -27 71 -44 103 -29 55 25
58 107 6 134 -30 16 -35 17 -59 8z"/>
<path d="M2263 5013 c-43 -8 -66 -69 -43 -113 10 -19 67 -43 81 -34 5 3 9 39
9 80 0 77 1 76 -47 67z"/>
<path d="M8435 5008 c-28 -16 -35 -28 -35 -65 0 -43 30 -73 74 -73 49 0 78 27
78 75 0 61 -62 94 -117 63z"/>
<path d="M9090 5000 c-36 -36 -19 -111 29 -128 77 -27 134 66 76 123 -30 31
-77 33 -105 5z"/>
<path d="M8030 4963 c0 -79 20 -102 53 -65 33 36 14 102 -28 102 -22 0 -25 -4
-25 -37z"/>
<path d="M8656 4981 c-41 -45 13 -126 71 -105 64 22 49 116 -19 122 -24 2 -39
-3 -52 -17z"/>
<path d="M9502 4978 c-25 -25 -10 -78 23 -78 30 0 47 22 43 57 -2 21 -9 29
-28 31 -14 2 -31 -3 -38 -10z"/>
<path d="M2040 4813 c-52 -19 -69 -93 -30 -128 38 -35 111 -16 128 32 21 61
-37 118 -98 96z"/>
<path d="M1185 4785 c-41 -40 -30 -92 25 -115 25 -10 34 -10 55 4 67 44 43
136 -35 136 -11 0 -32 -11 -45 -25z"/>
<path d="M1605 4785 c-14 -13 -25 -36 -25 -50 0 -30 32 -65 60 -65 27 0 70 43
70 70 0 25 -42 70 -65 70 -9 0 -27 -11 -40 -25z"/>
<path d="M8875 4785 c-14 -13 -25 -33 -25 -45 0 -29 44 -70 75 -70 29 0 75 40
75 65 0 20 -19 57 -34 67 -23 16 -67 8 -91 -17z"/>
<path d="M9320 4797 c-36 -18 -41 -88 -8 -111 32 -22 61 -20 86 7 55 59 -6
141 -78 104z"/>
<path d="M786 4778 c-21 -30 -20 -61 2 -81 29 -26 59 -21 77 13 20 38 19 53
-3 73 -26 23 -58 21 -76 -5z"/>
<path d="M8206 4781 c-11 -12 -16 -31 -14 -52 6 -65 100 -71 122 -7 22 61 -64
108 -108 59z"/>
<path d="M1413 4610 c-26 -11 -43 -40 -43 -74 0 -63 89 -90 129 -40 12 15 21
37 21 50 0 24 -31 64 -49 64 -5 0 -15 2 -23 4 -7 3 -23 1 -35 -4z"/>
<path d="M1792 4597 c-25 -26 -29 -74 -9 -101 20 -27 87 -32 117 -8 30 24 33
81 5 112 -26 29 -85 27 -113 -3z"/>
<path d="M2265 4613 c-34 -8 -55 -34 -55 -68 0 -38 26 -65 66 -68 29 -2 29 -2
30 58 1 61 -3 86 -15 84 -3 -1 -15 -4 -26 -6z"/>
<path d="M8670 4613 c-45 -16 -56 -100 -18 -127 35 -25 83 -20 107 10 52 66
-9 146 -89 117z"/>
<path d="M9123 4613 c-29 -6 -53 -40 -53 -75 0 -39 32 -68 75 -68 56 0 89 51
69 105 -5 13 -57 48 -66 44 -2 -1 -13 -4 -25 -6z"/>
<path d="M971 4584 c-12 -15 -21 -34 -21 -44 0 -10 9 -29 21 -44 41 -52 119
-21 119 47 0 66 -78 93 -119 41z"/>
<path d="M8030 4539 c0 -73 2 -75 43 -41 23 20 22 74 -1 95 -34 31 -42 21 -42
-54z"/>
<path d="M9505 4583 c-22 -22 -19 -60 7 -74 18 -10 24 -8 35 7 20 28 17 71 -7
77 -11 3 -27 -1 -35 -10z"/>
<path d="M2045 4412 c-95 -19 -69 -152 30 -152 34 0 78 56 70 89 -12 49 -50
73 -100 63z"/>
<path d="M1192 4394 c-28 -20 -31 -83 -4 -107 27 -24 74 -21 100 6 61 65 -22
153 -96 101z"/>
<path d="M1601 4389 c-26 -29 -27 -73 -1 -99 26 -26 51 -25 84 1 46 36 28 103
-31 115 -24 5 -35 1 -52 -17z"/>
<path d="M8875 4390 c-39 -43 -9 -110 50 -110 66 0 95 86 41 122 -22 15 -73 8
-91 -12z"/>
<path d="M9304 4384 c-43 -42 -15 -107 47 -107 34 0 68 33 69 66 0 24 -44 67
-70 67 -11 0 -32 -11 -46 -26z"/>
<path d="M792 4380 c-6 -11 -12 -28 -12 -38 0 -22 30 -52 52 -52 21 0 48 32
48 58 0 47 -64 70 -88 32z"/>
<path d="M8020 4380 c-6 -10 -10 -37 -10 -59 0 -37 2 -41 25 -41 37 0 61 41
45 79 -14 36 -46 47 -60 21z"/>
<path d="M8428 4379 c-13 -7 -18 -22 -18 -50 0 -35 4 -41 35 -56 34 -16 36
-16 63 4 33 24 39 56 18 89 -18 26 -65 33 -98 13z"/>
<path d="M1796 4199 c-55 -43 -23 -129 49 -129 43 0 75 32 75 74 0 37 -7 49
-37 65 -32 16 -57 14 -87 -10z"/>
<path d="M2235 4195 c-40 -40 -30 -96 22 -123 34 -18 52 -14 83 17 26 25 28
32 20 61 -20 71 -79 92 -125 45z"/>
<path d="M8646 4199 c-38 -30 -37 -90 3 -118 33 -24 50 -26 84 -10 49 22 61
86 22 124 -30 31 -73 32 -109 4z"/>
<path d="M9115 4211 c-34 -14 -46 -37 -43 -77 2 -31 9 -42 36 -57 28 -17 37
-17 63 -7 34 14 49 37 49 73 0 50 -58 87 -105 68z"/>
<path d="M982 4194 c-28 -19 -31 -83 -4 -107 47 -42 122 -8 122 55 0 57 -68
87 -118 52z"/>
<path d="M1395 4185 c-28 -27 -30 -42 -14 -79 31 -67 139 -45 139 28 0 73 -74
103 -125 51z"/>
<path d="M8201 4174 c-12 -15 -21 -30 -21 -35 0 -50 63 -92 105 -69 34 18 50
62 34 92 -16 31 -28 38 -66 38 -22 0 -38 -8 -52 -26z"/>
<path d="M2040 4006 c-74 -24 -57 -127 22 -134 66 -6 108 60 69 110 -26 32
-48 38 -91 24z"/>
<path d="M1215 4001 c-76 -32 -57 -141 24 -141 81 0 99 127 20 144 -13 3 -33
1 -44 -3z"/>
<path d="M1606 3989 c-46 -36 -22 -119 34 -119 27 0 70 43 70 70 0 24 -42 70
-63 70 -8 0 -26 -9 -41 -21z"/>
<path d="M8426 3989 c-53 -41 -18 -129 51 -129 32 0 73 46 73 81 0 32 -40 69
-75 69 -12 0 -34 -9 -49 -21z"/>
<path d="M8877 3990 c-53 -42 -23 -130 44 -130 42 0 73 31 73 74 0 65 -65 96
-117 56z"/>
<path d="M9307 3989 c-33 -25 -36 -70 -7 -99 41 -41 100 -13 102 50 2 56 -52
84 -95 49z"/>
<path d="M7987 3982 c-34 -37 -13 -106 33 -112 64 -9 108 72 62 113 -25 22
-75 21 -95 -1z"/>
<path d="M2420 3963 c0 -20 9 -42 24 -60 36 -41 38 -26 5 37 -27 53 -28 54
-29 23z"/>
<path d="M1836 3819 c-20 -17 -36 -40 -36 -52 0 -13 23 -43 57 -75 82 -77 301
-252 317 -252 7 0 18 11 25 24 15 27 7 49 -30 81 -17 16 -23 17 -27 6 -5 -15
-6 -14 -146 159 -124 153 -116 148 -160 109z"/>
<path d="M2265 3809 c-53 -30 -62 -94 -19 -128 59 -46 149 -8 142 61 -5 50
-79 91 -123 67z"/>
<path d="M8635 3795 c-73 -72 28 -178 109 -114 20 16 26 29 26 59 0 72 -84
106 -135 55z"/>
<path d="M8205 3785 c-46 -45 -19 -115 45 -115 64 0 94 80 44 119 -35 27 -59
26 -89 -4z"/>
<path d="M980 3780 c-41 -41 -10 -120 47 -120 31 0 73 42 73 73 0 57 -79 88
-120 47z"/>
<path d="M1402 3784 c-22 -15 -30 -66 -14 -91 24 -38 100 -34 121 6 37 68 -42
131 -107 85z"/>
<path d="M7780 3753 c-17 -26 -29 -51 -27 -56 1 -5 14 -16 29 -24 22 -14 31
-14 56 -4 28 12 52 46 52 76 0 22 -37 55 -60 55 -13 0 -31 -16 -50 -47z"/>
<path d="M9080 3780 c-29 -29 -26 -74 6 -99 35 -28 69 -26 99 4 29 28 32 61 9
93 -20 29 -85 31 -114 2z"/>
<path d="M1690 3725 c0 -3 13 -23 29 -43 16 -20 31 -44 33 -53 3 -15 112 -113
176 -158 69 -48 20 -33 -141 44 -32 15 -59 26 -61 24 -2 -2 -6 -17 -10 -34 -6
-29 -4 -31 56 -56 58 -25 126 -39 253 -53 l50 -6 -65 57 c-36 32 -103 94 -150
138 -87 84 -170 152 -170 140z"/>
<path d="M2545 3611 c-37 -16 -49 -41 -46 -97 3 -56 75 -93 129 -67 74 36 51
154 -34 168 -16 2 -38 1 -49 -4z"/>
<path d="M8455 3612 c-36 -7 -55 -33 -55 -73 0 -42 18 -66 58 -76 55 -14 106
47 86 104 -10 29 -56 52 -89 45z"/>
<path d="M8900 3603 c-32 -12 -50 -37 -50 -69 0 -59 67 -95 112 -60 66 50 15
157 -62 129z"/>
<path d="M1187 3582 c-24 -26 -21 -77 5 -102 28 -26 58 -26 92 1 32 25 36 77
8 102 -25 23 -85 22 -105 -1z"/>
<path d="M1600 3580 c-29 -29 -26 -74 6 -99 15 -12 32 -21 39 -21 46 0 83 91
50 123 -22 23 -71 21 -95 -3z"/>
<path d="M7977 3582 c-26 -29 -22 -86 8 -106 34 -22 58 -20 89 9 29 27 33 60
10 93 -20 28 -83 31 -107 4z"/>
<path d="M7571 3567 c-30 -13 -56 -28 -59 -35 -2 -6 10 -26 28 -43 26 -26 36
-30 63 -25 55 10 81 60 57 107 -13 24 -22 23 -89 -4z"/>
<path d="M1395 3380 c-26 -29 -24 -79 4 -102 66 -53 153 29 101 95 -27 34 -78
37 -105 7z"/>
<path d="M1665 3358 c-4 -22 -4 -42 -1 -45 3 -4 41 -12 84 -19 88 -15 371 -19
356 -5 -7 7 -103 31 -396 100 l-37 9 -6 -40z"/>
<path d="M2345 3391 c-34 -14 -46 -37 -43 -77 2 -31 9 -42 36 -57 28 -17 37
-17 63 -7 33 14 59 45 59 72 0 24 -41 66 -70 72 -14 3 -34 1 -45 -3z"/>
<path d="M8642 3377 c-38 -40 -25 -95 26 -116 81 -34 150 87 73 128 -33 18
-76 13 -99 -12z"/>
<path d="M9080 3380 c-27 -27 -25 -66 5 -95 29 -30 64 -32 93 -5 31 29 38 65
18 95 -21 32 -86 35 -116 5z"/>
<path d="M2780 3377 c-13 -7 -29 -25 -34 -40 -14 -40 20 -83 64 -80 63 3 93
70 50 113 -23 23 -45 25 -80 7z"/>
<path d="M8200 3370 c-40 -40 -9 -110 50 -110 61 0 87 88 36 122 -21 14 -66 8
-86 -12z"/>
<path d="M7772 3368 c-21 -21 -14 -66 13 -84 52 -34 111 31 70 76 -20 22 -65
26 -83 8z"/>
<path d="M7400 3343 c0 -10 -3 -36 -7 -58 l-6 -40 21 19 c27 23 32 96 7 96 -8
0 -15 -8 -15 -17z"/>
<path d="M2104 3198 c-26 -29 -78 -94 -116 -145 l-69 -92 -36 24 c-53 37 -93
41 -149 15 -27 -11 -64 -35 -83 -53 -45 -42 -144 -175 -160 -215 -12 -29 -11
-35 13 -76 51 -86 136 -133 229 -124 l52 6 22 -47 c13 -26 37 -55 56 -68 95
-60 172 -52 249 27 53 55 72 107 62 172 -14 91 -62 141 -154 160 -58 12 -60
13 -60 44 0 18 -5 45 -11 60 -10 27 -9 27 9 11 10 -9 21 -17 25 -17 16 0 267
277 267 295 -1 9 -83 75 -94 75 -2 0 -25 -24 -52 -52z m-285 -313 c52 -26 55
-87 10 -181 l-30 -64 -47 0 c-26 0 -66 9 -89 20 -36 16 -43 24 -43 48 0 38 54
117 109 160 49 37 52 37 90 17z m216 -218 c20 -16 28 -35 32 -69 5 -42 3 -50
-25 -78 -91 -90 -206 36 -134 148 20 31 90 31 127 -1z"/>
<path d="M1746 2801 c-20 -22 -14 -56 10 -65 21 -8 31 24 11 36 -14 7 -14 12
-4 22 6 8 15 12 20 9 4 -2 7 1 7 6 0 18 -25 13 -44 -8z"/>
<path d="M1936 2608 c-3 -13 -6 -26 -6 -30 0 -10 30 -38 41 -38 17 0 30 50 19
71 -15 26 -46 24 -54 -3z"/>
<path d="M1220 3193 c-21 -8 -30 -24 -30 -55 0 -40 10 -59 37 -69 25 -9 60 2
75 25 12 17 9 61 -4 79 -15 18 -56 29 -78 20z"/>
<path d="M1620 3193 c-25 -9 -40 -35 -40 -68 0 -61 62 -85 114 -44 60 47 0
138 -74 112z"/>
<path d="M2555 3188 c-53 -28 -62 -93 -19 -127 32 -25 61 -27 94 -5 58 39 64
71 21 115 -31 30 -62 36 -96 17z"/>
<path d="M2844 3167 c-27 -19 -50 -41 -52 -50 -2 -9 12 -40 31 -69 19 -30 40
-65 47 -78 13 -24 12 -24 -6 -8 -86 76 -224 56 -284 -39 -35 -55 -44 -105 -31
-165 11 -46 163 -404 226 -529 l36 -70 29 18 c17 9 30 24 30 31 0 8 -27 74
-60 148 -33 73 -60 138 -60 143 0 5 11 11 23 15 33 8 74 42 107 88 16 21 30
35 33 31 2 -4 14 -39 27 -78 28 -88 35 -95 62 -67 l22 21 -22 78 c-12 43 -35
130 -51 193 -15 64 -36 131 -45 149 -28 54 -12 45 31 -16 56 -80 73 -116 73
-155 1 -42 52 -200 66 -205 6 -2 20 4 32 14 l20 18 -64 165 c-97 247 -134 349
-145 402 -6 26 -14 48 -19 48 -4 0 -30 -15 -56 -33z m-45 -273 c31 -22 61 -96
61 -151 0 -41 -5 -51 -39 -84 -40 -37 -90 -57 -112 -43 -21 13 7 237 35 283
10 15 28 14 55 -5z"/>
<path d="M8412 3180 c-38 -36 -28 -101 20 -126 77 -40 159 65 98 126 -27 27
-89 27 -118 0z"/>
<path d="M7972 3167 c-63 -67 -19 -187 69 -187 33 0 85 37 98 69 38 90 -101
188 -167 118z"/>
<path d="M8867 3172 c-20 -22 -22 -85 -4 -101 8 -6 28 -14 45 -17 25 -5 36 -1
56 19 30 30 33 62 10 95 -20 28 -83 31 -107 4z"/>
<path d="M7547 3162 c-27 -30 -22 -69 12 -87 35 -18 74 -7 90 24 15 28 14 38
-9 61 -25 25 -72 26 -93 2z"/>
<path d="M2981 3125 c0 -11 6 -33 14 -50 l14 -30 -6 35 c-7 44 -22 75 -22 45z"/>
<path d="M2202 3017 c-39 -40 -42 -47 -42 -98 0 -31 6 -102 14 -160 8 -57 20
-167 26 -244 14 -188 12 -182 57 -187 21 -3 40 -4 42 -2 4 4 8 27 10 61 1 6
18 22 39 34 20 13 56 38 78 56 l42 33 34 -72 c19 -40 65 -139 104 -220 38 -81
74 -148 79 -148 6 1 23 11 38 24 l28 23 -71 149 c-83 172 -271 591 -291 647
-15 41 -21 42 -76 4 -19 -12 -33 -31 -33 -42 0 -11 11 -94 25 -184 23 -158 23
-191 -4 -191 -7 0 -25 167 -37 340 -6 84 -6 85 25 124 l32 39 -28 29 c-15 15
-32 28 -38 28 -6 0 -30 -19 -53 -43z m198 -356 c38 -79 40 -73 -34 -117 l-29
-17 6 54 c4 30 7 78 7 107 0 29 3 51 8 48 4 -2 23 -36 42 -75z"/>
<path d="M1402 2977 c-31 -33 -29 -80 4 -106 15 -12 33 -21 40 -21 22 0 73 52
80 82 14 60 -79 93 -124 45z"/>
<path d="M8632 2945 c-7 -8 -26 -15 -41 -15 -16 0 -84 -7 -150 -16 -108 -14
-123 -14 -136 0 -24 23 -52 28 -90 16 -26 -8 -35 -18 -37 -38 -3 -24 -11 -29
-97 -55 l-93 -29 -24 -53 c-28 -60 -25 -101 11 -139 45 -48 107 -46 158 5 27
27 29 35 25 80 l-5 49 111 35 c61 19 164 46 229 60 l117 27 31 -26 c17 -14 42
-26 55 -26 27 0 74 40 74 64 0 10 18 16 61 21 70 8 63 24 -11 25 -25 0 -54 7
-64 15 -26 19 -107 19 -124 0z"/>
<path d="M7778 2916 c-28 -20 -24 -82 6 -101 25 -16 49 -12 79 13 24 21 21 49
-8 77 -27 28 -51 31 -77 11z"/>
<path d="M7353 2908 c-45 -55 0 -134 60 -107 66 30 56 111 -14 117 -21 2 -40
-2 -46 -10z"/>
<path d="M8411 2744 c-48 -61 -2 -131 80 -125 53 4 79 91 39 131 -31 31 -93
27 -119 -6z"/>
<path d="M7573 2740 c-23 -10 -43 -39 -43 -65 0 -25 46 -65 75 -65 33 0 75 41
75 74 0 15 -11 33 -26 45 -29 23 -46 25 -81 11z"/>
<path d="M7194 2675 c-14 -31 -23 -59 -19 -63 11 -12 65 57 65 83 0 45 -20 37
-46 -20z"/>
<path d="M8199 2547 c-47 -36 -51 -97 -10 -138 49 -49 121 -37 146 25 27 65
-12 126 -79 126 -23 0 -48 -6 -57 -13z"/>
<path d="M7785 2539 c-52 -29 -62 -93 -20 -134 40 -40 96 -30 123 22 18 33 15
59 -10 87 -27 30 -65 40 -93 25z"/>
<path d="M3085 2475 c-49 -36 -85 -65 -80 -65 10 0 174 110 181 122 13 21 -19
3 -101 -57z"/>
<path d="M7323 2518 c-29 -32 -34 -53 -22 -88 16 -44 64 -63 114 -44 19 8 45
55 45 84 0 59 -96 93 -137 48z"/>
<path d="M2853 2485 c-18 -8 -33 -17 -33 -21 0 -3 10 -24 22 -45 22 -40 43
-48 71 -26 14 10 14 19 5 60 -12 51 -17 53 -65 32z"/>
<path d="M3215 2430 c-8 -39 0 -50 36 -50 33 0 35 9 14 50 -20 38 -42 38 -50
0z"/>
<path d="M2426 2397 c-47 -26 -62 -54 -25 -44 13 4 36 7 52 7 19 0 27 5 27 18
0 37 -14 42 -54 19z"/>
<path d="M7563 2325 c-74 -32 -46 -135 36 -135 83 0 113 98 40 135 -34 18 -35
18 -76 0z"/>
<path d="M7102 2297 c-35 -37 -27 -79 19 -103 26 -13 32 -13 58 0 31 16 41 34
41 70 0 54 -78 75 -118 33z"/>
<path d="M7980 2300 c-29 -29 -27 -83 5 -104 75 -49 160 30 109 102 -20 29
-85 31 -114 2z"/>
<path d="M2353 2290 c-11 -16 -10 -18 2 -14 8 4 15 12 15 20 0 19 -3 18 -17
-6z"/>
<path d="M3025 2303 c-34 -9 -45 -24 -45 -64 0 -63 62 -87 111 -43 22 20 26
76 7 92 -18 14 -50 20 -73 15z"/>
<path d="M2142 2288 c-25 -32 -17 -81 17 -101 38 -22 66 -22 91 3 27 27 25 52
-6 84 -29 28 -84 36 -102 14z"/>
<path d="M2288 2253 c7 -3 16 -2 19 1 4 3 -2 6 -13 5 -11 0 -14 -3 -6 -6z"/>
<path d="M2895 2130 c-3 -5 -1 -10 4 -10 6 0 11 5 11 10 0 6 -2 10 -4 10 -3 0
-8 -4 -11 -10z"/>
<path d="M6855 2082 c-41 -55 -41 -83 -2 -96 57 -20 113 41 91 100 -5 15 -19
31 -32 35 -19 7 -27 2 -57 -39z"/>
<path d="M2799 2078 c-89 -73 -95 -79 -78 -73 9 3 32 -3 51 -15 38 -22 69 -18
101 15 27 27 20 115 -8 115 -7 0 -37 -19 -66 -42z"/>
<path d="M2372 2100 c-71 -29 -29 -144 45 -125 42 10 53 24 53 66 0 57 -41 81
-98 59z"/>
<path d="M3242 2098 c-43 -12 -57 -46 -38 -93 18 -42 55 -55 92 -31 38 26 51
62 34 93 -19 33 -46 42 -88 31z"/>
<path d="M7321 2083 c-24 -30 -20 -58 11 -85 42 -37 108 -5 108 51 0 61 -80
84 -119 34z"/>
<path d="M7760 2088 c-60 -64 31 -158 98 -100 35 29 38 67 8 96 -32 33 -78 34
-106 4z"/>
<path d="M8185 2090 c-37 -41 -9 -110 46 -110 31 0 79 49 79 80 0 45 -91 67
-125 30z"/>
<path d="M3013 1923 c-43 -8 -66 -69 -43 -113 12 -23 70 -43 96 -33 29 11 53
45 54 74 0 50 -49 82 -107 72z"/>
<path d="M2558 1903 c-39 -45 -26 -103 28 -123 72 -28 134 69 78 124 -21 22
-87 21 -106 -1z"/>
<path d="M3415 1895 c-14 -13 -25 -36 -25 -50 0 -33 42 -75 75 -75 35 0 75 42
75 78 0 66 -78 95 -125 47z"/>
<path d="M7067 1902 c-25 -28 -22 -87 5 -106 33 -23 75 -20 103 9 29 28 32 61
9 93 -20 29 -93 31 -117 4z"/>
<path d="M7537 1902 c-23 -25 -22 -85 1 -105 25 -23 78 -21 102 3 28 28 27 84
-2 104 -30 22 -81 20 -101 -2z"/>
<path d="M6665 1844 c-38 -44 -45 -58 -34 -65 42 -26 99 17 99 75 0 19 -4 37
-9 40 -5 3 -30 -19 -56 -50z"/>
<path d="M7343 1720 c-69 -28 -47 -140 28 -140 32 0 79 44 79 74 -1 48 -60 84
-107 66z"/>
<path d="M2766 1699 c-33 -26 -35 -70 -4 -99 45 -42 118 -12 118 50 0 36 -31
70 -64 70 -13 0 -35 -9 -50 -21z"/>
<path d="M3216 1699 c-35 -27 -35 -71 0 -105 19 -20 31 -24 52 -20 62 15 83
88 36 125 -15 12 -34 21 -44 21 -10 0 -29 -9 -44 -21z"/>
<path d="M3622 1700 c-30 -28 -30 -83 0 -104 49 -35 128 0 128 57 0 57 -84 87
-128 47z"/>
<path d="M6817 1692 c-39 -42 -9 -112 46 -112 57 0 89 77 49 113 -25 22 -75
21 -95 -1z"/>
<path d="M6472 1627 c-23 -23 -42 -46 -42 -50 0 -17 53 -5 75 18 23 22 35 75
17 75 -4 0 -27 -19 -50 -43z"/>
<path d="M3847 1509 c-21 -16 -27 -29 -27 -60 0 -35 4 -41 34 -56 33 -15 35
-15 66 7 29 20 32 27 26 58 -10 62 -56 86 -99 51z"/>
<path d="M2980 1500 c-27 -27 -27 -83 2 -110 50 -46 138 -11 138 56 0 65 -94
100 -140 54z"/>
<path d="M3412 1500 c-48 -45 -14 -120 52 -120 41 0 66 28 66 76 0 59 -72 86
-118 44z"/>
<path d="M7041 1484 c-28 -35 -26 -69 4 -99 29 -30 85 -34 110 -8 58 57 29
133 -51 133 -34 0 -47 -5 -63 -26z"/>
<path d="M6620 1470 c-40 -40 -11 -110 45 -110 31 0 65 33 65 63 0 60 -68 89
-110 47z"/>
<path d="M6262 1407 c-23 -23 -42 -46 -42 -50 0 -4 12 -7 26 -7 48 0 108 84
69 97 -6 2 -30 -16 -53 -40z"/>
<path d="M4042 1341 c-30 -26 -30 -84 0 -105 34 -24 63 -19 92 15 31 36 24 58
-27 89 -39 24 -39 24 -65 1z"/>
<path d="M3201 1304 c-12 -15 -21 -38 -21 -51 0 -28 50 -83 75 -83 26 0 75 55
75 85 0 14 -11 37 -25 50 -33 34 -77 33 -104 -1z"/>
<path d="M3616 1311 c-26 -28 -24 -80 4 -103 12 -10 28 -18 36 -18 29 0 63 24
75 52 10 25 9 33 -8 56 -26 35 -81 42 -107 13z"/>
<path d="M6417 1289 c-28 -16 -40 -58 -26 -91 20 -48 78 -54 117 -12 29 32 28
59 -3 89 -25 26 -58 31 -88 14z"/>
<path d="M6818 1289 c-12 -7 -18 -22 -18 -47 0 -45 8 -58 41 -71 56 -21 113
43 87 97 -11 22 -21 27 -53 29 -22 2 -48 -2 -57 -8z"/>
<path d="M6032 1218 c-65 -43 -75 -63 -44 -91 50 -45 132 1 132 73 0 61 -17
65 -88 18z"/>
<path d="M4274 1202 c3 -5 -4 -16 -15 -25 -23 -20 -25 -69 -3 -91 23 -23 70
-20 94 6 32 34 23 68 -25 95 -42 24 -60 29 -51 15z"/>
<path d="M3827 1142 c-39 -43 -8 -112 49 -112 25 0 64 43 64 71 0 50 -80 78
-113 41z"/>
<path d="M6191 1054 c-29 -37 -27 -78 5 -103 35 -28 69 -26 99 4 50 49 20 125
-49 125 -25 0 -40 -7 -55 -26z"/>
<path d="M5795 1043 c-33 -8 -45 -24 -45 -59 0 -66 61 -94 114 -53 59 46 8
130 -69 112z"/>
<path d="M4465 1005 c-14 -13 -25 -35 -25 -49 0 -29 42 -66 75 -66 31 0 75 44
75 75 0 61 -79 86 -125 40z"/>
<path d="M4040 1000 c-43 -43 -10 -110 54 -110 57 0 89 76 48 113 -25 23 -78
21 -102 -3z"/>
<path d="M4870 983 c0 -40 28 -63 76 -63 31 0 46 6 63 26 30 35 21 54 -26 54
-21 0 -55 3 -75 6 -37 6 -38 6 -38 -23z"/>
<path d="M5358 1003 c-56 -5 -62 -20 -23 -58 33 -33 70 -32 106 4 34 35 30 62
-10 59 -14 -1 -47 -3 -73 -5z"/>
</g>
</svg>
