<?xml version="1.0" standalone="no"?>
<!DOCTYPE svg PUBLIC "-//W3C//DTD SVG 20010904//EN"
 "http://www.w3.org/TR/2001/REC-SVG-20010904/DTD/svg10.dtd">
<svg version="1.0" xmlns="http://www.w3.org/2000/svg"
 width="1024.000000pt" height="1024.000000pt" viewBox="0 0 1024.000000 1024.000000"
 preserveAspectRatio="xMidYMid meet">

<g transform="translate(0.000000,1024.000000) scale(0.100000,-0.100000)"
fill="#000000" stroke="none">
<path d="M4745 8945 c-434 -46 -869 -172 -1285 -372 -142 -68 -393 -210 -398
-224 -2 -5 -8 -9 -13 -9 -21 0 -321 -217 -389 -282 -19 -18 -51 -45 -70 -59
-43 -33 -259 -246 -318 -314 -24 -27 -54 -61 -66 -75 -50 -55 -226 -289 -264
-350 -23 -36 -49 -76 -60 -90 -39 -51 -135 -219 -207 -360 -296 -584 -444
-1292 -402 -1925 9 -134 9 -142 37 -358 50 -398 236 -940 458 -1332 73 -130
228 -361 306 -457 15 -18 63 -78 108 -133 122 -150 320 -341 543 -524 96 -78
195 -147 355 -245 69 -42 132 -81 140 -87 60 -39 422 -210 547 -259 529 -208
1126 -296 1657 -245 487 47 899 159 1331 364 116 55 335 176 345 191 3 4 16
13 30 20 65 34 258 168 298 207 7 7 17 13 20 13 4 0 18 10 32 23 14 12 43 35
64 51 21 16 52 43 68 60 17 17 34 31 39 31 9 0 23 13 212 200 70 69 139 144
154 166 14 21 29 39 33 39 4 0 26 24 48 53 22 28 51 65 65 81 14 17 34 45 44
63 10 18 21 33 25 33 5 0 8 7 8 15 0 7 6 18 13 22 16 9 115 150 147 208 12 22
35 63 51 90 16 28 58 111 95 185 36 74 74 151 84 170 64 123 192 506 234 700
75 345 101 617 93 953 -4 127 -9 252 -12 277 -3 25 -7 65 -10 90 -19 191 -74
451 -142 670 -90 292 -221 592 -352 809 -28 46 -51 86 -51 88 0 15 -225 332
-324 455 -62 77 -450 468 -465 468 -5 0 -26 16 -47 36 -145 136 -492 359 -769
494 -439 215 -833 330 -1285 375 -186 18 -581 18 -755 0z m626 -370 c307 -16
737 -121 1001 -245 60 -28 76 -39 58 -40 -14 -1 -56 -9 -94 -19 l-69 -18 -96
34 c-128 46 -398 123 -432 123 -19 0 -28 -6 -32 -22 -9 -33 7 -45 86 -63 75
-17 309 -91 340 -107 15 -8 9 -14 -39 -38 -39 -19 -62 -26 -73 -20 -9 5 -52
20 -96 34 -261 82 -491 112 -789 103 -185 -5 -414 -34 -458 -58 -22 -12 -24
-47 -3 -56 9 -3 80 5 158 18 119 20 178 24 367 24 133 0 261 -5 313 -13 167
-25 428 -90 441 -111 3 -4 -11 -20 -30 -35 l-35 -28 -84 26 c-392 122 -902
111 -1312 -30 -114 -38 -117 -38 -171 19 l-33 34 91 33 c94 34 112 49 90 75
-18 21 -32 19 -153 -20 l-107 -35 -35 23 c-39 25 -42 32 -17 42 64 26 161 57
242 80 52 15 119 33 148 41 45 13 52 18 52 40 0 14 -7 27 -16 31 -23 9 -208
-40 -399 -104 l-159 -54 -76 20 c-41 10 -93 22 -115 26 l-40 7 63 29 c111 50
352 129 517 169 217 53 391 80 570 89 146 8 205 7 426 -4z m-1563 -415 c106
-14 205 -51 298 -111 71 -46 181 -145 172 -154 -2 -2 -21 -12 -42 -20 -34 -14
-38 -14 -33 -1 6 16 -16 40 -26 29 -4 -3 -7 -17 -7 -30 0 -37 -38 -29 -115 27
-69 50 -85 58 -85 42 0 -5 -14 -27 -31 -49 -29 -38 -35 -41 -68 -36 -20 3 -41
10 -47 14 -6 5 -14 6 -18 2 -4 -4 2 13 13 37 26 58 26 77 -1 86 -15 5 -26 1
-38 -13 -13 -17 -18 -18 -28 -6 -13 14 -69 16 -112 4 -15 -4 -27 -16 -30 -31
-5 -22 -7 -23 -13 -7 -4 12 -15 17 -29 15 -21 -3 -23 -8 -23 -61 0 -54 -2 -60
-34 -86 -26 -21 -38 -26 -47 -17 -6 6 -9 17 -6 25 3 9 1 12 -6 7 -6 -3 -13 -2
-17 4 -11 18 -35 11 -44 -12 -9 -25 6 -65 32 -87 12 -9 13 -19 4 -49 -14 -47
-12 -45 -35 -31 -31 19 -54 5 -50 -33 2 -26 10 -36 35 -48 24 -11 33 -23 38
-50 3 -19 8 -47 11 -62 5 -26 3 -28 -36 -34 -34 -6 -41 -10 -38 -28 3 -18 11
-21 55 -24 44 -3 56 -8 78 -34 29 -34 28 -51 -1 -56 -10 -2 -30 -11 -44 -22
-23 -18 -24 -20 -9 -35 14 -14 23 -15 55 -6 63 17 76 14 134 -38 l55 -49 -30
-12 c-42 -15 -124 -58 -164 -86 -28 -19 -38 -21 -50 -11 -12 10 -13 9 -7 -1 7
-11 5 -12 -10 -3 -47 26 -47 27 -29 54 17 26 17 26 -40 83 -55 56 -56 56 -77
38 -12 -11 -18 -13 -14 -6 5 8 1 12 -12 12 -27 0 -35 26 -17 60 19 36 19 45
-1 96 -15 39 -17 41 -33 26 -13 -13 -16 -32 -14 -82 l2 -65 -25 54 c-55 120
-70 263 -38 384 65 251 272 445 522 487 68 11 79 11 170 0z m2842 -12 c25 -6
77 -25 115 -44 217 -103 365 -340 365 -587 0 -69 -30 -189 -61 -246 l-20 -36
7 33 c8 44 -5 112 -21 112 -14 0 -45 -58 -45 -83 0 -9 12 -30 27 -49 l27 -33
-27 24 c-27 24 -38 17 -14 -8 10 -11 9 -12 -2 -6 -11 6 -13 4 -8 -8 3 -9 1
-19 -5 -23 -7 -5 -8 -2 -3 7 5 8 4 11 0 7 -5 -5 -10 -20 -11 -34 -2 -15 -8
-32 -13 -37 -7 -7 -8 1 -4 25 4 30 2 38 -16 47 -11 7 -22 8 -22 4 -1 -4 -2
-12 -3 -18 0 -5 -23 -32 -51 -58 -36 -36 -46 -50 -36 -56 18 -12 4 -54 -15
-47 -8 3 -13 2 -10 -3 12 -18 -23 -19 -46 -2 -32 25 -164 91 -183 91 -25 0
-17 13 40 63 l55 48 52 -9 c62 -12 78 -7 78 23 0 23 -22 35 -67 35 l-22 0 25
44 c24 42 25 43 67 39 33 -4 46 -1 61 15 24 27 14 40 -35 48 -35 6 -39 9 -32
28 3 11 9 38 12 58 5 28 15 43 41 60 26 18 36 32 38 56 4 35 -7 40 -52 22 -23
-8 -26 -6 -36 26 -11 33 -10 38 13 62 47 51 45 68 -15 125 -69 67 -141 105
-163 87 -12 -10 -15 -10 -15 4 0 17 -14 22 -97 35 -29 4 -53 4 -53 0 0 -5 -5
-9 -11 -9 -5 0 -8 4 -5 9 3 4 -8 7 -25 5 -41 -5 -55 -14 -38 -25 11 -7 9 -9
-6 -9 -18 -1 -17 -2 4 -11 15 -6 21 -15 17 -24 -3 -8 -2 -15 3 -15 17 0 19
-39 2 -44 -74 -22 -84 -19 -126 33 -41 53 -55 60 -73 39 -11 -14 -8 -66 4 -76
4 -4 4 1 1 11 -9 25 -2 21 19 -10 15 -24 15 -26 1 -14 -9 7 -17 10 -17 7 0 -4
-10 -1 -22 5 -32 17 -68 18 -100 2 -35 -17 -36 -17 -40 9 -2 13 -11 24 -21 26
-15 3 -18 0 -12 -18 l7 -21 -42 21 -42 22 28 30 c44 45 142 117 205 148 161
82 317 104 469 68z m-1145 -92 c111 -19 264 -61 279 -77 8 -8 6 -10 -11 -5
-99 30 -511 36 -728 11 -120 -14 -140 -14 -257 2 -70 9 -127 18 -125 19 8 8
248 55 318 63 113 13 413 5 524 -13z m1050 -175 l30 -9 -29 -1 c-28 -1 -76 31
-76 51 0 5 10 -1 22 -12 12 -11 36 -25 53 -29z m218 -7 c32 -26 33 -38 10 -68
-23 -28 -32 -27 -76 9 -36 30 -36 31 -25 71 l11 42 27 -17 c14 -9 38 -26 53
-37z m-2758 25 c-4 -12 -3 -19 1 -16 14 8 14 -47 1 -56 -7 -5 -1 -5 12 -2 17
5 22 4 16 -5 -5 -7 -4 -11 1 -8 23 13 51 22 72 23 22 1 22 -1 -9 -26 l-33 -27
-45 20 c-25 11 -49 23 -54 27 -4 4 3 26 15 49 25 46 33 53 23 21z m-365 -22
c21 -4 20 -4 -7 -6 -25 -1 -33 3 -33 17 0 11 3 13 8 6 4 -7 18 -14 32 -17z
m-596 -19 c-26 -50 -64 -204 -71 -288 l-6 -75 -86 -80 c-222 -208 -428 -456
-521 -628 -26 -48 -57 -89 -90 -116 -63 -54 -180 -204 -214 -275 -71 -150
-107 -364 -88 -525 8 -66 8 -109 2 -132 -6 -19 -13 -86 -17 -149 l-7 -115 -54
-50 -55 -50 7 90 c9 116 21 197 47 317 25 110 22 131 -18 126 -23 -2 -29 -11
-41 -48 -26 -88 -63 -337 -71 -475 -7 -113 -13 -154 -35 -211 -33 -90 -50
-210 -41 -294 19 -186 62 -267 251 -473 87 -95 107 -141 108 -247 0 -47 -4
-123 -8 -170 -15 -151 34 -288 142 -396 94 -94 246 -145 392 -131 l55 6 50
-72 c28 -40 94 -118 148 -174 100 -103 128 -122 280 -187 31 -14 57 -31 57
-38 0 -8 -3 -9 -8 -3 -9 12 -13 13 -101 21 -61 6 -72 10 -90 35 -36 49 -160
142 -182 136 -10 -3 -16 -1 -13 4 3 5 -5 18 -17 28 -19 15 -25 16 -36 5 -7 -7
-13 -17 -13 -23 0 -6 -8 -11 -17 -12 -11 0 -13 -3 -5 -6 6 -2 12 -11 12 -19 0
-9 5 -12 10 -9 6 4 7 11 4 17 -5 7 -2 8 6 3 10 -6 8 -12 -9 -27 -32 -25 -43
-23 -74 12 -30 34 -48 37 -68 14 -11 -14 -10 -21 4 -46 10 -17 16 -32 15 -33
-33 -23 -54 -35 -60 -35 -13 0 -156 185 -242 315 -139 211 -136 206 -160 203
-13 -2 -22 -11 -24 -25 -5 -36 135 -255 287 -448 l70 -90 -34 -34 c-41 -41
-42 -41 -125 70 -308 410 -506 882 -614 1470 -63 341 -59 788 10 1169 140 767
494 1420 1057 1947 74 69 302 253 314 253 2 0 -4 -15 -13 -32z m4271 -96 c300
-251 486 -456 682 -752 244 -369 395 -737 507 -1235 52 -232 66 -380 66 -689
0 -348 -27 -568 -109 -887 -106 -413 -250 -732 -475 -1054 -50 -71 -106 -147
-124 -167 -29 -32 -36 -36 -48 -24 -8 8 -26 24 -40 35 l-26 21 64 77 c105 126
244 326 287 410 19 38 19 43 5 57 -8 9 -19 16 -24 16 -12 0 -61 -61 -104 -131
-42 -69 -261 -365 -276 -374 -11 -7 -70 22 -70 34 0 5 7 14 16 21 27 23 37 50
23 66 -19 23 -43 16 -83 -25 -22 -22 -45 -37 -52 -34 -21 8 -17 27 12 54 37
34 204 258 204 274 0 7 20 15 49 19 66 9 176 65 230 118 63 62 116 147 136
223 15 55 17 83 10 173 -15 190 -12 240 17 302 15 30 55 85 90 122 136 144
186 222 218 340 19 69 21 101 18 207 -4 107 -8 137 -32 201 -22 60 -30 102
-36 205 -5 72 -14 168 -20 215 -15 115 -58 310 -71 327 -17 19 -37 16 -53 -9
-13 -20 -12 -31 4 -93 24 -93 48 -241 56 -344 l7 -84 -37 34 c-21 19 -44 38
-52 42 -8 5 -14 24 -14 46 0 21 -8 87 -17 147 -9 60 -15 134 -13 164 7 89 6
262 -2 305 -5 29 -4 35 3 23 13 -23 55 -23 63 -2 9 24 -2 52 -24 64 -15 8 -24
6 -40 -10 -14 -14 -20 -16 -20 -6 0 35 -65 208 -101 269 -22 38 -69 101 -104
141 -35 41 -61 77 -57 81 4 3 3 6 -3 5 -25 -5 -36 3 -62 43 -73 116 -156 236
-184 267 -17 19 -48 58 -69 85 -64 85 -272 306 -337 359 -60 50 -61 52 -62
103 -1 76 -26 190 -59 276 l-30 77 32 -22 c17 -13 76 -60 131 -106z m-3278 86
c-3 -8 -6 -5 -6 6 -1 11 2 17 5 13 3 -3 4 -12 1 -19z m2137 6 c3 -8 2 -13 -3
-9 -5 3 -11 0 -13 -7 -3 -7 -7 -5 -11 6 -4 10 -3 15 3 11 6 -3 10 -1 10 4 0
16 7 13 14 -5z m-2110 -9 c3 -8 1 -15 -4 -15 -6 0 -10 7 -10 15 0 8 2 15 4 15
2 0 6 -7 10 -15z m810 -19 c83 -28 148 -67 198 -120 l31 -32 46 45 c190 189
567 186 858 -5 55 -37 198 -172 190 -180 -2 -2 -87 -5 -189 -7 -150 -2 -183 0
-169 10 9 7 24 13 34 13 29 0 20 35 -13 47 -25 9 -30 9 -30 -3 0 -9 -5 -12
-11 -8 -8 4 -8 0 0 -15 10 -18 9 -20 -5 -14 -12 5 -15 3 -9 -6 6 -10 3 -11
-15 -1 -19 10 -20 13 -7 28 8 9 20 27 26 40 10 19 9 23 -14 34 -23 10 -28 8
-53 -20 l-27 -31 -38 16 c-26 10 -37 21 -34 32 2 9 8 15 13 14 21 -4 12 35 -9
41 -38 10 -46 7 -63 -30 -16 -33 -19 -35 -56 -31 -49 6 -54 11 -39 44 10 21 9
28 -1 35 -28 18 -52 4 -61 -35 -7 -27 -17 -41 -34 -48 -39 -15 -50 -11 -62 22
-8 24 -15 30 -33 27 -18 -2 -23 -9 -22 -33 0 -16 2 -37 5 -45 2 -9 -2 -14 -13
-14 -10 1 -15 -2 -13 -7 3 -4 -4 -13 -17 -20 -18 -10 -24 -9 -33 5 -28 47 -32
51 -48 38 -15 -12 -31 -65 -17 -57 4 2 13 -7 20 -20 12 -22 10 -28 -20 -62
-19 -21 -34 -38 -35 -38 -1 0 -16 16 -33 36 -31 36 -32 37 -16 69 13 25 14 37
5 56 -14 32 -27 30 -46 -6 -19 -36 -38 -38 -70 -5 -22 21 -23 27 -14 49 9 20
9 29 -1 41 -20 25 -49 18 -56 -12 -3 -16 -6 -31 -7 -35 -1 -5 -21 1 -44 13
-34 17 -42 26 -45 52 -2 27 -7 32 -28 32 -23 0 -25 -4 -24 -40 l0 -41 -48 -2
c-48 -2 -52 1 -49 40 2 20 -31 32 -65 24 -23 -6 -24 -8 -9 -29 23 -32 19 -44
-20 -57 -29 -10 -38 -9 -59 7 -14 10 -26 21 -26 26 0 12 -38 8 -43 -5 -2 -7 3
-28 11 -45 15 -31 14 -34 -6 -56 -22 -24 -24 -24 -214 -20 -106 2 -194 6 -196
7 -2 2 27 35 65 73 113 114 271 200 438 237 107 24 268 16 369 -18z m1360 -8
c-3 -4 -15 -8 -27 -8 -15 0 -18 3 -9 8 17 11 43 11 36 0z m-1418 -379 c58 -27
129 -101 160 -166 20 -44 27 -77 31 -142 4 -79 3 -84 -11 -67 -9 11 -16 28
-16 38 0 10 -3 17 -7 16 -13 -5 -15 6 -8 35 6 21 3 33 -9 45 -16 16 -18 16
-28 -1 -9 -17 -12 -16 -41 14 -21 21 -28 34 -19 36 17 6 15 38 -3 53 -13 10
-19 10 -33 -4 -25 -22 -32 -20 -32 8 0 17 -7 27 -22 32 -13 4 -23 5 -23 3 0
-2 -21 11 -47 29 -26 18 -49 32 -52 32 -3 0 -22 10 -43 22 l-38 23 50 11 c62
15 137 8 191 -17z m768 17 l49 -13 -59 -33 c-92 -53 -105 -60 -119 -60 -7 0
-25 -16 -40 -36 -24 -32 -28 -34 -39 -18 -14 19 -30 13 -46 -16 -7 -13 -6 -22
4 -33 12 -11 10 -18 -14 -46 l-28 -32 -15 22 c-15 21 -15 21 -26 1 -7 -14 -8
-29 -1 -46 8 -21 5 -33 -16 -63 -14 -21 -28 -40 -31 -43 -3 -3 -3 36 -1 85 8
139 53 225 152 291 75 50 147 62 230 40z m-1779 -36 c72 -12 168 -20 240 -20
259 0 420 -40 574 -141 104 -69 182 -149 251 -262 131 -211 128 -442 -6 -527
-26 -16 -53 -30 -58 -29 -6 0 -2 6 9 12 51 31 85 75 85 110 0 20 -5 37 -11 39
-5 2 -31 -17 -57 -41 l-46 -45 -8 37 c-7 33 -4 42 27 83 37 48 39 53 29 78 -9
24 -37 19 -65 -10 l-24 -26 -17 39 c-14 31 -15 40 -4 48 36 28 49 112 21 135
-13 10 -19 10 -34 -4 -11 -10 -22 -30 -26 -44 l-7 -27 -29 33 -29 33 22 29
c27 37 28 85 2 105 -30 23 -43 18 -50 -22 -11 -63 -16 -66 -53 -35 l-33 27 13
64 c13 62 13 64 -10 82 -22 18 -24 18 -38 2 -8 -10 -12 -13 -8 -6 7 16 -31 35
-121 62 -88 26 -91 26 -97 -1 -11 -41 -32 -61 -55 -54 -12 4 -19 12 -16 18 4
7 -4 8 -25 3 -28 -6 -31 -4 -31 18 0 35 -10 57 -26 57 -17 0 -33 -30 -26 -49
4 -11 -3 -12 -34 -6 -22 4 -52 8 -69 9 -17 1 -42 13 -59 28 -20 18 -32 24 -37
16 -13 -20 -219 164 -219 196 0 9 27 7 155 -14z m2755 14 c0 -4 -16 -27 -36
-51 -31 -37 -65 -68 -171 -153 -7 -6 -13 -5 -15 2 -3 8 -11 7 -28 -2 -25 -13
-42 -17 -98 -19 -21 -1 -31 -5 -26 -12 3 -6 15 -9 25 -6 11 3 19 1 19 -4 0 -5
-7 -9 -16 -9 -8 0 -12 -4 -9 -10 4 -6 -7 -10 -25 -10 -24 0 -33 6 -40 26 -6
14 -8 30 -4 35 8 14 -26 23 -39 10 -6 -6 -11 -26 -12 -43 0 -33 -4 -36 -81
-51 -31 -6 -32 -5 -43 38 -6 25 -15 45 -20 45 -23 0 -41 -14 -41 -32 0 -13 -5
-18 -14 -15 -10 4 -13 1 -9 -9 3 -7 11 -14 19 -14 15 0 18 -18 6 -36 -4 -7
-36 -24 -72 -39 -36 -15 -69 -32 -73 -39 -5 -6 -7 0 -4 17 2 15 1 27 -3 27 -4
0 -11 16 -14 36 -6 30 -10 34 -29 28 -41 -12 -45 -31 -22 -98 l16 -46 -33 -30
c-18 -16 -36 -30 -40 -30 -3 0 -11 23 -18 50 -7 28 -15 50 -18 50 -13 0 -52
-45 -52 -59 0 -9 9 -31 20 -49 21 -34 18 -55 -13 -81 -12 -9 -18 -5 -34 26
-26 49 -40 52 -58 9 -19 -46 -19 -47 10 -91 23 -33 25 -41 15 -71 -14 -41 -19
-42 -50 -9 -29 30 -36 31 -50 4 -14 -25 0 -67 31 -95 19 -17 24 -54 10 -88 -6
-16 -12 -13 -52 28 -25 25 -49 43 -52 39 -4 -3 -7 -21 -7 -39 0 -39 37 -87 89
-114 20 -10 29 -19 20 -20 -26 0 -111 61 -135 98 -26 38 -44 113 -44 180 0
164 128 384 300 517 162 124 350 175 651 175 59 0 142 7 185 14 129 24 184 30
184 20z m-3670 -149 c0 -20 -10 -30 -52 -50 l-52 -25 38 39 c22 22 43 38 48
35 5 -3 8 -2 7 3 -2 13 1 23 6 23 3 0 5 -11 5 -25z m4481 -30 c9 -3 25 -15 35
-27 19 -21 19 -21 -18 1 -21 12 -38 19 -38 16 0 -4 -7 -2 -15 5 -8 7 -15 24
-15 39 l1 26 17 -28 c9 -15 24 -29 33 -32z m-4354 -1 c-9 -10 -27 15 -21 31 7
17 8 16 16 -5 5 -13 7 -24 5 -26z m225 -89 c2 3 5 -2 5 -10 0 -19 -14 -10 -27
18 -10 20 -10 20 3 5 8 -10 16 -16 19 -13z m1079 -34 c-11 -7 57 -37 72 -33 5
1 6 -2 2 -7 -3 -6 4 -15 15 -21 11 -6 20 -7 20 -2 0 5 7 9 15 9 17 0 17 0 9
-21 -7 -17 -25 -12 -69 19 -16 11 -41 22 -55 24 -32 4 -44 16 -37 35 4 10 13
13 22 9 11 -3 13 -8 6 -12z m46 13 c-3 -3 -12 -4 -19 -1 -8 3 -5 6 6 6 11 1
17 -2 13 -5z m-1270 -60 c99 -47 150 -138 122 -217 -14 -40 -36 -61 -36 -34 0
21 -45 78 -75 93 -15 8 -38 14 -51 14 -28 0 -47 17 -47 42 0 29 -37 22 -44 -7
-4 -14 -4 -30 -2 -34 3 -4 -6 -13 -20 -20 -21 -9 -29 -9 -38 2 -13 17 -42 28
-50 20 -3 -4 5 -14 18 -23 l25 -16 -38 -42 c-38 -42 -38 -42 -56 -22 l-19 21
-14 -27 c-13 -25 -13 -29 7 -43 19 -14 21 -23 15 -58 -19 -123 132 -244 286
-230 105 9 163 53 343 260 94 109 223 183 386 222 97 24 278 17 371 -14 297
-101 490 -418 353 -581 -25 -30 -94 -80 -110 -80 -5 0 -15 20 -24 43 l-15 44
39 33 c50 42 75 93 57 115 -13 15 -50 21 -50 7 0 -4 -14 -24 -31 -45 l-31 -38
-34 37 c-18 21 -31 42 -28 46 3 5 2 8 -3 7 -29 -5 -33 2 -14 27 29 37 27 68
-5 83 -32 14 -41 9 -49 -29 -4 -17 -9 -30 -12 -30 -11 0 -103 54 -103 60 0 4
9 19 20 33 26 32 25 53 -1 67 -29 16 -45 7 -60 -34 -11 -31 -17 -36 -44 -35
-16 0 -24 3 -16 6 11 4 11 7 0 14 -7 4 -21 3 -32 -3 -26 -14 -31 -4 -18 33 15
45 14 86 -4 93 -27 10 -44 -5 -50 -47 -4 -23 -12 -49 -18 -58 -15 -19 -101
-44 -118 -34 -8 6 -10 4 -4 -5 6 -10 0 -12 -23 -8 -24 3 -29 1 -24 -11 3 -9 2
-13 -3 -9 -4 4 -14 0 -21 -10 -12 -15 -13 -10 -14 35 0 57 -5 64 -37 52 -28
-10 -37 -40 -25 -82 9 -31 7 -37 -19 -61 l-29 -28 -1 34 c0 18 -4 41 -8 51 -6
17 -8 17 -33 -2 -34 -27 -43 -65 -23 -103 14 -29 13 -33 -5 -63 -11 -17 -28
-39 -39 -49 -19 -18 -20 -17 -35 18 -18 43 -26 44 -63 12 -22 -20 -26 -27 -15
-37 6 -7 12 -17 12 -22 0 -4 -6 -5 -12 -1 -8 4 -10 3 -5 -2 5 -5 13 -9 19 -9
6 0 16 -8 22 -17 8 -14 2 -25 -32 -59 l-43 -41 -20 26 c-16 20 -28 25 -55 23
-28 -2 -33 -5 -28 -21 4 -12 2 -16 -5 -12 -6 4 -11 14 -11 22 0 16 -26 19 -35
4 -4 -7 -11 -7 -18 -2 -7 5 -23 13 -37 16 -19 6 -21 5 -10 -3 13 -10 13 -11 0
-11 -8 0 -31 4 -50 10 -18 5 -36 6 -39 2 -4 -4 -14 -7 -23 -8 -46 -2 -54 -6
-68 -28 l-15 -25 -43 30 c-23 16 -47 29 -52 29 -15 0 -12 9 11 46 l21 34 -24
9 c-13 4 -29 6 -35 4 -7 -3 -13 0 -13 5 0 6 -14 17 -30 26 -17 8 -28 10 -24 5
3 -6 -3 -5 -15 3 -11 7 -33 42 -48 78 -37 89 -39 223 -5 320 71 206 269 300
449 214z m1368 25 c11 -16 1 -19 -13 -3 -7 8 -8 14 -3 14 5 0 13 -5 16 -11z
m2900 -16 c63 -20 142 -98 177 -174 59 -124 60 -268 3 -387 -18 -38 -38 -73
-44 -76 -6 -4 -9 -1 -5 7 3 8 -2 17 -10 20 -9 4 -17 -1 -21 -14 -4 -10 -10
-19 -15 -19 -5 0 -7 -6 -4 -13 3 -10 -4 -12 -30 -9 -41 5 -49 -6 -30 -42 20
-40 19 -42 -29 -71 -53 -30 -64 -31 -72 -4 -10 31 -49 21 -53 -14 -4 -35 -41
-59 -84 -55 -25 2 -33 8 -33 23 0 11 -4 30 -8 43 -7 18 -14 22 -40 19 -38 -5
-89 -25 -67 -27 10 -1 9 -4 -5 -10 l-20 -9 20 -1 20 -1 -20 -9 c-33 -14 -35
-12 -35 35 0 25 -3 45 -6 45 -14 0 -44 -22 -39 -29 2 -5 -2 -14 -10 -21 -12
-10 -16 -9 -21 4 -3 9 -13 16 -21 16 -8 0 -11 5 -8 10 3 6 0 10 -8 10 -8 0
-18 7 -21 16 -3 8 -10 12 -16 9 -16 -10 -11 8 10 35 11 14 20 31 20 38 0 7 5
10 11 6 22 -13 -11 34 -38 56 -26 21 -28 21 -31 3 -5 -28 -24 -73 -31 -72 -3
0 -21 18 -40 40 -30 35 -33 42 -22 65 27 59 11 117 -40 144 -18 10 -19 7 -19
-45 l0 -56 -28 20 c-26 18 -28 24 -24 73 3 44 0 57 -17 72 -24 22 -41 14 -41
-22 0 -40 -16 -60 -22 -28 -3 14 0 31 6 38 6 6 2 6 -8 -2 -18 -14 -18 -13 -12
10 l6 25 -12 -25 c-17 -36 -17 -35 -32 -15 -12 17 -15 17 -46 1 -39 -19 -40
-19 -40 -6 0 6 7 10 15 10 8 0 15 5 15 10 0 16 -28 11 -38 -7 -16 -28 -40 -7
-56 48 -16 52 -29 69 -53 69 -20 0 -24 -34 -9 -83 16 -53 13 -56 -46 -67 -38
-7 -40 -6 -58 31 -25 49 -36 54 -66 34 l-25 -16 21 -33 c11 -18 20 -36 20 -39
0 -3 -20 -20 -45 -37 -44 -30 -65 -32 -65 -6 0 7 -9 21 -19 30 -15 14 -24 15
-40 6 -25 -13 -26 -25 -2 -69 l18 -35 -36 -47 c-20 -26 -39 -48 -43 -48 -4 -1
-25 21 -47 48 -36 47 -40 49 -60 35 -11 -8 -21 -22 -21 -30 0 -28 29 -71 64
-95 41 -27 42 -35 19 -83 l-16 -35 -36 19 c-85 45 -121 103 -121 192 0 73 25
140 85 223 58 81 126 136 230 186 108 52 181 69 296 69 120 0 221 -25 338 -82
90 -45 129 -80 326 -290 67 -72 90 -89 140 -108 84 -31 160 -24 245 21 85 45
120 99 120 181 0 32 4 58 10 58 19 0 31 39 19 61 l-11 21 -14 -21 c-19 -27
-34 -27 -34 0 0 11 -3 18 -7 16 -5 -3 -21 8 -36 23 -25 23 -27 28 -12 33 9 4
14 3 11 -2 -8 -13 26 -23 38 -11 6 6 2 18 -14 35 l-24 25 -22 -21 c-17 -16
-30 -20 -48 -15 -22 5 -26 11 -24 39 3 26 -1 33 -19 35 -16 2 -23 -3 -28 -27
-5 -25 -12 -30 -46 -36 -50 -9 -106 -56 -117 -99 l-9 -31 -22 35 c-42 66 -6
170 79 226 80 53 178 63 285 27z m-879 -402 c2 -8 1 -8 -3 0 -3 6 -8 7 -12 2
-3 -5 -22 -4 -46 3 l-40 12 50 -3 c27 -2 50 -8 51 -14z m-3333 -11 c14 -13
-65 -60 -100 -60 -30 0 -93 41 -93 60 0 18 174 17 193 0z m4056 14 c17 -4 31
-10 31 -15 0 -15 -74 -59 -101 -59 -27 0 -92 38 -93 55 -1 6 24 13 54 16 30 3
60 6 66 7 6 1 26 -1 43 -4z m736 -189 c115 -115 175 -239 196 -408 18 -146
-26 -330 -106 -443 l-35 -48 -6 32 c-8 39 -20 48 -40 31 -23 -19 -38 -50 -21
-43 8 3 18 -6 25 -20 10 -22 6 -28 -38 -68 -48 -44 -49 -44 -59 -21 -6 14 -19
23 -32 23 -19 0 -20 -4 -15 -34 6 -31 3 -36 -29 -55 -45 -26 -52 -26 -61 2
-16 52 -61 38 -66 -21 l-3 -37 -45 2 c-32 2 -41 -1 -30 -7 13 -8 12 -10 -2
-10 -10 0 -18 7 -18 15 0 8 5 15 10 15 6 0 10 9 10 21 0 17 -5 20 -37 17 -35
-3 -38 -6 -41 -35 -3 -32 -5 -33 -48 -33 -37 0 -44 3 -44 19 0 11 5 23 10 26
20 13 9 32 -24 42 -34 10 -35 10 -41 -18 -9 -42 -21 -44 -67 -14 -22 15 -37
21 -33 14 5 -8 4 -10 -3 -5 -20 12 -13 45 13 62 33 21 32 57 -1 79 -24 16 -26
16 -40 -2 -7 -10 -17 -35 -20 -56 l-7 -38 -29 28 c-16 15 -34 37 -40 48 -6 11
-7 17 -3 12 10 -8 55 31 55 48 0 6 -11 22 -25 35 l-26 24 -23 -29 -24 -30 -20
25 -20 25 31 26 c30 26 31 27 14 52 -24 37 -58 45 -75 19 -14 -21 -15 -21 -65
23 -29 25 -55 45 -60 45 -4 0 -5 27 -1 60 4 33 3 60 -2 60 -5 0 -19 3 -31 6
-20 5 -23 2 -23 -21 0 -20 -4 -26 -15 -22 -20 8 -29 -11 -15 -28 10 -12 9 -15
-9 -15 -12 0 -20 4 -17 9 3 5 -1 12 -10 15 -8 3 -12 2 -9 -4 3 -6 3 -10 -2
-10 -14 1 -42 26 -45 40 -2 8 -12 20 -23 27 -54 33 -63 29 -48 -21 6 -19 8
-37 5 -40 -12 -13 -70 -5 -83 11 -18 22 -99 73 -116 73 -16 0 0 -40 34 -87
l24 -32 -41 -21 c-29 -15 -44 -18 -53 -10 -6 6 -28 22 -47 36 -19 13 -52 46
-72 72 l-38 47 23 17 c53 41 207 110 277 124 139 29 296 3 443 -74 82 -42 133
-90 211 -197 80 -110 142 -172 201 -202 118 -61 344 -29 375 52 6 16 17 25 30
25 30 0 60 18 60 36 0 8 -13 20 -29 27 -25 11 -28 15 -19 32 16 29 28 34 57
24 20 -8 28 -7 38 7 18 24 16 54 -2 55 -44 4 -41 -1 -37 64 2 22 6 25 42 25
30 0 42 5 50 21 19 34 5 51 -37 47 -34 -3 -38 0 -41 22 -2 21 4 29 33 43 30
14 35 22 35 51 0 18 -7 39 -15 46 -13 10 -20 8 -41 -14 -34 -33 -39 -33 -50 6
-9 30 -7 35 21 53 35 24 41 43 20 70 -14 20 -16 19 -48 -17 -30 -33 -36 -35
-49 -22 -13 14 -13 19 3 52 18 34 18 36 1 52 -16 16 -18 15 -39 -9 -13 -14
-23 -29 -23 -33 0 -12 -14 -9 -35 6 -18 13 -18 15 2 62 12 27 24 72 28 99 3
28 9 62 11 78 l6 27 61 -32 c36 -19 91 -62 132 -103z m-5484 93 c0 -18 9 -64
20 -103 11 -38 22 -79 25 -90 3 -13 -2 -24 -17 -33 -17 -11 -20 -11 -17 -1 5
16 -41 61 -53 53 -25 -15 -28 -42 -8 -68 12 -15 20 -28 18 -29 -2 -2 -12 -9
-22 -16 -16 -12 -20 -12 -33 7 -8 12 -24 27 -35 32 -16 9 -21 7 -30 -17 -9
-25 -7 -31 22 -56 28 -25 30 -32 20 -53 -10 -23 -41 -34 -41 -14 0 5 -9 14
-20 20 -16 9 -22 6 -35 -19 -19 -38 -12 -55 31 -76 25 -12 34 -22 34 -40 0
-22 -4 -25 -41 -25 -39 0 -40 -1 -37 -32 3 -29 7 -33 36 -36 27 -3 36 -10 48
-37 18 -44 19 -42 -16 -50 -22 -5 -30 -12 -30 -29 0 -34 18 -46 49 -35 21 9
29 7 43 -11 22 -27 23 -40 4 -40 -7 0 -20 -7 -27 -16 -11 -14 -10 -19 10 -35
13 -11 32 -19 42 -19 11 0 22 -7 26 -16 6 -15 8 -15 20 2 9 13 16 15 24 7 8
-8 5 -14 -10 -22 -32 -17 -26 -26 32 -51 35 -16 79 -25 134 -28 146 -8 219 33
338 190 145 192 196 232 362 287 175 59 329 50 479 -28 135 -71 144 -76 144
-87 0 -16 -78 -103 -123 -135 l-39 -28 -39 20 c-44 22 -47 29 -20 53 27 24 45
76 27 76 -27 0 -86 -31 -111 -57 -14 -16 -25 -22 -25 -14 0 10 -3 11 -13 3
-14 -12 -57 -5 -57 8 0 4 7 13 15 20 8 7 15 21 15 31 0 31 -35 22 -69 -16 -33
-37 -75 -59 -98 -51 -8 3 -12 2 -9 -3 3 -5 -1 -11 -9 -15 -12 -4 -15 4 -15 45
0 49 0 49 -27 43 -16 -4 -31 -8 -34 -10 -7 -4 -3 -56 6 -84 3 -9 -16 -33 -50
-63 l-55 -48 -27 21 -26 21 -29 -28 c-35 -33 -35 -46 -2 -72 25 -20 26 -22 10
-45 l-16 -25 -27 25 -26 24 -24 -22 c-30 -28 -29 -41 6 -71 l30 -24 -34 -33
-33 -32 -7 31 c-3 17 -18 40 -33 52 l-27 21 -22 -27 c-29 -33 -29 -36 7 -70
17 -16 30 -32 30 -36 0 -10 -50 -45 -77 -53 -19 -6 -25 -1 -37 29 l-15 36 -30
-16 c-28 -14 -29 -18 -19 -40 14 -31 10 -35 -40 -42 -40 -5 -41 -5 -44 28 -3
31 -6 34 -40 37 -37 3 -38 3 -28 -23 14 -36 14 -35 -24 -35 -55 0 -66 8 -66
50 0 30 -4 39 -22 43 -24 7 -38 -7 -38 -35 0 -22 -14 -23 -50 -2 -29 18 -38
61 -16 77 6 5 1 6 -11 2 -17 -5 -23 -2 -23 9 0 22 -9 20 -37 -6 -13 -12 -23
-16 -23 -10 0 7 -8 12 -18 12 -10 0 -30 13 -45 28 l-26 28 19 31 c18 31 18 31
-1 49 -22 20 -24 19 -42 -25 l-14 -33 -38 58 c-21 31 -50 89 -64 128 -24 65
-26 84 -26 221 1 136 3 157 28 231 48 145 150 276 271 348 74 45 86 45 87 4z
m1509 -118 c20 -10 52 -34 73 -53 32 -29 37 -38 31 -62 -7 -27 -6 -28 24 -22
26 5 36 1 67 -32 20 -21 46 -51 56 -68 l19 -30 -25 -17 c-14 -9 -31 -14 -37
-10 -6 4 -9 3 -6 -2 3 -5 -4 -18 -15 -29 l-20 -20 5 20 c3 11 9 27 12 36 5 11
-1 22 -18 33 -21 13 -26 14 -26 2 0 -8 -13 -28 -29 -45 l-29 -31 -48 21 c-62
27 -60 25 -41 47 23 25 21 37 -6 55 -22 15 -26 14 -50 -11 -28 -27 -26 -28
-96 12 l-23 14 24 16 c13 8 38 21 56 27 32 11 42 32 22 44 -20 13 -110 -7
-146 -31 l-36 -24 -29 31 c-27 29 -27 32 -13 54 25 38 92 78 152 91 64 13 101
9 152 -16z m2445 9 c50 -13 111 -61 139 -110 10 -19 13 -28 5 -21 -11 10 -17
7 -35 -15 l-22 -28 -21 22 c-21 22 -112 48 -146 41 -34 -6 -22 -32 27 -58 27
-14 48 -28 48 -31 0 -3 -18 -17 -41 -32 l-40 -27 -24 28 c-14 15 -25 31 -25
37 0 5 -7 -1 -16 -14 -11 -15 -23 -21 -35 -18 -24 6 -24 2 2 -35 12 -16 20
-31 18 -32 -2 -2 -23 -13 -47 -25 -35 -18 -46 -20 -58 -10 -8 7 -13 18 -10 25
3 7 -3 18 -12 26 -16 12 -16 11 -2 -7 14 -19 14 -19 -2 -6 -10 7 -18 20 -18
27 0 18 -14 18 -30 -1 -7 -9 -9 -26 -5 -47 l7 -32 -26 17 c-14 9 -37 24 -51
33 -14 9 -25 22 -25 28 0 7 24 37 53 68 41 45 55 55 69 47 29 -16 49 0 43 35
-6 28 -2 35 35 65 70 56 154 73 245 50z m-1190 -139 c63 -44 97 -56 229 -85
106 -22 283 -82 273 -91 -2 -2 -55 10 -118 26 -117 31 -159 36 -159 22 0 -5
33 -21 73 -36 95 -36 103 -39 237 -81 63 -19 126 -42 140 -50 23 -13 21 -13
-33 -8 -58 6 -59 6 -55 -18 3 -21 13 -27 91 -46 71 -19 167 -56 167 -66 0 -1
-25 0 -55 1 -49 3 -55 2 -55 -16 0 -16 13 -22 73 -37 67 -16 149 -53 161 -74
3 -5 -22 0 -55 10 -66 21 -129 25 -129 9 0 -17 56 -46 123 -64 63 -17 128 -58
115 -72 -4 -4 -27 0 -50 9 -60 21 -97 29 -109 21 -18 -11 11 -33 90 -70 42
-19 83 -39 91 -43 15 -8 18 -23 41 -201 21 -160 19 -518 -4 -600 -35 -131 -86
-216 -195 -333 -56 -59 -102 -115 -102 -124 0 -9 -6 -13 -15 -9 -9 3 -25 -4
-36 -15 -19 -19 -20 -23 -5 -37 14 -14 23 -10 103 44 48 32 93 61 98 63 6 2
15 11 22 20 8 10 12 11 13 4 0 -13 -80 -112 -129 -157 -17 -17 -31 -37 -31
-47 0 -12 -9 -16 -37 -15 -32 1 -38 -2 -41 -22 -8 -56 56 -34 175 60 76 60 76
36 0 -44 -98 -101 -136 -126 -197 -130 l-55 -3 30 -27 c52 -48 110 -31 200 59
l55 55 0 -36 c0 -57 -29 -173 -65 -258 -121 -286 -457 -570 -799 -675 -106
-32 -262 -34 -379 -4 -201 52 -459 218 -621 399 -150 168 -232 336 -252 514
l-7 61 73 -61 c91 -77 128 -91 172 -65 48 28 47 43 -4 43 -56 1 -72 10 -171
106 -109 106 -124 147 -24 65 85 -68 107 -81 141 -81 19 0 26 5 26 20 0 15 -9
21 -40 26 -22 4 -37 10 -34 15 3 5 -26 42 -64 82 -39 41 -80 93 -92 117 l-22
44 39 -37 c57 -55 154 -125 186 -136 22 -8 29 -7 34 4 12 33 -17 54 -62 45 -5
-1 -7 2 -3 6 10 9 -21 51 -105 140 -94 100 -123 141 -153 216 -47 120 -56 179
-55 380 0 158 23 477 35 514 2 6 44 28 93 48 93 40 119 58 109 74 -7 11 -54 2
-123 -22 -35 -12 -43 -13 -43 -2 0 16 33 39 70 51 65 20 180 79 180 93 0 18
-64 10 -138 -18 -29 -11 -52 -16 -52 -12 0 12 95 58 165 80 46 15 61 24 63 41
4 24 -4 25 -63 11 -22 -5 -41 -7 -43 -5 -8 7 119 58 188 74 64 15 75 21 78 41
4 22 2 23 -55 17 l-58 -6 52 24 c29 13 80 31 114 40 104 27 299 106 299 122 0
8 -102 -6 -115 -16 -13 -10 -155 -45 -160 -39 -9 9 167 69 275 94 171 39 277
99 337 190 l15 23 39 -49 c21 -27 59 -63 84 -80z m-2035 -30 c0 -5 -2 -10 -4
-10 -3 0 -8 5 -11 10 -3 6 -1 10 4 10 6 0 11 -4 11 -10z m59 -44 c1 -5 -2 -6
-6 -3 -3 4 -11 0 -17 -7 -13 -17 -82 -34 -72 -18 3 6 19 13 35 17 21 4 31 14
36 33 7 25 8 25 15 7 5 -11 9 -24 9 -29z m-256 19 c-3 -9 -8 -14 -10 -11 -3 3
-2 9 2 15 9 16 15 13 8 -4z m17 -30 c-11 -14 -10 -14 14 -5 42 15 77 13 70 -5
-4 -10 -20 -15 -48 -15 -51 0 -74 17 -48 36 22 16 29 9 12 -11z m-168 -139
c40 -19 92 -39 116 -45 24 -5 45 -11 48 -13 2 -2 -15 -19 -38 -36 -50 -38
-108 -43 -167 -12 -64 32 -122 115 -137 194 l-7 38 56 -45 c31 -25 89 -62 129
-81z m4694 51 c-18 -63 -83 -143 -133 -163 -66 -28 -143 -13 -187 35 -15 16
-16 21 -5 24 95 26 174 60 247 107 48 31 89 56 90 54 2 -1 -3 -27 -12 -57z
m-4956 -209 l42 -48 -23 -20 c-13 -10 -19 -19 -13 -20 6 0 17 7 24 15 15 18
35 15 35 -6 0 -8 7 -14 15 -14 9 0 31 -12 49 -26 l34 -27 -31 -7 c-17 -3 -32
-13 -34 -21 -2 -12 -13 -9 -48 14 -56 35 -97 94 -108 153 -9 46 -5 77 8 62 4
-4 26 -29 50 -55z m5077 -35 c-8 -18 -13 -20 -24 -12 -17 15 -17 2 1 -16 11
-12 15 -10 26 13 7 15 15 22 17 15 7 -19 -23 -67 -68 -107 -32 -30 -43 -35
-50 -25 -5 8 -4 15 1 17 14 5 12 28 -3 41 -10 8 -17 7 -27 -2 -12 -10 -12 -9
-1 5 7 10 17 15 22 13 4 -3 12 2 17 11 9 16 12 15 39 -4 36 -25 50 -19 22 9
-23 23 -20 45 6 41 12 -2 16 1 12 11 -3 7 1 14 8 14 10 0 11 -6 2 -24z m-140
-108 c0 -10 -6 -14 -14 -10 -8 3 -20 5 -26 5 -15 0 14 20 29 20 6 0 11 -7 11
-15z m231 -105 c-7 -10 -14 -17 -17 -15 -4 4 18 35 25 35 2 0 -1 -9 -8 -20z
m-4060 -25 c29 -9 52 -17 52 -19 0 -1 -9 -21 -20 -44 -11 -22 -20 -51 -20 -63
0 -16 -5 -20 -20 -16 -11 3 -18 2 -15 -3 3 -4 -11 -8 -29 -8 -33 0 -35 2 -38
36 -5 66 -63 50 -61 -16 2 -37 0 -40 -35 -50 -41 -13 -52 -5 -52 41 0 34 -22
36 -55 3 -20 -20 -23 -31 -18 -60 5 -31 3 -36 -13 -36 -11 0 -25 10 -33 23 -8
12 -20 32 -28 43 -12 19 -10 25 23 65 20 24 51 53 68 65 77 53 195 68 294 39z
m3046 1 c63 -19 118 -58 152 -108 l28 -40 -24 -45 c-25 -47 -45 -62 -61 -46
-7 7 -6 19 2 37 11 23 10 30 -8 54 -31 42 -57 40 -69 -5 -8 -35 -12 -38 -39
-34 -43 5 -45 7 -45 56 0 40 -3 45 -26 51 -33 8 -51 -19 -46 -67 1 -5 -57 -5
-79 0 -4 0 -10 18 -14 38 -4 21 -13 50 -21 65 -8 15 -13 28 -12 28 2 0 21 7
43 15 52 18 159 19 219 1z m-4665 -109 c17 -27 26 -47 19 -45 -7 3 -19 -1 -26
-9 -25 -25 -33 -13 -31 47 1 33 3 59 4 58 1 -2 16 -25 34 -51z m6114 -24 c6
-46 2 -49 -38 -31 -30 13 -31 25 -5 58 11 14 20 32 20 40 2 24 16 -20 23 -67z
m-4853 -115 c0 -26 -17 -14 -22 17 -4 20 -3 23 8 14 8 -6 14 -20 14 -31z
m3680 -47 c0 -10 -7 -21 -15 -24 -12 -5 -12 -2 -3 18 13 30 18 31 18 6z
m-3800 -5 c0 -7 -9 -16 -20 -19 -17 -4 -18 -2 -9 14 11 22 29 25 29 5z m-997
-12 c18 -9 75 -42 127 -74 170 -102 393 -217 468 -241 39 -13 72 -26 72 -30 0
-9 -52 -42 -67 -42 -7 0 -10 -4 -7 -8 6 -11 -9 -19 -45 -23 -18 -2 -31 1 -32
8 0 7 -3 6 -6 -1 -5 -13 -33 -18 -33 -6 0 4 10 17 22 30 21 22 21 23 3 43 -21
23 -45 26 -45 7 0 -8 -10 -22 -22 -33 -12 -10 -18 -14 -15 -7 10 15 -22 46
-40 39 -8 -3 -19 -6 -24 -6 -6 0 -8 -4 -5 -8 2 -4 -4 -8 -15 -8 -25 0 -24 11
3 30 18 13 19 17 8 31 -12 15 -62 45 -74 45 -3 0 -6 -15 -8 -32 -2 -18 -7 -31
-13 -28 -5 3 -9 8 -8 12 2 4 -5 4 -14 1 -13 -5 -15 -2 -11 14 3 12 2 27 -3 34
-6 10 -9 7 -9 -10 0 -20 -2 -22 -15 -11 -14 12 -14 15 1 31 16 18 16 20 -1 39
-25 27 -53 25 -65 -5 -5 -14 -14 -25 -19 -25 -15 0 -33 29 -25 41 5 9 2 10
-11 5 -15 -6 -16 -4 -5 10 17 19 -1 34 -42 34 -21 0 -29 -6 -34 -24 -8 -34
-35 -42 -56 -17 -9 12 -28 21 -43 21 -24 0 -27 -3 -22 -25 6 -36 -29 -62 -53
-40 -20 18 -42 19 -58 3 -19 -19 -14 -37 13 -44 29 -7 29 -5 10 -50 -13 -31
-16 -33 -34 -22 -15 9 -23 9 -36 -2 -27 -22 -15 -53 25 -61 61 -13 83 -72 30
-82 -24 -5 -30 -12 -30 -31 0 -54 20 -69 60 -44 17 11 25 7 65 -32 50 -49 55
-60 24 -60 -11 0 -17 -4 -14 -10 4 -6 2 -17 -5 -25 -9 -11 -7 -16 8 -24 15 -8
23 -6 38 10 12 13 21 16 28 9 13 -13 29 -13 21 1 -4 6 11 1 33 -10 22 -11 43
-25 46 -30 4 -5 -6 -24 -21 -41 -26 -31 -26 -33 -8 -46 23 -17 35 -18 35 -3 0
6 7 8 16 5 8 -3 12 -2 9 4 -3 6 -4 10 -1 10 2 0 11 2 18 5 8 3 24 -8 37 -26
l24 -32 -28 -22 c-21 -17 -26 -28 -20 -44 4 -13 12 -20 18 -18 7 2 23 7 37 11
24 6 24 6 -2 -9 -30 -17 -38 -28 -13 -19 8 4 15 1 15 -5 0 -6 -7 -11 -15 -11
-9 0 -12 -6 -8 -16 5 -15 7 -15 15 0 5 9 13 14 19 11 5 -4 9 2 10 12 0 13 3
12 10 -7 6 -14 8 -47 5 -75 -3 -27 -6 -51 -6 -52 0 -2 -11 -3 -25 -3 -26 0
-53 -34 -35 -45 28 -17 -8 -122 -37 -110 -17 6 -33 -10 -33 -33 0 -8 9 -12 23
-10 19 3 22 -2 25 -31 2 -23 -3 -43 -17 -62 -12 -16 -21 -32 -21 -38 0 -5 25
-31 54 -59 66 -59 120 -73 183 -47 93 39 127 106 143 285 14 164 35 286 60
352 50 133 293 466 434 595 181 166 387 270 489 247 l29 -6 -7 -66 c-4 -37
-10 -84 -13 -106 l-7 -39 -26 36 -25 36 -35 -18 c-40 -22 -46 -56 -16 -99 11
-16 17 -19 13 -8 -5 16 -4 17 9 6 8 -7 15 -16 15 -20 0 -7 -113 -80 -124 -80
-3 0 -10 9 -16 20 -9 16 -8 18 5 14 8 -4 15 -1 15 4 0 6 9 14 20 17 11 3 20
11 20 17 0 6 -6 6 -15 -2 -12 -10 -21 -10 -42 -1 -25 11 -25 11 -12 -6 13 -17
13 -17 -14 0 -29 19 -38 17 -74 -16 l-22 -20 29 -34 c17 -18 30 -37 30 -41 0
-17 -69 -74 -80 -67 -9 6 -9 10 1 17 11 8 10 9 -4 4 -20 -6 -67 12 -67 27 0
13 -29 -12 -42 -37 -9 -17 -5 -24 27 -52 l38 -31 -22 -22 -22 -22 -36 27 -36
27 -24 -27 c-30 -36 -29 -40 12 -66 30 -19 33 -24 24 -42 -7 -13 -16 -17 -27
-13 -66 28 -71 29 -86 16 -27 -22 -20 -59 14 -76 61 -31 27 -67 -42 -44 -39
13 -41 12 -64 -14 -24 -29 -41 -73 -31 -84 3 -3 26 -8 52 -10 49 -6 52 -11 27
-63 -16 -34 -19 -35 -72 -35 l-55 0 0 -35 c0 -34 1 -35 53 -44 47 -9 53 -12
48 -30 -3 -12 -6 -28 -6 -36 -1 -29 -19 -43 -62 -49 -35 -5 -44 -10 -46 -29
-6 -37 16 -55 60 -49 43 6 46 0 18 -36 -17 -21 -24 -24 -52 -17 -18 4 -40 11
-49 14 -13 6 -18 -1 -23 -33 -4 -25 -2 -48 5 -60 10 -15 8 -25 -10 -54 -18
-30 -20 -40 -11 -58 10 -17 9 -24 -3 -36 -13 -13 -17 -12 -38 16 -28 38 -39
39 -66 2 l-21 -28 25 -26 26 -25 -43 -22 c-23 -12 -48 -19 -56 -16 -18 7 -14
47 6 64 13 12 13 13 -3 8 -10 -3 -24 -6 -30 -6 -8 0 -7 -4 1 -12 16 -16 15
-33 -1 -20 -23 19 -57 3 -57 -27 0 -21 -5 -26 -25 -26 -14 0 -25 3 -25 6 0 4
-12 7 -27 7 -14 0 -32 7 -38 16 -15 20 -35 21 -35 1 0 -17 -35 -21 -45 -5 -4
6 -10 8 -15 5 -4 -3 -10 2 -14 10 -3 10 1 15 12 15 13 1 10 7 -13 25 -37 30
-55 32 -48 5 8 -29 -8 -25 -46 13 -46 44 -73 109 -78 192 -4 60 0 85 28 170
66 205 39 288 -131 403 -148 100 -214 184 -245 313 -37 157 0 320 100 439 45
54 104 98 153 116 51 18 137 17 175 -2z m5974 -4 c51 -23 136 -100 170 -154
14 -21 36 -68 51 -105 36 -92 37 -247 2 -336 -47 -122 -96 -177 -241 -274
-166 -111 -189 -174 -128 -367 55 -175 48 -284 -23 -372 -45 -54 -65 -66 -64
-38 1 36 -37 27 -50 -12 -5 -17 -15 -37 -21 -43 -13 -13 -56 -2 -48 12 4 5 -5
9 -19 9 -16 0 -27 -7 -31 -19 -3 -11 -20 -24 -37 -30 -39 -14 -61 -14 -53 -1
3 6 -1 10 -10 10 -9 0 -15 5 -13 12 6 17 29 23 26 6 -3 -12 9 -14 54 -5 22 4
32 13 15 15 -48 4 -97 16 -97 23 0 22 -42 7 -58 -21 l-18 -29 -45 21 c-57 28
-55 25 -36 46 24 26 49 25 41 -2 -4 -15 -3 -17 4 -7 5 7 14 11 20 7 6 -3 14
-1 18 6 4 7 4 10 -1 6 -4 -4 -14 0 -22 8 -8 8 -19 12 -24 9 -5 -4 -9 -1 -9 5
0 16 -39 70 -50 70 -5 0 -11 -8 -14 -18 -8 -24 -46 -46 -58 -34 -7 7 -7 16 0
28 7 13 6 27 -4 49 l-15 30 25 -29 25 -30 -9 39 c-5 22 -17 45 -26 52 -10 7
-13 13 -7 13 6 0 10 8 8 18 -16 78 -13 74 -45 57 -41 -21 -76 -19 -94 7 -29
40 -21 53 31 53 47 0 48 1 48 30 0 28 -3 30 -43 33 -39 3 -45 7 -58 37 -24 59
-20 73 29 80 59 9 69 17 65 51 -3 29 -3 29 -64 26 l-62 -3 -16 47 c-20 59 -20
54 7 53 12 0 16 -3 9 -6 -28 -11 1 -20 34 -10 30 9 33 12 18 18 -17 7 -17 8
-1 8 41 2 1 111 -41 111 -9 0 -30 -7 -46 -15 -22 -12 -32 -12 -42 -4 -22 18
-16 36 16 56 34 20 38 38 13 65 -21 23 -34 23 -68 -4 l-27 -21 -19 24 c-18 24
-17 24 17 43 38 22 43 43 15 77 l-19 23 -37 -28 -37 -29 -21 22 -22 22 40 35
39 35 -44 42 c-24 23 -41 35 -38 27 3 -8 1 -23 -4 -33 -8 -15 -12 -16 -26 -5
-13 11 -15 11 -10 -4 4 -9 4 -19 1 -22 -6 -5 -93 51 -93 60 0 3 10 19 21 36
15 20 28 28 40 25 17 -5 17 -2 -4 23 -28 36 -101 81 -83 52 5 -9 -40 -82 -50
-82 -3 0 -3 4 1 9 3 5 1 12 -5 16 -5 3 -10 0 -10 -7 0 -8 -5 -6 -11 5 -6 9
-15 14 -21 11 -7 -5 -8 -2 -4 5 5 8 3 11 -5 10 -8 -1 -26 4 -41 11 -28 13 -35
25 -20 32 4 2 19 20 32 42 l23 39 -24 18 c-34 26 -51 23 -71 -11 -9 -17 -21
-30 -26 -30 -5 0 -12 35 -15 78 -4 42 -9 89 -13 103 -5 25 -3 27 34 34 144 24
418 -153 631 -410 128 -154 248 -331 280 -413 29 -74 49 -175 65 -333 18 -175
41 -243 96 -292 74 -67 162 -58 248 26 44 43 53 70 26 85 -8 5 -18 27 -21 49
-5 37 -3 42 18 45 31 4 35 25 7 39 -13 6 -37 30 -55 54 l-32 43 21 14 c28 19
18 43 -21 51 -29 6 -31 9 -29 49 l1 43 4 -37 c2 -21 8 -38 12 -38 9 0 -1 80
-13 98 -4 7 -2 12 5 12 7 0 9 3 6 7 -4 3 1 12 11 20 16 12 15 13 -3 7 -16 -6
-17 -4 -9 6 16 16 54 3 55 -18 0 -9 7 1 16 22 15 37 15 40 -2 52 -10 7 -22 15
-28 17 -15 5 24 67 43 67 12 0 12 -2 2 -9 -10 -6 -9 -10 7 -14 14 -3 19 -1 15
6 -5 8 -2 7 7 0 16 -16 55 -17 65 -2 3 6 -7 25 -24 42 l-31 30 44 34 c51 38
52 39 85 13 27 -21 60 -26 60 -9 0 6 -9 23 -19 38 -21 29 -14 60 9 46 7 -5 11
-4 7 1 -3 5 5 22 18 38 22 28 25 28 55 16 27 -11 32 -11 45 6 23 29 15 67 -15
74 -19 5 -24 12 -22 30 4 34 19 48 55 52 28 3 32 7 32 33 0 28 -2 30 -37 29
-29 -1 -38 4 -47 23 -16 34 -14 43 9 43 25 0 36 25 20 45 -14 17 -50 20 -50 6
0 -6 -12 -9 -27 -8 -23 2 -29 7 -31 34 -2 17 -10 34 -19 37 -25 10 -53 -3 -53
-25 0 -33 -39 -24 -52 12 -13 37 -51 38 -56 1 -4 -24 -34 -46 -47 -34 -5 4 -5
1 -1 -5 4 -7 5 -13 2 -13 -2 0 -13 -3 -23 -7 -10 -3 -15 -3 -11 2 12 13 -11
45 -32 45 -30 0 -52 -27 -38 -49 15 -24 6 -44 -30 -70 l-30 -21 -11 30 c-6 20
-17 30 -30 30 -23 0 -56 -43 -48 -63 6 -15 -114 -18 -125 -2 -11 15 -43 -9
-41 -31 4 -43 9 -59 18 -67 6 -4 -8 -5 -30 -1 -41 7 -105 39 -105 54 0 4 -9
10 -20 13 -34 9 -22 25 28 41 99 30 333 149 447 226 22 15 75 46 118 69 68 35
87 41 140 41 39 0 78 -7 104 -20z m-507 -360 c0 -5 -2 -10 -4 -10 -3 0 -8 5
-11 10 -3 6 -1 10 4 10 6 0 11 -4 11 -10z m-40 -25 c-30 -17 -40 -18 -40 -6 0
8 22 16 55 19 6 1 -1 -5 -15 -13z m-5154 -237 l41 -21 12 -99 c6 -55 8 -105 5
-110 -4 -7 -2 -8 4 -4 8 5 12 -4 12 -28 0 -60 -17 -49 -40 26 -26 87 -47 129
-111 227 -27 41 -49 76 -49 78 0 2 19 -8 43 -22 23 -14 61 -36 83 -47z m5300
-32 c-41 -62 -76 -129 -97 -187 -18 -49 -36 -86 -40 -82 -5 5 -2 44 6 88 8 44
15 96 15 115 1 63 9 75 73 108 34 17 71 38 82 46 11 8 21 13 23 11 2 -1 -26
-46 -62 -99z m-1219 -28 c7 -5 19 -29 28 -53 16 -39 16 -47 1 -106 -43 -167
-140 -279 -242 -279 -24 0 -26 3 -20 31 3 17 6 53 6 80 l0 49 38 -6 c32 -5 43
-2 69 20 50 42 76 110 70 181 -3 33 -9 70 -13 83 -6 21 -4 22 22 16 16 -4 34
-11 41 -16z m-2863 -5 c-14 -31 -16 -135 -5 -175 16 -53 71 -108 108 -108 16
0 34 5 40 11 15 15 21 -11 25 -99 3 -60 2 -62 -22 -62 -97 1 -194 116 -236
279 -19 77 -12 123 23 151 33 26 79 28 67 3z m-1057 -5 c15 -7 29 -13 31 -14
1 0 -9 -25 -23 -55 -15 -32 -25 -46 -25 -34 -1 11 -5 41 -9 68 -4 26 -7 47 -5
47 2 0 16 -5 31 -12z m4938 -30 c-10 -62 -16 -65 -37 -24 -11 21 -18 39 -16
40 5 3 52 25 56 25 2 1 1 -18 -3 -41z m-4111 -110 c6 -43 4 -56 -13 -79 -26
-35 -26 -35 -1 -42 12 -3 24 1 30 11 21 37 9 -11 -15 -55 -18 -35 -22 -50 -13
-60 8 -10 7 -12 -5 -7 -12 4 -14 1 -10 -16 5 -19 3 -21 -16 -15 -24 7 -61 -17
-61 -41 0 -7 19 -28 42 -47 38 -32 40 -35 20 -41 -26 -9 -38 -59 -23 -98 10
-26 9 -26 -22 -17 -52 15 -74 11 -80 -13 -8 -30 26 -65 74 -78 50 -14 60 -40
16 -40 -18 0 -38 -5 -45 -12 -17 -17 -15 -55 4 -62 8 -3 13 -10 10 -15 -4 -5
-1 -11 6 -13 9 -3 8 -10 -3 -25 -11 -16 -19 -19 -29 -12 -8 5 -27 9 -42 9 -24
0 -28 -4 -28 -27 0 -42 13 -55 51 -51 31 3 37 -1 66 -47 17 -27 29 -53 27 -57
-3 -4 -25 -13 -50 -19 -48 -12 -51 -16 -30 -44 12 -16 18 -17 59 -7 25 7 52
12 59 12 11 0 68 -80 68 -95 0 -3 -15 -5 -33 -5 -32 0 -77 -23 -77 -40 0 -5 7
-15 15 -23 12 -12 22 -13 69 -2 55 13 56 13 75 -13 22 -32 45 -81 65 -139 l15
-43 -38 0 c-27 0 -44 -7 -61 -24 l-23 -25 29 -6 c46 -10 59 -20 64 -51 3 -19
11 -29 22 -29 27 0 34 15 7 16 -17 1 -19 3 -6 6 9 2 17 12 17 21 0 15 2 15 10
2 5 -8 10 -48 10 -89 l0 -74 -22 19 c-12 10 -18 13 -14 7 8 -15 -10 -18 -19
-3 -10 16 -65 12 -71 -5 -4 -9 8 -28 30 -48 30 -29 36 -41 36 -76 0 -48 -25
-115 -39 -107 -5 4 -8 17 -5 31 2 13 0 26 -5 29 -4 3 -7 -6 -5 -19 3 -30 1
-30 -33 -8 l-25 17 3 -41 c3 -23 0 -41 -5 -40 -5 1 -16 -10 -25 -26 -14 -24
-14 -29 -1 -37 8 -5 11 -10 5 -10 -5 0 -3 -5 5 -10 8 -5 10 -10 4 -10 -6 0
-17 7 -24 15 -16 19 -54 19 -69 1 -10 -11 -9 -21 3 -44 15 -30 15 -30 -20 -51
-43 -26 -44 -26 -44 -2 0 21 32 37 51 25 8 -5 9 -3 4 5 -4 8 -17 10 -31 7 -14
-4 -24 -2 -24 4 0 20 -27 10 -56 -22 -16 -17 -23 -28 -16 -23 19 10 0 -26 -22
-45 -14 -11 -16 -9 -16 9 0 12 -7 24 -15 27 -21 9 -45 -14 -45 -42 0 -12 -10
-30 -22 -39 -21 -14 -24 -14 -35 2 -10 13 -17 14 -35 6 -13 -6 -66 -30 -118
-53 -52 -23 -108 -52 -125 -66 -19 -15 11 -4 80 30 60 30 113 52 117 50 4 -3
8 0 8 5 0 6 5 11 10 11 28 0 3 -24 -47 -46 -32 -13 -98 -45 -148 -69 -104 -52
-149 -57 -210 -22 -42 24 -85 86 -85 125 0 34 19 26 36 -15 23 -56 60 -100 89
-107 30 -8 54 4 115 56 25 21 77 58 117 82 152 94 224 166 249 252 20 70 10
118 -33 163 -23 24 -32 29 -27 16 4 -11 9 -36 12 -56 3 -30 -1 -41 -25 -63
-39 -37 -65 -41 -131 -23 -55 15 -98 19 -87 8 3 -3 -38 -26 -92 -53 -61 -29
-101 -44 -107 -38 -5 5 -14 6 -20 1 -6 -4 -25 -13 -43 -19 -49 -16 -130 -73
-142 -99 -14 -30 -23 -29 -60 8 -54 54 -36 108 79 236 80 89 93 121 37 91 -35
-19 60 89 108 122 82 56 162 57 272 2 32 -17 85 -33 118 -37 33 -4 77 -16 97
-28 81 -45 116 -141 84 -233 -9 -26 -13 -50 -10 -53 11 -11 54 54 69 104 12
41 22 54 52 70 82 45 124 150 103 258 -15 76 -45 136 -125 252 -77 110 -105
166 -138 270 -37 118 -51 231 -44 359 10 182 57 320 165 478 42 63 169 208
181 208 5 0 12 -23 15 -52z m3448 -148 c136 -194 194 -416 168 -650 -20 -179
-74 -318 -181 -467 -111 -154 -152 -287 -119 -388 15 -46 70 -108 110 -125 19
-8 33 -22 37 -39 12 -52 62 -131 84 -131 3 0 -5 28 -18 62 -23 55 -24 65 -13
102 26 86 87 136 180 147 31 3 86 21 125 40 62 30 79 34 151 34 71 0 86 -3
115 -25 47 -34 150 -146 121 -131 -57 30 -37 -14 50 -114 79 -90 105 -145 87
-186 -6 -17 -24 -36 -40 -44 -27 -14 -29 -14 -66 29 -38 43 -62 59 -137 90
-33 14 -37 14 -26 1 7 -8 18 -15 26 -15 7 0 15 -4 19 -9 3 -6 -6 -6 -22 -2
-43 13 -83 33 -83 43 0 4 -5 8 -10 8 -6 0 -50 19 -97 41 l-87 41 -52 -16 c-68
-22 -86 -20 -117 8 -36 33 -44 71 -23 107 26 45 -6 38 -41 -8 -24 -31 -28 -46
-27 -94 2 -82 32 -138 115 -209 38 -33 104 -78 146 -102 43 -23 99 -62 124
-85 36 -34 54 -43 81 -43 48 0 82 30 104 90 20 57 51 71 40 19 -10 -53 -44
-96 -91 -118 -66 -31 -102 -27 -192 22 -43 23 -94 47 -113 53 -23 8 -28 12
-15 13 12 1 38 -8 58 -18 53 -27 69 -32 62 -20 -7 10 -147 82 -213 108 -29 12
-35 12 -52 -4 -12 -10 -20 -13 -20 -7 0 7 -7 12 -15 12 -8 0 -17 12 -21 28
-10 48 -13 52 -39 52 -20 0 -25 -5 -25 -25 0 -23 -2 -24 -25 -13 -13 6 -22 15
-19 19 3 5 1 9 -4 9 -5 0 -7 13 -4 30 5 36 -15 48 -50 29 -20 -11 -21 -10 -11
3 14 16 8 28 -14 28 -7 0 -13 -7 -13 -15 0 -8 -5 -15 -10 -15 -6 0 -9 3 -9 8
5 28 -4 53 -22 63 -17 9 -25 7 -43 -10 -30 -28 -33 -27 -32 13 1 23 5 32 13
29 19 -8 16 2 -9 23 -12 10 -18 13 -14 6 5 -7 3 -11 -5 -10 -6 2 -14 -3 -17
-11 -3 -8 0 -11 7 -7 17 11 13 0 -6 -15 -11 -10 -14 -10 -9 -1 4 7 2 12 -5 12
-7 0 -3 11 10 24 32 34 21 70 -20 62 -26 -5 -29 -2 -39 32 -5 20 -10 51 -10
67 0 22 -3 26 -9 16 -10 -15 -5 -67 10 -116 5 -16 6 -25 1 -20 -14 15 -32 75
-32 104 0 34 36 92 61 98 23 6 25 31 4 39 -24 9 -60 -3 -87 -31 l-25 -25 -7
39 c-7 43 2 126 16 154 5 9 19 17 31 17 21 -1 21 -1 -3 -15 -15 -9 -19 -14
-10 -15 13 0 13 -1 0 -10 -10 -6 -11 -10 -2 -10 6 0 12 -5 12 -11 0 -5 -5 -7
-12 -3 -8 5 -9 2 -5 -9 3 -9 2 -19 -3 -22 -6 -4 -10 -16 -10 -28 0 -13 3 -17
8 -11 4 6 15 13 24 17 12 4 19 23 24 66 6 59 8 61 35 61 17 0 32 7 38 18 8 16
3 22 -35 39 -24 11 -44 17 -44 12 0 -5 -7 -9 -15 -9 -8 0 -15 1 -15 3 0 17 76
187 84 187 2 0 3 -19 3 -42 0 -31 -6 -49 -22 -63 -14 -14 -19 -27 -15 -39 5
-16 7 -16 22 1 28 32 47 79 44 109 -2 16 1 32 7 36 14 9 80 -3 89 -16 4 -5 12
1 19 17 16 35 2 51 -56 66 l-45 11 21 43 c12 23 23 43 24 45 6 7 75 -10 70
-17 -7 -12 59 1 67 13 16 24 6 36 -36 47 l-45 11 27 54 c25 51 28 54 64 54 40
0 58 19 58 59 0 16 -6 21 -28 21 -15 0 -33 -5 -39 -11 -9 -9 -19 -6 -39 10
-15 11 -34 21 -42 21 -27 0 2 21 40 29 26 5 34 12 36 31 4 38 -12 54 -53 53
-47 -1 -41 17 12 37 56 21 73 38 73 72 0 29 -2 30 -37 26 -21 -3 -46 -8 -55
-12 -15 -7 -16 -2 -11 48 5 44 3 56 -8 56 -12 0 -12 2 0 9 9 6 10 10 2 16 -8
4 -2 18 19 41 25 29 28 38 19 55 -5 11 -21 24 -33 29 -24 9 -62 71 -68 111 -1
13 -7 28 -13 32 -10 9 5 5 42 -10 15 -6 14 -1 -5 31 -23 39 -26 62 -16 116 l7
32 67 -68 c36 -38 87 -98 112 -134z m-3392 -31 c0 -3 -6 -11 -13 -18 -11 -8
-13 -4 -13 24 1 31 3 33 14 18 6 -9 12 -20 12 -24z m3161 5 c-5 -16 -10 -21
-10 -12 -1 18 10 51 15 45 2 -1 -1 -16 -5 -33z m-3203 -77 c-7 -12 -11 -29 -9
-36 2 -12 0 -13 -13 -2 -17 14 -12 37 10 45 9 3 12 11 8 17 -4 8 -3 9 4 5 9
-5 9 -13 0 -29z m3233 16 c13 -16 12 -17 -3 -4 -10 7 -18 15 -18 17 0 8 8 3
21 -13z m45 -42 c-19 -21 -46 -23 -46 -3 0 12 2 12 17 1 15 -12 16 -12 10 4
-4 11 -3 16 3 12 6 -3 10 -1 10 5 0 6 5 8 11 5 7 -5 5 -13 -5 -24z m-4228
-126 c-3 -3 -9 2 -12 12 -6 14 -5 15 5 6 7 -7 10 -15 7 -18z m8 -133 c-11 -10
-14 3 -7 38 l6 35 3 -33 c2 -19 1 -36 -2 -40z m4875 -119 c12 -16 12 -17 -2
-6 -9 7 -20 9 -24 5 -5 -4 -5 -1 -1 6 9 16 11 15 27 -5z m-3678 -92 c28 -22
19 -30 -20 -19 -53 14 -63 25 -63 68 0 53 9 55 40 7 14 -23 34 -48 43 -56z
m2797 44 c0 -41 -2 -44 -41 -59 -51 -21 -60 -14 -31 22 12 15 30 41 39 59 21
41 33 33 33 -22z m-2854 -110 c16 -8 38 -15 49 -15 35 0 48 -17 65 -78 l17
-60 -39 -17 c-56 -24 -48 -51 14 -48 46 1 46 1 67 -47 28 -65 27 -77 -9 -85
-19 -4 -30 -13 -30 -24 0 -27 21 -41 62 -41 36 0 38 -2 34 -25 -3 -14 -1 -23
4 -20 8 5 40 -76 40 -101 0 -6 -15 -15 -34 -18 -57 -11 -57 -51 0 -62 31 -6
49 -24 24 -24 -13 0 -13 -37 -1 -45 5 -3 17 5 25 17 16 22 16 22 18 -20 4 -93
6 -87 -37 -92 -32 -4 -41 -9 -43 -28 -3 -18 2 -23 27 -28 27 -6 30 -10 29 -46
0 -27 -3 -36 -9 -27 -5 8 -9 11 -9 7 0 -3 -3 -13 -6 -22 -4 -12 0 -16 15 -16
16 0 21 -6 21 -27 0 -49 -12 -57 -63 -44 -59 14 -57 14 -57 -8 0 -21 44 -61
67 -61 11 0 13 -5 8 -17 -4 -10 -18 -45 -30 -78 -27 -71 -47 -79 -94 -39 -38
32 -38 36 12 147 26 58 38 104 46 175 20 166 -14 308 -143 597 -36 81 -61 185
-69 283 -2 28 -3 52 -2 52 2 0 16 -7 31 -15z m2860 -75 c-9 -102 -33 -185 -89
-307 -61 -135 -93 -227 -111 -323 -31 -160 -17 -279 46 -413 l42 -89 -32 -29
c-18 -16 -43 -29 -55 -29 -19 0 -26 9 -41 57 -9 32 -25 66 -34 77 -9 10 -12
21 -7 23 37 13 75 45 75 64 0 15 -4 19 -16 15 -9 -3 -33 -9 -54 -12 -34 -6
-38 -4 -44 21 -4 15 -9 56 -11 91 -5 63 -4 64 21 64 35 0 64 17 64 39 0 14
-10 20 -41 24 -22 3 -43 8 -46 11 -3 3 -2 36 3 73 8 62 11 68 34 71 60 6 70
12 70 37 0 20 -5 25 -24 25 -47 0 -55 8 -44 43 14 43 26 54 34 34 10 -26 27
-20 18 6 -5 12 -9 36 -10 52 -1 28 2 30 39 35 35 4 43 10 54 38 8 19 10 31 5
28 -6 -3 -23 -1 -40 5 l-30 10 26 59 26 59 45 -2 c37 -2 46 1 49 16 3 13 -7
22 -37 34 -44 17 -49 28 -28 58 10 12 16 14 21 7 4 -7 14 -12 23 -12 15 0 14
2 0 18 -10 10 -17 30 -17 43 0 21 8 27 53 40 28 9 56 17 61 18 5 0 6 -34 2
-79z m724 -113 c0 -5 14 -6 30 -2 47 10 38 -16 -29 -87 -64 -68 -151 -126
-136 -92 36 85 74 193 75 212 l0 23 30 -23 c17 -12 30 -26 30 -31z m-4353 -17
c-2 -10 -1 -24 4 -31 6 -10 9 -10 9 -2 0 7 7 10 15 7 8 -4 15 -1 15 6 0 6 -4
9 -9 5 -18 -11 -23 17 -6 33 10 10 15 12 11 6 -3 -7 1 -25 10 -40 l16 -29 -5
35 c-3 19 -3 29 0 23 2 -7 10 -13 16 -13 10 0 26 -34 63 -132 17 -46 -74 2
-128 67 -49 59 -61 96 -27 88 14 -4 19 -12 16 -23z m-12 -165 c22 -22 74 -62
115 -90 63 -43 77 -58 97 -103 l23 -53 -22 6 c-49 14 -145 64 -182 94 -69 55
-229 253 -215 265 2 2 17 8 34 13 28 9 32 7 69 -41 22 -28 58 -69 81 -91z
m4558 127 l37 -17 -36 -54 c-60 -89 -188 -215 -252 -248 -63 -34 -131 -58
-138 -50 -3 3 2 27 12 54 15 42 26 54 85 91 90 57 157 119 204 187 21 30 41
55 44 54 3 0 23 -8 44 -17z m180 -31 c17 -6 12 -16 -41 -86 -70 -94 -156 -183
-188 -195 -35 -14 -137 -96 -159 -130 -18 -27 -25 -30 -71 -30 -28 0 -71 -7
-94 -15 -24 -8 -45 -13 -48 -10 -11 10 34 35 103 55 39 12 91 35 116 51 55 35
179 162 239 244 24 33 54 75 67 93 24 32 41 37 76 23z m-1785 -382 c-53 -76
-123 -139 -203 -184 -66 -37 -75 -40 -75 -26 0 6 40 37 89 71 49 33 120 92
157 130 38 39 70 70 72 70 2 0 -16 -27 -40 -61z m-1321 -143 c124 -83 131
-111 8 -37 -88 54 -153 113 -204 187 -34 48 -32 47 45 -26 43 -42 111 -97 151
-124z m1207 143 c-21 -22 -52 -50 -69 -61 -16 -11 -1 9 35 44 70 70 99 84 34
17z m-1164 -97 c0 -8 -77 59 -115 99 -22 23 -5 11 38 -27 42 -37 77 -70 77
-72z m-247 -15 c-3 -6 -1 -7 4 -4 11 7 86 -47 78 -55 -3 -3 1 -5 8 -5 6 0 35
-14 63 -30 45 -27 98 -47 129 -48 6 0 20 -18 33 -40 50 -86 184 -173 324 -211
151 -40 343 5 495 117 50 38 103 101 103 125 0 6 13 11 29 12 62 2 166 63 287
169 l78 67 -32 -47 c-18 -25 -55 -74 -82 -109 -28 -34 -53 -72 -56 -85 -4 -13
-9 -21 -13 -19 -3 2 -14 -13 -24 -33 l-17 -36 28 33 c16 17 33 32 39 32 13 0
72 50 120 100 52 56 40 15 -27 -90 -33 -52 -65 -112 -71 -135 -6 -22 -16 -47
-21 -55 -6 -8 24 21 66 65 42 44 76 83 76 88 0 4 5 7 11 7 20 0 -3 -45 -75
-145 l-72 -100 38 18 c21 11 52 37 69 58 17 21 34 39 38 39 5 0 11 -51 15
-112 4 -62 13 -149 21 -193 42 -224 41 -213 21 -250 -64 -118 -228 -256 -401
-340 -189 -90 -303 -123 -456 -132 -172 -10 -339 24 -502 101 -252 120 -505
367 -477 466 16 55 40 214 50 329 5 63 12 116 15 119 3 3 26 -16 51 -41 25
-26 55 -47 66 -47 20 0 20 1 3 28 -10 15 -26 36 -35 47 -29 33 -90 133 -90
148 0 7 55 -41 122 -107 66 -67 100 -97 75 -67 -26 29 -47 60 -47 69 0 20 -44
96 -85 147 -18 23 -40 58 -49 79 l-15 37 54 -46 c30 -26 53 -52 52 -58 -1 -7
4 -11 12 -9 7 1 19 -2 27 -9 8 -6 21 -8 30 -5 12 4 15 2 10 -9 -4 -10 1 -15
15 -15 19 0 19 1 -3 33 -12 17 -40 51 -61 74 -25 26 -36 46 -32 54 5 7 4 10
-3 6 -12 -8 -55 40 -78 87 -15 29 -14 29 29 -13 26 -24 43 -49 40 -54z m-669
-43 c3 -8 2 -12 -4 -9 -6 3 -10 10 -10 16 0 14 7 11 14 -7z m323 -131 c-3 -10
-5 -4 -5 12 0 17 2 24 5 18 2 -7 2 -21 0 -30z m-463 -168 c-7 -16 -24 -21 -24
-6 0 8 7 13 27 20 1 1 0 -6 -3 -14z m-551 -50 c-17 -23 -93 -85 -180 -148 -22
-16 -52 -50 -68 -77 -27 -47 -47 -55 -59 -24 -8 20 18 75 51 105 15 15 69 47
118 73 50 25 104 57 120 70 38 32 41 32 18 1z m4299 -7 c24 -18 74 -49 112
-68 105 -54 170 -128 152 -175 -9 -25 -33 -17 -46 15 -21 50 -47 77 -123 126
-77 49 -123 88 -138 117 -14 24 -5 21 43 -15z m213 -5 c44 -22 65 -43 65 -65
0 -16 -4 -15 -25 11 -14 16 -46 37 -70 47 -25 9 -45 21 -45 26 0 11 31 3 75
-19z m-4739 -12 c-27 -16 -55 -40 -62 -53 l-13 -23 -1 26 c0 28 17 47 59 66
54 24 66 13 17 -16z m4121 -47 c-3 -3 -12 -4 -19 -1 -8 3 -5 6 6 6 11 1 17 -2
13 -5z m-3022 -91 c39 -5 41 -7 57 -60 l16 -54 -26 -10 c-40 -15 -62 -7 -95
33 -24 29 -31 51 -35 95 l-5 57 24 -27 c16 -19 37 -30 64 -34z m2589 -55 c-36
-71 -70 -91 -116 -67 -16 9 -19 17 -13 47 11 66 15 72 44 72 16 0 43 10 62 23
l34 23 3 -32 c2 -18 -4 -48 -14 -66z m-2724 -125 c0 -5 -120 54 -159 78 l-44
27 29 15 c16 8 42 22 59 31 l29 15 43 -82 c24 -45 43 -83 43 -84z m2974 102
c-1 -9 -149 -94 -166 -95 -4 0 6 28 21 63 15 34 31 70 34 80 6 17 11 16 59
-10 29 -15 53 -32 52 -38z m526 35 c11 -8 5 -9 -20 -5 -19 3 -36 8 -39 11 -9
9 45 3 59 -6z m-3738 -103 c120 -76 347 -181 498 -231 95 -31 106 -37 133 -75
15 -22 33 -41 39 -41 6 0 9 -3 6 -6 -3 -3 -47 11 -98 31 -71 27 -96 33 -106
24 -18 -14 -18 -43 -1 -57 20 -17 194 -82 261 -97 38 -9 70 -24 90 -43 17 -16
52 -42 79 -57 46 -26 60 -39 35 -30 -7 2 -67 17 -133 34 -245 61 -515 163
-724 274 -116 61 -291 167 -347 210 l-42 32 122 31 c66 17 124 32 128 32 4 1
31 -13 60 -31z m3435 1 c152 -37 151 -35 41 -109 -201 -137 -511 -290 -751
-370 -88 -29 -389 -109 -412 -109 -5 0 20 18 58 41 37 22 67 44 67 49 0 10 42
25 190 71 108 33 180 64 180 77 -1 26 -15 52 -29 52 -9 0 -48 -13 -86 -30 -39
-16 -76 -30 -83 -30 -7 0 1 18 20 43 41 53 44 55 93 67 22 6 90 33 150 60 61
27 137 60 170 74 78 32 205 102 230 126 11 11 22 20 25 20 3 0 64 -14 137 -32z
m-2947 -48 c12 -23 10 -24 -25 -8 -18 8 -22 14 -13 20 20 12 26 10 38 -12z
m2328 5 c-2 -1 -13 -8 -26 -14 -21 -11 -22 -11 -11 7 7 11 19 18 26 15 8 -3
13 -7 11 -8z"/>
<path d="M4964 8440 c-115 -12 -267 -39 -277 -49 -5 -5 -7 -17 -5 -27 4 -24
45 -24 233 0 116 15 174 17 340 11 341 -12 310 -14 310 15 0 23 -6 26 -60 37
-76 16 -434 24 -541 13z"/>
<path d="M3831 7911 c-9 -15 -6 -20 12 -26 38 -12 68 -14 62 -4 -4 5 -12 9
-19 9 -7 0 -21 7 -32 16 -10 8 -13 12 -5 8 9 -5 12 -3 7 4 -10 16 -14 15 -25
-7z"/>
<path d="M3875 7910 c-3 -5 -1 -10 4 -10 6 0 11 5 11 10 0 6 -2 10 -4 10 -3 0
-8 -4 -11 -10z"/>
<path d="M3160 7636 c-13 -34 -13 -46 0 -46 18 0 35 49 22 62 -8 8 -14 4 -22
-16z"/>
<path d="M3403 7095 c0 -8 7 -15 15 -15 11 0 12 -3 3 -14 -8 -10 -9 -16 -1
-21 6 -4 9 -1 8 7 -2 7 3 12 10 11 18 -4 15 7 -10 28 -25 23 -25 23 -25 4z"/>
<path d="M6328 7926 c-20 -10 -29 -11 -38 -2 -8 7 -7 2 1 -12 8 -12 15 -18 17
-13 2 6 11 7 20 4 15 -4 15 -3 2 7 -15 12 -8 11 50 -6 14 -4 20 -1 18 8 -6 29
-30 34 -70 14z"/>
<path d="M6168 7893 c7 -3 16 -2 19 1 4 3 -2 6 -13 5 -11 0 -14 -3 -6 -6z"/>
<path d="M7045 7628 c15 -48 41 -52 29 -4 -3 14 -13 26 -21 26 -10 0 -12 -6
-8 -22z"/>
<path d="M6700 7876 c0 -8 4 -17 9 -20 5 -4 7 3 4 14 -6 23 -13 26 -13 6z"/>
<path d="M6728 7854 c5 -26 -6 -31 -28 -11 -12 10 -12 9 -2 -4 7 -9 25 -16 40
-16 15 0 22 2 16 4 -7 2 -10 12 -7 22 3 10 -2 21 -10 24 -10 4 -13 -1 -9 -19z"/>
<path d="M4000 7866 c0 -8 4 -17 9 -20 5 -4 7 3 4 14 -6 23 -13 26 -13 6z"/>
<path d="M2860 7594 c-210 -180 -423 -424 -583 -669 -88 -135 -207 -346 -207
-367 0 -10 9 -22 20 -28 18 -9 25 -7 48 18 15 17 47 70 72 118 137 269 458
675 679 859 71 59 85 87 59 113 -7 7 -14 12 -17 12 -4 0 -35 -26 -71 -56z"/>
<path d="M1909 6183 c-15 -40 -8 -58 27 -61 28 -3 32 0 38 29 11 57 -45 85
-65 32z"/>
<path d="M1854 4255 c-9 -23 4 -81 24 -106 16 -19 21 -20 41 -9 20 10 22 17
16 48 -3 21 -13 47 -21 60 -16 25 -52 29 -60 7z"/>
<path d="M2536 3404 c-9 -8 -16 -21 -16 -27 1 -7 28 -41 61 -76 58 -62 60 -64
79 -46 11 10 20 22 20 27 0 15 -103 138 -116 138 -7 0 -20 -7 -28 -16z"/>
<path d="M2432 3378 c-19 -19 -14 -53 11 -76 28 -27 43 -28 56 -4 8 14 4 27
-15 55 -27 40 -34 43 -52 25z"/>
<path d="M7302 7588 c-20 -20 -14 -32 33 -72 27 -22 43 -42 39 -49 -4 -7 -3
-9 1 -4 5 4 17 -1 27 -10 15 -13 23 -15 36 -7 33 21 25 44 -35 100 -59 55 -80
63 -101 42z"/>
<path d="M7522 7408 c-20 -20 -13 -53 14 -79 41 -38 174 -195 245 -289 82
-108 171 -246 244 -380 73 -132 82 -142 107 -129 10 6 22 17 25 24 11 29 -214
400 -336 555 -105 133 -241 283 -272 300 -10 6 -20 5 -27 -2z"/>
<path d="M8380 4460 c-6 -12 -10 -33 -8 -48 2 -21 8 -27 28 -27 20 0 27 7 36
35 8 24 9 39 2 48 -16 19 -46 14 -58 -8z"/>
<path d="M8220 4248 c-11 -24 -20 -60 -20 -80 0 -34 3 -38 26 -38 19 0 29 8
41 38 9 20 16 55 17 77 1 34 -2 40 -22 43 -18 3 -26 -5 -42 -40z"/>
<path d="M4150 7180 c-9 -6 -10 -10 -3 -10 6 0 15 5 18 10 8 12 4 12 -15 0z"/>
<path d="M5938 7283 c7 -3 16 -2 19 1 4 3 -2 6 -13 5 -11 0 -14 -3 -6 -6z"/>
<path d="M5841 7164 c0 -11 3 -14 6 -6 3 7 2 16 -1 19 -3 4 -6 -2 -5 -13z"/>
<path d="M5851 7132 c-10 -23 -10 -25 2 -9 17 21 31 22 23 2 -3 -8 -1 -15 4
-15 15 0 12 26 -3 39 -11 8 -16 5 -26 -17z"/>
<path d="M5770 7090 c8 -5 20 -10 25 -10 6 0 3 5 -5 10 -8 5 -19 10 -25 10 -5
0 -3 -5 5 -10z"/>
<path d="M2862 6889 c-12 -19 -11 -19 8 -9 11 6 20 15 20 20 0 17 -15 11 -28
-11z"/>
<path d="M3200 6860 c0 -11 2 -20 4 -20 2 0 6 9 9 20 3 11 1 20 -4 20 -5 0 -9
-9 -9 -20z"/>
<path d="M4270 6846 c0 -2 7 -9 15 -16 9 -7 15 -8 15 -2 0 5 -7 12 -15 16 -8
3 -15 4 -15 2z"/>
<path d="M4370 6755 c0 -15 66 -114 85 -127 17 -12 27 7 19 37 -7 27 -77 105
-95 105 -5 0 -9 -7 -9 -15z"/>
<path d="M2692 6548 c2 -35 7 -43 23 -43 26 0 31 29 11 60 -25 37 -38 31 -34
-17z"/>
<path d="M3238 6383 c7 -3 16 -2 19 1 4 3 -2 6 -13 5 -11 0 -14 -3 -6 -6z"/>
<path d="M2844 6358 c-4 -7 -4 -10 1 -6 4 4 15 2 24 -5 14 -11 14 -10 2 6 -16
20 -18 21 -27 5z"/>
<path d="M7435 6980 c10 -11 20 -20 22 -20 2 0 -2 9 -9 20 -7 11 -17 20 -22
20 -5 0 -1 -9 9 -20z"/>
<path d="M7022 6860 c0 -14 2 -19 5 -12 2 6 2 18 0 25 -3 6 -5 1 -5 -13z"/>
<path d="M5925 6830 c-3 -5 1 -10 9 -10 9 0 16 5 16 10 0 6 -4 10 -9 10 -6 0
-13 -4 -16 -10z"/>
<path d="M6570 6826 c0 -2 8 -10 18 -17 15 -13 16 -12 3 4 -13 16 -21 21 -21
13z"/>
<path d="M6322 6768 c6 -15 13 -28 18 -28 12 0 34 30 27 37 -4 3 -13 0 -22 -7
-12 -10 -15 -10 -15 3 0 8 6 17 13 20 6 3 2 5 -9 4 -19 -1 -20 -4 -12 -29z"/>
<path d="M5803 6738 c-50 -54 -72 -118 -39 -118 17 0 99 128 91 141 -10 15
-20 11 -52 -23z"/>
<path d="M7521 6618 c-1 -9 -10 -32 -21 -51 -19 -32 -19 -36 -5 -51 9 -9 21
-16 26 -16 15 0 20 43 10 90 -5 25 -9 37 -10 28z"/>
<path d="M6874 6429 c-3 -5 -2 -9 3 -8 12 3 63 -23 59 -30 -2 -3 10 -7 26 -8
38 -3 32 3 -31 33 -30 13 -53 19 -57 13z"/>
<path d="M6860 6401 c0 -11 29 -35 35 -29 2 2 -4 12 -15 21 -11 9 -20 13 -20
8z"/>
<path d="M6840 6380 c0 -5 9 -14 20 -20 11 -6 20 -9 20 -8 0 2 -9 11 -20 21
-11 9 -20 13 -20 7z"/>
<path d="M6850 6042 c0 -5 7 -13 16 -16 10 -4 14 -1 12 6 -5 15 -28 23 -28 10z"/>
<path d="M3350 6030 c0 -5 4 -10 9 -10 6 0 13 5 16 10 3 6 -1 10 -9 10 -9 0
-16 -4 -16 -10z"/>
<path d="M3230 5990 c0 -5 5 -10 10 -10 6 0 10 5 10 10 0 6 -4 10 -10 10 -5 0
-10 -4 -10 -10z"/>
<path d="M4749 6024 c-11 -14 -10 -18 5 -29 10 -8 24 -11 32 -8 19 7 18 39 -2
47 -21 8 -20 8 -35 -10z"/>
<path d="M5420 6011 c0 -11 5 -23 10 -26 18 -11 50 6 50 26 0 14 -7 19 -30 19
-23 0 -30 -5 -30 -19z"/>
<path d="M5067 5902 c-35 -38 -8 -92 46 -92 30 0 69 43 60 68 -15 43 -77 56
-106 24z"/>
<path d="M4678 5884 c-35 -18 -48 -43 -48 -89 0 -28 7 -43 32 -66 45 -40 98
-40 139 0 51 52 33 128 -37 157 -41 17 -52 17 -86 -2z m52 -160 c0 -8 -19 -13
-24 -6 -3 5 1 9 9 9 8 0 15 -2 15 -3z"/>
<path d="M5464 5890 c-92 -37 -81 -191 14 -190 46 1 78 18 103 56 33 50 23 90
-31 127 -26 18 -53 21 -86 7z"/>
<path d="M4403 5833 c-7 -17 32 -56 50 -50 22 7 31 35 18 51 -18 21 -60 20
-68 -1z"/>
<path d="M5754 5836 c-10 -26 1 -51 24 -54 23 -4 44 30 35 56 -7 17 -52 15
-59 -2z"/>
<path d="M4199 5667 c-65 -24 -106 -56 -161 -125 -62 -76 -88 -113 -88 -124 0
-17 38 -7 59 16 41 43 129 80 203 84 79 5 178 -24 229 -67 l31 -26 -50 3 c-27
2 -78 -3 -112 -12 -38 -10 -77 -14 -98 -10 -33 7 -35 6 -30 -20 5 -25 3 -26
-39 -26 -44 0 -45 0 -38 -30 7 -32 -2 -38 -35 -20 -13 7 -19 6 -24 -6 -4 -10
-13 -13 -26 -9 -40 13 -38 -6 4 -50 26 -27 54 -70 69 -107 26 -66 50 -81 55
-35 3 25 22 40 22 16 0 -6 13 -28 29 -48 16 -20 28 -39 27 -43 -2 -15 71 -60
124 -75 41 -12 76 -14 140 -9 l85 6 -35 -22 -35 -23 29 -3 c17 -2 52 8 90 26
l61 31 -40 -36 c-22 -19 -56 -43 -75 -53 -32 -18 -33 -19 -10 -19 34 -1 129
39 172 73 20 14 48 44 63 66 31 45 41 44 51 -5 5 -30 -16 -192 -32 -242 -11
-35 36 31 68 95 17 34 33 61 35 59 8 -8 -35 -197 -48 -212 -13 -13 -11 -25 4
-25 14 0 100 173 118 240 7 25 13 97 13 160 0 122 -21 212 -64 272 l-20 27 33
3 c44 4 49 34 8 43 -17 4 -59 26 -94 49 -208 143 -557 254 -668 213z m156
-574 c50 -23 73 -27 135 -26 41 0 87 6 103 12 38 15 34 -4 -5 -26 -24 -13 -56
-18 -118 -18 -76 0 -91 3 -140 30 -49 27 -100 82 -100 108 0 6 15 -3 33 -20
17 -18 59 -44 92 -60z"/>
<path d="M5887 5670 c-132 -22 -382 -122 -505 -201 -41 -26 -89 -50 -107 -53
-18 -4 -36 -13 -39 -21 -6 -17 19 -45 41 -45 8 0 13 -6 10 -12 -57 -128 -61
-144 -65 -258 -3 -87 0 -131 13 -180 18 -71 72 -193 99 -225 17 -19 17 -18 10
25 -8 55 -21 125 -29 165 -4 21 4 11 29 -34 36 -65 66 -104 73 -97 3 2 0 13
-6 24 -20 38 -41 198 -30 237 l10 36 62 -63 c50 -51 76 -68 133 -90 38 -15 83
-29 100 -33 25 -5 24 -3 -11 15 -72 38 -89 74 -24 51 40 -14 69 -14 69 -1 0 6
-6 10 -13 10 -7 0 -21 6 -30 13 -14 10 -1 12 75 12 82 1 100 4 148 28 61 31
124 87 146 130 18 33 34 27 34 -14 0 -48 32 -31 46 25 10 42 49 108 84 141 38
36 38 45 1 45 -16 0 -31 5 -33 11 -3 8 -10 8 -25 -2 -26 -16 -41 -6 -23 16 17
20 10 26 -39 32 -35 5 -41 9 -41 30 0 22 -4 24 -47 23 -27 -1 -68 3 -93 10
-25 6 -71 12 -103 12 l-59 0 37 25 c85 58 217 79 303 49 23 -8 69 -34 102 -57
43 -31 63 -40 71 -32 29 29 -146 219 -226 246 -52 18 -73 19 -148 7z m98 -530
c-52 -101 -274 -146 -361 -74 l-29 24 30 -11 c17 -7 64 -12 105 -12 81 -1 157
26 223 78 42 33 51 32 32 -5z"/>
<path d="M5011 5543 c-15 -53 -14 -63 8 -63 24 0 49 56 34 78 -18 29 -32 24
-42 -15z"/>
<path d="M5183 5573 c-16 -6 -17 -47 -3 -74 6 -10 20 -19 32 -19 18 0 20 4 14
31 -3 17 -6 37 -6 44 0 15 -19 24 -37 18z"/>
<path d="M3935 5350 c-3 -5 1 -10 10 -10 9 0 13 5 10 10 -3 6 -8 10 -10 10 -2
0 -7 -4 -10 -10z"/>
<path d="M6270 5350 c8 -5 22 -10 30 -10 13 0 13 1 0 10 -8 5 -22 10 -30 10
-13 0 -13 -1 0 -10z"/>
<path d="M4137 4863 c-13 -13 -7 -56 10 -68 39 -29 85 29 51 63 -13 13 -50 16
-61 5z"/>
<path d="M6022 4858 c-28 -28 -3 -72 39 -66 30 4 47 33 33 56 -14 21 -55 27
-72 10z"/>
<path d="M6204 4739 c-2 -4 0 -10 6 -14 6 -4 8 -10 5 -14 -2 -5 6 -8 18 -7 31
1 30 39 -1 41 -13 1 -25 -2 -28 -6z"/>
<path d="M3972 4723 c2 -10 10 -18 18 -18 8 0 16 8 18 18 2 12 -3 17 -18 17
-15 0 -20 -5 -18 -17z"/>
<path d="M4257 4702 c-40 -44 -6 -102 60 -102 57 0 79 62 37 105 -21 21 -77
19 -97 -3z"/>
<path d="M5866 4698 c-24 -34 -20 -75 9 -94 43 -28 115 9 115 60 0 51 -95 76
-124 34z"/>
<path d="M6154 4656 c-7 -31 1 -46 26 -46 27 0 37 40 14 57 -25 18 -33 16 -40
-11z"/>
<path d="M4015 4660 c-5 -9 11 -50 20 -50 19 0 35 16 35 36 0 19 -5 24 -24 24
-14 0 -28 -4 -31 -10z"/>
<path d="M4831 4570 c-39 -54 -57 -128 -41 -174 16 -50 65 -93 119 -106 25 -6
53 -12 61 -15 8 -2 18 -4 21 -4 18 -3 50 -41 43 -53 -4 -7 -4 -10 1 -6 4 4 25
-2 45 -12 21 -11 40 -16 42 -12 2 4 21 21 43 38 32 25 45 29 63 23 13 -5 21
-5 18 -1 -2 4 22 18 54 30 69 27 126 84 135 136 9 47 -20 132 -57 170 -36 35
-43 30 -21 -15 24 -49 29 -131 9 -148 -13 -11 -16 -11 -16 0 0 7 -10 24 -22
37 -13 14 -17 22 -10 17 11 -6 12 -3 2 14 -17 33 -35 35 -90 12 -58 -25 -136
-27 -206 -6 -56 17 -104 19 -104 6 0 -5 8 -12 18 -14 13 -4 12 -5 -5 -6 -13
-1 -29 -13 -40 -31 -9 -17 -22 -29 -28 -27 -17 6 -18 103 -1 136 33 63 10 70
-33 11z m419 -300 c-8 -5 -19 -10 -25 -10 -5 0 -3 5 5 10 8 5 20 10 25 10 6 0
3 -5 -5 -10z"/>
<path d="M4522 4518 c-21 -21 -13 -38 18 -38 31 0 35 6 24 34 -7 19 -25 21
-42 4z"/>
<path d="M5656 4514 c-6 -16 9 -44 23 -44 19 0 42 27 35 43 -8 22 -50 22 -58
1z"/>
<path d="M4892 4150 c-12 -5 -63 -49 -112 -97 -50 -48 -96 -91 -104 -95 -7 -4
-28 -3 -46 4 -29 9 -35 9 -47 -7 -18 -26 -16 -48 7 -78 25 -31 78 -50 116 -41
16 4 62 24 103 45 90 47 136 50 221 14 33 -14 68 -25 79 -25 10 0 49 11 85 25
97 36 131 33 235 -21 76 -40 94 -46 125 -40 50 10 99 54 99 91 0 32 -31 61
-47 45 -5 -5 -23 -10 -40 -10 -24 0 -46 17 -118 90 -49 50 -100 95 -114 100
-45 18 -91 11 -157 -24 l-65 -33 -68 33 c-68 34 -110 41 -152 24z"/>
<path d="M6000 3937 c-46 -23 -66 -40 -68 -55 -3 -20 1 -22 37 -22 54 0 104
42 99 83 l-3 28 -65 -34z"/>
<path d="M4157 3939 c-9 -34 45 -79 93 -79 37 0 58 19 44 41 -8 13 -100 59
-118 59 -7 0 -16 -10 -19 -21z"/>
<path d="M4276 3774 c-9 -24 38 -64 76 -64 46 0 66 14 52 37 -25 40 -116 59
-128 27z"/>
<path d="M4785 3760 c-8 -35 21 -78 92 -136 33 -27 41 -39 31 -45 -7 -5 -8 -9
-3 -9 6 0 4 -4 -4 -9 -10 -6 -3 -12 25 -22 48 -15 283 -17 293 -1 3 5 23 13
44 17 21 4 37 13 37 21 0 8 4 14 9 14 9 0 60 47 100 93 33 37 20 34 -26 -5
l-38 -33 38 43 c22 25 37 52 37 68 0 14 -3 24 -7 22 -155 -78 -232 -94 -373
-78 -80 9 -188 48 -211 76 -19 23 -37 16 -44 -16z m25 -35 c0 -5 -5 -3 -10 5
-5 8 -10 20 -10 25 0 6 5 3 10 -5 5 -8 10 -19 10 -25z"/>
<path d="M5874 3783 c-29 -6 -58 -39 -51 -58 12 -30 116 -8 129 27 13 34 -13
44 -78 31z"/>
<path d="M4429 3610 l-24 -20 28 -25 c31 -28 64 -32 91 -12 17 13 17 15 -5 39
-34 37 -61 43 -90 18z"/>
<path d="M5723 3610 c-67 -41 -19 -91 53 -57 39 19 45 50 15 67 -26 14 -31 13
-68 -10z"/>
<path d="M4630 3505 c0 -16 9 -19 34 -9 20 8 11 24 -15 24 -10 0 -19 -7 -19
-15z"/>
<path d="M5545 3510 c-3 -5 -2 -10 4 -10 5 0 16 -3 25 -6 11 -4 16 -1 16 10 0
18 -35 22 -45 6z"/>
<path d="M2665 5840 c-3 -5 -1 -10 4 -10 6 0 11 5 11 10 0 6 -2 10 -4 10 -3 0
-8 -4 -11 -10z"/>
<path d="M7576 5872 c-3 -5 1 -15 8 -21 11 -10 14 -9 12 3 -3 21 -13 29 -20
18z"/>
<path d="M3620 5580 c0 -5 5 -10 11 -10 5 0 7 5 4 10 -3 6 -8 10 -11 10 -2 0
-4 -4 -4 -10z"/>
<path d="M3650 5580 c0 -5 5 -10 11 -10 5 0 7 5 4 10 -3 6 -8 10 -11 10 -2 0
-4 -4 -4 -10z"/>
<path d="M6555 5590 c-3 -4 6 -10 20 -12 14 -3 25 -2 25 2 0 11 -39 20 -45 10z"/>
<path d="M6555 5560 c-3 -6 1 -7 9 -4 18 7 21 14 7 14 -6 0 -13 -4 -16 -10z"/>
<path d="M2178 5243 c7 -3 16 -2 19 1 4 3 -2 6 -13 5 -11 0 -14 -3 -6 -6z"/>
<path d="M3511 5057 c2 -1 13 -9 24 -17 19 -14 19 -14 6 3 -7 9 -18 17 -24 17
-6 0 -8 -1 -6 -3z"/>
<path d="M1851 4853 c2 -19 38 -86 38 -72 1 24 -20 79 -30 79 -5 0 -9 -3 -8
-7z"/>
<path d="M1960 4653 c0 -5 9 -14 20 -21 11 -7 20 -8 20 -2 0 5 -9 14 -20 20
-11 6 -20 7 -20 3z"/>
<path d="M2060 4576 c0 -10 8 -16 22 -16 12 0 19 1 17 3 -2 1 -12 9 -21 16
-15 12 -18 11 -18 -3z"/>
<path d="M2837 4573 c-4 -3 -7 -13 -7 -20 0 -12 3 -12 15 1 8 8 15 17 15 20 0
8 -15 7 -23 -1z"/>
<path d="M2750 4270 c0 -16 5 -30 10 -30 6 0 10 6 10 14 0 8 3 21 6 30 4 11 1
16 -10 16 -11 0 -16 -9 -16 -30z"/>
<path d="M2741 4034 c0 -11 3 -14 6 -6 3 7 2 16 -1 19 -3 4 -6 -2 -5 -13z"/>
<path d="M2771 3870 c-5 -16 -7 -30 -4 -30 3 0 0 -7 -7 -15 -9 -11 -9 -15 -1
-15 7 0 9 -4 6 -10 -3 -6 1 -7 9 -4 9 3 16 10 16 16 0 5 -5 6 -10 3 -11 -7 -9
14 6 63 10 33 -2 27 -15 -8z"/>
<path d="M2200 3870 c0 -11 5 -20 10 -20 6 0 10 9 10 20 0 11 -4 20 -10 20 -5
0 -10 -9 -10 -20z"/>
<path d="M6700 5065 c-9 -11 -16 -12 -25 -5 -8 7 -12 5 -12 -5 0 -7 5 -13 11
-12 6 1 10 -5 8 -13 -1 -10 2 -9 13 4 8 11 15 25 15 30 0 6 5 4 10 -4 6 -9 10
-10 10 -3 0 19 -17 24 -30 8z"/>
<path d="M6722 5010 c7 -11 15 -15 16 -10 3 7 9 7 18 -1 19 -16 18 -4 -2 15
-8 9 -22 16 -30 16 -12 0 -12 -3 -2 -20z"/>
<path d="M6916 4952 c-3 -6 -1 -14 5 -17 14 -9 20 -2 10 14 -6 8 -11 9 -15 3z"/>
<path d="M6880 4880 c8 -5 20 -10 25 -10 6 0 3 5 -5 10 -8 5 -19 10 -25 10 -5
0 -3 -5 5 -10z"/>
<path d="M8356 4836 c-3 -13 -9 -32 -12 -43 -6 -16 -5 -16 9 -3 19 18 33 70
19 70 -5 0 -13 -11 -16 -24z"/>
<path d="M8240 4640 c-13 -8 -13 -10 2 -10 9 0 20 5 23 10 8 13 -5 13 -25 0z"/>
<path d="M8135 4580 c-3 -5 3 -10 15 -10 12 0 18 5 15 10 -3 6 -10 10 -15 10
-5 0 -12 -4 -15 -10z"/>
<path d="M7401 4524 c0 -11 3 -14 6 -6 3 7 2 16 -1 19 -3 4 -6 -2 -5 -13z"/>
<path d="M7410 4495 c0 -5 5 -17 10 -25 5 -8 10 -10 10 -5 0 6 -5 17 -10 25
-5 8 -10 11 -10 5z"/>
<path d="M7995 4330 c-3 -5 -1 -10 4 -10 6 0 11 5 11 10 0 6 -2 10 -4 10 -3 0
-8 -4 -11 -10z"/>
<path d="M7460 4270 c0 -16 4 -30 9 -30 12 0 19 21 13 43 -7 28 -22 20 -22
-13z"/>
<path d="M7483 4055 c0 -33 2 -45 4 -27 2 18 2 45 0 60 -2 15 -4 0 -4 -33z"/>
<path d="M8010 3870 c0 -11 5 -20 10 -20 6 0 10 9 10 20 0 11 -4 20 -10 20 -5
0 -10 -9 -10 -20z"/>
<path d="M3335 3385 c32 -54 43 -67 48 -58 3 4 -11 26 -30 48 -29 32 -32 34
-18 10z"/>
<path d="M2738 2915 c-22 -12 -110 -130 -127 -169 -2 -4 30 -7 70 -5 83 5 173
42 213 89 12 14 29 29 39 33 48 18 -19 58 -108 64 -42 2 -68 -1 -87 -12z m72
-44 c0 -25 -26 -51 -51 -51 -29 0 -21 41 11 57 34 17 40 16 40 -6z"/>
<path d="M2565 2670 c-10 -11 -16 -23 -12 -26 9 -9 47 16 47 31 0 21 -14 19
-35 -5z"/>
<path d="M2435 2581 c-30 -34 11 -81 43 -49 18 18 15 46 -7 57 -14 8 -22 6
-36 -8z"/>
<path d="M6871 3369 c-18 -22 -30 -43 -27 -46 8 -8 17 2 45 50 29 48 22 47
-18 -4z"/>
<path d="M7321 2908 l-43 -20 43 -44 c63 -64 134 -96 225 -102 41 -2 74 -2 74
1 0 4 -13 26 -29 49 -15 24 -36 56 -45 71 -40 66 -137 86 -225 45z m159 -50
c21 -35 18 -50 -8 -41 -28 10 -52 35 -52 55 0 30 38 22 60 -14z"/>
<path d="M7320 2735 c0 -5 89 -45 99 -45 8 1 -81 49 -91 50 -5 0 -8 -2 -8 -5z"/>
<path d="M7624 2688 c-7 -11 29 -48 47 -48 15 0 10 26 -9 43 -22 20 -28 21
-38 5z"/>
<path d="M7747 2583 c-13 -12 -7 -54 9 -60 21 -8 57 28 48 50 -6 17 -44 23
-57 10z"/>
<path d="M3770 3620 c0 -5 5 -10 10 -10 6 0 10 5 10 10 0 6 -4 10 -10 10 -5 0
-10 -4 -10 -10z"/>
<path d="M6242 3042 c-2 -20 3 -39 10 -43 19 -13 28 -11 28 6 0 8 -6 15 -12
15 -10 0 -10 2 0 8 14 10 7 38 -12 45 -8 3 -13 -7 -14 -31z"/>
<path d="M6236 2842 c6 -4 15 -22 19 -40 9 -44 16 -36 8 11 -4 25 -11 37 -22
37 -10 0 -12 -3 -5 -8z"/>
<path d="M4676 2664 c-7 -19 15 -74 37 -93 10 -7 17 -19 17 -26 0 -16 75 -85
126 -118 22 -13 61 -31 88 -40 56 -19 131 -24 106 -7 -11 8 -9 9 10 5 14 -3
62 -7 108 -9 79 -3 86 -2 160 34 60 30 90 53 137 105 71 79 84 101 85 138 0
39 -19 34 -95 -24 -225 -172 -450 -172 -686 2 -72 53 -84 57 -93 33z"/>
<path d="M5858 2470 c-29 -30 -56 -54 -60 -52 -10 3 -10 -10 1 -27 19 -29 118
24 135 72 8 21 6 31 -7 44 -16 16 -20 14 -69 -37z"/>
<path d="M4297 2493 c-32 -31 74 -132 121 -116 23 9 12 39 -31 81 -39 39 -74
52 -90 35z"/>
<path d="M4720 2410 c0 -30 23 -70 64 -109 19 -19 32 -39 29 -44 -4 -6 -1 -7
6 -3 7 5 20 1 29 -8 10 -8 44 -27 77 -43 50 -23 77 -28 162 -31 131 -5 211 17
300 83 54 41 123 122 123 147 0 23 -34 16 -72 -15 -101 -82 -238 -124 -366
-112 -96 8 -167 35 -264 101 -43 30 -81 54 -83 54 -3 0 -5 -9 -5 -20z"/>
<path d="M5178 2363 c7 -3 16 -2 19 1 4 3 -2 6 -13 5 -11 0 -14 -3 -6 -6z"/>
<path d="M4430 2246 c0 -15 13 -36 35 -55 38 -33 51 -37 75 -21 12 7 12 12 0
35 -15 28 -68 65 -94 65 -10 0 -16 -8 -16 -24z"/>
<path d="M5736 2250 c-42 -27 -60 -64 -41 -80 12 -10 20 -9 42 5 36 23 62 55
63 78 0 23 -28 22 -64 -3z"/>
<path d="M4689 2109 c-11 -29 -10 -33 12 -49 28 -22 67 -31 75 -19 10 17 -7
47 -40 73 l-34 25 -13 -30z"/>
<path d="M5469 2091 c-34 -34 -37 -51 -10 -51 20 0 81 54 81 71 0 20 -43 7
-71 -20z"/>
<path d="M4407 2104 c-4 -4 -7 -19 -7 -34 0 -29 55 -90 81 -90 20 0 39 20 39
42 0 39 -90 105 -113 82z"/>
<path d="M5746 2079 c-22 -17 -27 -28 -24 -58 2 -28 8 -37 24 -39 28 -4 86 62
82 91 -4 31 -47 34 -82 6z"/>
<path d="M4738 1941 c7 -38 41 -71 74 -71 33 0 48 25 27 45 -8 8 -35 23 -60
33 l-46 20 5 -27z"/>
<path d="M5430 1949 c-63 -25 -83 -79 -30 -79 35 0 83 41 78 67 -4 21 -17 24
-48 12z"/>
<path d="M6621 2136 c-84 -51 -96 -65 -76 -92 13 -18 17 -17 98 24 93 47 121
71 111 96 -11 27 -55 18 -133 -28z"/>
</g>
</svg>
