<?xml version="1.0" encoding="UTF-8" standalone="no"?>
<!-- Created with Inkscape (http://www.inkscape.org/) -->

<svg
   xmlns:dc="http://purl.org/dc/elements/1.1/"
   xmlns:cc="http://creativecommons.org/ns#"
   xmlns:rdf="http://www.w3.org/1999/02/22-rdf-syntax-ns#"
   xmlns:svg="http://www.w3.org/2000/svg"
   xmlns="http://www.w3.org/2000/svg"
   xmlns:sodipodi="http://sodipodi.sourceforge.net/DTD/sodipodi-0.dtd"
   xmlns:inkscape="http://www.inkscape.org/namespaces/inkscape"
   height="1000"
   width="1000"
   sodipodi:docname="bild3.svg"
   version="1.1"
   id="svg4946"
   inkscape:version="0.92.2 (5c3e80d, 2017-08-06)">
  <sodipodi:namedview
     id="base"
     pagecolor="#ffffff"
     bordercolor="#666666"
     borderopacity="1.0"
     inkscape:pageopacity="0.0"
     inkscape:pageshadow="2"
     inkscape:zoom="0.70710678"
     inkscape:cx="-165.1319"
     inkscape:cy="421.75628"
     inkscape:document-units="px"
     inkscape:current-layer="g2119"
     showgrid="false"
     showguides="true"
     inkscape:window-width="1920"
     inkscape:window-height="1017"
     inkscape:window-x="-8"
     inkscape:window-y="-8"
     inkscape:window-maximized="1"
     showborder="true"
     inkscape:showpageshadow="false"
     inkscape:guide-bbox="true"
     guidetolerance="1"
     inkscape:snap-text-baseline="false">
    <sodipodi:guide
       position="0,1000"
       orientation="1,0"
       id="guide4948"
       inkscape:locked="false"
       inkscape:label=""
       inkscape:color="rgb(0,0,255)" />
    <sodipodi:guide
       position="1000,938"
       orientation="1,0"
       id="guide4950"
       inkscape:locked="false" />
    <sodipodi:guide
       position="1000,1000"
       orientation="0,1"
       id="guide7104"
       inkscape:locked="false"
       inkscape:label=""
       inkscape:color="rgb(0,0,255)" />
    <sodipodi:guide
       position="0,800"
       orientation="0,1"
       id="guide7108"
       inkscape:locked="false"
       inkscape:label=""
       inkscape:color="rgb(0,0,255)" />
    <sodipodi:guide
       position="0,800"
       orientation="1,0"
       id="guide7110"
       inkscape:locked="false"
       inkscape:label=""
       inkscape:color="rgb(0,0,255)" />
    <sodipodi:guide
       position="200,1000"
       orientation="1,0"
       id="guide7112"
       inkscape:locked="false"
       inkscape:label=""
       inkscape:color="rgb(0,0,255)" />
    <sodipodi:guide
       position="1000,200"
       orientation="0,1"
       id="guide7139"
       inkscape:locked="false"
       inkscape:label=""
       inkscape:color="rgb(0,0,255)" />
    <sodipodi:guide
       position="800,800"
       orientation="1,0"
       id="guide7141"
       inkscape:locked="false"
       inkscape:label=""
       inkscape:color="rgb(0,0,255)" />
    <sodipodi:guide
       position="800,200"
       orientation="0,1"
       id="guide7143"
       inkscape:locked="false" />
    <sodipodi:guide
       position="500,500"
       orientation="0,1"
       id="guide7747"
       inkscape:locked="false"
       inkscape:label=""
       inkscape:color="rgb(0,0,255)" />
    <sodipodi:guide
       position="500,500"
       orientation="1,0"
       id="guide7749"
       inkscape:locked="false"
       inkscape:label=""
       inkscape:color="rgb(0,0,255)" />
    <sodipodi:guide
       position="200,800"
       orientation="0,1"
       id="guide7908"
       inkscape:locked="false" />
  </sodipodi:namedview>
  <defs
     id="defs4" />
  <metadata
     id="metadata7">
    <rdf:RDF>
      <cc:Work
         rdf:about="">
        <dc:format>image/svg+xml</dc:format>
        <dc:type
           rdf:resource="http://purl.org/dc/dcmitype/StillImage" />
        <dc:title></dc:title>
      </cc:Work>
    </rdf:RDF>
  </metadata>
  <g
     inkscape:groupmode="layer"
     id="layer39"
     inkscape:label="Ohren Spitzen">
    <g
       id="g2119"
       inkscape:groupmode="layer"
       inkscape:label="Kreis Kopie Kopie 1"
       style="display:inline">
      <path
         id="path2117"
         style="fill:#f4814e;fill-opacity:1;stroke:#6aefbb;stroke-width:1;stroke-miterlimit:4;stroke-dasharray:none;stroke-opacity:1"
         d="M 500.18164,2.0800781 C 337.31167,2.5197673 174.31018,76.46962 84.816406,220.76172 -106.42934,482.72898 41.527003,896.8234 355.25195,978.67773 661.75764,1083.6878 1014.3439,821.00096 1000.0078,496.81445 L 1000,495.73242 C 999.32366,383.92624 959.58277,272.91172 889.13086,186.07422 796.64114,62.213311 648.46624,1.6797641 500.18164,2.0800781 Z M 489.99219,405.4082 c 2.76427,-0.11056 4.49057,3.17751 1.47461,6.92774 -0.065,0.0808 -0.0466,0.0575 -0.0977,0.12109 0.0523,0.41916 0.082,0.86456 0.0703,1.35156 -0.0777,3.23131 -0.98638,6.32871 -1.68164,9.45703 -0.17902,0.80555 -0.27334,1.63172 -0.51758,2.41993 -0.31529,1.0175 -0.78745,1.98112 -1.15625,2.98047 -0.46872,1.27009 -0.90502,2.55213 -1.35742,3.82812 l -0.82226,3.49024 c -0.17639,1.01751 -0.29608,2.04673 -0.5293,3.05273 -0.29722,1.28209 -1.18102,4.04571 -1.84375,6.11328 0.66304,-0.54955 1.32246,-1.10299 1.99023,-1.64648 1.53285,-1.14143 3.06676,-2.28239 4.59961,-3.42383 0.83843,-0.38439 1.68146,-0.75948 2.51953,-1.14453 -0.007,-0.0503 -0.007,-0.10712 0.0215,-0.12305 0.0891,-0.0507 0.27064,-0.11579 0.42383,-0.17969 1.96823,-1.97817 3.40134,-4.4588 5.18359,-6.58203 1.4064,-1.67547 2.90901,-2.37921 4.17188,-2.39453 2.7783,-0.0337 4.39393,3.26988 1.25976,6.92187 -2.05144,2.39038 -4.64277,7.20225 -7.65234,8.44141 -2.35343,0.969 -2.34384,-0.44934 -2.14258,1.03125 -1.38397,1.03881 -2.7878,2.0505 -4.15039,3.11719 -1.3752,1.07654 -2.67137,2.25212 -4.06055,3.31055 -1.51376,1.15335 -3.09482,2.21574 -4.64453,3.32031 -0.32068,0.22856 -0.45926,0.32344 -0.73242,0.51953 -0.42638,1.55539 -0.91966,3.35632 -1.11524,4.06836 -2.13409,9.64483 -4.83038,19.15337 -8.0664,28.48633 -0.6511,1.87784 -1.41691,3.71331 -2.09375,5.58203 -1.37284,3.7903 -2.70463,7.59674 -4.05664,11.39453 -1.74836,5.62911 -3.99583,11.08755 -5.83985,16.68359 -0.35414,1.07472 -0.45769,2.22109 -0.82031,3.29297 -0.2317,0.68486 -0.61903,1.45486 -0.9414,2.12305 -0.16918,1.51592 -0.84664,2.8655 -1.91211,3.96094 -4.88064,5.0179 -0.0384,-10.44128 -4.73633,-5.25196 -0.0702,0.0776 -0.13874,0.1567 -0.20899,0.23438 -0.0783,0.38517 -0.26815,1.53247 -0.29882,1.14062 -0.073,-0.9324 0.51178,-2.3461 0.80078,-3.18554 0.16981,-0.34503 0.28214,-0.72692 0.50781,-1.03711 0.26029,-1.21979 0.73158,-2.99011 0.94141,-3.62891 1.84082,-5.60458 4.10632,-11.06615 5.84765,-16.70508 1.36593,-3.83584 2.71019,-7.67776 4.09766,-11.50586 0.64081,-1.76803 1.37019,-3.50447 1.98633,-5.28125 2.8615,-8.25166 5.29117,-16.6427 7.28125,-25.14453 -0.23332,0.11596 -0.46727,0.2311 -0.69922,0.34961 -4.76502,2.13877 -9.82791,3.6791 -14.96485,4.60352 -0.79856,-0.22483 -1.63779,0.35587 -2.46484,0.50195 -0.51081,0.31004 -1.00884,0.73191 -1.56641,0.63086 -1.43818,-0.26066 -2.63947,-1.25809 -3.95898,-1.88672 -0.003,-0.0124 -0.007,-0.0247 -0.01,-0.0371 -0.67096,0.93916 -1.39797,1.8394 -2.03125,2.80469 -0.69143,1.05391 -1.26312,2.1831 -1.91211,3.26367 -2.41894,4.02751 -1.01345,1.33273 -2.84765,5.11719 -0.42158,1.44504 -1.47421,2.46457 -2.29492,3.6543 -0.58403,0.8466 0.16945,0.48604 -1.02735,1.64648 -0.56293,0.54583 -1.24947,0.94517 -1.875,1.41797 -1.51641,-1.74234 -3.74047,-3.06354 -4.55078,-5.22656 -0.3827,-1.02157 1.00163,-1.93882 1.50195,-2.90821 0.45373,-0.87909 0.85721,-1.78748 1.36133,-2.63867 1.97569,-3.33593 4.2993,-6.50463 6.49219,-9.69922 0.64234,-0.94202 1.31287,-1.866 1.92773,-2.82617 -0.42076,0.17987 -0.83792,0.36833 -1.26171,0.54102 -3.98164,1.62244 -2.29157,0.88298 -6.16211,2.06054 -0.41325,0.12573 -0.80367,0.31913 -1.22071,0.43164 -0.11433,0.0309 -0.51042,0.10601 -0.84375,0.16992 l 0.006,0.006 c -1.01381,0.18398 -0.5718,0.10301 -0.006,-0.006 -1.39369,-1.91678 -3.3095,-3.54895 -4.17773,-5.7539 -0.24887,-0.63201 0.80301,-1.10386 1.29492,-1.57227 1.38314,-1.31705 3.00414,-2.36211 4.47852,-3.57617 4.07956,-3.35927 -0.67507,0.39502 3.58007,-2.92383 2.56588,-1.61098 5.2002,-3.07758 7.85547,-4.52539 1.92262,-1.38429 4.17988,-2.19109 6.17383,-3.45898 0.28168,-0.17911 0.54836,-0.3811 0.8125,-0.58594 0.56865,-1.19562 1.11654,-2.40213 1.60352,-3.63867 0.3777,-0.81439 0.77759,-1.61892 1.13281,-2.44336 0.31905,-0.74051 0.54677,-1.51976 0.88867,-2.25 0.21242,-0.45367 0.50505,-0.86559 0.76953,-1.29102 0.0842,-0.13544 0.22637,-0.23885 0.27539,-0.39062 0.67894,-2.10215 0.9791,-4.3155 1.73242,-6.39649 2.38271,-6.582 9.46753,-4.97984 6.90235,1.53321 -0.51412,1.30537 -0.79714,2.6809 -1.10352,4.04883 0.90573,-0.94058 1.82115,-1.87309 2.72657,-2.81446 0.002,-0.01 0.004,-0.0195 0.006,-0.0293 0.67858,-2.2543 0.11959,-0.71405 0.7539,-0.76368 1.04214,-1.10101 2.0753,-2.2102 3.10742,-3.32031 -0.25835,0.0167 -1.44144,0.78216 -2.08398,1.11133 -0.0101,0.0119 -0.0213,0.0232 -0.0312,0.0352 -0.0313,0.0372 -0.17691,0.0771 -0.13281,0.0566 0.0385,-0.0179 0.1194,-0.0689 0.16406,-0.0918 0.30985,-0.36561 0.64641,-0.7209 0.87305,-1.14258 0.51631,-0.96073 0.88911,-1.9905 1.33398,-2.98633 1.24914,-2.79616 3.21418,-3.89665 4.79297,-3.71289 0.31194,0.0363 0.60565,0.12838 0.8789,0.26172 0.74181,-0.86703 1.48008,-1.73742 2.21485,-2.60937 0.40103,-0.47592 0.7445,-1.00083 1.16992,-1.45508 2.3627,-2.2619 1.27346,-1.1548 3.2832,-3.30274 1.20209,-1.35655 0.76849,-0.80869 1.36914,-1.58593 1.33761,-1.73088 2.80797,-2.48295 4.06446,-2.53321 z m 3.09375,33.22461 c -0.0578,0.0581 -0.1131,0.11858 -0.17188,0.17578 0.30442,-0.14189 0.61148,-0.27792 0.91211,-0.42773 0.2783,-0.13869 -0.27538,0.0581 -0.74023,0.25195 z m -0.17188,0.17578 c -0.0911,0.0425 -0.18208,0.085 -0.27344,0.12696 0.009,0.0599 0.0326,0.11217 0.0605,0.0859 0.0735,-0.0686 0.14091,-0.14283 0.21289,-0.21289 z m -10.11523,-16.77734 c -0.75628,0.88612 -1.51217,1.7722 -2.26367,2.66211 -1.98381,2.09889 -3.94111,4.2241 -5.92188,6.32617 -0.64627,1.78511 -1.76517,2.76048 -2.91406,3.02149 -0.63662,0.64645 -1.27216,1.29517 -1.88867,1.96093 -1.14403,1.23541 -2.23409,2.51653 -3.3086,3.81055 1.42887,0.78584 2.71867,1.86402 3.64649,3.16211 0.12296,-0.33643 0.2419,-0.67411 0.375,-1.00586 -0.12284,0.33228 -0.10138,0.96042 -0.24414,1.25195 0.0873,0.29326 -0.19035,0.55732 -0.57618,0.81055 -0.0403,0.0853 -0.0693,0.1761 -0.11328,0.25977 -0.13806,0.26293 -1.29716,1.32066 -1.48242,1.46484 -0.19405,0.151 -0.46318,0.20494 -0.63086,0.38476 -0.39947,0.42846 -0.70308,0.93642 -1.04492,1.41211 -0.4345,0.60463 -0.8551,1.21894 -1.2832,1.82813 -0.96626,1.2214 -1.05135,1.38568 -2.26172,2.61133 -0.0177,0.0179 -0.0183,-0.0469 -0.0273,-0.0703 -0.27515,0.30122 -0.5491,0.60305 -0.82422,0.90429 -0.53596,0.66658 -1.0468,1.3544 -1.54883,2.04688 -0.6497,0.89617 -1.27042,1.81269 -1.90625,2.71875 -0.28856,0.4135 -0.59654,0.88451 -0.91602,1.36718 3.46806,-0.79981 6.86747,-1.9755 10.12696,-3.36914 2.7179,-1.37015 3.47135,-1.65756 6.07812,-3.36523 0.10138,-0.0664 0.19833,-0.13929 0.29883,-0.20703 0.72304,-2.61825 1.47301,-5.30233 1.94726,-6.88281 0.73508,-2.44966 1.72249,-4.82958 2.29493,-7.32227 0.26433,-1.15099 0.41445,-2.32554 0.62109,-3.48828 0.34455,-1.39991 0.68864,-2.7993 1.0332,-4.19922 0.49041,-1.37566 0.94972,-2.76258 1.47071,-4.12695 0.23299,-0.61017 0.59868,-1.16879 0.79101,-1.79297 0.2184,-0.70881 0.32863,-1.44554 0.47266,-2.17383 z M 470.2793,443.2207 c -0.0132,-0.0442 -0.0134,-0.0872 -0.0449,-0.13281 -0.0268,-0.0388 -0.0585,-0.0748 -0.0859,-0.11328 -0.0483,0.13222 -0.10752,0.25949 -0.15821,0.39062 0.005,0.002 0.009,0.004 0.0137,0.006 0.13779,0.0437 0.21713,-0.0314 0.27539,-0.15039 z m -50.4375,126.85157 c 0.68051,0.0234 1.36231,0.008 2.04297,0.006 0.57809,-0.0215 1.15191,0.0732 1.7207,0.16211 0.0979,0.0153 0.19638,0.0207 0.29297,0.043 0.13137,0.0303 0.25935,0.0752 0.38867,0.11328 0.1421,0.0739 0.43846,0.21598 0.5918,0.32813 0.0555,0.0406 0.0996,0.0951 0.15429,0.13672 0.0298,0.0227 0.0651,0.0382 0.0977,0.0566 0.057,0.0386 0.11832,0.072 0.17187,0.11523 0.10725,0.0867 0.20707,0.18229 0.31055,0.27344 0.21419,0.19317 0.39719,0.41633 0.60352,0.61719 0.0925,0.0901 0.19977,0.16648 0.28906,0.25976 0.70341,0.73477 -0.10321,-0.0593 0.40234,0.53125 0.0577,0.0674 0.13202,0.11963 0.19727,0.17969 0.26578,0.25635 0.50105,0.54337 0.77148,0.79492 0.0832,0.0774 0.17763,0.14434 0.26172,0.22071 0.18489,0.1679 0.27635,0.27576 0.44336,0.45898 0.0656,0.11302 0.18428,0.18948 0.26172,0.29297 0.0441,0.0589 0.0795,0.12381 0.125,0.18164 0.004,0.006 -0.003,-0.0142 0.002,-0.0195 0.006,-0.007 0.0168,-0.007 0.0254,-0.01 0.26043,0.18274 0.15176,0.0892 0.33203,0.38477 0.006,0.006 0.0121,0.0114 0.0176,0.0176 0.003,0.003 0.002,0.0157 0,0.0117 -0.0125,-0.0199 -0.007,-0.0123 -0.0176,-0.0293 -0.05,-0.0548 -0.10317,-0.10832 -0.15429,-0.16211 -0.60281,-0.63422 0.19815,1.39279 -0.42188,0.77539 -0.0639,-0.0636 -0.13477,-0.12123 -0.1914,-0.19141 -0.0128,-0.0159 -0.0128,-0.03 -0.0273,-0.0547 -0.0571,-0.0296 -0.11526,-0.0567 -0.16601,-0.0957 -0.0592,-0.0455 -0.10158,-0.10934 -0.15235,-0.16406 4.9e-4,-0.007 0.007,-0.0161 0.002,-0.0215 -0.0864,-0.11366 -0.21384,-0.20042 -0.29102,-0.32227 -0.11976,-0.13252 -0.229,-0.26044 -0.36133,-0.38086 -0.10388,-0.0945 -0.21556,-0.17773 -0.31836,-0.27344 -0.26653,-0.24814 -0.50026,-0.53182 -0.76171,-0.78515 -0.10358,-0.10648 -0.2135,-0.20592 -0.31055,-0.31836 -0.26254,-0.30418 0.0633,-0.0313 -0.25977,-0.36524 -0.10476,-0.1083 -0.22791,-0.19964 -0.33594,-0.30468 -0.19066,-0.18539 -0.36046,-0.39028 -0.55664,-0.57032 -0.0717,-0.0663 -0.13925,-0.1374 -0.21484,-0.19922 -0.051,-0.0417 -0.10991,-0.0738 -0.16406,-0.11132 -0.2061,-0.14275 -0.38705,-0.29967 -0.61719,-0.41211 -0.37566,-0.12414 -0.1405,-0.0642 -0.56445,-0.13086 -0.39555,-0.0622 -0.79264,-0.12935 -1.19336,-0.15039 -0.12665,-0.007 -0.25404,6e-5 -0.38086,0 -0.68723,0.002 -1.37542,0.0182 -2.0625,-0.006 -0.58171,-0.0113 -1.16247,-0.0246 -1.74414,0 -0.42146,0.0179 -0.66522,0.0542 -1.08594,0.082 -0.0974,0.006 -0.19346,0.006 -0.29102,0.01 -0.33865,0.0198 -0.7682,0.0467 -1.0957,0.0547 -0.23668,0.006 -0.47236,-0.004 -0.70898,0.004 -0.73531,0.0247 -1.46539,0.13406 -2.19922,0.17969 -2.56544,0.15466 -5.12469,0.39178 -7.67383,0.7207 -0.50932,0.0703 -1.01679,0.15018 -1.52734,0.21094 -0.69782,0.083 -1.39917,0.14346 -2.09766,0.2207 -1.52831,0.16901 -3.05364,0.36045 -4.57812,0.56055 -0.65211,0.0698 -1.30803,0.13645 -1.95704,0.23242 -0.18301,0.0271 -0.36297,0.0756 -0.54687,0.0957 -0.3108,0.0341 -0.62698,-0.004 -0.93555,0.0625 -0.85532,0.1845 -0.96639,-0.70051 -0.10937,-0.87695 v 0.002 c 0.33281,-0.0685 0.67272,-0.0343 1.00781,-0.0703 0.14359,-0.0154 0.28301,-0.0603 0.42578,-0.082 0.66956,-0.10195 1.34837,-0.16803 2.02149,-0.24024 1.52149,-0.20008 3.04494,-0.39185 4.57031,-0.56054 0.70201,-0.0776 1.40412,-0.13728 2.10547,-0.22071 0.50101,-0.0596 1.00022,-0.13787 1.5,-0.20703 2.57164,-0.33213 5.15409,-0.57226 7.74218,-0.72851 0.73245,-0.0471 1.46129,-0.15438 2.19532,-0.17969 0.25356,-0.009 0.50613,3.3e-4 0.75976,-0.006 0.29568,-0.007 0.73773,-0.0345 1.04883,-0.0527 0.10342,-0.004 0.20727,-0.005 0.31055,-0.0117 0.48721,-0.0322 0.55894,-0.0586 1.06054,-0.0801 0.6074,-0.0261 1.21288,-0.0136 1.82032,-0.002 z"
         inkscape:connector-curvature="0" />
    </g>
    <g
       inkscape:groupmode="layer"
       id="layer40"
       inkscape:label="ear"
       style="display:inline">
      <g
         style="display:inline"
         id="g2184"
         transform="translate(222.69563,81.64319)">
        <path
           id="path2123"
           d="m 99.05155,152.93788 v 0 c 27.03,-54.113 82.335,-88.294 142.831,-88.276 h 16.066 c 58.227,0.018 111.837,31.709 139.917,82.714 v 0 c 31.815,57.918 29.643,128.547 -5.65,184.408 l -128.441,203.035 c -16.296,26.086 -44.897,41.905 -75.652,41.843 v 0 c -49.196,0 -89.07,-39.874 -89.07,-89.07 v -334.654 z"
           style="fill:#fec9a3"
           inkscape:connector-curvature="0" />
        <path
           id="path2125"
           d="m 184.23755,320.66188 v -27.454 c 0,-10.655 -4.22,-20.877 -11.741,-28.425 v 0 c -19.747,-19.906 -26.58,-49.249 -17.655,-75.829 v 0 c 12.429,-37.244 47.245,-62.393 86.51,-62.499 v 0 c 40.942,0.009 78.574,22.484 97.986,58.527 v 0 c 18.785,34.825 17.682,77.003 -2.913,110.786 l -62.852,103.194 c -17.073,28.134 -47.598,45.303 -80.508,45.286 v 0 c -4.873,0 -8.828,-3.955 -8.828,-8.828 z"
           style="fill:#f7bb8f"
           inkscape:connector-curvature="0" />
        <path
           id="path2127"
           d="m 260.77355,184.27588 c 17.143,29.908 17.143,66.666 0,96.574 l -40.43,70.621 c -2.419,4.228 -0.962,9.622 3.275,12.05 0.026,0.018 0.053,0.035 0.079,0.044 1.315,0.75 2.807,1.139 4.326,1.148 3.169,0.009 6.1,-1.668 7.68,-4.414 l 40.43,-70.621 c 20.162,-35.487 19.968,-79.016 -0.53,-114.317 -10.152,-17.655 -32.486,-35.31 -53.937,-46.786 -8.051,1.748 -15.828,4.564 -23.128,8.386 22.246,9.003 51.288,28.6 62.235,47.315 z"
           style="fill:#e8a779"
           inkscape:connector-curvature="0" />
        <g
           id="g2129" />
        <g
           id="g2131" />
        <g
           id="g2133" />
        <g
           id="g2135" />
        <g
           id="g2137" />
        <g
           id="g2139" />
        <g
           id="g2141" />
        <g
           id="g2143" />
        <g
           id="g2145" />
        <g
           id="g2147" />
        <g
           id="g2149" />
        <g
           id="g2151" />
        <g
           id="g2153" />
        <g
           id="g2155" />
        <g
           id="g2157" />
      </g>
    </g>
    <g
       inkscape:label="hand Kopie"
       id="g2407"
       inkscape:groupmode="layer">
      <g
         transform="translate(251.87959,334.05661)"
         id="g2405"
         style="display:inline">
        <path
           inkscape:connector-curvature="0"
           style="fill:#e8c842"
           d="m 243.16106,143.0623 39.601,35.999 -0.073,0.613 c 26.289,17.558 57.566,62.279 63.525,74.718 l 0.206,0.432 c -3.74,-52.339 -18.765,-98.775 -34.089,-128.25 -44.225,-38.04 -23.074,-19.847 -29.036,-24.975 -12.547,-10.758 -31.413,-9.416 -42.312,3.008 v 0 c -9.879,11.266 -8.911,28.373 2.178,38.455 z"
           id="path2361" />
        <path
           inkscape:connector-curvature="0"
           style="fill:#dbbc3b"
           d="m 299.12506,156.8133 -39.566,-36.306 c -6.735,-6.123 -9.729,-14.837 -8.834,-23.26 -3.61,1.711 -6.938,4.166 -9.738,7.358 v 0 c -9.882,11.267 -8.915,28.374 2.174,38.456 l 39.601,35.999 -0.073,0.613 c 26.289,17.558 57.566,62.279 63.525,74.718 l 0.206,0.432 c -1.532,-21.435 -4.958,-41.876 -9.521,-60.571 -11.522,-14.383 -25.211,-29.048 -37.774,-37.439 z"
           id="path2363" />
        <path
           inkscape:connector-curvature="0"
           style="fill:#f4d44e"
           d="m 434.05206,266.6003 c 0,0 -15.298,-127.278 -86.1,-203.414 -11.446,-12.309 -30.305,-14.073 -43.801,-4.053 v 0 c -13.085,9.716 -16.419,27.9 -7.613,41.614 17.141,26.695 41.9,75.234 48.169,139.9 0.286,6.702 -3.07,1.35 -3.07,1.35 l -0.007,0.006 c -28.651,-44.415 -61.199,-67.195 -81.558,-75.647 -4.535,-1.883 -9.51,-2.408 -14.357,-1.621 -17.224,2.794 -64.728,10.984 -88.774,35.029 -30.283,30.283 -1.653,57.283 19.837,57.283 14.204,0 38.517,-9.627 53.372,-16.155 7.643,-3.359 16.583,-1.203 21.874,5.255 l 27.736,33.858 c 3.811,4.653 5.992,10.428 6.204,16.44 l 2.138,60.385 c 0.174,4.93 -1.879,9.676 -5.591,12.924 l -21.595,18.898 c -8.474,8.851 -22.123,10.23 -32.197,3.253 -4.376,-3.83 -16.65,-8.118 -19.451,-22.745 -6.044,-31.55 -14.779,-58.399 -15.659,-60.426 -9.984,-22.999 -29.385,-37.82 -53.628,-28.836 -36.142,13.393 -7.081,35.138 -3.096,125.224 0.581,13.138 5.731,25.049 13.89,34.197 17.748,19.899 31.1,39.169 59.187,76.573 2.833,3.799 5.238,7.9 7.172,12.228 v 0 c 3.194,7.146 2.754,13.274 2.799,13.729 0,12.59 10.206,22.796 22.796,22.796 h 132.07 c 11.72,0 21.221,-9.501 21.221,-21.221 1.224,-49.917 -3.383,-61.637 5.681,-78.686 5.211,-9.808 9.284,-20.168 12.635,-30.757 3.352,-10.596 7.748,-21.867 12.106,-34.262 24.884,-70.781 7.937,-129.137 7.61,-133.119 z"
           id="path2365" />
        <g
           id="g2373">
          <path
             inkscape:connector-curvature="0"
             style="fill:#e8c842"
             d="m 251.05706,541.8843 c -0.047,-0.474 0.412,-6.874 -2.924,-14.337 v 0 c -2.02,-4.519 -4.532,-8.801 -7.491,-12.769 -29.331,-39.06 -43.275,-59.184 -61.809,-79.964 -8.52,-9.553 -13.899,-21.992 -14.505,-35.712 -3.402,-76.893 -24.288,-106.104 -11.2,-121.848 -4.19,0.108 -8.583,0.954 -13.147,2.645 -36.142,13.393 -7.081,35.138 -3.096,125.224 0.581,13.138 5.731,25.049 13.89,34.197 17.748,19.899 31.1,39.169 59.187,76.573 2.833,3.799 5.238,7.9 7.172,12.228 v 0 c 3.194,7.146 2.754,13.274 2.799,13.729 0,12.59 10.206,22.796 22.796,22.796 h 25.137 c -9.732,-2.991 -16.809,-12.049 -16.809,-22.762 z"
             id="path2367" />
          <path
             inkscape:connector-curvature="0"
             style="fill:#e8c842"
             d="m 320.01106,285.6113 c -0.222,-6.277 -2.498,-12.309 -6.479,-17.169 l -28.966,-35.358 c -5.525,-6.744 -14.861,-8.996 -22.843,-5.488 -15.512,6.817 -40.904,16.871 -55.736,16.871 -26.363,0 -54.963,-34.461 -13.327,-66.239 -13.35,5.178 -26.326,12.143 -35.721,21.537 -30.283,30.283 -1.653,57.283 19.837,57.283 14.204,0 38.517,-9.627 53.372,-16.155 7.643,-3.359 16.583,-1.203 21.874,5.255 l 27.736,33.858 c 3.811,4.653 5.992,10.428 6.204,16.44 2.05,62.734 3.03,62.551 0.639,67.8 -2.031,4.425 -3.368,4.827 -23.689,22.658 v 0 c -2.142,1.56 -7.263,8.596 -18.292,9.356 l -0.001,0.017 c 0,0 22.08,4.43 43.047,-9.629 2.748,-1.522 -0.155,0.86 28.738,-24.482 3.877,-3.393 6.021,-8.349 5.838,-13.496 z"
             id="path2369" />
          <path
             inkscape:connector-curvature="0"
             style="fill:#e8c842"
             d="m 379.40406,211.3923 c -8.714,-59.574 -31.89,-104.514 -48.351,-130.15 -5.608,-8.733 -6.493,-19.201 -3.237,-28.342 -8.139,-1.005 -16.63,1.009 -23.664,6.232 v 0 c -13.085,9.716 -16.419,27.9 -7.613,41.614 25.405,39.563 43.167,88.306 48.169,139.9 0.078,1.839 -0.118,2.765 -0.443,3.149 39.569,0.002 35.139,-32.403 35.139,-32.403 z"
             id="path2371" />
        </g>
        <g
           id="g2375" />
        <g
           id="g2377" />
        <g
           id="g2379" />
        <g
           id="g2381" />
        <g
           id="g2383" />
        <g
           id="g2385" />
        <g
           id="g2387" />
        <g
           id="g2389" />
        <g
           id="g2391" />
        <g
           id="g2393" />
        <g
           id="g2395" />
        <g
           id="g2397" />
        <g
           id="g2399" />
        <g
           id="g2401" />
        <g
           id="g2403" />
      </g>
      <path
         style="fill:#fec9a3;fill-opacity:1;stroke:#fec9a3;stroke-width:1px;stroke-linecap:butt;stroke-linejoin:miter;stroke-opacity:1"
         d="m 372.95807,645.52433 c 1.32582,2.2981 1.94454,5.48008 2.74004,5.65686 0.79549,0.17678 3.88908,0.88388 3.88908,0.88388 0,0 2.65165,0.26517 3.35876,0.53033 0.70711,0.26517 4.15425,0.70711 4.86136,0.7955 0.70711,0.0884 6.54074,0.35355 7.68979,0.44194 1.14904,0.0884 8.3085,0.53033 8.75044,0.53033 0.44194,0 3.18198,0.0884 5.12653,0.17678 1.94454,0.0884 8.39689,0.17677 9.72271,0.0884 1.32583,-0.0884 9.63433,-0.79549 10.78338,-0.88388 1.14905,-0.0884 7.6014,-0.79549 8.57367,-0.88388 0.97227,-0.0884 9.63433,-2.38649 9.63433,-2.38649 l 3.53554,-1.76777 c 0,0 1.59099,-4.59619 1.59099,-5.12652 0,-0.53033 -3.09359,-9.54594 -6.62913,-14.05375 -3.53553,-4.5078 -9.36916,-16.52862 -11.75565,-17.58928 -2.38648,-1.06066 -18.11961,-6.45235 -25.0139,-8.13173 -6.89429,-1.67937 -12.10921,0.26517 -16.08668,1.32583 -3.97748,1.06066 -7.07107,0.97227 -11.57887,4.94975 -4.50781,3.97747 -6.71752,5.83363 -7.51301,8.66206 -0.7955,2.82842 -1.41422,4.33102 -1.67938,6.89429 -0.26517,2.56326 -0.35356,-1.06066 -0.35356,5.92202 0,6.98267 0.35356,13.96535 0.35356,13.96535 z"
         id="path2566"
         inkscape:connector-curvature="0" />
    </g>
  </g>
</svg>
