<?xml version="1.0" encoding="UTF-8" standalone="no"?>
<!-- Created with Inkscape (http://www.inkscape.org/) -->

<svg
   xmlns:dc="http://purl.org/dc/elements/1.1/"
   xmlns:cc="http://creativecommons.org/ns#"
   xmlns:rdf="http://www.w3.org/1999/02/22-rdf-syntax-ns#"
   xmlns:svg="http://www.w3.org/2000/svg"
   xmlns="http://www.w3.org/2000/svg"
   xmlns:sodipodi="http://sodipodi.sourceforge.net/DTD/sodipodi-0.dtd"
   xmlns:inkscape="http://www.inkscape.org/namespaces/inkscape"
   height="1000"
   width="1000"
   sodipodi:docname="bild16.svg"
   version="1.1"
   id="svg4946"
   inkscape:version="0.92.2 (5c3e80d, 2017-08-06)">
  <sodipodi:namedview
     id="base"
     pagecolor="#ffffff"
     bordercolor="#666666"
     borderopacity="1.0"
     inkscape:pageopacity="0.0"
     inkscape:pageshadow="2"
     inkscape:zoom="0.35355339"
     inkscape:cx="551.46752"
     inkscape:cy="651.031"
     inkscape:document-units="px"
     inkscape:current-layer="layer52"
     showgrid="false"
     showguides="true"
     inkscape:window-width="958"
     inkscape:window-height="1008"
     inkscape:window-x="953"
     inkscape:window-y="0"
     inkscape:window-maximized="0"
     showborder="true"
     inkscape:showpageshadow="false"
     inkscape:guide-bbox="true"
     guidetolerance="1"
     inkscape:snap-text-baseline="true"
     objecttolerance="1"
     gridtolerance="1">
    <sodipodi:guide
       position="0,1000"
       orientation="1,0"
       id="guide4948"
       inkscape:locked="false"
       inkscape:label=""
       inkscape:color="rgb(0,0,255)" />
    <sodipodi:guide
       position="1000,938"
       orientation="1,0"
       id="guide4950"
       inkscape:locked="false" />
    <sodipodi:guide
       position="1000,1000"
       orientation="0,1"
       id="guide7104"
       inkscape:locked="false"
       inkscape:label=""
       inkscape:color="rgb(0,0,255)" />
    <sodipodi:guide
       position="0,800"
       orientation="0,1"
       id="guide7108"
       inkscape:locked="false"
       inkscape:label=""
       inkscape:color="rgb(0,0,255)" />
    <sodipodi:guide
       position="0,800"
       orientation="1,0"
       id="guide7110"
       inkscape:locked="false"
       inkscape:label=""
       inkscape:color="rgb(0,0,255)" />
    <sodipodi:guide
       position="200,1000"
       orientation="1,0"
       id="guide7112"
       inkscape:locked="false"
       inkscape:label=""
       inkscape:color="rgb(0,0,255)" />
    <sodipodi:guide
       position="800,800"
       orientation="1,0"
       id="guide7141"
       inkscape:locked="false"
       inkscape:label=""
       inkscape:color="rgb(0,0,255)" />
    <sodipodi:guide
       position="500,500"
       orientation="0,1"
       id="guide7747"
       inkscape:locked="false"
       inkscape:label=""
       inkscape:color="rgb(0,0,255)" />
    <sodipodi:guide
       position="500,500"
       orientation="1,0"
       id="guide7749"
       inkscape:locked="false"
       inkscape:label=""
       inkscape:color="rgb(0,0,255)" />
    <sodipodi:guide
       position="200,800"
       orientation="0,1"
       id="guide7908"
       inkscape:locked="false" />
    <sodipodi:guide
       position="335.16862,480.83261"
       orientation="0,1"
       id="guide2707"
       inkscape:locked="false" />
    <sodipodi:guide
       position="391.73716,294.15642"
       orientation="0,1"
       id="guide2889"
       inkscape:locked="false" />
  </sodipodi:namedview>
  <defs
     id="defs4" />
  <metadata
     id="metadata7">
    <rdf:RDF>
      <cc:Work
         rdf:about="">
        <dc:format>image/svg+xml</dc:format>
        <dc:type
           rdf:resource="http://purl.org/dc/dcmitype/StillImage" />
        <dc:title></dc:title>
      </cc:Work>
    </rdf:RDF>
  </metadata>
  <g
     inkscape:groupmode="layer"
     id="layer51"
     inkscape:label="Reimschwein"
     style="display:inline">
    <g
       id="g3214"
       inkscape:groupmode="layer"
       inkscape:label="Kreis Kopie 4"
       style="display:inline">
      <path
         style="fill:#fd79a8;fill-opacity:1;stroke:#fd79a8;stroke-width:1;stroke-miterlimit:4;stroke-dasharray:none;stroke-opacity:0"
         d="M 1000.0081,496.81482 C 1014.3442,821.00133 661.75733,1083.6881 355.25164,978.67807 41.526678,896.82374 -106.42984,482.72927 84.815905,220.76201 255.78908,-54.9005 695.05439,-73.830678 889.13118,186.07417 959.58309,272.91167 999.32366,383.92652 1000,495.7327"
         id="path3210"
         inkscape:connector-curvature="0" />
      <path
         inkscape:connector-curvature="0"
         id="path3212"
         d="M 457.20608,998.81729 C 424.35565,995.8934 406.86192,992.2483 360.42664,978.65185 300.70791,961.16592 271.38059,948.22437 228.55145,920.45792 107.27777,841.83531 23.961543,704.22255 4.9771333,551.18196 0.03249289,511.3213 2.9546648,428.5596 10.554304,393.22542 23.855442,331.38237 46.884468,279.49649 88.160293,218.37415 160.81387,110.7868 260.10942,43.871944 388.35758,16.072439 481.74866,-4.1713268 572.13384,0.19586998 664.12923,29.39707 c 161.60756,51.297511 286.51093,194.6835 324.56888,372.59707 7.06058,33.00678 7.60174,40.42422 7.64748,104.81687 0.0435,61.33017 -0.66782,72.46948 -6.18838,96.8977 -19.93964,88.23244 -61.85475,166.0343 -124.88852,231.81508 -34.57217,36.07885 -58.90471,56.58226 -96.48766,81.30373 -69.47197,45.69754 -150.55887,74.19774 -233.34524,82.01545 -34.04685,3.21513 -41.84717,3.21253 -78.22971,-0.0255 z M 630.80923,798.34183 c 78.45751,-20.06605 146.55565,-87.25656 198.79195,-196.14235 28.78046,-59.99243 48.52198,-122.4869 60.51075,-191.555 5.32856,-30.69824 7.1969,-49.71399 6.32818,-64.40735 -0.65645,-11.1028 -10.50469,-13.05936 -38.83085,-7.71457 -137.17773,25.88376 -283.26893,-12.50818 -390.58421,-102.64329 -32.65357,-27.42605 -38.57745,-27.00217 -53.19745,3.80658 -5.48667,11.56205 -14.72785,34.98943 -20.53597,52.06083 l -10.56021,31.03894 -24.22251,11.25425 c -30.43274,14.13965 -61.12211,24.20879 -92.6725,30.40568 -30.89642,6.06847 -91.99911,6.62556 -125.97453,1.14857 -33.63008,-5.42131 -34.46887,-4.78774 -33.91862,25.61986 1.379,76.20515 48.05805,194.18091 102.47359,258.98982 47.10766,56.10522 115.96035,80.21372 176.79671,61.90469 l 12.98177,-3.90694 10.14679,13.82267 c 28.12251,38.31053 75.30336,66.77331 128.50789,77.52489 28.21435,5.70155 68.99473,5.17758 93.95922,-1.20728 z"
         style="fill:#fd79a8;fill-opacity:1;stroke:#46d095;stroke-width:2.82842708;stroke-miterlimit:4;stroke-dasharray:none;stroke-opacity:0" />
    </g>
    <g
       inkscape:groupmode="layer"
       id="layer52"
       inkscape:label="schhrift">
      <g
         aria-label="Rhyme"
         transform="rotate(-25,180.6319,537.23261)"
         style="font-style:normal;font-weight:normal;font-size:40px;line-height:1.25;font-family:sans-serif;letter-spacing:0px;word-spacing:0px;fill:#000000;fill-opacity:1;stroke:none"
         id="flowRoot3219">
        <path
           d="m 272.94727,355.77764 q 0,1.875 2.625,5.0625 2.71875,3.09375 8.0625,7.6875 3.46875,2.90625 7.125,5.71875 3.75,2.71875 7.40625,5.53125 1.59375,1.3125 4.125,3.46875 2.53125,2.0625 5.90625,4.875 2.4375,1.875 5.0625,3.75 2.71875,1.875 5.8125,3.75 2.0625,1.59375 4.59375,3.46875 2.53125,1.875 5.8125,4.03125 1.875,1.125 2.90625,4.125 1.03125,2.90625 1.21875,7.59375 l -0.84375,2.4375 -0.9375,0.46875 q -0.9375,0 -2.53125,-0.84375 -1.5,-0.75 -3.84375,-2.25 -0.46875,-0.28125 -4.3125,-2.0625 -3.75,-1.78125 -10.875,-5.0625 -3.9375,-1.6875 -7.21875,-3.75 -3.28125,-2.15625 -6,-4.5 -1.59375,-1.40625 -4.125,-3.09375 -2.4375,-1.6875 -5.8125,-3.65625 -3.46875,-1.96875 -6,-3.75 -2.53125,-1.78125 -4.03125,-3 -5.0625,-4.125 -8.25,-6.28125 -3.1875,-2.15625 -4.40625,-2.15625 -0.9375,1.3125 -1.03125,2.71875 -1.125,4.40625 -2.4375,11.15625 -1.21875,6.65625 -2.71875,15.5625 0,1.59375 -0.5625,2.34375 -0.5625,0.84375 -1.6875,0.84375 -3.65625,0 -5.53125,-1.78125 -1.875,-1.78125 -1.875,-5.34375 0,-4.78125 0.5625,-10.03125 0.65625,-5.25 2.0625,-11.0625 0.46875,-2.53125 0.65625,-4.5 0.28125,-2.0625 0.28125,-3.75 0,-4.3125 -3.75,-7.40625 -3.65625,-3.09375 -3.65625,-4.40625 0,-2.0625 0.5625,-3.5625 0.65625,-1.59375 1.875,-2.53125 3.09375,-1.96875 5.71875,-3.75 0.65625,-0.375 0.84375,-1.21875 0.28125,-0.9375 0.28125,-2.53125 0,-0.9375 0,-1.96875 0,-1.125 0,-2.0625 0.28125,-8.34375 0.46875,-17.34375 0,-0.65625 0,-2.0625 0,-1.40625 -0.1875,-3.65625 -0.1875,-1.6875 -0.0937,-3.09375 0.0937,-1.5 0.0937,-2.71875 -0.5625,-1.875 -1.03125,-3.1875 -0.375,-1.40625 -0.375,-2.625 0,-1.125 0.1875,-3.46875 0.1875,-2.4375 0.1875,-3.46875 0,-1.3125 -0.28125,-3.65625 -0.1875,-2.34375 -0.1875,-3.5625 0,-3.375 1.5,-6.46875 1.59375,-3.09375 4.78125,-6.09375 3.09375,-2.625 6.28125,-3.9375 3.28125,-1.40625 6.65625,-1.40625 1.59375,0 4.6875,0.28125 3.1875,0.1875 4.96875,0.1875 1.21875,0 6.65625,2.0625 2.15625,0.1875 3.84375,0.5625 1.6875,0.28125 2.71875,0.65625 2.34375,1.125 3.65625,1.78125 1.3125,0.5625 1.875,0.65625 1.59375,0.5625 2.71875,0.9375 1.21875,0.375 1.96875,0.9375 1.21875,0.5625 2.8125,1.3125 1.6875,0.75 3.75,1.6875 3.375,1.6875 6.28125,3.9375 3,2.25 5.625,4.875 3,3.375 4.5,6.65625 1.5,3.1875 1.5,6.375 0,0.9375 -0.1875,2.71875 -0.0937,1.6875 -0.46875,3.84375 -0.28125,2.71875 -2.8125,5.90625 -2.53125,3.09375 -7.3125,6.84375 -4.21875,3.28125 -7.875,5.53125 -3.65625,2.15625 -6.75,3.09375 -1.21875,0.84375 -1.875,1.59375 -0.9375,0.9375 -3.9375,2.625 -3,1.6875 -8.15625,4.21875 -9.375,4.59375 -13.3125,6.09375 -3.9375,1.40625 -3.9375,3.09375 z m -9.84375,-45.1875 q 1.78125,-1.3125 3.375,-2.53125 1.59375,-1.3125 4.125,-1.3125 1.125,0 2.71875,2.53125 1.6875,2.4375 1.6875,3.65625 0,0.65625 -0.46875,3 -0.46875,2.34375 -1.5,6.375 -2.15625,9.09375 -2.4375,11.4375 -0.28125,2.25 -1.21875,7.125 -0.375,1.21875 -0.75,3.1875 0,0.84375 0.28125,1.21875 0.375,0.375 0.9375,0.375 18.65625,-9.375 19.3125,-9.75 0.75,-0.1875 1.59375,-0.46875 0.84375,-0.375 1.59375,-0.75 l 1.40625,-1.78125 q 5.4375,-3.46875 11.25,-7.40625 3.65625,-2.8125 5.4375,-5.53125 1.78125,-2.71875 1.78125,-5.4375 0,-3.46875 -4.03125,-6.84375 -4.03125,-3.375 -12.09375,-6.46875 -6.84375,-2.71875 -12.46875,-3.9375 -5.625,-1.3125 -10.21875,-1.3125 -6,0 -9.09375,2.15625 -3,2.0625 -3,6.1875 0,3.1875 0.46875,4.875 0.46875,1.59375 1.3125,1.40625 z"
           style="font-style:normal;font-variant:normal;font-weight:normal;font-stretch:normal;font-size:192px;font-family:Mistral;-inkscape-font-specification:Mistral"
           id="path2516" />
        <path
           d="m 325.91602,380.43389 q 2.0625,-1.78125 3.1875,-2.8125 1.125,-1.03125 1.78125,-1.78125 1.5,-1.40625 2.4375,-2.71875 0.9375,-1.3125 1.03125,-2.34375 0.84375,-3.1875 1.96875,-7.96875 1.125,-4.78125 2.90625,-11.0625 0.84375,-1.875 1.78125,-4.6875 1.03125,-2.90625 2.15625,-6.46875 1.125,-4.6875 2.8125,-8.53125 1.6875,-3.84375 3.75,-6.9375 0.65625,-0.84375 1.3125,-2.0625 0.65625,-1.3125 1.3125,-3 0.65625,-1.5 1.78125,-3.46875 1.21875,-2.0625 2.71875,-4.78125 3.84375,-5.625 6.75,-9.65625 2.90625,-4.03125 4.78125,-6.46875 3.375,-4.03125 6.75,-7.5 3.46875,-3.5625 6.9375,-6.5625 3.1875,-2.71875 5.53125,-3.9375 2.34375,-1.3125 3.75,-1.3125 1.3125,1.125 1.875,2.0625 0.65625,0 1.3125,-0.1875 2.4375,0 3.5625,1.96875 1.125,1.96875 1.125,5.8125 0,0.84375 -0.28125,2.25 -0.28125,1.3125 -0.75,3.28125 -0.65625,0.65625 -0.9375,1.6875 -0.28125,1.03125 -0.46875,2.0625 -0.0937,1.3125 -0.28125,2.25 -0.1875,0.9375 -0.46875,1.6875 -1.21875,2.25 -2.625,5.53125 -1.40625,3.1875 -3,7.5 -0.9375,1.59375 -2.34375,4.21875 -1.40625,2.625 -3.375,5.8125 -0.9375,1.78125 -2.4375,4.5 -1.40625,2.625 -3.65625,6.09375 -0.5625,1.3125 -1.96875,2.90625 -1.3125,1.5 -3.1875,3.5625 -0.5625,1.5 -3.1875,5.15625 -2.53125,3.65625 -7.125,9.46875 -2.25,2.90625 -5.8125,7.21875 -3.5625,4.3125 -8.25,10.21875 -1.78125,7.03125 -2.71875,12.5625 -0.84375,5.4375 -0.84375,9.46875 0,1.59375 0.1875,2.4375 0.28125,0.75 0.9375,0.75 0.46875,-0.65625 1.3125,-1.5 0.9375,-0.84375 1.875,-1.96875 1.78125,-1.59375 4.125,-5.90625 2.4375,-4.3125 5.53125,-11.15625 2.71875,-6.1875 4.875,-9.46875 2.15625,-3.375 3.5625,-4.03125 l 3.28125,-1.40625 q 0.9375,-0.375 1.6875,-0.65625 0.75,-0.28125 1.21875,-0.28125 1.21875,0 2.25,1.5 1.03125,1.5 1.6875,4.125 1.21875,4.78125 1.96875,7.40625 0.75,2.53125 0.84375,3 1.21875,2.8125 2.90625,4.125 1.78125,1.3125 4.21875,1.3125 2.90625,-0.46875 6.84375,-1.3125 0.75,1.875 1.6875,4.03125 1.03125,2.15625 2.0625,4.59375 -2.25,1.5 -4.59375,2.90625 -2.25,1.40625 -4.5,2.8125 -1.5,0.84375 -4.3125,1.3125 -2.8125,0.375 -6.5625,0.375 -5.71875,0 -8.90625,-5.34375 -3.09375,-5.4375 -3.75,-5.34375 h -0.5625 q -1.5,1.875 -3.1875,3.84375 -1.59375,1.96875 -3.1875,4.125 -1.03125,2.15625 -2.90625,4.96875 -1.875,2.8125 -4.5,6.1875 -3.09375,3.75 -5.4375,5.625 -2.34375,1.875 -4.03125,1.875 -3.5625,0 -5.625,-0.84375 -1.96875,-0.75 -2.34375,-2.34375 -1.125,-5.25 -1.78125,-9.09375 -0.5625,-3.9375 -0.5625,-6.65625 0,-0.84375 0.0937,-1.5 0.0937,-0.65625 0.1875,-1.21875 0.28125,-1.21875 0.65625,-2.625 0,-0.46875 -0.28125,-0.65625 -0.1875,-0.28125 -0.75,-0.28125 -0.28125,0.375 -0.75,0.84375 -0.46875,0.46875 -1.3125,1.03125 -0.375,-1.21875 -1.3125,-3.375 -0.9375,-2.15625 -2.4375,-5.25 z m 60.9375,-86.625 q -1.03125,0 -4.125,3.75 -3.09375,3.65625 -7.875,10.875 -2.71875,4.03125 -5.34375,8.0625 -2.625,3.9375 -5.15625,7.78125 -1.125,1.125 -1.6875,2.25 -0.46875,1.125 -0.46875,2.34375 -1.875,5.25 -3.65625,9.84375 -1.6875,4.96875 -2.8125,7.6875 -1.03125,2.71875 -1.21875,3.1875 l 0.46875,0.46875 q 1.875,-1.6875 3.1875,-3.5625 1.875,-2.15625 4.5,-5.53125 2.71875,-3.46875 6.09375,-8.0625 3.375,-4.3125 6.9375,-10.875 3.5625,-6.65625 7.6875,-15.28125 2.34375,-4.6875 3.46875,-7.5 1.21875,-2.8125 1.21875,-3.9375 0,-0.65625 -0.28125,-1.03125 -0.1875,-0.46875 -0.9375,-0.46875 z"
           style="font-style:normal;font-variant:normal;font-weight:normal;font-stretch:normal;font-size:192px;font-family:Mistral;-inkscape-font-specification:Mistral"
           id="path2518" />
        <path
           d="m 394.91602,380.43389 q 2.15625,-2.25 6.5625,-5.4375 4.5,-3.1875 6.65625,-5.25 1.40625,-1.6875 3.65625,-4.03125 2.25,-2.4375 5.34375,-5.71875 1.875,-1.6875 3.65625,-2.625 1.78125,-0.9375 3.5625,-0.9375 2.25,0 3.46875,1.125 1.3125,1.125 1.3125,3.5625 0,3.65625 -2.8125,11.8125 -2.8125,8.15625 -2.8125,12.375 0,0.9375 0.375,1.3125 0.46875,0.375 1.03125,0.375 l 0.46875,-0.0937 q 1.78125,-1.125 4.125,-2.8125 2.4375,-1.78125 5.4375,-4.3125 2.4375,-2.25 6,-5.90625 3.65625,-3.65625 8.53125,-8.4375 1.875,-1.5 4.21875,-3.84375 2.4375,-2.34375 5.4375,-5.625 1.21875,-1.6875 3.375,-2.625 2.25,-0.9375 5.4375,-0.9375 2.15625,0 3.1875,0.84375 1.125,0.75 1.125,2.34375 0,0.65625 -0.1875,1.3125 -0.0937,0.5625 -0.1875,1.125 -0.65625,2.8125 -1.96875,6.9375 -1.3125,4.03125 -3.1875,9.5625 -1.59375,3.46875 -3.375,8.34375 -1.6875,4.78125 -3.65625,10.59375 l 0.65625,0.84375 q 1.96875,-0.9375 5.8125,-4.40625 3.9375,-3.5625 9.84375,-9.46875 l 3.75,8.625 q -0.75,0.75 -1.875,1.875 -1.03125,1.03125 -2.8125,2.25 -10.03125,7.125 -17.25,14.15625 -7.125,6.9375 -11.34375,13.78125 -6.28125,10.3125 -10.5,16.78125 -4.125,6.46875 -6,9.09375 -6.46875,8.53125 -12.28125,12.65625 -5.8125,4.125 -11.34375,4.125 -2.0625,0 -3,-0.84375 -0.9375,-0.84375 -0.9375,-2.625 0,-0.9375 0.46875,-2.34375 0.46875,-1.40625 1.6875,-3 1.78125,-2.53125 3.28125,-5.25 l 2.8125,-2.4375 q 0.375,-1.21875 0.375,-1.6875 0.375,-0.46875 1.03125,-1.125 0.75,-0.65625 1.6875,-1.5 0.65625,-1.6875 3.46875,-5.625 2.90625,-3.84375 8.0625,-9.9375 3.84375,-4.5 7.03125,-8.0625 3.1875,-3.46875 5.4375,-5.90625 0.375,-0.75 0.75,-1.78125 0.46875,-1.03125 0.75,-2.0625 1.21875,-2.4375 2.625,-5.90625 1.5,-3.46875 3.5625,-8.15625 0.9375,-2.71875 1.59375,-6.1875 0.65625,-3.5625 1.21875,-7.6875 -0.1875,-0.375 -0.28125,-0.9375 0,-0.65625 -0.375,-1.78125 -1.6875,0.84375 -3.75,2.53125 -1.96875,1.6875 -4.3125,3.9375 -3.09375,4.03125 -6.28125,6.75 -3.1875,2.625 -6.28125,4.03125 -2.0625,4.03125 -5.34375,6 -3.1875,1.875 -7.40625,1.875 -3.09375,0 -4.6875,-1.40625 -1.59375,-1.5 -1.59375,-4.5 0,-0.5625 0.0937,-1.40625 0.1875,-0.84375 0.46875,-1.96875 -0.375,-0.9375 -0.9375,-2.625 0.375,-1.59375 0.65625,-3.5625 0,-2.8125 -0.46875,-4.21875 -0.375,-1.40625 -1.3125,-1.40625 l -0.375,0.1875 q -1.03125,0.75 -2.90625,2.25 -1.875,1.5 -4.5,3.65625 -0.46875,-1.21875 -1.125,-2.90625 -0.75,-1.6875 -1.5,-3.9375 -0.1875,-0.5625 -0.46875,-1.03125 -0.28125,-0.46875 -0.65625,-0.75 z"
           style="font-style:normal;font-variant:normal;font-weight:normal;font-stretch:normal;font-size:192px;font-family:Mistral;-inkscape-font-specification:Mistral"
           id="path2520" />
        <path
           d="m 475.91602,380.43389 q 0.5625,-0.65625 1.3125,-1.6875 0.75,-1.125 1.6875,-2.4375 4.125,-5.15625 7.96875,-9.1875 3.9375,-4.125 7.40625,-7.3125 1.78125,-1.6875 4.3125,-4.3125 2.53125,-2.71875 5.90625,-6.1875 3.375,-1.3125 7.40625,-3 2.53125,0 3.75,1.6875 1.21875,1.59375 1.21875,4.6875 0,2.625 -0.46875,5.71875 -0.375,3 -1.125,6.1875 -0.84375,2.53125 -1.40625,4.875 0,0.65625 0.28125,1.03125 0.28125,0.28125 0.9375,0.28125 1.40625,-0.65625 5.4375,-4.6875 4.03125,-4.03125 10.59375,-11.25 5.625,-6.1875 9.84375,-9.1875 4.21875,-3.09375 6.75,-3.09375 2.71875,0 3.9375,2.0625 1.3125,1.96875 1.3125,5.90625 0,5.71875 -0.84375,11.0625 -0.84375,5.25 -2.90625,10.125 -0.375,0.9375 -0.46875,1.59375 -0.0937,0.65625 -0.0937,1.21875 0,0.65625 1.125,1.21875 0.75,-0.65625 1.6875,-1.875 1.03125,-1.21875 2.34375,-3.09375 2.15625,-1.78125 4.3125,-3.5625 2.15625,-1.78125 4.6875,-3.65625 2.625,-2.0625 5.34375,-3.09375 2.71875,-1.125 5.34375,-1.125 0.46875,0 0.9375,0.28125 0.46875,0.28125 0.9375,0.65625 2.15625,1.875 3.5625,3.46875 1.40625,1.5 1.96875,2.625 3.65625,7.5 6.46875,11.25 2.90625,3.65625 5.0625,3.65625 0.46875,0 0.9375,-0.1875 0.46875,-0.28125 0.9375,-0.65625 2.15625,4.59375 3.65625,8.625 -3.375,2.625 -6,4.03125 -2.625,1.3125 -4.59375,1.3125 -6.46875,0 -13.40625,-8.34375 -6.84375,-8.4375 -10.5,-8.4375 -4.875,0 -16.21875,14.4375 -11.34375,14.34375 -14.15625,14.34375 -1.40625,0 -3.75,-0.28125 -0.75,-0.28125 -1.125,-1.125 -0.375,-0.9375 -0.375,-2.15625 0,-1.40625 0.5625,-3.65625 0.5625,-2.34375 1.5,-5.4375 1.21875,-3.9375 1.96875,-6.28125 0.75,-2.34375 0.84375,-3.28125 0.28125,-1.21875 0.75,-4.78125 0.5625,-3.5625 1.40625,-9.46875 0,-1.03125 -0.5625,-1.59375 -0.5625,-0.5625 -1.3125,-0.5625 -0.65625,0 -1.5,0.46875 -0.75,0.375 -1.78125,1.3125 -1.125,1.21875 -2.53125,2.4375 -1.3125,1.21875 -4.3125,3.46875 -3.28125,3.75 -6.75,7.6875 -3.375,3.84375 -6.9375,7.78125 -5.625,6.5625 -9,9.75 -3.28125,3.09375 -4.21875,3.09375 -2.8125,0 -4.3125,-0.65625 -1.40625,-0.65625 -1.40625,-1.96875 0,-3.09375 3.28125,-12.84375 3.375,-9.84375 3.375,-13.875 0,-0.65625 -0.46875,-1.03125 -0.375,-0.46875 -1.03125,-0.46875 -1.125,0 -2.71875,1.3125 -1.5,1.21875 -3.46875,3.9375 -1.3125,1.5 -3.1875,3.46875 -1.875,1.96875 -4.59375,4.59375 -0.28125,0.75 -0.75,1.5 -0.46875,0.65625 -1.03125,1.3125 -0.375,-1.40625 -1.3125,-3.46875 -0.9375,-2.0625 -2.4375,-5.15625 z"
           style="font-style:normal;font-variant:normal;font-weight:normal;font-stretch:normal;font-size:192px;font-family:Mistral;-inkscape-font-specification:Mistral"
           id="path2522" />
        <path
           d="m 594.41602,380.43389 q 1.125,-1.96875 2.90625,-3.9375 1.78125,-2.0625 4.5,-4.21875 0.28125,-1.875 0.5625,-3.65625 0.28125,-1.875 0.375,-3.75 0.28125,-1.3125 0.84375,-3.09375 0.65625,-1.78125 1.40625,-3.84375 0.84375,-2.0625 2.25,-5.15625 1.5,-3.09375 3.84375,-6.9375 1.96875,-2.15625 4.125,-4.6875 2.15625,-2.625 4.3125,-5.25 1.03125,-0.84375 2.25,-1.59375 1.21875,-0.75 2.4375,-1.6875 1.125,-0.375 2.53125,-0.65625 1.40625,-0.28125 3.09375,-0.28125 2.34375,0 3.75,0.46875 1.5,0.46875 2.4375,1.59375 0.65625,0.75 1.21875,2.25 0.65625,1.5 1.21875,3.65625 0.28125,1.875 0.65625,4.125 0,-0.5625 -0.375,0.46875 -0.28125,1.03125 -0.9375,3.28125 l -0.84375,3 q -1.3125,4.5 -5.90625,10.40625 -4.59375,5.90625 -12.375,13.5 -0.65625,0.65625 -1.125,1.6875 -0.46875,0.9375 -0.46875,2.0625 0,1.96875 0.65625,3.46875 0.75,1.5 2.0625,2.25 0.75,0.5625 2.34375,1.125 1.6875,0.5625 3.9375,1.03125 3.65625,-0.28125 6.65625,-1.21875 3,-0.9375 5.34375,-2.25 0.46875,-0.28125 1.5,-0.75 1.03125,-0.5625 2.0625,-1.40625 1.21875,2.71875 2.15625,4.875 0.9375,2.15625 1.5,3.75 -5.34375,5.25 -9.75,7.96875 -4.3125,2.625 -7.96875,2.625 -1.5,0.9375 -3.46875,1.40625 -1.875,0.375 -4.5,0.375 -3.46875,0 -6.1875,-1.03125 -2.625,-1.03125 -4.40625,-3 -0.9375,-0.9375 -1.875,-2.71875 -0.9375,-1.875 -1.96875,-4.40625 -0.84375,-2.0625 -1.59375,-3 -0.75,-1.03125 -1.6875,-1.03125 -0.75,0 -1.6875,0.75 -0.9375,0.65625 -2.0625,2.0625 -0.375,-1.40625 -1.3125,-3.46875 -0.9375,-2.0625 -2.4375,-5.15625 z m 30,-30.46875 q -2.0625,0 -5.53125,5.4375 -3.46875,5.34375 -3.46875,7.875 0,0.5625 0.1875,0.84375 0.28125,0.1875 1.03125,0.1875 1.03125,0 1.6875,-1.03125 0.65625,-1.125 1.21875,-2.0625 1.03125,-0.9375 1.96875,-1.96875 1.03125,-1.125 1.96875,-2.15625 1.125,-1.3125 1.6875,-2.625 0.5625,-1.3125 0.5625,-2.625 0,-0.84375 -0.375,-1.3125 -0.28125,-0.5625 -0.9375,-0.5625 z"
           style="font-style:normal;font-variant:normal;font-weight:normal;font-stretch:normal;font-size:192px;font-family:Mistral;-inkscape-font-specification:Mistral"
           id="path2524" />
      </g>
    </g>
    <g
       inkscape:label="schhrift Kopie"
       id="g3239"
       inkscape:groupmode="layer">
      <g
         aria-label="Reim"
         transform="matrix(1.2555109,0.33641323,-0.33641323,1.2555109,154.12132,-43.381636)"
         style="font-style:normal;font-weight:normal;font-size:40px;line-height:1.25;font-family:sans-serif;letter-spacing:0px;word-spacing:0px;fill:#000000;fill-opacity:1;stroke:none"
         id="flowRoot3237">
        <path
           d="m 272.94727,355.77764 q 0,1.875 2.625,5.0625 2.71875,3.09375 8.0625,7.6875 3.46875,2.90625 7.125,5.71875 3.75,2.71875 7.40625,5.53125 1.59375,1.3125 4.125,3.46875 2.53125,2.0625 5.90625,4.875 2.4375,1.875 5.0625,3.75 2.71875,1.875 5.8125,3.75 2.0625,1.59375 4.59375,3.46875 2.53125,1.875 5.8125,4.03125 1.875,1.125 2.90625,4.125 1.03125,2.90625 1.21875,7.59375 l -0.84375,2.4375 -0.9375,0.46875 q -0.9375,0 -2.53125,-0.84375 -1.5,-0.75 -3.84375,-2.25 -0.46875,-0.28125 -4.3125,-2.0625 -3.75,-1.78125 -10.875,-5.0625 -3.9375,-1.6875 -7.21875,-3.75 -3.28125,-2.15625 -6,-4.5 -1.59375,-1.40625 -4.125,-3.09375 -2.4375,-1.6875 -5.8125,-3.65625 -3.46875,-1.96875 -6,-3.75 -2.53125,-1.78125 -4.03125,-3 -5.0625,-4.125 -8.25,-6.28125 -3.1875,-2.15625 -4.40625,-2.15625 -0.9375,1.3125 -1.03125,2.71875 -1.125,4.40625 -2.4375,11.15625 -1.21875,6.65625 -2.71875,15.5625 0,1.59375 -0.5625,2.34375 -0.5625,0.84375 -1.6875,0.84375 -3.65625,0 -5.53125,-1.78125 -1.875,-1.78125 -1.875,-5.34375 0,-4.78125 0.5625,-10.03125 0.65625,-5.25 2.0625,-11.0625 0.46875,-2.53125 0.65625,-4.5 0.28125,-2.0625 0.28125,-3.75 0,-4.3125 -3.75,-7.40625 -3.65625,-3.09375 -3.65625,-4.40625 0,-2.0625 0.5625,-3.5625 0.65625,-1.59375 1.875,-2.53125 3.09375,-1.96875 5.71875,-3.75 0.65625,-0.375 0.84375,-1.21875 0.28125,-0.9375 0.28125,-2.53125 0,-0.9375 0,-1.96875 0,-1.125 0,-2.0625 0.28125,-8.34375 0.46875,-17.34375 0,-0.65625 0,-2.0625 0,-1.40625 -0.1875,-3.65625 -0.1875,-1.6875 -0.0937,-3.09375 0.0937,-1.5 0.0937,-2.71875 -0.5625,-1.875 -1.03125,-3.1875 -0.375,-1.40625 -0.375,-2.625 0,-1.125 0.1875,-3.46875 0.1875,-2.4375 0.1875,-3.46875 0,-1.3125 -0.28125,-3.65625 -0.1875,-2.34375 -0.1875,-3.5625 0,-3.375 1.5,-6.46875 1.59375,-3.09375 4.78125,-6.09375 3.09375,-2.625 6.28125,-3.9375 3.28125,-1.40625 6.65625,-1.40625 1.59375,0 4.6875,0.28125 3.1875,0.1875 4.96875,0.1875 1.21875,0 6.65625,2.0625 2.15625,0.1875 3.84375,0.5625 1.6875,0.28125 2.71875,0.65625 2.34375,1.125 3.65625,1.78125 1.3125,0.5625 1.875,0.65625 1.59375,0.5625 2.71875,0.9375 1.21875,0.375 1.96875,0.9375 1.21875,0.5625 2.8125,1.3125 1.6875,0.75 3.75,1.6875 3.375,1.6875 6.28125,3.9375 3,2.25 5.625,4.875 3,3.375 4.5,6.65625 1.5,3.1875 1.5,6.375 0,0.9375 -0.1875,2.71875 -0.0937,1.6875 -0.46875,3.84375 -0.28125,2.71875 -2.8125,5.90625 -2.53125,3.09375 -7.3125,6.84375 -4.21875,3.28125 -7.875,5.53125 -3.65625,2.15625 -6.75,3.09375 -1.21875,0.84375 -1.875,1.59375 -0.9375,0.9375 -3.9375,2.625 -3,1.6875 -8.15625,4.21875 -9.375,4.59375 -13.3125,6.09375 -3.9375,1.40625 -3.9375,3.09375 z m -9.84375,-45.1875 q 1.78125,-1.3125 3.375,-2.53125 1.59375,-1.3125 4.125,-1.3125 1.125,0 2.71875,2.53125 1.6875,2.4375 1.6875,3.65625 0,0.65625 -0.46875,3 -0.46875,2.34375 -1.5,6.375 -2.15625,9.09375 -2.4375,11.4375 -0.28125,2.25 -1.21875,7.125 -0.375,1.21875 -0.75,3.1875 0,0.84375 0.28125,1.21875 0.375,0.375 0.9375,0.375 18.65625,-9.375 19.3125,-9.75 0.75,-0.1875 1.59375,-0.46875 0.84375,-0.375 1.59375,-0.75 l 1.40625,-1.78125 q 5.4375,-3.46875 11.25,-7.40625 3.65625,-2.8125 5.4375,-5.53125 1.78125,-2.71875 1.78125,-5.4375 0,-3.46875 -4.03125,-6.84375 -4.03125,-3.375 -12.09375,-6.46875 -6.84375,-2.71875 -12.46875,-3.9375 -5.625,-1.3125 -10.21875,-1.3125 -6,0 -9.09375,2.15625 -3,2.0625 -3,6.1875 0,3.1875 0.46875,4.875 0.46875,1.59375 1.3125,1.40625 z"
           style="font-style:normal;font-variant:normal;font-weight:normal;font-stretch:normal;font-size:192px;font-family:Mistral;-inkscape-font-specification:Mistral"
           id="path2498" />
        <path
           d="m 325.91602,380.43389 q 1.125,-1.96875 2.90625,-3.9375 1.78125,-2.0625 4.5,-4.21875 0.28125,-1.875 0.5625,-3.65625 0.28125,-1.875 0.375,-3.75 0.28125,-1.3125 0.84375,-3.09375 0.65625,-1.78125 1.40625,-3.84375 0.84375,-2.0625 2.25,-5.15625 1.5,-3.09375 3.84375,-6.9375 1.96875,-2.15625 4.125,-4.6875 2.15625,-2.625 4.3125,-5.25 1.03125,-0.84375 2.25,-1.59375 1.21875,-0.75 2.4375,-1.6875 1.125,-0.375 2.53125,-0.65625 1.40625,-0.28125 3.09375,-0.28125 2.34375,0 3.75,0.46875 1.5,0.46875 2.4375,1.59375 0.65625,0.75 1.21875,2.25 0.65625,1.5 1.21875,3.65625 0.28125,1.875 0.65625,4.125 0,-0.5625 -0.375,0.46875 -0.28125,1.03125 -0.9375,3.28125 l -0.84375,3 q -1.3125,4.5 -5.90625,10.40625 -4.59375,5.90625 -12.375,13.5 -0.65625,0.65625 -1.125,1.6875 -0.46875,0.9375 -0.46875,2.0625 0,1.96875 0.65625,3.46875 0.75,1.5 2.0625,2.25 0.75,0.5625 2.34375,1.125 1.6875,0.5625 3.9375,1.03125 3.65625,-0.28125 6.65625,-1.21875 3,-0.9375 5.34375,-2.25 0.46875,-0.28125 1.5,-0.75 1.03125,-0.5625 2.0625,-1.40625 1.21875,2.71875 2.15625,4.875 0.9375,2.15625 1.5,3.75 -5.34375,5.25 -9.75,7.96875 -4.3125,2.625 -7.96875,2.625 -1.5,0.9375 -3.46875,1.40625 -1.875,0.375 -4.5,0.375 -3.46875,0 -6.1875,-1.03125 -2.625,-1.03125 -4.40625,-3 -0.9375,-0.9375 -1.875,-2.71875 -0.9375,-1.875 -1.96875,-4.40625 -0.84375,-2.0625 -1.59375,-3 -0.75,-1.03125 -1.6875,-1.03125 -0.75,0 -1.6875,0.75 -0.9375,0.65625 -2.0625,2.0625 -0.375,-1.40625 -1.3125,-3.46875 -0.9375,-2.0625 -2.4375,-5.15625 z m 30,-30.46875 q -2.0625,0 -5.53125,5.4375 -3.46875,5.34375 -3.46875,7.875 0,0.5625 0.1875,0.84375 0.28125,0.1875 1.03125,0.1875 1.03125,0 1.6875,-1.03125 0.65625,-1.125 1.21875,-2.0625 1.03125,-0.9375 1.96875,-1.96875 1.03125,-1.125 1.96875,-2.15625 1.125,-1.3125 1.6875,-2.625 0.5625,-1.3125 0.5625,-2.625 0,-0.84375 -0.375,-1.3125 -0.28125,-0.5625 -0.9375,-0.5625 z"
           style="font-style:normal;font-variant:normal;font-weight:normal;font-stretch:normal;font-size:192px;font-family:Mistral;-inkscape-font-specification:Mistral"
           id="path2500" />
        <path
           d="m 373.16602,380.43389 0.5625,-0.65625 0.28125,-0.9375 q 2.53125,-3.46875 8.90625,-9 6.375,-5.625 8.8125,-9.09375 0.9375,-1.5 2.15625,-2.15625 1.21875,-0.65625 2.4375,-0.65625 3.28125,0 5.53125,1.6875 2.25,1.59375 3,4.875 0.65625,2.90625 1.21875,5.90625 0.5625,2.90625 0.9375,5.90625 0.65625,1.875 1.59375,5.71875 0.9375,3.75 1.40625,4.3125 0.46875,0.9375 1.40625,1.40625 0.9375,0.375 2.34375,0.375 1.6875,0 3.46875,-0.5625 1.78125,-0.65625 3.65625,-2.15625 1.40625,-1.21875 2.90625,-2.4375 1.59375,-1.3125 3.09375,-2.53125 l 3.75,8.625 q -1.5,1.5 -4.03125,3.46875 -2.4375,1.875 -5.90625,4.40625 -3.84375,2.8125 -6.5625,4.21875 -2.71875,1.3125 -4.125,1.3125 -8.53125,0 -11.0625,-1.96875 -2.53125,-1.96875 -5.625,-10.96875 -0.375,-0.75 -1.125,-1.78125 -0.75,-1.03125 -1.6875,-2.4375 -1.125,-2.15625 -1.96875,-3.1875 -0.84375,-1.125 -1.40625,-1.125 -1.5,0 -4.03125,2.0625 -2.53125,1.96875 -6.1875,6 -0.46875,-1.21875 -1.125,-2.90625 -0.75,-1.6875 -1.5,-3.9375 -0.1875,-0.5625 -0.46875,-1.03125 -0.28125,-0.46875 -0.65625,-0.75 z m 39.1875,-73.96875 q 2.34375,0 3.375,0.9375 1.125,0.9375 1.125,2.71875 -0.5625,2.625 -0.9375,4.40625 -0.9375,3.375 -1.6875,5.53125 -0.65625,2.15625 -1.03125,3.09375 -0.84375,2.0625 -2.34375,3.65625 -1.40625,1.5 -3.46875,2.71875 -2.15625,1.5 -3.65625,2.15625 -1.40625,0.5625 -1.96875,0.46875 -1.59375,-0.1875 -3.09375,-0.28125 -1.40625,-0.1875 -2.8125,-0.1875 -1.21875,-0.65625 -1.96875,-2.53125 -0.65625,-1.875 -0.65625,-5.0625 0,-2.8125 3.375,-7.03125 3.46875,-4.3125 6.09375,-4.59375 1.59375,-1.96875 3.75,-4.5 0.9375,-0.65625 2.4375,-1.03125 1.5,-0.46875 3.46875,-0.46875 z"
           style="font-style:normal;font-variant:normal;font-weight:normal;font-stretch:normal;font-size:192px;font-family:Mistral;-inkscape-font-specification:Mistral"
           id="path2502" />
        <path
           d="m 426.79102,380.43389 q 0.5625,-0.65625 1.3125,-1.6875 0.75,-1.125 1.6875,-2.4375 4.125,-5.15625 7.96875,-9.1875 3.9375,-4.125 7.40625,-7.3125 1.78125,-1.6875 4.3125,-4.3125 2.53125,-2.71875 5.90625,-6.1875 3.375,-1.3125 7.40625,-3 2.53125,0 3.75,1.6875 1.21875,1.59375 1.21875,4.6875 0,2.625 -0.46875,5.71875 -0.375,3 -1.125,6.1875 -0.84375,2.53125 -1.40625,4.875 0,0.65625 0.28125,1.03125 0.28125,0.28125 0.9375,0.28125 1.40625,-0.65625 5.4375,-4.6875 4.03125,-4.03125 10.59375,-11.25 5.625,-6.1875 9.84375,-9.1875 4.21875,-3.09375 6.75,-3.09375 2.71875,0 3.9375,2.0625 1.3125,1.96875 1.3125,5.90625 0,5.71875 -0.84375,11.0625 -0.84375,5.25 -2.90625,10.125 -0.375,0.9375 -0.46875,1.59375 -0.0937,0.65625 -0.0937,1.21875 0,0.65625 1.125,1.21875 0.75,-0.65625 1.6875,-1.875 1.03125,-1.21875 2.34375,-3.09375 2.15625,-1.78125 4.3125,-3.5625 2.15625,-1.78125 4.6875,-3.65625 2.625,-2.0625 5.34375,-3.09375 2.71875,-1.125 5.34375,-1.125 0.46875,0 0.9375,0.28125 0.46875,0.28125 0.9375,0.65625 2.15625,1.875 3.5625,3.46875 1.40625,1.5 1.96875,2.625 3.65625,7.5 6.46875,11.25 2.90625,3.65625 5.0625,3.65625 0.46875,0 0.9375,-0.1875 0.46875,-0.28125 0.9375,-0.65625 2.15625,4.59375 3.65625,8.625 -3.375,2.625 -6,4.03125 -2.625,1.3125 -4.59375,1.3125 -6.46875,0 -13.40625,-8.34375 -6.84375,-8.4375 -10.5,-8.4375 -4.875,0 -16.21875,14.4375 -11.34375,14.34375 -14.15625,14.34375 -1.40625,0 -3.75,-0.28125 -0.75,-0.28125 -1.125,-1.125 -0.375,-0.9375 -0.375,-2.15625 0,-1.40625 0.5625,-3.65625 0.5625,-2.34375 1.5,-5.4375 1.21875,-3.9375 1.96875,-6.28125 0.75,-2.34375 0.84375,-3.28125 0.28125,-1.21875 0.75,-4.78125 0.5625,-3.5625 1.40625,-9.46875 0,-1.03125 -0.5625,-1.59375 -0.5625,-0.5625 -1.3125,-0.5625 -0.65625,0 -1.5,0.46875 -0.75,0.375 -1.78125,1.3125 -1.125,1.21875 -2.53125,2.4375 -1.3125,1.21875 -4.3125,3.46875 -3.28125,3.75 -6.75,7.6875 -3.375,3.84375 -6.9375,7.78125 -5.625,6.5625 -9,9.75 -3.28125,3.09375 -4.21875,3.09375 -2.8125,0 -4.3125,-0.65625 -1.40625,-0.65625 -1.40625,-1.96875 0,-3.09375 3.28125,-12.84375 3.375,-9.84375 3.375,-13.875 0,-0.65625 -0.46875,-1.03125 -0.375,-0.46875 -1.03125,-0.46875 -1.125,0 -2.71875,1.3125 -1.5,1.21875 -3.46875,3.9375 -1.3125,1.5 -3.1875,3.46875 -1.875,1.96875 -4.59375,4.59375 -0.28125,0.75 -0.75,1.5 -0.46875,0.65625 -1.03125,1.3125 -0.375,-1.40625 -1.3125,-3.46875 -0.9375,-2.0625 -2.4375,-5.15625 z"
           style="font-style:normal;font-variant:normal;font-weight:normal;font-stretch:normal;font-size:192px;font-family:Mistral;-inkscape-font-specification:Mistral"
           id="path2504" />
      </g>
    </g>
    <g
       inkscape:groupmode="layer"
       id="g3249"
       inkscape:label="schhrift Kopie Kopie">
      <g
         aria-label="rime"
         transform="rotate(35,-246.0026,467.10446)"
         style="font-style:normal;font-weight:normal;font-size:40px;line-height:1.25;font-family:sans-serif;letter-spacing:0px;word-spacing:0px;fill:#000000;fill-opacity:1;stroke:none"
         id="flowRoot3247">
        <path
           d="m 237.04102,380.43389 q 1.5,-1.96875 3,-4.125 6.84375,-5.625 11.15625,-10.78125 4.40625,-5.25 6.375,-9.75 l -0.9375,-4.5 q 1.21875,-2.34375 6,-5.53125 4.875,-3.1875 7.875,-3.1875 3.1875,0 5.34375,1.875 2.25,1.875 4.3125,3.9375 1.03125,0.65625 1.5,1.03125 3.75,2.8125 5.625,7.78125 1.875,4.96875 1.875,12.09375 0,3.75 -2.90625,10.78125 -2.90625,6.9375 -2.90625,10.5 0,0.46875 0.28125,0.75 0.375,0.28125 0.9375,0.28125 1.21875,0 2.90625,-1.03125 1.6875,-1.125 3.65625,-3 4.96875,-4.875 6,-5.34375 1.03125,-0.5625 2.53125,-1.78125 0.75,1.875 1.78125,4.03125 1.03125,2.15625 1.96875,4.59375 -0.84375,0.75 -1.96875,1.78125 -1.03125,1.03125 -2.53125,2.34375 -3.1875,2.34375 -8.34375,5.71875 -5.0625,3.28125 -12.1875,7.59375 -1.875,1.21875 -4.3125,1.96875 -3.9375,0 -5.90625,-1.125 -1.96875,-1.21875 -1.96875,-3.84375 0,-1.03125 0.375,-2.34375 0.46875,-1.40625 1.21875,-3 0.5625,-1.21875 1.21875,-2.4375 0.65625,-1.3125 1.125,-2.625 2.0625,-5.90625 3.09375,-10.96875 1.125,-5.0625 1.125,-9.09375 0,-4.96875 -1.59375,-7.59375 -1.5,-2.625 -4.59375,-3 -2.0625,1.125 -4.5,3.1875 -2.4375,2.0625 -4.96875,5.15625 -2.71875,3.375 -4.875,5.53125 -2.15625,2.15625 -3.5625,2.90625 -0.84375,1.40625 -2.71875,3.1875 -1.875,1.78125 -4.96875,3.84375 -0.1875,0.375 -0.5625,1.125 -0.375,0.75 -1.21875,1.6875 -0.75,-2.15625 -1.6875,-4.21875 -0.9375,-2.15625 -2.0625,-4.40625 z"
           style="font-style:normal;font-variant:normal;font-weight:normal;font-stretch:normal;font-size:192px;font-family:Mistral;-inkscape-font-specification:Mistral"
           id="path2489" />
        <path
           d="m 299.66602,380.43389 0.5625,-0.65625 0.28125,-0.9375 q 2.53125,-3.46875 8.90625,-9 6.375,-5.625 8.8125,-9.09375 0.9375,-1.5 2.15625,-2.15625 1.21875,-0.65625 2.4375,-0.65625 3.28125,0 5.53125,1.6875 2.25,1.59375 3,4.875 0.65625,2.90625 1.21875,5.90625 0.5625,2.90625 0.9375,5.90625 0.65625,1.875 1.59375,5.71875 0.9375,3.75 1.40625,4.3125 0.46875,0.9375 1.40625,1.40625 0.9375,0.375 2.34375,0.375 1.6875,0 3.46875,-0.5625 1.78125,-0.65625 3.65625,-2.15625 1.40625,-1.21875 2.90625,-2.4375 1.59375,-1.3125 3.09375,-2.53125 l 3.75,8.625 q -1.5,1.5 -4.03125,3.46875 -2.4375,1.875 -5.90625,4.40625 -3.84375,2.8125 -6.5625,4.21875 -2.71875,1.3125 -4.125,1.3125 -8.53125,0 -11.0625,-1.96875 -2.53125,-1.96875 -5.625,-10.96875 -0.375,-0.75 -1.125,-1.78125 -0.75,-1.03125 -1.6875,-2.4375 -1.125,-2.15625 -1.96875,-3.1875 -0.84375,-1.125 -1.40625,-1.125 -1.5,0 -4.03125,2.0625 -2.53125,1.96875 -6.1875,6 -0.46875,-1.21875 -1.125,-2.90625 -0.75,-1.6875 -1.5,-3.9375 -0.1875,-0.5625 -0.46875,-1.03125 -0.28125,-0.46875 -0.65625,-0.75 z m 39.1875,-73.96875 q 2.34375,0 3.375,0.9375 1.125,0.9375 1.125,2.71875 -0.5625,2.625 -0.9375,4.40625 -0.9375,3.375 -1.6875,5.53125 -0.65625,2.15625 -1.03125,3.09375 -0.84375,2.0625 -2.34375,3.65625 -1.40625,1.5 -3.46875,2.71875 -2.15625,1.5 -3.65625,2.15625 -1.40625,0.5625 -1.96875,0.46875 -1.59375,-0.1875 -3.09375,-0.28125 -1.40625,-0.1875 -2.8125,-0.1875 -1.21875,-0.65625 -1.96875,-2.53125 -0.65625,-1.875 -0.65625,-5.0625 0,-2.8125 3.375,-7.03125 3.46875,-4.3125 6.09375,-4.59375 1.59375,-1.96875 3.75,-4.5 0.9375,-0.65625 2.4375,-1.03125 1.5,-0.46875 3.46875,-0.46875 z"
           style="font-style:normal;font-variant:normal;font-weight:normal;font-stretch:normal;font-size:192px;font-family:Mistral;-inkscape-font-specification:Mistral"
           id="path2491" />
        <path
           d="m 353.29102,380.43389 q 0.5625,-0.65625 1.3125,-1.6875 0.75,-1.125 1.6875,-2.4375 4.125,-5.15625 7.96875,-9.1875 3.9375,-4.125 7.40625,-7.3125 1.78125,-1.6875 4.3125,-4.3125 2.53125,-2.71875 5.90625,-6.1875 3.375,-1.3125 7.40625,-3 2.53125,0 3.75,1.6875 1.21875,1.59375 1.21875,4.6875 0,2.625 -0.46875,5.71875 -0.375,3 -1.125,6.1875 -0.84375,2.53125 -1.40625,4.875 0,0.65625 0.28125,1.03125 0.28125,0.28125 0.9375,0.28125 1.40625,-0.65625 5.4375,-4.6875 4.03125,-4.03125 10.59375,-11.25 5.625,-6.1875 9.84375,-9.1875 4.21875,-3.09375 6.75,-3.09375 2.71875,0 3.9375,2.0625 1.3125,1.96875 1.3125,5.90625 0,5.71875 -0.84375,11.0625 -0.84375,5.25 -2.90625,10.125 -0.375,0.9375 -0.46875,1.59375 -0.0937,0.65625 -0.0937,1.21875 0,0.65625 1.125,1.21875 0.75,-0.65625 1.6875,-1.875 1.03125,-1.21875 2.34375,-3.09375 2.15625,-1.78125 4.3125,-3.5625 2.15625,-1.78125 4.6875,-3.65625 2.625,-2.0625 5.34375,-3.09375 2.71875,-1.125 5.34375,-1.125 0.46875,0 0.9375,0.28125 0.46875,0.28125 0.9375,0.65625 2.15625,1.875 3.5625,3.46875 1.40625,1.5 1.96875,2.625 3.65625,7.5 6.46875,11.25 2.90625,3.65625 5.0625,3.65625 0.46875,0 0.9375,-0.1875 0.46875,-0.28125 0.9375,-0.65625 2.15625,4.59375 3.65625,8.625 -3.375,2.625 -6,4.03125 -2.625,1.3125 -4.59375,1.3125 -6.46875,0 -13.40625,-8.34375 -6.84375,-8.4375 -10.5,-8.4375 -4.875,0 -16.21875,14.4375 -11.34375,14.34375 -14.15625,14.34375 -1.40625,0 -3.75,-0.28125 -0.75,-0.28125 -1.125,-1.125 -0.375,-0.9375 -0.375,-2.15625 0,-1.40625 0.5625,-3.65625 0.5625,-2.34375 1.5,-5.4375 1.21875,-3.9375 1.96875,-6.28125 0.75,-2.34375 0.84375,-3.28125 0.28125,-1.21875 0.75,-4.78125 0.5625,-3.5625 1.40625,-9.46875 0,-1.03125 -0.5625,-1.59375 -0.5625,-0.5625 -1.3125,-0.5625 -0.65625,0 -1.5,0.46875 -0.75,0.375 -1.78125,1.3125 -1.125,1.21875 -2.53125,2.4375 -1.3125,1.21875 -4.3125,3.46875 -3.28125,3.75 -6.75,7.6875 -3.375,3.84375 -6.9375,7.78125 -5.625,6.5625 -9,9.75 -3.28125,3.09375 -4.21875,3.09375 -2.8125,0 -4.3125,-0.65625 -1.40625,-0.65625 -1.40625,-1.96875 0,-3.09375 3.28125,-12.84375 3.375,-9.84375 3.375,-13.875 0,-0.65625 -0.46875,-1.03125 -0.375,-0.46875 -1.03125,-0.46875 -1.125,0 -2.71875,1.3125 -1.5,1.21875 -3.46875,3.9375 -1.3125,1.5 -3.1875,3.46875 -1.875,1.96875 -4.59375,4.59375 -0.28125,0.75 -0.75,1.5 -0.46875,0.65625 -1.03125,1.3125 -0.375,-1.40625 -1.3125,-3.46875 -0.9375,-2.0625 -2.4375,-5.15625 z"
           style="font-style:normal;font-variant:normal;font-weight:normal;font-stretch:normal;font-size:192px;font-family:Mistral;-inkscape-font-specification:Mistral"
           id="path2493" />
        <path
           d="m 471.79102,380.43389 q 1.125,-1.96875 2.90625,-3.9375 1.78125,-2.0625 4.5,-4.21875 0.28125,-1.875 0.5625,-3.65625 0.28125,-1.875 0.375,-3.75 0.28125,-1.3125 0.84375,-3.09375 0.65625,-1.78125 1.40625,-3.84375 0.84375,-2.0625 2.25,-5.15625 1.5,-3.09375 3.84375,-6.9375 1.96875,-2.15625 4.125,-4.6875 2.15625,-2.625 4.3125,-5.25 1.03125,-0.84375 2.25,-1.59375 1.21875,-0.75 2.4375,-1.6875 1.125,-0.375 2.53125,-0.65625 1.40625,-0.28125 3.09375,-0.28125 2.34375,0 3.75,0.46875 1.5,0.46875 2.4375,1.59375 0.65625,0.75 1.21875,2.25 0.65625,1.5 1.21875,3.65625 0.28125,1.875 0.65625,4.125 0,-0.5625 -0.375,0.46875 -0.28125,1.03125 -0.9375,3.28125 l -0.84375,3 q -1.3125,4.5 -5.90625,10.40625 -4.59375,5.90625 -12.375,13.5 -0.65625,0.65625 -1.125,1.6875 -0.46875,0.9375 -0.46875,2.0625 0,1.96875 0.65625,3.46875 0.75,1.5 2.0625,2.25 0.75,0.5625 2.34375,1.125 1.6875,0.5625 3.9375,1.03125 3.65625,-0.28125 6.65625,-1.21875 3,-0.9375 5.34375,-2.25 0.46875,-0.28125 1.5,-0.75 1.03125,-0.5625 2.0625,-1.40625 1.21875,2.71875 2.15625,4.875 0.9375,2.15625 1.5,3.75 -5.34375,5.25 -9.75,7.96875 -4.3125,2.625 -7.96875,2.625 -1.5,0.9375 -3.46875,1.40625 -1.875,0.375 -4.5,0.375 -3.46875,0 -6.1875,-1.03125 -2.625,-1.03125 -4.40625,-3 -0.9375,-0.9375 -1.875,-2.71875 -0.9375,-1.875 -1.96875,-4.40625 -0.84375,-2.0625 -1.59375,-3 -0.75,-1.03125 -1.6875,-1.03125 -0.75,0 -1.6875,0.75 -0.9375,0.65625 -2.0625,2.0625 -0.375,-1.40625 -1.3125,-3.46875 -0.9375,-2.0625 -2.4375,-5.15625 z m 30,-30.46875 q -2.0625,0 -5.53125,5.4375 -3.46875,5.34375 -3.46875,7.875 0,0.5625 0.1875,0.84375 0.28125,0.1875 1.03125,0.1875 1.03125,0 1.6875,-1.03125 0.65625,-1.125 1.21875,-2.0625 1.03125,-0.9375 1.96875,-1.96875 1.03125,-1.125 1.96875,-2.15625 1.125,-1.3125 1.6875,-2.625 0.5625,-1.3125 0.5625,-2.625 0,-0.84375 -0.375,-1.3125 -0.28125,-0.5625 -0.9375,-0.5625 z"
           style="font-style:normal;font-variant:normal;font-weight:normal;font-stretch:normal;font-size:192px;font-family:Mistral;-inkscape-font-specification:Mistral"
           id="path2495" />
      </g>
    </g>
    <g
       inkscape:label="schhrift Kopie Kopie Kopie"
       id="g3259"
       inkscape:groupmode="layer">
      <g
         aria-label="rima"
         transform="rotate(-5,250.33755,-3270.4114)"
         style="font-style:normal;font-weight:normal;font-size:40px;line-height:1.25;font-family:sans-serif;letter-spacing:0px;word-spacing:0px;fill:#000000;fill-opacity:1;stroke:none"
         id="flowRoot3257">
        <path
           d="m 237.04102,380.43389 q 1.5,-1.96875 3,-4.125 6.84375,-5.625 11.15625,-10.78125 4.40625,-5.25 6.375,-9.75 l -0.9375,-4.5 q 1.21875,-2.34375 6,-5.53125 4.875,-3.1875 7.875,-3.1875 3.1875,0 5.34375,1.875 2.25,1.875 4.3125,3.9375 1.03125,0.65625 1.5,1.03125 3.75,2.8125 5.625,7.78125 1.875,4.96875 1.875,12.09375 0,3.75 -2.90625,10.78125 -2.90625,6.9375 -2.90625,10.5 0,0.46875 0.28125,0.75 0.375,0.28125 0.9375,0.28125 1.21875,0 2.90625,-1.03125 1.6875,-1.125 3.65625,-3 4.96875,-4.875 6,-5.34375 1.03125,-0.5625 2.53125,-1.78125 0.75,1.875 1.78125,4.03125 1.03125,2.15625 1.96875,4.59375 -0.84375,0.75 -1.96875,1.78125 -1.03125,1.03125 -2.53125,2.34375 -3.1875,2.34375 -8.34375,5.71875 -5.0625,3.28125 -12.1875,7.59375 -1.875,1.21875 -4.3125,1.96875 -3.9375,0 -5.90625,-1.125 -1.96875,-1.21875 -1.96875,-3.84375 0,-1.03125 0.375,-2.34375 0.46875,-1.40625 1.21875,-3 0.5625,-1.21875 1.21875,-2.4375 0.65625,-1.3125 1.125,-2.625 2.0625,-5.90625 3.09375,-10.96875 1.125,-5.0625 1.125,-9.09375 0,-4.96875 -1.59375,-7.59375 -1.5,-2.625 -4.59375,-3 -2.0625,1.125 -4.5,3.1875 -2.4375,2.0625 -4.96875,5.15625 -2.71875,3.375 -4.875,5.53125 -2.15625,2.15625 -3.5625,2.90625 -0.84375,1.40625 -2.71875,3.1875 -1.875,1.78125 -4.96875,3.84375 -0.1875,0.375 -0.5625,1.125 -0.375,0.75 -1.21875,1.6875 -0.75,-2.15625 -1.6875,-4.21875 -0.9375,-2.15625 -2.0625,-4.40625 z"
           style="font-style:normal;font-variant:normal;font-weight:normal;font-stretch:normal;font-size:192px;font-family:Mistral;-inkscape-font-specification:Mistral"
           id="path2507" />
        <path
           d="m 299.66602,380.43389 0.5625,-0.65625 0.28125,-0.9375 q 2.53125,-3.46875 8.90625,-9 6.375,-5.625 8.8125,-9.09375 0.9375,-1.5 2.15625,-2.15625 1.21875,-0.65625 2.4375,-0.65625 3.28125,0 5.53125,1.6875 2.25,1.59375 3,4.875 0.65625,2.90625 1.21875,5.90625 0.5625,2.90625 0.9375,5.90625 0.65625,1.875 1.59375,5.71875 0.9375,3.75 1.40625,4.3125 0.46875,0.9375 1.40625,1.40625 0.9375,0.375 2.34375,0.375 1.6875,0 3.46875,-0.5625 1.78125,-0.65625 3.65625,-2.15625 1.40625,-1.21875 2.90625,-2.4375 1.59375,-1.3125 3.09375,-2.53125 l 3.75,8.625 q -1.5,1.5 -4.03125,3.46875 -2.4375,1.875 -5.90625,4.40625 -3.84375,2.8125 -6.5625,4.21875 -2.71875,1.3125 -4.125,1.3125 -8.53125,0 -11.0625,-1.96875 -2.53125,-1.96875 -5.625,-10.96875 -0.375,-0.75 -1.125,-1.78125 -0.75,-1.03125 -1.6875,-2.4375 -1.125,-2.15625 -1.96875,-3.1875 -0.84375,-1.125 -1.40625,-1.125 -1.5,0 -4.03125,2.0625 -2.53125,1.96875 -6.1875,6 -0.46875,-1.21875 -1.125,-2.90625 -0.75,-1.6875 -1.5,-3.9375 -0.1875,-0.5625 -0.46875,-1.03125 -0.28125,-0.46875 -0.65625,-0.75 z m 39.1875,-73.96875 q 2.34375,0 3.375,0.9375 1.125,0.9375 1.125,2.71875 -0.5625,2.625 -0.9375,4.40625 -0.9375,3.375 -1.6875,5.53125 -0.65625,2.15625 -1.03125,3.09375 -0.84375,2.0625 -2.34375,3.65625 -1.40625,1.5 -3.46875,2.71875 -2.15625,1.5 -3.65625,2.15625 -1.40625,0.5625 -1.96875,0.46875 -1.59375,-0.1875 -3.09375,-0.28125 -1.40625,-0.1875 -2.8125,-0.1875 -1.21875,-0.65625 -1.96875,-2.53125 -0.65625,-1.875 -0.65625,-5.0625 0,-2.8125 3.375,-7.03125 3.46875,-4.3125 6.09375,-4.59375 1.59375,-1.96875 3.75,-4.5 0.9375,-0.65625 2.4375,-1.03125 1.5,-0.46875 3.46875,-0.46875 z"
           style="font-style:normal;font-variant:normal;font-weight:normal;font-stretch:normal;font-size:192px;font-family:Mistral;-inkscape-font-specification:Mistral"
           id="path2509" />
        <path
           d="m 353.29102,380.43389 q 0.5625,-0.65625 1.3125,-1.6875 0.75,-1.125 1.6875,-2.4375 4.125,-5.15625 7.96875,-9.1875 3.9375,-4.125 7.40625,-7.3125 1.78125,-1.6875 4.3125,-4.3125 2.53125,-2.71875 5.90625,-6.1875 3.375,-1.3125 7.40625,-3 2.53125,0 3.75,1.6875 1.21875,1.59375 1.21875,4.6875 0,2.625 -0.46875,5.71875 -0.375,3 -1.125,6.1875 -0.84375,2.53125 -1.40625,4.875 0,0.65625 0.28125,1.03125 0.28125,0.28125 0.9375,0.28125 1.40625,-0.65625 5.4375,-4.6875 4.03125,-4.03125 10.59375,-11.25 5.625,-6.1875 9.84375,-9.1875 4.21875,-3.09375 6.75,-3.09375 2.71875,0 3.9375,2.0625 1.3125,1.96875 1.3125,5.90625 0,5.71875 -0.84375,11.0625 -0.84375,5.25 -2.90625,10.125 -0.375,0.9375 -0.46875,1.59375 -0.0937,0.65625 -0.0937,1.21875 0,0.65625 1.125,1.21875 0.75,-0.65625 1.6875,-1.875 1.03125,-1.21875 2.34375,-3.09375 2.15625,-1.78125 4.3125,-3.5625 2.15625,-1.78125 4.6875,-3.65625 2.625,-2.0625 5.34375,-3.09375 2.71875,-1.125 5.34375,-1.125 0.46875,0 0.9375,0.28125 0.46875,0.28125 0.9375,0.65625 2.15625,1.875 3.5625,3.46875 1.40625,1.5 1.96875,2.625 3.65625,7.5 6.46875,11.25 2.90625,3.65625 5.0625,3.65625 0.46875,0 0.9375,-0.1875 0.46875,-0.28125 0.9375,-0.65625 2.15625,4.59375 3.65625,8.625 -3.375,2.625 -6,4.03125 -2.625,1.3125 -4.59375,1.3125 -6.46875,0 -13.40625,-8.34375 -6.84375,-8.4375 -10.5,-8.4375 -4.875,0 -16.21875,14.4375 -11.34375,14.34375 -14.15625,14.34375 -1.40625,0 -3.75,-0.28125 -0.75,-0.28125 -1.125,-1.125 -0.375,-0.9375 -0.375,-2.15625 0,-1.40625 0.5625,-3.65625 0.5625,-2.34375 1.5,-5.4375 1.21875,-3.9375 1.96875,-6.28125 0.75,-2.34375 0.84375,-3.28125 0.28125,-1.21875 0.75,-4.78125 0.5625,-3.5625 1.40625,-9.46875 0,-1.03125 -0.5625,-1.59375 -0.5625,-0.5625 -1.3125,-0.5625 -0.65625,0 -1.5,0.46875 -0.75,0.375 -1.78125,1.3125 -1.125,1.21875 -2.53125,2.4375 -1.3125,1.21875 -4.3125,3.46875 -3.28125,3.75 -6.75,7.6875 -3.375,3.84375 -6.9375,7.78125 -5.625,6.5625 -9,9.75 -3.28125,3.09375 -4.21875,3.09375 -2.8125,0 -4.3125,-0.65625 -1.40625,-0.65625 -1.40625,-1.96875 0,-3.09375 3.28125,-12.84375 3.375,-9.84375 3.375,-13.875 0,-0.65625 -0.46875,-1.03125 -0.375,-0.46875 -1.03125,-0.46875 -1.125,0 -2.71875,1.3125 -1.5,1.21875 -3.46875,3.9375 -1.3125,1.5 -3.1875,3.46875 -1.875,1.96875 -4.59375,4.59375 -0.28125,0.75 -0.75,1.5 -0.46875,0.65625 -1.03125,1.3125 -0.375,-1.40625 -1.3125,-3.46875 -0.9375,-2.0625 -2.4375,-5.15625 z"
           style="font-style:normal;font-variant:normal;font-weight:normal;font-stretch:normal;font-size:192px;font-family:Mistral;-inkscape-font-specification:Mistral"
           id="path2511" />
        <path
           d="m 474.79102,376.30889 8.53125,-5.625 q 0.46875,-0.46875 1.125,-1.21875 0.65625,-0.84375 1.5,-2.34375 0.65625,-1.21875 1.6875,-2.0625 1.125,-0.84375 2.53125,-1.5 0.75,-0.9375 2.15625,-2.34375 1.40625,-1.40625 3.5625,-3.28125 1.03125,-0.5625 2.625,-1.59375 1.59375,-1.125 3.46875,-2.90625 8.53125,-8.0625 14.90625,-12.09375 6.46875,-4.03125 10.875,-4.03125 2.4375,0 3.5625,1.03125 1.21875,1.03125 1.21875,2.90625 0,1.96875 -0.75,3.46875 -0.65625,1.5 -2.15625,2.53125 -2.34375,1.6875 -5.0625,3.75 -1.5,1.96875 -3.65625,4.21875 -2.15625,2.15625 -5.0625,4.3125 -0.9375,1.21875 -1.59375,2.15625 -0.46875,0.46875 -1.78125,1.6875 -1.3125,1.21875 -3.46875,2.8125 -0.9375,2.0625 -4.125,5.34375 -3.09375,3.28125 -8.34375,7.875 -0.65625,0.65625 -2.34375,3 -1.6875,2.34375 -4.40625,6.1875 l 0.65625,0.84375 q 2.0625,-0.65625 4.3125,-2.25 2.25,-1.59375 4.96875,-4.21875 3.1875,-2.90625 5.15625,-4.6875 2.0625,-1.875 2.90625,-2.4375 0.65625,-0.375 1.3125,-0.75 0.65625,-0.375 1.5,-0.9375 4.3125,-5.15625 8.0625,-7.59375 3.75,-2.53125 6.9375,-2.53125 1.96875,0 3,1.59375 1.03125,1.5 1.21875,4.59375 -0.1875,4.6875 -0.1875,9 -0.0937,3 1.59375,5.4375 1.78125,2.34375 4.59375,2.34375 0.84375,0 1.59375,-0.46875 0.84375,-0.46875 1.6875,-1.21875 0.65625,-0.84375 1.21875,-1.59375 0.65625,-0.75 1.3125,-1.5 0.375,-0.1875 1.03125,-0.65625 0.75,-0.46875 1.40625,-1.125 1.3125,2.8125 2.15625,4.96875 0.9375,2.0625 1.40625,3.65625 -2.15625,1.96875 -4.3125,4.125 -2.0625,2.0625 -4.40625,3.9375 -2.8125,2.15625 -5.4375,3.28125 -2.625,1.03125 -5.25,1.03125 -6.09375,0 -9.375,-3.46875 -3.28125,-3.46875 -3.84375,-10.5 0,-0.84375 -0.28125,-1.6875 -0.1875,-0.9375 -0.9375,-1.875 -0.46875,0.46875 -1.03125,1.03125 -0.5625,0.46875 -1.3125,1.3125 -1.21875,0.9375 -3.09375,2.34375 -1.78125,1.40625 -4.21875,3.375 -3.28125,3.375 -5.53125,5.53125 -2.25,2.15625 -3.1875,3.09375 -1.875,1.59375 -4.40625,3.1875 -2.4375,1.59375 -5.53125,3.28125 -1.96875,1.03125 -3.375,1.59375 -1.40625,0.65625 -2.0625,0.65625 -4.5,0 -6.65625,-2.15625 -2.15625,-2.25 -2.15625,-6.84375 0,-2.53125 1.125,-4.78125 1.03125,-2.34375 3.1875,-4.5 0.1875,-1.21875 0.1875,-1.96875 0,-0.46875 -0.28125,-0.9375 -0.1875,-0.5625 -0.5625,-1.21875 -0.5625,-1.3125 -1.21875,-2.90625 -0.75,-1.6875 -1.59375,-3.5625 0.375,-0.375 1.125,-1.40625 0.65625,-1.125 1.59375,-2.71875 z"
           style="font-style:normal;font-variant:normal;font-weight:normal;font-stretch:normal;font-size:192px;font-family:Mistral;-inkscape-font-specification:Mistral"
           id="path2513" />
      </g>
    </g>
  </g>
</svg>
