<?xml version="1.0" encoding="UTF-8" standalone="no"?>
<!-- Created with Inkscape (http://www.inkscape.org/) -->

<svg
   xmlns:dc="http://purl.org/dc/elements/1.1/"
   xmlns:cc="http://creativecommons.org/ns#"
   xmlns:rdf="http://www.w3.org/1999/02/22-rdf-syntax-ns#"
   xmlns:svg="http://www.w3.org/2000/svg"
   xmlns="http://www.w3.org/2000/svg"
   xmlns:sodipodi="http://sodipodi.sourceforge.net/DTD/sodipodi-0.dtd"
   xmlns:inkscape="http://www.inkscape.org/namespaces/inkscape"
   height="1000"
   width="1000"
   sodipodi:docname="bild9.svg"
   version="1.1"
   id="svg4946"
   inkscape:version="0.92.2 (5c3e80d, 2017-08-06)">
  <sodipodi:namedview
     id="base"
     pagecolor="#ffffff"
     bordercolor="#666666"
     borderopacity="1.0"
     inkscape:pageopacity="0.0"
     inkscape:pageshadow="2"
     inkscape:zoom="0.5"
     inkscape:cx="157.81967"
     inkscape:cy="450.99348"
     inkscape:document-units="px"
     inkscape:current-layer="g3353"
     showgrid="false"
     showguides="true"
     inkscape:window-width="1920"
     inkscape:window-height="1017"
     inkscape:window-x="-8"
     inkscape:window-y="-8"
     inkscape:window-maximized="1"
     showborder="true"
     inkscape:showpageshadow="false"
     inkscape:guide-bbox="true"
     guidetolerance="1"
     inkscape:snap-text-baseline="true"
     objecttolerance="1"
     gridtolerance="1">
    <sodipodi:guide
       position="0,1000"
       orientation="1,0"
       id="guide4948"
       inkscape:locked="false"
       inkscape:label=""
       inkscape:color="rgb(0,0,255)" />
    <sodipodi:guide
       position="1000,938"
       orientation="1,0"
       id="guide4950"
       inkscape:locked="false" />
    <sodipodi:guide
       position="1000,1000"
       orientation="0,1"
       id="guide7104"
       inkscape:locked="false"
       inkscape:label=""
       inkscape:color="rgb(0,0,255)" />
    <sodipodi:guide
       position="0,800"
       orientation="0,1"
       id="guide7108"
       inkscape:locked="false"
       inkscape:label=""
       inkscape:color="rgb(0,0,255)" />
    <sodipodi:guide
       position="0,800"
       orientation="1,0"
       id="guide7110"
       inkscape:locked="false"
       inkscape:label=""
       inkscape:color="rgb(0,0,255)" />
    <sodipodi:guide
       position="200,1000"
       orientation="1,0"
       id="guide7112"
       inkscape:locked="false"
       inkscape:label=""
       inkscape:color="rgb(0,0,255)" />
    <sodipodi:guide
       position="800,800"
       orientation="1,0"
       id="guide7141"
       inkscape:locked="false"
       inkscape:label=""
       inkscape:color="rgb(0,0,255)" />
    <sodipodi:guide
       position="500,500"
       orientation="0,1"
       id="guide7747"
       inkscape:locked="false"
       inkscape:label=""
       inkscape:color="rgb(0,0,255)" />
    <sodipodi:guide
       position="500,500"
       orientation="1,0"
       id="guide7749"
       inkscape:locked="false"
       inkscape:label=""
       inkscape:color="rgb(0,0,255)" />
    <sodipodi:guide
       position="200,800"
       orientation="0,1"
       id="guide7908"
       inkscape:locked="false" />
  </sodipodi:namedview>
  <defs
     id="defs4" />
  <metadata
     id="metadata7">
    <rdf:RDF>
      <cc:Work
         rdf:about="">
        <dc:format>image/svg+xml</dc:format>
        <dc:type
           rdf:resource="http://purl.org/dc/dcmitype/StillImage" />
        <dc:title></dc:title>
      </cc:Work>
    </rdf:RDF>
  </metadata>
  <g
     style="display:inline"
     inkscape:label="Kreis Kopie 5 Kopie"
     inkscape:groupmode="layer"
     id="g3353">
    <path
       inkscape:connector-curvature="0"
       id="path3351"
       d="M 1000.0081,496.81482 C 1014.3442,821.00133 661.75733,1083.6881 355.25164,978.67807 41.526678,896.82374 -106.42984,482.72927 84.815905,220.76201 255.78908,-54.9005 695.05439,-73.830678 889.13118,186.07417 959.58309,272.91167 999.32366,383.92652 1000,495.7327"
       style="fill:#ff3838;fill-opacity:1;stroke:#ff3838;stroke-width:1.00024152;stroke-opacity:1" />
  </g>
  <g
     inkscape:groupmode="layer"
     id="layer55"
     inkscape:label="Schere stein papier">
    <g
       inkscape:groupmode="layer"
       id="layer56"
       inkscape:label="hand1">
      <g
         id="g3768"
         transform="matrix(0.61328125,0,0,0.61328125,137.05486,194)">
        <g
           id="g3708"
           transform="translate(-1)">
          <path
             id="path3698"
             d="m 140.636,307.2 c -25.135,17.687 -27.927,34.444 -27.927,65.164 v 0 c 0,43.753 37.236,74.473 37.236,74.473 v 0 37.236 c 0,15.825 12.102,27.927 27.927,27.927 h 168.495 c 15.825,0 26.996,-12.102 26.996,-27.927 v -37.236 0 c 26.996,-36.305 27.927,-44.684 27.927,-111.709 0,-39.098 -12.102,-84.713 -12.102,-84.713 v -0.931 c 5.585,-16.756 -3.724,-35.375 -20.48,-40.96 -16.756,-5.585 -35.375,3.724 -40.96,20.48 l 6.516,-18.618 c 5.585,-16.756 -2.793,-34.444 -19.549,-40.029 l -1.862,-0.931 c -16.756,-5.585 -34.444,2.793 -40.029,19.549 l -3.724,10.24 28.858,-153.6 C 299.82,35.375 298.889,24.204 293.303,15.826 287.72,6.516 278.411,0 268.171,0 v 0 c -17.687,0 -30.72,20.48 -33.513,37.236 L 206.731,214.109 177.873,46.545 C 173.218,26.065 163.909,9.309 146.222,9.309 c -11.171,0 -20.48,6.516 -26.996,15.825 -5.585,8.378 -6.516,18.618 -5.585,28.858 l 26.996,178.735 12.102,64.233 z"
             style="fill:#fdc794"
             inkscape:connector-curvature="0" />
          <g
             id="g3706">
            <path
               id="path3700"
               d="m 324.956,377.949 c -4.655,0 -9.309,-0.931 -13.964,-1.862 -10.24,-3.724 -18.618,-11.171 -24.204,-21.411 -4.655,-10.24 -5.585,-21.411 -1.862,-31.651 l 33.513,-96.815 c 3.724,-10.24 11.171,-18.618 21.411,-24.204 10.24,-4.655 21.411,-5.585 31.651,-1.862 10.24,3.724 18.618,11.171 24.204,21.411 5.585,10.24 5.585,21.411 1.862,31.651 l -33.513,96.815 c -3.724,10.24 -11.171,18.618 -21.411,24.204 -4.654,1.862 -11.17,3.724 -17.687,3.724 z m 33.513,-161.978 c -3.724,0 -7.447,0.931 -10.24,2.793 -5.585,2.793 -10.24,7.447 -12.102,13.033 l -33.513,96.815 c -1.862,5.585 -1.862,12.102 0.931,17.687 2.793,5.585 7.447,10.24 13.033,12.102 v 0 c 5.585,1.862 12.102,1.862 17.687,-0.931 5.585,-2.793 10.24,-7.447 12.102,-13.033 l 33.513,-96.815 c 1.862,-5.585 1.862,-12.102 -0.931,-17.687 -2.793,-5.585 -7.447,-10.24 -13.033,-12.102 -2.792,-1.862 -4.654,-1.862 -7.447,-1.862 z"
               style="fill:#f9a671"
               inkscape:connector-curvature="0" />
            <path
               id="path3702"
               d="m 179.735,375.156 c -3.724,0 -7.447,-1.862 -8.378,-5.585 -1.862,-4.655 0,-10.24 4.655,-12.102 22.342,-9.309 81.92,-59.578 94.022,-89.367 2.793,-8.378 0.931,-18.618 -4.655,-23.273 -7.447,-5.585 -19.549,-3.724 -34.444,6.516 -14.895,10.24 -53.062,39.098 -84.713,63.302 -3.724,2.793 -10.24,2.793 -13.033,-1.862 -2.793,-3.724 -2.793,-10.24 1.862,-13.033 28.858,-22.342 68.887,-53.062 85.644,-64.233 30.72,-20.48 49.338,-11.171 55.855,-5.585 12.102,10.24 16.756,27.927 10.24,44.684 -13.964,35.375 -78.196,88.436 -103.331,99.607 -1.863,0.931 -2.794,0.931 -3.724,0.931 z"
               style="fill:#f9a671"
               inkscape:connector-curvature="0" />
            <path
               id="path3704"
               d="m 267.24,348.16 c -4.655,0 -9.309,-0.931 -13.033,-1.862 l -1.862,-0.931 c -6.516,-2.793 -13.033,-6.516 -17.687,-13.033 -2.793,-3.724 -2.793,-8.378 0,-12.102 17.687,-21.411 30.72,-40.96 35.375,-52.131 4.655,-11.171 -2.793,-28.858 -13.964,-33.513 -4.655,-1.862 -6.516,-6.516 -4.655,-11.171 l 13.033,-37.236 c 7.447,-21.411 30.72,-32.582 52.131,-25.135 l 1.862,0.931 c 10.24,3.724 18.618,11.171 23.273,20.48 4.655,10.24 5.585,21.411 1.862,31.651 l -37.236,107.055 c -6.517,15.826 -22.343,26.997 -39.099,26.997 z m -13.033,-22.342 c 0.931,0.931 2.793,1.862 3.724,1.862 l 1.862,0.931 c 12.102,3.724 24.204,-1.862 28.858,-13.964 l 37.236,-107.055 c 1.862,-5.585 1.862,-12.102 -0.931,-16.756 -2.793,-5.585 -7.447,-9.309 -13.033,-11.171 v 0 l -1.862,-0.931 c -12.102,-3.724 -24.204,1.862 -28.858,13.964 l -10.24,29.789 c 14.895,12.102 23.273,35.375 15.825,53.062 -4.653,12.102 -16.755,29.789 -32.581,50.269 z"
               style="fill:#f9a671"
               inkscape:connector-curvature="0" />
          </g>
        </g>
        <g
           id="g3710" />
        <g
           id="g3712" />
        <g
           id="g3714" />
        <g
           id="g3716" />
        <g
           id="g3718" />
        <g
           id="g3720" />
        <g
           id="g3722" />
        <g
           id="g3724" />
        <g
           id="g3726" />
        <g
           id="g3728" />
        <g
           id="g3730" />
        <g
           id="g3732" />
        <g
           id="g3734" />
        <g
           id="g3736" />
        <g
           id="g3738" />
      </g>
    </g>
    <g
       inkscape:groupmode="layer"
       id="layer57"
       inkscape:label="hand2">
      <g
         style="display:inline"
         id="g3665"
         transform="matrix(0.640625,0,0,0.640625,522.42795,176)">
        <g
           id="g3596"
           transform="translate(-1)">
          <path
             id="path3568"
             d="m 402.635,450.207 c 28.248,-37.959 26.483,-36.193 26.483,-123.586 V 145.655 c 0,-16.772 -14.124,-30.897 -30.897,-30.897 -16.773,0 -30.897,14.124 -30.897,30.897 V 256 48.552 c 0,-16.772 -14.124,-30.897 -30.897,-30.897 -16.772,0 -30.897,14.124 -30.897,30.897 V 238.345 30.897 C 305.532,14.124 291.408,0 274.635,0 257.862,0 243.738,14.124 243.738,30.897 V 229.518 66.207 c 0,-16.772 -14.124,-30.897 -30.897,-30.897 -16.773,0 -30.897,14.124 -30.897,30.897 v 216.276 c 0,-24.717 -21.186,-74.152 -44.138,-97.103 v 0 c -19.421,-19.421 -74.152,-6.179 -44.138,35.31 21.186,29.131 35.31,90.924 35.31,123.586 0,78.566 61.793,105.931 61.793,105.931 v 35.31 c 0,15.007 11.476,26.483 26.483,26.483 h 158.897 c 15.007,0 26.483,-11.476 26.483,-26.483 v -35.31 z"
             style="fill:#fdc794"
             inkscape:connector-curvature="0" />
          <g
             id="g3594">
            <path
               id="path3570"
               d="M 216.373,459.034 H 189.89 c -5.297,0 -8.828,-3.531 -8.828,-8.828 0,-5.297 3.531,-8.828 8.828,-8.828 h 26.483 c 5.297,0 8.828,3.531 8.828,8.828 0,5.297 -3.531,8.828 -8.828,8.828 z"
               style="fill:#f9a671"
               inkscape:connector-curvature="0" />
            <path
               id="path3572"
               d="M 401.753,459.034 H 384.98 c -5.297,0 -8.828,-3.531 -8.828,-8.828 0,-5.297 3.531,-8.828 8.828,-8.828 h 16.772 c 5.297,0 8.828,3.531 8.828,8.828 0,5.297 -3.531,8.828 -8.827,8.828 z"
               style="fill:#f9a671"
               inkscape:connector-curvature="0" />
            <path
               id="path3574"
               d="m 208.428,326.621 c -19.421,0 -35.31,-19.421 -35.31,-44.138 0,-5.297 3.531,-8.828 8.828,-8.828 5.297,0 8.828,3.531 8.828,8.828 0,14.124 7.945,26.483 17.655,26.483 5.297,0 8.828,3.531 8.828,8.828 0,5.297 -4.415,8.827 -8.829,8.827 z"
               style="fill:#f9a671"
               inkscape:connector-curvature="0" />
            <path
               id="path3576"
               d="m 234.911,256 c -5.297,0 -8.828,-3.531 -8.828,-8.828 0,-4.414 2.648,-7.945 7.062,-8.828 0.883,-0.883 1.766,-4.414 1.766,-8.828 0,-5.297 3.531,-8.828 8.828,-8.828 5.297,0 8.828,3.531 8.828,8.828 C 252.566,244.524 245.504,256 234.911,256 Z"
               style="fill:#f9a671"
               inkscape:connector-curvature="0" />
            <path
               id="path3578"
               d="m 252.566,256 c -10.593,0 -17.655,-11.476 -17.655,-26.483 0,-5.297 3.531,-8.828 8.828,-8.828 5.297,0 8.828,3.531 8.828,8.828 0,4.414 0.883,7.945 1.766,8.828 3.531,0.883 7.062,4.414 7.062,8.828 -10e-4,5.296 -4.415,8.827 -8.829,8.827 z m 2.649,-16.772 z"
               style="fill:#f9a671"
               inkscape:connector-curvature="0" />
            <path
               id="path3580"
               d="m 296.704,264.828 c -5.297,0 -8.828,-3.531 -8.828,-8.828 0,-4.414 2.648,-7.945 7.062,-8.828 0.883,-0.883 1.766,-4.414 1.766,-8.828 0,-5.297 3.531,-8.828 8.828,-8.828 5.297,0 8.828,3.531 8.828,8.828 0,15.008 -7.063,26.484 -17.656,26.484 z"
               style="fill:#f9a671"
               inkscape:connector-curvature="0" />
            <path
               id="path3582"
               d="m 314.36,264.828 c -10.593,0 -17.655,-11.476 -17.655,-26.483 0,-5.297 3.531,-8.828 8.828,-8.828 5.297,0 8.828,3.531 8.828,8.828 0,4.414 0.883,7.945 1.766,8.828 3.531,0.883 7.062,4.414 7.062,8.828 -0.002,5.296 -4.416,8.827 -8.829,8.827 z m 2.648,-16.773 z"
               style="fill:#f9a671"
               inkscape:connector-curvature="0" />
            <path
               id="path3584"
               d="m 358.497,282.483 c -5.297,0 -8.828,-3.531 -8.828,-8.828 0,-4.414 2.648,-7.945 7.062,-8.828 0.883,-0.883 1.766,-4.414 1.766,-8.828 0,-5.297 3.531,-8.828 8.828,-8.828 5.297,0 8.828,3.531 8.828,8.828 0,15.008 -7.062,26.484 -17.656,26.484 z"
               style="fill:#f9a671"
               inkscape:connector-curvature="0" />
            <path
               id="path3586"
               d="m 376.153,282.483 c -10.593,0 -17.655,-11.476 -17.655,-26.483 0,-5.297 3.531,-8.828 8.828,-8.828 5.297,0 8.828,3.531 8.828,8.828 0,4.414 0.883,7.945 1.766,8.828 3.531,0.883 7.062,4.414 7.062,8.828 -0.002,5.296 -4.416,8.827 -8.829,8.827 z m 2.648,-16.773 z"
               style="fill:#f9a671"
               inkscape:connector-curvature="0" />
            <path
               id="path3588"
               d="m 243.739,238.345 c -5.297,0 -8.828,-3.531 -8.828,-8.828 V 61.793 c 0,-5.297 3.531,-8.828 8.828,-8.828 5.297,0 8.828,3.531 8.828,8.828 v 167.724 c -0.001,5.297 -3.532,8.828 -8.828,8.828 z"
               style="fill:#f9a671"
               inkscape:connector-curvature="0" />
            <path
               id="path3590"
               d="m 305.532,238.345 c -5.297,0 -8.828,-3.531 -8.828,-8.828 V 44.138 c 0,-5.297 3.531,-8.828 8.828,-8.828 5.297,0 8.828,3.531 8.828,8.828 v 185.379 c 0,5.297 -3.532,8.828 -8.828,8.828 z"
               style="fill:#f9a671"
               inkscape:connector-curvature="0" />
            <path
               id="path3592"
               d="m 367.325,264.828 c -5.297,0 -8.828,-3.531 -8.828,-8.828 V 123.586 c 0,-5.297 3.531,-8.828 8.828,-8.828 5.297,0 8.828,3.531 8.828,8.828 V 256 c 0,5.297 -3.531,8.828 -8.828,8.828 z"
               style="fill:#f9a671"
               inkscape:connector-curvature="0" />
          </g>
        </g>
        <g
           id="g3598" />
        <g
           id="g3600" />
        <g
           id="g3602" />
        <g
           id="g3604" />
        <g
           id="g3606" />
        <g
           id="g3608" />
        <g
           id="g3610" />
        <g
           id="g3612" />
        <g
           id="g3614" />
        <g
           id="g3616" />
        <g
           id="g3618" />
        <g
           id="g3620" />
        <g
           id="g3622" />
        <g
           id="g3624" />
        <g
           id="g3626" />
      </g>
    </g>
    <g
       inkscape:groupmode="layer"
       id="layer58"
       inkscape:label="hand3">
      <g
         id="g3436"
         transform="matrix(0.66015691,0,0,0.66015691,326.77962,533.9995)">
        <g
           id="g3373"
           transform="translate(0,1)">
          <path
             id="path3357"
             d="m 429.559,104.003 c -1.736,-19.959 -19.092,-35.58 -39.051,-35.58 -17.356,0 -32.108,11.281 -37.315,26.902 h -1.736 V 72.763 c 0,-21.695 -17.356,-39.051 -39.051,-39.051 -21.695,0 -39.051,17.356 -39.051,39.051 V 46.729 c 0,-21.695 -17.356,-39.051 -39.051,-39.051 -21.695,0 -39.051,17.356 -39.051,39.051 v 17.356 c 0,-21.695 -17.356,-39.051 -39.051,-39.051 -21.695,0 -39.051,17.356 -39.051,39.051 v 3.471 122.359 c 0,16.488 -43.39,43.39 -43.39,90.251 v 39.919 0 c 0,88.515 52.068,112.814 52.068,112.814 v 43.39 c 0,19.092 15.62,34.712 34.712,34.712 h 199.593 c 17.356,0 26.034,-15.62 26.034,-32.976 V 432.9 c 33.844,-45.125 43.39,-39.051 43.39,-142.319 v -113.683 -69.424 -3.471 z"
             style="fill:#fdc794"
             inkscape:connector-curvature="0" />
          <g
             id="g3371">
            <path
               id="path3359"
               d="m 160.542,458.932 c -1.736,0 -4.339,-0.868 -6.075,-2.603 0,0 -8.678,-7.81 -24.298,-16.488 -4.339,-1.736 -5.207,-6.942 -3.471,-11.281 2.603,-4.339 7.81,-5.207 12.149,-3.471 17.356,9.546 26.902,18.224 27.769,18.224 3.471,3.471 3.471,8.678 0.868,12.149 -2.603,2.602 -4.338,3.47 -6.942,3.47 z"
               style="fill:#f9a671"
               inkscape:connector-curvature="0" />
            <path
               id="path3361"
               d="m 377.492,441.576 h -17.356 c -5.207,0 -8.678,-3.471 -8.678,-8.678 0,-5.207 3.471,-8.678 8.678,-8.678 h 17.356 c 5.207,0 8.678,3.471 8.678,8.678 -0.001,5.207 -3.472,8.678 -8.678,8.678 z"
               style="fill:#f9a671"
               inkscape:connector-curvature="0" />
            <path
               id="path3363"
               d="m 143.186,276.695 c -3.471,0 -6.942,-2.603 -8.678,-6.075 -0.868,-4.339 1.736,-9.546 6.075,-10.414 23.43,-6.075 56.407,-37.315 76.366,-72.895 6.942,-12.149 1.736,-33.844 -9.546,-41.654 -10.414,-6.942 -21.695,2.603 -29.505,12.149 -15.62,19.092 -34.712,35.58 -56.407,48.597 -4.339,1.736 -9.546,0.868 -12.149,-3.471 -1.736,-4.339 -0.868,-9.546 3.471,-12.149 19.959,-12.149 37.315,-26.902 51.2,-44.258 25.166,-31.241 46.861,-19.959 52.936,-15.62 19.092,13.017 26.034,45.125 14.753,64.217 -19.092,33.844 -54.671,72.027 -86.78,80.705 0,0.868 -0.868,0.868 -1.736,0.868 z"
               style="fill:#f9a671"
               inkscape:connector-curvature="0" />
            <path
               id="path3365"
               d="m 312.407,233.305 c -26.034,0 -47.729,-21.695 -47.729,-47.729 V 72.763 c 0,-26.034 21.695,-47.729 47.729,-47.729 26.034,0 47.729,21.695 47.729,47.729 v 112.814 c 0,26.033 -21.695,47.728 -47.729,47.728 z m 0,-190.915 c -16.488,0 -30.373,13.885 -30.373,30.373 v 112.814 c 0,16.488 13.885,30.373 30.373,30.373 16.488,0 30.373,-13.885 30.373,-30.373 V 72.763 c 0,-16.488 -13.885,-30.373 -30.373,-30.373 z"
               style="fill:#f9a671"
               inkscape:connector-curvature="0" />
            <path
               id="path3367"
               d="m 390.508,224.627 c -26.034,0 -47.729,-21.695 -47.729,-47.729 v -69.424 c 0,-26.034 21.695,-47.729 47.729,-47.729 26.034,0 47.729,21.695 47.729,47.729 v 69.424 c 0,26.034 -21.695,47.729 -47.729,47.729 z m 0,-147.525 c -16.488,0 -30.373,13.885 -30.373,30.373 v 69.424 c 0,16.488 13.885,30.373 30.373,30.373 16.488,0 30.373,-13.885 30.373,-30.373 v -69.424 c 0,-16.489 -13.884,-30.373 -30.373,-30.373 z"
               style="fill:#f9a671"
               inkscape:connector-curvature="0" />
            <path
               id="path3369"
               d="m 233.437,241.983 c -13.017,0 -26.902,0 -36.447,-12.149 -2.603,-3.471 -2.603,-7.81 0,-11.281 6.075,-6.075 11.281,-16.488 16.488,-25.166 0.868,-2.603 2.603,-4.339 3.471,-6.942 5.207,-9.546 3.471,-25.166 -4.339,-35.58 -3.471,-4.339 -8.678,-9.546 -16.488,-8.678 -2.603,0.868 -5.207,0 -6.942,-1.736 -1.736,-1.736 -3.471,-4.339 -3.471,-6.942 V 46.729 C 185.708,20.695 207.403,-1 233.437,-1 c 26.034,0 47.729,21.695 47.729,47.729 v 147.525 c 0.868,26.902 -20.827,47.729 -47.729,47.729 z m -17.356,-19.091 c 4.339,1.736 9.546,1.736 17.356,1.736 17.356,0 31.241,-13.885 31.241,-30.373 V 46.729 c 0,-16.488 -13.885,-30.373 -30.373,-30.373 -16.488,0 -30.373,13.885 -30.373,30.373 v 78.969 c 8.678,1.736 17.356,6.942 23.431,15.62 11.281,16.488 13.885,39.051 5.207,53.803 -0.868,1.736 -2.603,4.339 -3.471,6.075 -3.472,6.943 -7.811,14.753 -13.018,21.696 z"
               style="fill:#f9a671"
               inkscape:connector-curvature="0" />
          </g>
        </g>
        <g
           id="g3375" />
        <g
           id="g3377" />
        <g
           id="g3379" />
        <g
           id="g3381" />
        <g
           id="g3383" />
        <g
           id="g3385" />
        <g
           id="g3387" />
        <g
           id="g3389" />
        <g
           id="g3391" />
        <g
           id="g3393" />
        <g
           id="g3395" />
        <g
           id="g3397" />
        <g
           id="g3399" />
        <g
           id="g3401" />
        <g
           id="g3403" />
      </g>
    </g>
  </g>
</svg>
